<?xml version="1.0" encoding="UTF-8" standalone="no"?>
<!DOCTYPE svg PUBLIC "-//W3C//DTD SVG 1.1//EN"
 "http://www.w3.org/Graphics/SVG/1.1/DTD/svg11.dtd">
<!-- Generated by graphviz version 2.40.1 (20161225.0304)
 -->
<!-- Pages: 1 -->
<svg width="1361pt" height="810pt"
 viewBox="0.00 0.00 1361.21 810.00" xmlns="http://www.w3.org/2000/svg" xmlns:xlink="http://www.w3.org/1999/xlink">
<g id="RootGraph" class="graph" transform="scale(.4264 .4264) rotate(0) translate(216 1683.7194)">
<polygon fill="#ffffff" stroke="transparent" points="-216,216 -216,-1683.7194 2976.5,-1683.7194 2976.5,216 -216,216"/>
<text text-anchor="middle" x="611.432" y="-1355.7194" font-family="Arial" font-size="120.00" fill="#000000">Task Lineage Diagram</text>
<g id="lv3" class="cluster">
<title>cluster_lv3</title>
</g>
<g id="lv1" class="cluster">
<title>cluster_lv1</title>
</g>
<g id="lv0" class="cluster">
<title>cluster_lv0</title>
</g>
<g id="lv2" class="cluster">
<title>cluster_lv2</title>
</g>
<!-- social_media_discussions&#45;&gt;customer_sentiment_analysis -->
<g id="edge46" class="edge">
<title>social_media_discussions&#45;&gt;customer_sentiment_analysis</title>
<g id="a_edge46"><a xlink:title="social_media_discussions&#45;&gt;customer_sentiment_analysis">
<path fill="none" stroke="#000000" d="M910.3211,-1208.2128C994.0339,-1211.2714 1107.8132,-1215.3584 1208.11,-1218.7194 1411.2157,-1225.5255 1645.8735,-1232.748 1794.5744,-1237.2451"/>
<polygon fill="#000000" stroke="#000000" points="1794.5857,-1240.7469 1804.6869,-1237.5507 1794.7972,-1233.7501 1794.5857,-1240.7469"/>
</a>
</g>
</g>
<!-- social_media_discussions&#45;&gt;social_media_sentiment_analysis -->
<g id="edge48" class="edge">
<title>social_media_discussions&#45;&gt;social_media_sentiment_analysis</title>
<g id="a_edge48"><a xlink:title="social_media_discussions&#45;&gt;social_media_sentiment_analysis">
<path fill="none" stroke="#000000" d="M910.1401,-1201.1745C993.8807,-1199.4189 1106.1782,-1197.0646 1197.7648,-1195.1444"/>
<polygon fill="#000000" stroke="#000000" points="1198.0505,-1198.6393 1207.9749,-1194.9304 1197.9037,-1191.6409 1198.0505,-1198.6393"/>
</a>
</g>
</g>
<!-- sales_data_import&#45;&gt;sales_data_cleansing -->
<g id="edge66" class="edge">
<title>sales_data_import&#45;&gt;sales_data_cleansing</title>
<g id="a_edge66"><a xlink:title="sales_data_import&#45;&gt;sales_data_cleansing">
<path fill="none" stroke="#000000" d="M285.5001,-525.5454C315.0941,-521.4738 348.0359,-515.4765 377.396,-506.7194 504.8892,-468.6926 519.4268,-410.1542 649.396,-381.7194 766.9332,-356.0045 802.3058,-357.2567 920.11,-381.7194 1056.7319,-410.0898 1074.4829,-466.542 1208.11,-506.7194 1220.4621,-510.4333 1233.538,-513.7017 1246.6365,-516.5615"/>
<polygon fill="#000000" stroke="#000000" points="1246.1391,-520.0335 1256.6458,-518.6694 1247.5817,-513.1837 1246.1391,-520.0335"/>
</a>
</g>
</g>
<!-- sales_data_import&#45;&gt;transaction_data_cleansing -->
<g id="edge53" class="edge">
<title>sales_data_import&#45;&gt;transaction_data_cleansing</title>
<g id="a_edge53"><a xlink:title="sales_data_import&#45;&gt;transaction_data_cleansing">
<path fill="none" stroke="#000000" d="M285.6767,-533.7194C381.2238,-533.7194 535.0428,-533.7194 647.4706,-533.7194"/>
<polygon fill="#000000" stroke="#000000" points="647.5343,-537.2195 657.5343,-533.7194 647.5343,-530.2195 647.5343,-537.2195"/>
</a>
</g>
</g>
<!-- sales_data_cleansing&#45;&gt;sales_forecast -->
<g id="edge64" class="edge">
<title>sales_data_cleansing&#45;&gt;sales_forecast</title>
<g id="a_edge64"><a xlink:title="sales_data_cleansing&#45;&gt;sales_forecast">
<path fill="none" stroke="#000000" d="M1465.4459,-538.479C1482.9288,-542.9522 1499.9708,-549.959 1514.156,-560.7194 1749.82,-739.4863 1567.6916,-980.3821 1802.156,-1160.7194 1818.4714,-1173.2683 1838.9113,-1180.5462 1859.1543,-1184.6429"/>
<polygon fill="#000000" stroke="#000000" points="1858.598,-1188.0988 1869.057,-1186.4076 1859.8262,-1181.2074 1858.598,-1188.0988"/>
</a>
</g>
</g>
<!-- sensor_gyroscope&#45;&gt;fleet_optimization_model -->
<g id="edge10" class="edge">
<title>sensor_gyroscope&#45;&gt;fleet_optimization_model</title>
<g id="a_edge10"><a xlink:title="sensor_gyroscope&#45;&gt;fleet_optimization_model">
<path fill="none" stroke="#000000" d="M869.0297,-702.7453C886.7945,-706.8126 904.8527,-713.0873 920.11,-722.7194 1099.6021,-836.0348 1028.1025,-991.2246 1208.11,-1103.7194 1215.8654,-1108.5661 1224.2386,-1112.6561 1232.9316,-1116.1047"/>
<polygon fill="#000000" stroke="#000000" points="1231.8819,-1119.4475 1242.4757,-1119.6004 1234.2895,-1112.8746 1231.8819,-1119.4475"/>
</a>
</g>
</g>
<!-- dmv_record_fetch&#45;&gt;vehicle_profile -->
<g id="edge35" class="edge">
<title>dmv_record_fetch&#45;&gt;vehicle_profile</title>
<g id="a_edge35"><a xlink:title="dmv_record_fetch&#45;&gt;vehicle_profile">
<path fill="none" stroke="#000000" d="M290.5242,-384.859C318.4944,-389.0307 349.2311,-393.8357 377.396,-398.7194 492.141,-418.6157 624.1367,-445.2813 707.0002,-462.4832"/>
<polygon fill="#000000" stroke="#000000" points="706.3543,-465.9237 716.8575,-464.533 707.7795,-459.0703 706.3543,-465.9237"/>
</a>
</g>
</g>
<!-- dmv_record_fetch&#45;&gt;customer_profile -->
<g id="edge56" class="edge">
<title>dmv_record_fetch&#45;&gt;customer_profile</title>
<g id="a_edge56"><a xlink:title="dmv_record_fetch&#45;&gt;customer_profile">
<path fill="none" stroke="#000000" d="M290.6074,-359.0418C318.5802,-354.8845 349.2974,-349.9715 377.396,-344.7194 615.9889,-300.1223 685.4698,-221.5953 920.11,-283.7194 1062.502,-321.4196 1070.3528,-395.5684 1208.11,-447.7194 1227.1969,-454.9452 1248.2735,-460.687 1268.5242,-465.1932"/>
<polygon fill="#000000" stroke="#000000" points="1267.8753,-468.6335 1278.3867,-467.3071 1269.3424,-461.789 1267.8753,-468.6335"/>
</a>
</g>
</g>
<!-- transaction_logs_import&#45;&gt;transaction_data_cleansing -->
<g id="edge54" class="edge">
<title>transaction_logs_import&#45;&gt;transaction_data_cleansing</title>
<g id="a_edge54"><a xlink:title="transaction_logs_import&#45;&gt;transaction_data_cleansing">
<path fill="none" stroke="#000000" d="M313.2655,-625.1641C334.62,-621.878 356.703,-618.3241 377.396,-614.7194 498.8157,-593.5682 528.4522,-584.441 649.396,-560.7194 661.0152,-558.4405 673.1818,-556.0659 685.281,-553.7118"/>
<polygon fill="#000000" stroke="#000000" points="686.2667,-557.0858 695.415,-551.7418 684.9309,-550.2144 686.2667,-557.0858"/>
</a>
</g>
</g>
<!-- fleet_optimization_model&#45;&gt;kpi_benchmarking -->
<g id="edge20" class="edge">
<title>fleet_optimization_model&#45;&gt;kpi_benchmarking</title>
<g id="a_edge20"><a xlink:title="fleet_optimization_model&#45;&gt;kpi_benchmarking">
<path fill="none" stroke="#000000" d="M1461.2383,-1151.7997C1478.9751,-1155.627 1497.1905,-1159.9654 1514.156,-1164.7194 1645.1984,-1201.4396 1668.1037,-1245.257 1802.156,-1268.7194 1926.4138,-1290.4676 1960.0428,-1275.8814 2085.986,-1268.7194 2214.9662,-1261.3847 2362.7662,-1242.8926 2458.3854,-1229.592"/>
<polygon fill="#000000" stroke="#000000" points="2458.9191,-1233.0515 2468.3379,-1228.2001 2457.9495,-1226.1189 2458.9191,-1233.0515"/>
</a>
</g>
</g>
<!-- fleet_optimization_model&#45;&gt;fleet_dashboard -->
<g id="edge40" class="edge">
<title>fleet_optimization_model&#45;&gt;fleet_dashboard</title>
<g id="a_edge40"><a xlink:title="fleet_optimization_model&#45;&gt;fleet_dashboard">
<path fill="none" stroke="#000000" d="M1453.3656,-1115.6836C1693.1449,-1068.814 2320.6852,-946.274 2365.986,-938.7194 2391.6905,-934.4328 2419.3965,-930.2845 2445.5803,-926.5784"/>
<polygon fill="#000000" stroke="#000000" points="2446.1177,-930.0374 2455.5336,-925.1803 2445.1439,-923.1054 2446.1177,-930.0374"/>
</a>
</g>
</g>
<!-- fleet_optimization_model&#45;&gt;predictive_maintenance_model -->
<g id="edge60" class="edge">
<title>fleet_optimization_model&#45;&gt;predictive_maintenance_model</title>
<g id="a_edge60"><a xlink:title="fleet_optimization_model&#45;&gt;predictive_maintenance_model">
<path fill="none" stroke="#000000" d="M1479.8018,-1133.7194C1569.907,-1133.7194 1694.4951,-1133.7194 1791.9248,-1133.7194"/>
<polygon fill="#000000" stroke="#000000" points="1792.1639,-1137.2195 1802.1639,-1133.7194 1792.1639,-1130.2195 1792.1639,-1137.2195"/>
</a>
</g>
</g>
<!-- sensor_bms&#45;&gt;fleet_optimization_model -->
<g id="edge7" class="edge">
<title>sensor_bms&#45;&gt;fleet_optimization_model</title>
<g id="a_edge7"><a xlink:title="sensor_bms&#45;&gt;fleet_optimization_model">
<path fill="none" stroke="#000000" d="M842.6293,-588.8704C868.1062,-591.7581 897.7608,-598.7428 920.11,-614.7194 1125.2987,-761.4006 1002.2539,-957.9764 1208.11,-1103.7194 1215.8174,-1109.1762 1224.2656,-1113.7028 1233.1096,-1117.4516"/>
<polygon fill="#000000" stroke="#000000" points="1231.866,-1120.7233 1242.4547,-1121.083 1234.4014,-1114.1985 1231.866,-1120.7233"/>
</a>
</g>
</g>
<!-- sensor_bms&#45;&gt;sensor_temperature -->
<g id="edge31" class="edge">
<title>sensor_bms&#45;&gt;sensor_temperature</title>
<g id="a_edge31"><a xlink:title="sensor_bms&#45;&gt;sensor_temperature">
<path fill="none" stroke="#000000" d="M842.3439,-587.7194C938.1017,-587.7194 1139.9317,-587.7194 1261.6976,-587.7194"/>
<polygon fill="#000000" stroke="#000000" points="1261.7731,-591.2195 1271.7731,-587.7194 1261.773,-584.2195 1261.7731,-591.2195"/>
</a>
</g>
</g>
<!-- sensor_motor&#45;&gt;fleet_optimization_model -->
<g id="edge2" class="edge">
<title>sensor_motor&#45;&gt;fleet_optimization_model</title>
<g id="a_edge2"><a xlink:title="sensor_motor&#45;&gt;fleet_optimization_model">
<path fill="none" stroke="#000000" d="M846.1752,-643.8773C870.663,-647.1246 898.5061,-654.1178 920.11,-668.7194 1112.2134,-798.5581 1015.416,-974.759 1208.11,-1103.7194 1215.7929,-1108.8612 1224.149,-1113.165 1232.8619,-1116.763"/>
<polygon fill="#000000" stroke="#000000" points="1231.8501,-1120.1225 1242.4414,-1120.3964 1234.3326,-1113.5774 1231.8501,-1120.1225"/>
</a>
</g>
</g>
<!-- sensor_motor&#45;&gt;sensor_temperature -->
<g id="edge32" class="edge">
<title>sensor_motor&#45;&gt;sensor_temperature</title>
<g id="a_edge32"><a xlink:title="sensor_motor&#45;&gt;sensor_temperature">
<path fill="none" stroke="#000000" d="M846.2557,-636.2944C943.4941,-627.1207 1141.5256,-608.4378 1261.6612,-597.1039"/>
<polygon fill="#000000" stroke="#000000" points="1262.3355,-600.5559 1271.9625,-596.132 1261.678,-593.5868 1262.3355,-600.5559"/>
</a>
</g>
</g>
<!-- threads_crawler&#45;&gt;social_media_discussions -->
<g id="edge73" class="edge">
<title>threads_crawler&#45;&gt;social_media_discussions</title>
<g id="a_edge73"><a xlink:title="threads_crawler&#45;&gt;social_media_discussions">
<path fill="none" stroke="#000000" d="M279.598,-1027.1006C310.6631,-1031.1737 346.0684,-1037.3755 377.396,-1046.7194 504.8892,-1084.7462 523.4558,-1128.8287 649.396,-1171.7194 661.661,-1175.8964 674.7177,-1179.7004 687.7335,-1183.1098"/>
<polygon fill="#000000" stroke="#000000" points="687.1104,-1186.5628 697.6649,-1185.6397 688.8384,-1179.7794 687.1104,-1186.5628"/>
</a>
</g>
</g>
<!-- customer_service_logs_import&#45;&gt;sales_data_cleansing -->
<g id="edge65" class="edge">
<title>customer_service_logs_import&#45;&gt;sales_data_cleansing</title>
<g id="a_edge65"><a xlink:title="customer_service_logs_import&#45;&gt;sales_data_cleansing">
<path fill="none" stroke="#000000" d="M317.4363,-407.716C448.4883,-388.0803 641.078,-359.3327 649.396,-358.7194 769.3877,-349.873 803.1658,-330.4296 920.11,-358.7194 1059.9876,-392.5569 1071.7164,-460.8118 1208.11,-506.7194 1220.4363,-510.8682 1233.5471,-514.412 1246.7096,-517.4314"/>
<polygon fill="#000000" stroke="#000000" points="1246.2552,-520.9149 1256.773,-519.6396 1247.7556,-514.0776 1246.2552,-520.9149"/>
</a>
</g>
</g>
<!-- customer_service_logs_import&#45;&gt;customer_profile -->
<g id="edge55" class="edge">
<title>customer_service_logs_import&#45;&gt;customer_profile</title>
<g id="a_edge55"><a xlink:title="customer_service_logs_import&#45;&gt;customer_profile">
<path fill="none" stroke="#000000" d="M335.0144,-407.7025C349.3959,-405.0379 363.7405,-402.0496 377.396,-398.7194 501.5181,-368.4495 523.3656,-326.6697 649.396,-305.7194 768.0846,-285.9896 802.9347,-278.4024 920.11,-305.7194 1059.0961,-338.1211 1073.1954,-401.1891 1208.11,-447.7194 1227.4037,-454.3735 1248.5656,-459.8795 1268.8336,-464.3377"/>
<polygon fill="#000000" stroke="#000000" points="1268.1892,-467.779 1278.6994,-466.4426 1269.6498,-460.933 1268.1892,-467.779"/>
</a>
</g>
</g>
<!-- customer_service_logs_import&#45;&gt;transaction_data_cleansing -->
<g id="edge52" class="edge">
<title>customer_service_logs_import&#45;&gt;transaction_data_cleansing</title>
<g id="a_edge52"><a xlink:title="customer_service_logs_import&#45;&gt;transaction_data_cleansing">
<path fill="none" stroke="#000000" d="M322.9413,-443.7746C341.2301,-446.6308 359.8147,-449.6568 377.396,-452.7194 498.8157,-473.8706 528.4522,-482.9978 649.396,-506.7194 661.0152,-508.9984 673.1818,-511.373 685.281,-513.727"/>
<polygon fill="#000000" stroke="#000000" points="684.9309,-517.2244 695.415,-515.697 686.2667,-510.353 684.9309,-517.2244"/>
</a>
</g>
</g>
<!-- fab_pipeline_data_sync&#45;&gt;predictive_maintenance_model -->
<g id="edge58" class="edge">
<title>fab_pipeline_data_sync&#45;&gt;predictive_maintenance_model</title>
<g id="a_edge58"><a xlink:title="fab_pipeline_data_sync&#45;&gt;predictive_maintenance_model">
<path fill="none" stroke="#000000" d="M310.0016,-195.3005C592.2909,-161.5338 1321.6509,-89.8769 1514.156,-223.7194 1835.8202,-447.3621 1923.8176,-977.3117 1940.7104,-1105.4609"/>
<polygon fill="#000000" stroke="#000000" points="1937.2699,-1106.1493 1942.0103,-1115.6245 1944.2133,-1105.2612 1937.2699,-1106.1493"/>
</a>
</g>
</g>
<!-- vehicle_profile&#45;&gt;fleet_optimization_model -->
<g id="edge0" class="edge">
<title>vehicle_profile&#45;&gt;fleet_optimization_model</title>
<g id="a_edge0"><a xlink:title="vehicle_profile&#45;&gt;fleet_optimization_model">
<path fill="none" stroke="#000000" d="M860.6085,-482.5537C881.4991,-486.3626 903.2155,-493.5527 920.11,-506.7194 1152.4718,-687.81 974.924,-923.6914 1208.11,-1103.7194 1215.6646,-1109.5518 1224.0404,-1114.3468 1232.868,-1118.2794"/>
<polygon fill="#000000" stroke="#000000" points="1231.6332,-1121.5555 1242.2154,-1122.0728 1234.2656,-1115.0692 1231.6332,-1121.5555"/>
</a>
</g>
</g>
<!-- vehicle_profile&#45;&gt;maintenance_insights -->
<g id="edge23" class="edge">
<title>vehicle_profile&#45;&gt;maintenance_insights</title>
<g id="a_edge23"><a xlink:title="vehicle_profile&#45;&gt;maintenance_insights">
<path fill="none" stroke="#000000" d="M829.2491,-461.6341C996.935,-389.6607 1648.5496,-138.9849 2085.986,-381.7194 2291.6258,-495.8295 2168.7548,-702.6229 2365.986,-830.7194 2383.6453,-842.1887 2404.122,-849.6802 2425.0069,-854.4494"/>
<polygon fill="#000000" stroke="#000000" points="2424.4478,-857.9079 2434.9507,-856.5154 2425.8719,-851.0543 2424.4478,-857.9079"/>
</a>
</g>
</g>
<!-- vehicle_profile&#45;&gt;fleet_dashboard -->
<g id="edge39" class="edge">
<title>vehicle_profile&#45;&gt;fleet_dashboard</title>
<g id="a_edge39"><a xlink:title="vehicle_profile&#45;&gt;fleet_dashboard">
<path fill="none" stroke="#000000" d="M860.7994,-464.4076C992.6049,-439.1597 1280.5052,-396.8586 1514.156,-452.7194 1927.0149,-551.4249 1960.9664,-757.6197 2365.986,-884.7194 2391.2082,-892.6344 2419.0098,-898.2328 2445.4749,-902.1915"/>
<polygon fill="#000000" stroke="#000000" points="2445.1499,-905.6805 2455.5443,-903.6298 2446.1398,-898.7509 2445.1499,-905.6805"/>
</a>
</g>
</g>
<!-- kpi_benchmarking&#45;&gt;kpi_dashboard -->
<g id="edge15" class="edge">
<title>kpi_benchmarking&#45;&gt;kpi_dashboard</title>
<g id="a_edge15"><a xlink:title="kpi_benchmarking&#45;&gt;kpi_dashboard">
<path fill="none" stroke="#000000" d="M2559.243,-1196.4877C2559.243,-1165.0282 2559.243,-1133.5688 2559.243,-1102.1093"/>
<polygon fill="#000000" stroke="#000000" points="2562.7431,-1101.8952 2559.243,-1091.8952 2555.7431,-1101.8952 2562.7431,-1101.8952"/>
</a>
</g>
</g>
<!-- market_research_fetch&#45;&gt;sales_forecast -->
<g id="edge61" class="edge">
<title>market_research_fetch&#45;&gt;sales_forecast</title>
<g id="a_edge61"><a xlink:title="market_research_fetch&#45;&gt;sales_forecast">
<path fill="none" stroke="#000000" d="M322.2965,-299.7047C444.6585,-282.1893 617.3725,-257.9059 649.396,-255.7194 769.4339,-247.5237 801.2881,-236.8088 920.11,-255.7194 954.3963,-261.1761 1488.7721,-426.0342 1514.156,-449.7194 1763.4334,-682.3152 1538.5512,-944.4962 1802.156,-1160.7194 1818.237,-1173.9099 1838.7918,-1181.3878 1859.2344,-1185.4701"/>
<polygon fill="#000000" stroke="#000000" points="1858.7887,-1188.945 1869.2407,-1187.2114 1859.9889,-1182.0487 1858.7887,-1188.945"/>
</a>
</g>
</g>
<!-- sensor_humidity&#45;&gt;fleet_optimization_model -->
<g id="edge8" class="edge">
<title>sensor_humidity&#45;&gt;fleet_optimization_model</title>
<g id="a_edge8"><a xlink:title="sensor_humidity&#45;&gt;fleet_optimization_model">
<path fill="none" stroke="#000000" d="M859.5121,-1081.1368C952.4418,-1090.8782 1117.3027,-1108.1598 1232.5752,-1120.2433"/>
<polygon fill="#000000" stroke="#000000" points="1232.2145,-1123.7246 1242.525,-1121.2863 1232.9444,-1116.7627 1232.2145,-1123.7246"/>
</a>
</g>
</g>
<!-- sensor_temperature&#45;&gt;fleet_optimization_model -->
<g id="edge6" class="edge">
<title>sensor_temperature&#45;&gt;fleet_optimization_model</title>
<g id="a_edge6"><a xlink:title="sensor_temperature&#45;&gt;fleet_optimization_model">
<path fill="none" stroke="#000000" d="M1361.133,-605.8483C1361.133,-772.306 1361.133,-938.7638 1361.133,-1105.2215"/>
<polygon fill="#000000" stroke="#000000" points="1357.6331,-1105.6769 1361.133,-1115.6769 1364.6331,-1105.677 1357.6331,-1105.6769"/>
</a>
</g>
</g>
<!-- vehicle_maintenance_records_import&#45;&gt;fleet_optimization_model -->
<g id="edge13" class="edge">
<title>vehicle_maintenance_records_import&#45;&gt;fleet_optimization_model</title>
<g id="a_edge13"><a xlink:title="vehicle_maintenance_records_import&#45;&gt;fleet_optimization_model">
<path fill="none" stroke="#000000" d="M365.1704,-281.8476C369.4363,-284.5207 373.5256,-287.4697 377.396,-290.7194 669.1966,-535.7261 344.9308,-874.6412 649.396,-1103.7194 672.2385,-1120.906 1033.4127,-1128.9164 1232.2441,-1132.04"/>
<polygon fill="#000000" stroke="#000000" points="1232.4123,-1135.5429 1242.4655,-1132.1985 1232.521,-1128.5437 1232.4123,-1135.5429"/>
</a>
</g>
</g>
<!-- vehicle_maintenance_records_import&#45;&gt;maintenance_insights -->
<g id="edge25" class="edge">
<title>vehicle_maintenance_records_import&#45;&gt;maintenance_insights</title>
<g id="a_edge25"><a xlink:title="vehicle_maintenance_records_import&#45;&gt;maintenance_insights">
<path fill="none" stroke="#000000" d="M326.4431,-245.6768C343.6128,-242.8914 360.9568,-239.8814 377.396,-236.7194 499.3508,-213.2622 526.0339,-187.0371 649.396,-172.7194 967.489,-135.8008 1822.0707,-104.35 2085.986,-285.7194 2310.4176,-439.9546 2143.9569,-673.0453 2365.986,-830.7194 2383.3927,-843.0808 2403.9407,-850.9924 2425.0286,-855.8958"/>
<polygon fill="#000000" stroke="#000000" points="2424.5723,-859.3763 2435.078,-858.0049 2426.0101,-852.5255 2424.5723,-859.3763"/>
</a>
</g>
</g>
<!-- vehicle_maintenance_records_import&#45;&gt;predictive_maintenance_model -->
<g id="edge59" class="edge">
<title>vehicle_maintenance_records_import&#45;&gt;predictive_maintenance_model</title>
<g id="a_edge59"><a xlink:title="vehicle_maintenance_records_import&#45;&gt;predictive_maintenance_model">
<path fill="none" stroke="#000000" d="M319.4589,-245.6666C338.8476,-242.7243 358.676,-239.6724 377.396,-236.7194 498.4315,-217.6267 527.2754,-201.7531 649.396,-191.7194 1045.5331,-159.1719 1209.5504,-164.3777 1514.156,-419.7194 1756.9544,-623.2499 1898.9229,-1000.9455 1934.9233,-1105.9838"/>
<polygon fill="#000000" stroke="#000000" points="1931.642,-1107.2063 1938.167,-1115.5535 1938.2715,-1104.9592 1931.642,-1107.2063"/>
</a>
</g>
</g>
<!-- tire_spec_fetch&#45;&gt;sensor_tire -->
<g id="edge38" class="edge">
<title>tire_spec_fetch&#45;&gt;sensor_tire</title>
<g id="a_edge38"><a xlink:title="tire_spec_fetch&#45;&gt;sensor_tire">
<path fill="none" stroke="#000000" d="M276.1376,-808.8523C308.2296,-812.6465 345.271,-819.2448 377.396,-830.7194 509.9027,-878.049 517.9229,-942.5902 649.396,-992.7194 673.1712,-1001.7846 700.4371,-1007.9295 724.5106,-1012.035"/>
<polygon fill="#000000" stroke="#000000" points="724.1818,-1015.5273 734.6129,-1013.6723 725.3017,-1008.6175 724.1818,-1015.5273"/>
</a>
</g>
</g>
<!-- weather&#45;&gt;fleet_optimization_model -->
<g id="edge12" class="edge">
<title>weather&#45;&gt;fleet_optimization_model</title>
<g id="a_edge12"><a xlink:title="weather&#45;&gt;fleet_optimization_model">
<path fill="none" stroke="#000000" d="M243.234,-857.3069C280.938,-858.6337 334.9189,-864.4558 377.396,-884.7194 525.3201,-955.2863 496.6312,-1074.355 649.396,-1133.7194 751.9974,-1173.5903 1056.5247,-1157.9639 1232.216,-1144.7763"/>
<polygon fill="#000000" stroke="#000000" points="1232.5932,-1148.2578 1242.2998,-1144.0114 1232.0637,-1141.2779 1232.5932,-1148.2578"/>
</a>
</g>
</g>
<!-- weather&#45;&gt;sensor_humidity -->
<g id="edge29" class="edge">
<title>weather&#45;&gt;sensor_humidity</title>
<g id="a_edge29"><a xlink:title="weather&#45;&gt;sensor_humidity">
<path fill="none" stroke="#000000" d="M243.3943,-859.7132C280.4769,-862.4722 333.5216,-869.0481 377.396,-884.7194 509.9027,-932.049 517.9229,-996.5902 649.396,-1046.7194 667.9128,-1053.7796 688.547,-1059.0685 708.1413,-1063.0021"/>
<polygon fill="#000000" stroke="#000000" points="707.4889,-1066.4407 717.9685,-1064.8819 708.8041,-1059.5654 707.4889,-1066.4407"/>
</a>
</g>
</g>
<!-- weather&#45;&gt;sensor_temperature -->
<g id="edge33" class="edge">
<title>weather&#45;&gt;sensor_temperature</title>
<g id="a_edge33"><a xlink:title="weather&#45;&gt;sensor_temperature">
<path fill="none" stroke="#000000" d="M243.2869,-860.3606C281.7696,-860.4635 336.8202,-855.4853 377.396,-830.7194 554.0618,-722.8894 465.1965,-547.1051 649.396,-452.7194 756.4743,-397.8514 801.7233,-431.2518 920.11,-452.7194 1054.6204,-477.1108 1076.2393,-524.69 1208.11,-560.7194 1225.3462,-565.4286 1243.9068,-569.5085 1261.9527,-572.9693"/>
<polygon fill="#000000" stroke="#000000" points="1261.4412,-576.4342 1271.9136,-574.8284 1262.7255,-569.553 1261.4412,-576.4342"/>
</a>
</g>
</g>
<!-- sensor_data_collection&#45;&gt;sensor_gyroscope -->
<g id="edge68" class="edge">
<title>sensor_data_collection&#45;&gt;sensor_gyroscope</title>
<g id="a_edge68"><a xlink:title="sensor_data_collection&#45;&gt;sensor_gyroscope">
<path fill="none" stroke="#000000" d="M307.9971,-739.6258C420.5682,-729.3449 593.0575,-713.5918 697.9315,-704.0139"/>
<polygon fill="#000000" stroke="#000000" points="698.5384,-707.4732 708.1786,-703.0781 697.9017,-700.5022 698.5384,-707.4732"/>
</a>
</g>
</g>
<!-- sensor_data_collection&#45;&gt;sensor_bms -->
<g id="edge16" class="edge">
<title>sensor_data_collection&#45;&gt;sensor_bms</title>
<g id="a_edge16"><a xlink:title="sensor_data_collection&#45;&gt;sensor_bms">
<path fill="none" stroke="#000000" d="M307.7217,-737.2591C330.9382,-733.4999 355.1339,-728.7242 377.396,-722.7194 502.9775,-688.8461 524.5611,-651.2485 649.396,-614.7194 673.7132,-607.6037 700.9754,-601.8486 724.895,-597.509"/>
<polygon fill="#000000" stroke="#000000" points="725.6853,-600.9236 734.9232,-595.736 724.4665,-594.0305 725.6853,-600.9236"/>
</a>
</g>
</g>
<!-- sensor_data_collection&#45;&gt;sensor_motor -->
<g id="edge14" class="edge">
<title>sensor_data_collection&#45;&gt;sensor_motor</title>
<g id="a_edge14"><a xlink:title="sensor_data_collection&#45;&gt;sensor_motor">
<path fill="none" stroke="#000000" d="M307.9831,-733.9739C330.9577,-730.4655 354.9916,-726.6222 377.396,-722.7194 498.8157,-701.5682 528.4522,-692.441 649.396,-668.7194 672.7789,-664.1331 698.3788,-659.1596 721.185,-654.7456"/>
<polygon fill="#000000" stroke="#000000" points="721.9567,-658.1613 731.11,-652.8258 720.6273,-651.2886 721.9567,-658.1613"/>
</a>
</g>
</g>
<!-- sensor_data_collection&#45;&gt;sensor_humidity -->
<g id="edge28" class="edge">
<title>sensor_data_collection&#45;&gt;sensor_humidity</title>
<g id="a_edge28"><a xlink:title="sensor_data_collection&#45;&gt;sensor_humidity">
<path fill="none" stroke="#000000" d="M307.8945,-755.1002C331.6939,-759.2812 356.0843,-766.0187 377.396,-776.7194 529.62,-853.1521 498.8272,-967.0754 649.396,-1046.7194 667.2861,-1056.1825 688.0396,-1062.3527 707.9782,-1066.3689"/>
<polygon fill="#000000" stroke="#000000" points="707.5261,-1069.8446 717.9965,-1068.2255 708.8017,-1062.9618 707.5261,-1069.8446"/>
</a>
</g>
</g>
<!-- sensor_data_collection&#45;&gt;sensor_temperature -->
<g id="edge30" class="edge">
<title>sensor_data_collection&#45;&gt;sensor_temperature</title>
<g id="a_edge30"><a xlink:title="sensor_data_collection&#45;&gt;sensor_temperature">
<path fill="none" stroke="#000000" d="M307.8945,-745.3302C331.819,-741.1084 356.2619,-734.1038 377.396,-722.7194 536.7184,-636.8963 484.1293,-493.4496 649.396,-419.7194 883.2792,-315.3775 964.6055,-481.3836 1208.11,-560.7194 1225.2072,-566.2898 1243.7753,-570.7899 1261.8892,-574.3994"/>
<polygon fill="#000000" stroke="#000000" points="1261.4138,-577.8719 1271.8935,-576.3142 1262.7298,-570.9967 1261.4138,-577.8719"/>
</a>
</g>
</g>
<!-- sensor_data_collection&#45;&gt;sensor_tire -->
<g id="edge37" class="edge">
<title>sensor_data_collection&#45;&gt;sensor_tire</title>
<g id="a_edge37"><a xlink:title="sensor_data_collection&#45;&gt;sensor_tire">
<path fill="none" stroke="#000000" d="M308.0091,-757.0442C331.5577,-761.1309 355.8153,-767.3385 377.396,-776.7194 518.969,-838.2598 509.1601,-928.1903 649.396,-992.7194 672.7069,-1003.4459 700.1096,-1009.9134 724.4191,-1013.8119"/>
<polygon fill="#000000" stroke="#000000" points="724.2209,-1017.3209 734.6271,-1015.3304 725.2509,-1010.3971 724.2209,-1017.3209"/>
</a>
</g>
</g>
<!-- sensor_data_collection&#45;&gt;sensor_gear -->
<g id="edge44" class="edge">
<title>sensor_data_collection&#45;&gt;sensor_gear</title>
<g id="a_edge44"><a xlink:title="sensor_data_collection&#45;&gt;sensor_gear">
<path fill="none" stroke="#000000" d="M307.7217,-762.1797C330.9382,-765.939 355.1339,-770.7146 377.396,-776.7194 502.9775,-810.5927 524.5611,-848.1903 649.396,-884.7194 673.6097,-891.8048 700.7435,-897.5412 724.5894,-901.8744"/>
<polygon fill="#000000" stroke="#000000" points="724.1326,-905.3478 734.5897,-903.6454 725.3533,-898.4551 724.1326,-905.3478"/>
</a>
</g>
</g>
<!-- sensor_data_collection&#45;&gt;sensor_lidar -->
<g id="edge45" class="edge">
<title>sensor_data_collection&#45;&gt;sensor_lidar</title>
<g id="a_edge45"><a xlink:title="sensor_data_collection&#45;&gt;sensor_lidar">
<path fill="none" stroke="#000000" d="M307.9831,-765.4649C330.9577,-768.9734 354.9916,-772.8166 377.396,-776.7194 498.8157,-797.8706 528.4522,-806.9978 649.396,-830.7194 673.9418,-835.5338 700.9305,-840.7749 724.5663,-845.3475"/>
<polygon fill="#000000" stroke="#000000" points="723.9911,-848.8011 734.4737,-847.2631 725.32,-841.9284 723.9911,-848.8011"/>
</a>
</g>
</g>
<!-- sensor_data_collection&#45;&gt;sensor_gps -->
<g id="edge49" class="edge">
<title>sensor_data_collection&#45;&gt;sensor_gps</title>
<g id="a_edge49"><a xlink:title="sensor_data_collection&#45;&gt;sensor_gps">
<path fill="none" stroke="#000000" d="M307.9971,-759.8131C430.9943,-771.0461 625.5227,-788.812 725.2298,-797.918"/>
<polygon fill="#000000" stroke="#000000" points="725.1749,-801.4274 735.4518,-798.8515 725.8116,-794.4565 725.1749,-801.4274"/>
</a>
</g>
</g>
<!-- sensor_data_collection&#45;&gt;sensor_accelerometer -->
<g id="edge50" class="edge">
<title>sensor_data_collection&#45;&gt;sensor_accelerometer</title>
<g id="a_edge50"><a xlink:title="sensor_data_collection&#45;&gt;sensor_accelerometer">
<path fill="none" stroke="#000000" d="M307.9971,-749.7194C415.1771,-749.7194 576.6736,-749.7194 682.4127,-749.7194"/>
<polygon fill="#000000" stroke="#000000" points="682.4678,-753.2195 692.4678,-749.7194 682.4678,-746.2195 682.4678,-753.2195"/>
</a>
</g>
</g>
<!-- sensor_data_collection&#45;&gt;sensor_camera -->
<g id="edge51" class="edge">
<title>sensor_data_collection&#45;&gt;sensor_camera</title>
<g id="a_edge51"><a xlink:title="sensor_data_collection&#45;&gt;sensor_camera">
<path fill="none" stroke="#000000" d="M308.086,-759.4144C331.3933,-763.3597 355.5332,-768.9103 377.396,-776.7194 509.9027,-824.049 517.9229,-888.5902 649.396,-938.7194 668.8878,-946.1514 690.7259,-951.6206 711.2276,-955.6123"/>
<polygon fill="#000000" stroke="#000000" points="710.698,-959.0737 721.1685,-957.4554 711.9741,-952.191 710.698,-959.0737"/>
</a>
</g>
</g>
<!-- fb_crawler&#45;&gt;social_media_discussions -->
<g id="edge70" class="edge">
<title>fb_crawler&#45;&gt;social_media_discussions</title>
<g id="a_edge70"><a xlink:title="fb_crawler&#45;&gt;social_media_discussions">
<path fill="none" stroke="#000000" d="M255.8128,-968.0981C291.8383,-971.1048 338.4567,-977.8176 377.396,-992.7194 512.5545,-1044.4436 516.3217,-1114.8474 649.396,-1171.7194 659.1828,-1175.902 669.6003,-1179.5812 680.1628,-1182.8083"/>
<polygon fill="#000000" stroke="#000000" points="679.3098,-1186.2052 689.8899,-1185.6463 681.2704,-1179.4854 679.3098,-1186.2052"/>
</a>
</g>
</g>
<!-- sensor_tire&#45;&gt;fleet_optimization_model -->
<g id="edge3" class="edge">
<title>sensor_tire&#45;&gt;fleet_optimization_model</title>
<g id="a_edge3"><a xlink:title="sensor_tire&#45;&gt;fleet_optimization_model">
<path fill="none" stroke="#000000" d="M843.0238,-1030.664C922.9441,-1046.7646 1077.0074,-1077.7379 1208.11,-1103.7194 1224.5372,-1106.9749 1241.9604,-1110.4088 1258.9391,-1113.7447"/>
<polygon fill="#000000" stroke="#000000" points="1258.3866,-1117.203 1268.8736,-1115.6955 1259.7354,-1110.3342 1258.3866,-1117.203"/>
</a>
</g>
</g>
<!-- sensor_gear&#45;&gt;fleet_optimization_model -->
<g id="edge4" class="edge">
<title>sensor_gear&#45;&gt;fleet_optimization_model</title>
<g id="a_edge4"><a xlink:title="sensor_gear&#45;&gt;fleet_optimization_model">
<path fill="none" stroke="#000000" d="M842.8885,-918.8717C867.0246,-923.0638 895.5019,-929.4148 920.11,-938.7194 1058.0945,-990.8928 1069.8888,-1052.1764 1208.11,-1103.7194 1217.5291,-1107.2318 1227.4352,-1110.3565 1237.489,-1113.1319"/>
<polygon fill="#000000" stroke="#000000" points="1236.6,-1116.5171 1247.1622,-1115.6872 1238.3878,-1109.7492 1236.6,-1116.5171"/>
</a>
</g>
</g>
<!-- sensor_lidar&#45;&gt;fleet_optimization_model -->
<g id="edge1" class="edge">
<title>sensor_lidar&#45;&gt;fleet_optimization_model</title>
<g id="a_edge1"><a xlink:title="sensor_lidar&#45;&gt;fleet_optimization_model">
<path fill="none" stroke="#000000" d="M843.1805,-863.3437C867.5056,-867.244 896.0515,-873.7895 920.11,-884.7194 1066.5134,-951.2313 1061.4045,-1037.8765 1208.11,-1103.7194 1216.0059,-1107.2632 1224.316,-1110.3897 1232.8139,-1113.1479"/>
<polygon fill="#000000" stroke="#000000" points="1231.8892,-1116.5251 1242.4758,-1116.1081 1233.9398,-1109.8322 1231.8892,-1116.5251"/>
</a>
</g>
</g>
<!-- customer_sentiment_analysis&#45;&gt;kpi_benchmarking -->
<g id="edge19" class="edge">
<title>customer_sentiment_analysis&#45;&gt;kpi_benchmarking</title>
<g id="a_edge19"><a xlink:title="customer_sentiment_analysis&#45;&gt;kpi_benchmarking">
<path fill="none" stroke="#000000" d="M2083.2787,-1235.6096C2197.3302,-1230.6038 2356.0254,-1223.6387 2458.1988,-1219.1543"/>
<polygon fill="#000000" stroke="#000000" points="2458.3771,-1222.6499 2468.214,-1218.7147 2458.0701,-1215.6566 2458.3771,-1222.6499"/>
</a>
</g>
</g>
<!-- customer_sentiment_analysis&#45;&gt;public_relations -->
<g id="edge42" class="edge">
<title>customer_sentiment_analysis&#45;&gt;public_relations</title>
<g id="a_edge42"><a xlink:title="customer_sentiment_analysis&#45;&gt;public_relations">
<path fill="none" stroke="#000000" d="M2058.1604,-1223.713C2067.6924,-1221.0962 2077.0808,-1218.1143 2085.986,-1214.7194 2221.5923,-1163.0234 2229.1493,-1095.0644 2365.986,-1046.7194 2375.6686,-1043.2985 2385.7677,-1040.3092 2396.049,-1037.6972"/>
<polygon fill="#000000" stroke="#000000" points="2397.0546,-1041.0551 2405.9545,-1035.3068 2395.4124,-1034.2504 2397.0546,-1041.0551"/>
</a>
</g>
</g>
<!-- social_media_sentiment_analysis&#45;&gt;kpi_benchmarking -->
<g id="edge18" class="edge">
<title>social_media_sentiment_analysis&#45;&gt;kpi_benchmarking</title>
<g id="a_edge18"><a xlink:title="social_media_sentiment_analysis&#45;&gt;kpi_benchmarking">
<path fill="none" stroke="#000000" d="M1426.5928,-1209.7876C1512.1356,-1232.3761 1666.9758,-1269.7699 1802.156,-1283.7194 2041.4266,-1308.4103 2323.7273,-1262.9743 2466.5216,-1234.7466"/>
<polygon fill="#000000" stroke="#000000" points="2467.4366,-1238.1332 2476.5592,-1232.7452 2466.0678,-1231.2683 2467.4366,-1238.1332"/>
</a>
</g>
</g>
<!-- social_media_sentiment_analysis&#45;&gt;public_relations -->
<g id="edge43" class="edge">
<title>social_media_sentiment_analysis&#45;&gt;public_relations</title>
<g id="a_edge43"><a xlink:title="social_media_sentiment_analysis&#45;&gt;public_relations">
<path fill="none" stroke="#000000" d="M1450.5399,-1173.6536C1559.061,-1151.8722 1735.7779,-1116.9149 1802.156,-1106.7194 2006.0932,-1075.3953 2242.5184,-1049.9494 2396.1673,-1034.8444"/>
<polygon fill="#000000" stroke="#000000" points="2396.556,-1038.3231 2406.167,-1033.8644 2395.8732,-1031.3565 2396.556,-1038.3231"/>
</a>
</g>
</g>
<!-- social_media_sentiment_analysis&#45;&gt;sales_forecast -->
<g id="edge63" class="edge">
<title>social_media_sentiment_analysis&#45;&gt;sales_forecast</title>
<g id="a_edge63"><a xlink:title="social_media_sentiment_analysis&#45;&gt;sales_forecast">
<path fill="none" stroke="#000000" d="M1514.2931,-1190.6685C1624.4053,-1189.9129 1768.8016,-1188.9221 1859.0114,-1188.3031"/>
<polygon fill="#000000" stroke="#000000" points="1859.2191,-1191.8018 1869.1948,-1188.2332 1859.171,-1184.802 1859.2191,-1191.8018"/>
</a>
</g>
</g>
<!-- government_regulations_fetch&#45;&gt;regulatory_compliance_dashboard -->
<g id="edge26" class="edge">
<title>government_regulations_fetch&#45;&gt;regulatory_compliance_dashboard</title>
<g id="a_edge26"><a xlink:title="government_regulations_fetch&#45;&gt;regulatory_compliance_dashboard">
<path fill="none" stroke="#000000" d="M259.1432,-137.6412C507.0097,-68.6793 1447.9654,157.2897 2085.986,-183.7194 2346.3491,-322.8782 2506.4819,-674.6691 2548.2725,-776.008"/>
<polygon fill="#000000" stroke="#000000" points="2545.1435,-777.6044 2552.1587,-785.5441 2551.6259,-774.9626 2545.1435,-777.6044"/>
</a>
</g>
</g>
<!-- ig_crawler&#45;&gt;social_media_discussions -->
<g id="edge71" class="edge">
<title>ig_crawler&#45;&gt;social_media_discussions</title>
<g id="a_edge71"><a xlink:title="ig_crawler&#45;&gt;social_media_discussions">
<path fill="none" stroke="#000000" d="M253.2587,-912.1863C289.9891,-914.3609 338.3254,-920.8651 377.396,-938.7194 522.1742,-1004.8794 507.263,-1100.053 649.396,-1171.7194 657.4534,-1175.7821 666.0325,-1179.3363 674.8226,-1182.4444"/>
<polygon fill="#000000" stroke="#000000" points="673.8354,-1185.8046 684.429,-1185.6449 676.048,-1179.1634 673.8354,-1185.8046"/>
</a>
</g>
</g>
<!-- x_crawler&#45;&gt;social_media_discussions -->
<g id="edge69" class="edge">
<title>x_crawler&#45;&gt;social_media_discussions</title>
<g id="a_edge69"><a xlink:title="x_crawler&#45;&gt;social_media_discussions">
<path fill="none" stroke="#000000" d="M249.4297,-1134.3973C339.8351,-1146.0176 528.6907,-1170.2922 657.1274,-1186.8009"/>
<polygon fill="#000000" stroke="#000000" points="657.0613,-1190.3211 667.426,-1188.1246 657.9538,-1183.3782 657.0613,-1190.3211"/>
</a>
</g>
</g>
<!-- customer_profile&#45;&gt;customer_sentiment_analysis -->
<g id="edge47" class="edge">
<title>customer_profile&#45;&gt;customer_sentiment_analysis</title>
<g id="a_edge47"><a xlink:title="customer_profile&#45;&gt;customer_sentiment_analysis">
<path fill="none" stroke="#000000" d="M1443.7158,-479.3267C1468.5599,-482.9097 1494.431,-490.7831 1514.156,-506.7194 1778.3964,-720.205 1539.3477,-999.4732 1802.156,-1214.7194 1803.5566,-1215.8666 1804.9911,-1216.9705 1806.4565,-1218.0327"/>
<polygon fill="#000000" stroke="#000000" points="1804.8684,-1221.1741 1815.1648,-1223.6711 1808.6729,-1215.2982 1804.8684,-1221.1741"/>
</a>
</g>
</g>
<!-- customer_profile&#45;&gt;sales_forecast -->
<g id="edge62" class="edge">
<title>customer_profile&#45;&gt;sales_forecast</title>
<g id="a_edge62"><a xlink:title="customer_profile&#45;&gt;sales_forecast">
<path fill="none" stroke="#000000" d="M1443.842,-479.7238C1468.551,-483.3504 1494.3122,-491.1489 1514.156,-506.7194 1764.0208,-702.7772 1553.6065,-962.9967 1802.156,-1160.7194 1818.3484,-1173.6005 1838.8428,-1180.9835 1859.1849,-1185.0742"/>
<polygon fill="#000000" stroke="#000000" points="1858.6837,-1188.5397 1869.1393,-1186.8276 1859.8981,-1181.6458 1858.6837,-1188.5397"/>
</a>
</g>
</g>
<!-- sensor_gps&#45;&gt;fleet_optimization_model -->
<g id="edge11" class="edge">
<title>sensor_gps&#45;&gt;fleet_optimization_model</title>
<g id="a_edge11"><a xlink:title="sensor_gps&#45;&gt;fleet_optimization_model">
<path fill="none" stroke="#000000" d="M841.8351,-807.8615C866.6963,-811.4593 896.0605,-818.1777 920.11,-830.7194 1076.4912,-912.2713 1051.3582,-1022.8822 1208.11,-1103.7194 1215.8895,-1107.7313 1224.1447,-1111.2083 1232.6315,-1114.2216"/>
<polygon fill="#000000" stroke="#000000" points="1231.7053,-1117.6019 1242.2988,-1117.4304 1233.9106,-1110.9583 1231.7053,-1117.6019"/>
</a>
</g>
</g>
<!-- sensor_accelerometer&#45;&gt;fleet_optimization_model -->
<g id="edge9" class="edge">
<title>sensor_accelerometer&#45;&gt;fleet_optimization_model</title>
<g id="a_edge9"><a xlink:title="sensor_accelerometer&#45;&gt;fleet_optimization_model">
<path fill="none" stroke="#000000" d="M885.0735,-761.9411C897.3287,-765.6512 909.3363,-770.4686 920.11,-776.7194 1087.6217,-873.9079 1040.1564,-1007.2965 1208.11,-1103.7194 1215.955,-1108.2233 1224.3591,-1112.0625 1233.0426,-1115.3339"/>
<polygon fill="#000000" stroke="#000000" points="1231.9667,-1118.6654 1242.5616,-1118.6653 1234.2791,-1112.0584 1231.9667,-1118.6654"/>
</a>
</g>
</g>
<!-- sensor_camera&#45;&gt;fleet_optimization_model -->
<g id="edge5" class="edge">
<title>sensor_camera&#45;&gt;fleet_optimization_model</title>
<g id="a_edge5"><a xlink:title="sensor_camera&#45;&gt;fleet_optimization_model">
<path fill="none" stroke="#000000" d="M856.4414,-977.4105C877.0583,-981.565 899.6683,-986.7239 920.11,-992.7194 1051.7429,-1031.3272 1076.3022,-1065.7129 1208.11,-1103.7194 1220.4435,-1107.2758 1233.4576,-1110.5439 1246.4771,-1113.5085"/>
<polygon fill="#000000" stroke="#000000" points="1245.9022,-1116.966 1256.4231,-1115.7161 1247.4191,-1110.1323 1245.9022,-1116.966"/>
</a>
</g>
</g>
<!-- transaction_data_cleansing&#45;&gt;sales_data_cleansing -->
<g id="edge67" class="edge">
<title>transaction_data_cleansing&#45;&gt;sales_data_cleansing</title>
<g id="a_edge67"><a xlink:title="transaction_data_cleansing&#45;&gt;sales_data_cleansing">
<path fill="none" stroke="#000000" d="M920.0685,-533.7194C1018.6281,-533.7194 1152.2565,-533.7194 1246.5196,-533.7194"/>
<polygon fill="#000000" stroke="#000000" points="1246.6633,-537.2195 1256.6633,-533.7194 1246.6632,-530.2195 1246.6633,-537.2195"/>
</a>
</g>
</g>
<!-- transaction_data_cleansing&#45;&gt;customer_profile -->
<g id="edge57" class="edge">
<title>transaction_data_cleansing&#45;&gt;customer_profile</title>
<g id="a_edge57"><a xlink:title="transaction_data_cleansing&#45;&gt;customer_profile">
<path fill="none" stroke="#000000" d="M920.0685,-521.3307C1026.5893,-511.2812 1174.0731,-497.3672 1268.5523,-488.4537"/>
<polygon fill="#000000" stroke="#000000" points="1269.0373,-491.9236 1278.6643,-487.4997 1268.3797,-484.9546 1269.0373,-491.9236"/>
</a>
</g>
</g>
<!-- battery_spec_fetch&#45;&gt;sensor_bms -->
<g id="edge17" class="edge">
<title>battery_spec_fetch&#45;&gt;sensor_bms</title>
<g id="a_edge17"><a xlink:title="battery_spec_fetch&#45;&gt;sensor_bms">
<path fill="none" stroke="#000000" d="M290.529,-682.6073C318.4993,-678.4365 349.2349,-673.625 377.396,-668.7194 498.8157,-647.5682 528.4522,-638.441 649.396,-614.7194 674.1534,-609.8636 701.396,-604.5736 725.1768,-599.9732"/>
<polygon fill="#000000" stroke="#000000" points="725.9855,-603.3817 735.1393,-598.0471 724.6567,-596.509 725.9855,-603.3817"/>
</a>
</g>
</g>
<!-- news_crawler&#45;&gt;social_media_discussions -->
<g id="edge72" class="edge">
<title>news_crawler&#45;&gt;social_media_discussions</title>
<g id="a_edge72"><a xlink:title="news_crawler&#45;&gt;social_media_discussions">
<path fill="none" stroke="#000000" d="M267.8452,-1082.5122C301.1958,-1087.1299 341.5024,-1093.3633 377.396,-1100.7194 499.7915,-1125.8035 528.0531,-1141.9575 649.396,-1171.7194 665.1686,-1175.588 681.9808,-1179.5691 698.2711,-1183.3527"/>
<polygon fill="#000000" stroke="#000000" points="697.8013,-1186.8363 708.3328,-1185.6802 699.3789,-1180.0164 697.8013,-1186.8363"/>
</a>
</g>
</g>
<!-- vehicle_manufacture_records_import&#45;&gt;vehicle_profile -->
<g id="edge34" class="edge">
<title>vehicle_manufacture_records_import&#45;&gt;vehicle_profile</title>
<g id="a_edge34"><a xlink:title="vehicle_manufacture_records_import&#45;&gt;vehicle_profile">
<path fill="none" stroke="#000000" d="M322.9413,-569.6642C341.2301,-566.808 359.8147,-563.782 377.396,-560.7194 498.8157,-539.5682 528.4522,-530.441 649.396,-506.7194 667.9475,-503.0808 687.8945,-499.1983 706.7346,-495.545"/>
<polygon fill="#000000" stroke="#000000" points="707.6195,-498.9387 716.771,-493.6001 706.2877,-492.0665 707.6195,-498.9387"/>
</a>
</g>
</g>
<!-- predictive_maintenance_model&#45;&gt;kpi_benchmarking -->
<g id="edge21" class="edge">
<title>predictive_maintenance_model&#45;&gt;kpi_benchmarking</title>
<g id="a_edge21"><a xlink:title="predictive_maintenance_model&#45;&gt;kpi_benchmarking">
<path fill="none" stroke="#000000" d="M2080.9796,-1151.7462C2195.248,-1166.792 2355.5016,-1187.8927 2458.3573,-1201.4357"/>
<polygon fill="#000000" stroke="#000000" points="2458.0663,-1204.9276 2468.4377,-1202.763 2458.9802,-1197.9875 2458.0663,-1204.9276"/>
</a>
</g>
</g>
<!-- predictive_maintenance_model&#45;&gt;maintenance_insights -->
<g id="edge24" class="edge">
<title>predictive_maintenance_model&#45;&gt;maintenance_insights</title>
<g id="a_edge24"><a xlink:title="predictive_maintenance_model&#45;&gt;maintenance_insights">
<path fill="none" stroke="#000000" d="M1967.1381,-1115.5449C2028.1717,-1068.5176 2200.5713,-942.4864 2365.986,-884.7194 2384.7449,-878.1683 2405.0525,-873.2018 2425.2144,-869.4377"/>
<polygon fill="#000000" stroke="#000000" points="2425.8583,-872.8782 2435.0929,-867.6847 2424.6352,-865.9858 2425.8583,-872.8782"/>
</a>
</g>
</g>
<!-- predictive_maintenance_model&#45;&gt;regulatory_compliance_dashboard -->
<g id="edge27" class="edge">
<title>predictive_maintenance_model&#45;&gt;regulatory_compliance_dashboard</title>
<g id="a_edge27"><a xlink:title="predictive_maintenance_model&#45;&gt;regulatory_compliance_dashboard">
<path fill="none" stroke="#000000" d="M1962.223,-1115.4794C2017.2598,-1061.4218 2189.3349,-901.4419 2365.986,-830.7194 2371.426,-828.5415 2377.0131,-826.5347 2382.7026,-824.6857"/>
<polygon fill="#000000" stroke="#000000" points="2383.8329,-828 2392.3664,-821.7207 2381.7797,-821.3079 2383.8329,-828"/>
</a>
</g>
</g>
<!-- predictive_maintenance_model&#45;&gt;fleet_dashboard -->
<g id="edge41" class="edge">
<title>predictive_maintenance_model&#45;&gt;fleet_dashboard</title>
<g id="a_edge41"><a xlink:title="predictive_maintenance_model&#45;&gt;fleet_dashboard">
<path fill="none" stroke="#000000" d="M1974.8494,-1115.61C2042.8574,-1076.4831 2212.1153,-983.9457 2365.986,-938.7194 2391.2761,-931.286 2419.0461,-925.877 2445.4521,-921.9485"/>
<polygon fill="#000000" stroke="#000000" points="2446.0928,-925.3926 2455.4977,-920.5142 2445.1033,-918.4628 2446.0928,-925.3926"/>
</a>
</g>
</g>
<!-- sales_forecast&#45;&gt;kpi_benchmarking -->
<g id="edge22" class="edge">
<title>sales_forecast&#45;&gt;kpi_benchmarking</title>
<g id="a_edge22"><a xlink:title="sales_forecast&#45;&gt;kpi_benchmarking">
<path fill="none" stroke="#000000" d="M2018.8881,-1191.0031C2128.9851,-1195.8353 2334.9001,-1204.873 2458.2883,-1210.2885"/>
<polygon fill="#000000" stroke="#000000" points="2458.351,-1213.7945 2468.4949,-1210.7365 2458.658,-1206.8013 2458.351,-1213.7945"/>
</a>
</g>
</g>
<!-- sales_forecast&#45;&gt;sales_dashboard -->
<g id="edge36" class="edge">
<title>sales_forecast&#45;&gt;sales_dashboard</title>
<g id="a_edge36"><a xlink:title="sales_forecast&#45;&gt;sales_dashboard">
<path fill="none" stroke="#000000" d="M2019.0936,-1178.5267C2041.093,-1174.484 2064.8947,-1168.7599 2085.986,-1160.7194 2221.5923,-1109.0234 2229.1493,-1041.0644 2365.986,-992.7194 2381.6066,-987.2006 2398.3114,-982.805 2415.1162,-979.3049"/>
<polygon fill="#000000" stroke="#000000" points="2415.8845,-982.7208 2425.0147,-977.3458 2414.5254,-975.854 2415.8845,-982.7208"/>
</a>
</g>
</g>
<!-- social_media_discussions -->
<g id="social_media_discussions" class="node">
<title>social_media_discussions</title>
<path fill="none" stroke="#000000" d="M897.9372,-1221.7194C897.9372,-1221.7194 679.5688,-1221.7194 679.5688,-1221.7194 673.5688,-1221.7194 667.5688,-1215.7194 667.5688,-1209.7194 667.5688,-1209.7194 667.5688,-1197.7194 667.5688,-1197.7194 667.5688,-1191.7194 673.5688,-1185.7194 679.5688,-1185.7194 679.5688,-1185.7194 897.9372,-1185.7194 897.9372,-1185.7194 903.9372,-1185.7194 909.9372,-1191.7194 909.9372,-1197.7194 909.9372,-1197.7194 909.9372,-1209.7194 909.9372,-1209.7194 909.9372,-1215.7194 903.9372,-1221.7194 897.9372,-1221.7194"/>
<text text-anchor="middle" x="788.753" y="-1197.7194" font-family="Arial" font-size="20.00" fill="#000000">Social Media Discussions</text>
<text text-anchor="middle" x="654.633" y="-1167.7194" font-family="Arial" font-size="20.00" fill="#000000">lv2</text>
</g>
<!-- sales_data_import -->
<g id="sales_data_import" class="node">
<title>sales_data_import</title>
<path fill="none" stroke="#000000" d="M273.504,-551.7194C273.504,-551.7194 121.448,-551.7194 121.448,-551.7194 115.448,-551.7194 109.448,-545.7194 109.448,-539.7194 109.448,-539.7194 109.448,-527.7194 109.448,-527.7194 109.448,-521.7194 115.448,-515.7194 121.448,-515.7194 121.448,-515.7194 273.504,-515.7194 273.504,-515.7194 279.504,-515.7194 285.504,-521.7194 285.504,-527.7194 285.504,-527.7194 285.504,-539.7194 285.504,-539.7194 285.504,-545.7194 279.504,-551.7194 273.504,-551.7194"/>
<text text-anchor="middle" x="197.476" y="-527.7194" font-family="Arial" font-size="20.00" fill="#000000">Sales Data Import</text>
<text text-anchor="middle" x="96.684" y="-521.7194" font-family="Arial" font-size="20.00" fill="#000000">lv0</text>
</g>
<!-- sales_data_cleansing -->
<g id="sales_data_cleansing" class="node">
<title>sales_data_cleansing</title>
<path fill="none" stroke="#000000" d="M1453.3972,-551.7194C1453.3972,-551.7194 1268.8688,-551.7194 1268.8688,-551.7194 1262.8688,-551.7194 1256.8688,-545.7194 1256.8688,-539.7194 1256.8688,-539.7194 1256.8688,-527.7194 1256.8688,-527.7194 1256.8688,-521.7194 1262.8688,-515.7194 1268.8688,-515.7194 1268.8688,-515.7194 1453.3972,-515.7194 1453.3972,-515.7194 1459.3972,-515.7194 1465.3972,-521.7194 1465.3972,-527.7194 1465.3972,-527.7194 1465.3972,-539.7194 1465.3972,-539.7194 1465.3972,-545.7194 1459.3972,-551.7194 1453.3972,-551.7194"/>
<text text-anchor="middle" x="1361.133" y="-527.7194" font-family="Arial" font-size="20.00" fill="#000000">Sales Data Cleansing</text>
<text text-anchor="middle" x="1244.223" y="-497.7194" font-family="Arial" font-size="20.00" fill="#000000">lv1</text>
</g>
<!-- sensor_gyroscope -->
<g id="sensor_gyroscope" class="node">
<title>sensor_gyroscope</title>
<path fill="none" stroke="#000000" d="M857.2317,-713.7194C857.2317,-713.7194 720.2743,-713.7194 720.2743,-713.7194 714.2743,-713.7194 708.2743,-707.7194 708.2743,-701.7194 708.2743,-701.7194 708.2743,-689.7194 708.2743,-689.7194 708.2743,-683.7194 714.2743,-677.7194 720.2743,-677.7194 720.2743,-677.7194 857.2317,-677.7194 857.2317,-677.7194 863.2317,-677.7194 869.2317,-683.7194 869.2317,-689.7194 869.2317,-689.7194 869.2317,-701.7194 869.2317,-701.7194 869.2317,-707.7194 863.2317,-713.7194 857.2317,-713.7194"/>
<text text-anchor="middle" x="788.753" y="-689.7194" font-family="Arial" font-size="20.00" fill="#000000">Gyroscope Data</text>
<text text-anchor="middle" x="695.736" y="-659.7194" font-family="Arial" font-size="20.00" fill="#000000">lv1</text>
</g>
<!-- dmv_record_fetch -->
<g id="dmv_record_fetch" class="node">
<title>dmv_record_fetch</title>
<path fill="none" stroke="#000000" d="M278.488,-389.7194C278.488,-389.7194 116.464,-389.7194 116.464,-389.7194 110.464,-389.7194 104.464,-383.7194 104.464,-377.7194 104.464,-377.7194 104.464,-365.7194 104.464,-365.7194 104.464,-359.7194 110.464,-353.7194 116.464,-353.7194 116.464,-353.7194 278.488,-353.7194 278.488,-353.7194 284.488,-353.7194 290.488,-359.7194 290.488,-365.7194 290.488,-365.7194 290.488,-377.7194 290.488,-377.7194 290.488,-383.7194 284.488,-389.7194 278.488,-389.7194"/>
<text text-anchor="middle" x="197.476" y="-365.7194" font-family="Arial" font-size="20.00" fill="#000000">DMV Record Fetch</text>
<text text-anchor="middle" x="91.692" y="-359.7194" font-family="Arial" font-size="20.00" fill="#000000">lv0</text>
</g>
<!-- transaction_logs_import -->
<g id="transaction_logs_import" class="node">
<title>transaction_logs_import</title>
<path fill="none" stroke="#000000" d="M301.0763,-659.7194C301.0763,-659.7194 93.8757,-659.7194 93.8757,-659.7194 87.8757,-659.7194 81.8757,-653.7194 81.8757,-647.7194 81.8757,-647.7194 81.8757,-635.7194 81.8757,-635.7194 81.8757,-629.7194 87.8757,-623.7194 93.8757,-623.7194 93.8757,-623.7194 301.0763,-623.7194 301.0763,-623.7194 307.0763,-623.7194 313.0763,-629.7194 313.0763,-635.7194 313.0763,-635.7194 313.0763,-647.7194 313.0763,-647.7194 313.0763,-653.7194 307.0763,-659.7194 301.0763,-659.7194"/>
<text text-anchor="middle" x="197.476" y="-635.7194" font-family="Arial" font-size="20.00" fill="#000000">Transaction Logs Import</text>
<text text-anchor="middle" x="68.898" y="-629.7194" font-family="Arial" font-size="20.00" fill="#000000">lv0</text>
</g>
<!-- fleet_optimization_model -->
<g id="fleet_optimization_model" class="node">
<title>fleet_optimization_model</title>
<path fill="none" stroke="#000000" d="M1467.767,-1151.7194C1467.767,-1151.7194 1254.499,-1151.7194 1254.499,-1151.7194 1248.499,-1151.7194 1242.499,-1145.7194 1242.499,-1139.7194 1242.499,-1139.7194 1242.499,-1127.7194 1242.499,-1127.7194 1242.499,-1121.7194 1248.499,-1115.7194 1254.499,-1115.7194 1254.499,-1115.7194 1467.767,-1115.7194 1467.767,-1115.7194 1473.767,-1115.7194 1479.767,-1121.7194 1479.767,-1127.7194 1479.767,-1127.7194 1479.767,-1139.7194 1479.767,-1139.7194 1479.767,-1145.7194 1473.767,-1151.7194 1467.767,-1151.7194"/>
<text text-anchor="middle" x="1361.133" y="-1127.7194" font-family="Arial" font-size="20.00" fill="#000000">Fleet Optimization Model</text>
<text text-anchor="middle" x="1229.788" y="-1097.7194" font-family="Arial" font-size="20.00" fill="#000000">lv2</text>
</g>
<!-- sensor_bms -->
<g id="sensor_bms" class="node">
<title>sensor_bms</title>
<path fill="none" stroke="#000000" d="M830.3771,-605.7194C830.3771,-605.7194 747.1289,-605.7194 747.1289,-605.7194 741.1289,-605.7194 735.1289,-599.7194 735.1289,-593.7194 735.1289,-593.7194 735.1289,-581.7194 735.1289,-581.7194 735.1289,-575.7194 741.1289,-569.7194 747.1289,-569.7194 747.1289,-569.7194 830.3771,-569.7194 830.3771,-569.7194 836.3771,-569.7194 842.3771,-575.7194 842.3771,-581.7194 842.3771,-581.7194 842.3771,-593.7194 842.3771,-593.7194 842.3771,-599.7194 836.3771,-605.7194 830.3771,-605.7194"/>
<text text-anchor="middle" x="788.753" y="-581.7194" font-family="Arial" font-size="20.00" fill="#000000">BMS Data</text>
<text text-anchor="middle" x="722.413" y="-575.7194" font-family="Arial" font-size="20.00" fill="#000000">lv1</text>
</g>
<!-- sensor_motor -->
<g id="sensor_motor" class="node">
<title>sensor_motor</title>
<path fill="none" stroke="#000000" d="M834.153,-659.7194C834.153,-659.7194 743.353,-659.7194 743.353,-659.7194 737.353,-659.7194 731.353,-653.7194 731.353,-647.7194 731.353,-647.7194 731.353,-635.7194 731.353,-635.7194 731.353,-629.7194 737.353,-623.7194 743.353,-623.7194 743.353,-623.7194 834.153,-623.7194 834.153,-623.7194 840.153,-623.7194 846.153,-629.7194 846.153,-635.7194 846.153,-635.7194 846.153,-647.7194 846.153,-647.7194 846.153,-653.7194 840.153,-659.7194 834.153,-659.7194"/>
<text text-anchor="middle" x="788.753" y="-635.7194" font-family="Arial" font-size="20.00" fill="#000000">Motor Data</text>
<text text-anchor="middle" x="718.525" y="-605.7194" font-family="Arial" font-size="20.00" fill="#000000">lv1</text>
</g>
<!-- kpi_dashboard -->
<g id="kpi_dashboard" class="node">
<title>kpi_dashboard</title>
<path fill="none" stroke="#000000" d="M2644.689,-1091.7194C2644.689,-1091.7194 2473.797,-1091.7194 2473.797,-1091.7194 2467.797,-1091.7194 2461.797,-1085.7194 2461.797,-1079.7194 2461.797,-1079.7194 2461.797,-1067.7194 2461.797,-1067.7194 2461.797,-1061.7194 2467.797,-1055.7194 2473.797,-1055.7194 2473.797,-1055.7194 2644.689,-1055.7194 2644.689,-1055.7194 2650.689,-1055.7194 2656.689,-1061.7194 2656.689,-1067.7194 2656.689,-1067.7194 2656.689,-1079.7194 2656.689,-1079.7194 2656.689,-1085.7194 2650.689,-1091.7194 2644.689,-1091.7194"/>
<text text-anchor="middle" x="2559.243" y="-1067.7194" font-family="Arial" font-size="20.00" fill="#000000">API: KPI Dashboard</text>
<text text-anchor="middle" x="2448.992" y="-1061.7194" font-family="Arial" font-size="20.00" fill="#000000">lv3</text>
</g>
<!-- threads_crawler -->
<g id="threads_crawler" class="node">
<title>threads_crawler</title>
<path fill="none" stroke="#000000" d="M267.2482,-1037.7194C267.2482,-1037.7194 127.7038,-1037.7194 127.7038,-1037.7194 121.7038,-1037.7194 115.7038,-1031.7194 115.7038,-1025.7194 115.7038,-1025.7194 115.7038,-1013.7194 115.7038,-1013.7194 115.7038,-1007.7194 121.7038,-1001.7194 127.7038,-1001.7194 127.7038,-1001.7194 267.2482,-1001.7194 267.2482,-1001.7194 273.2482,-1001.7194 279.2482,-1007.7194 279.2482,-1013.7194 279.2482,-1013.7194 279.2482,-1025.7194 279.2482,-1025.7194 279.2482,-1031.7194 273.2482,-1037.7194 267.2482,-1037.7194"/>
<text text-anchor="middle" x="197.476" y="-1013.7194" font-family="Arial" font-size="20.00" fill="#000000">Threads Crawler</text>
<text text-anchor="middle" x="102.812" y="-983.7194" font-family="Arial" font-size="20.00" fill="#000000">lv0</text>
</g>
<!-- customer_service_logs_import -->
<g id="customer_service_logs_import" class="node">
<title>customer_service_logs_import</title>
<path fill="none" stroke="#000000" d="M328.508,-443.7194C328.508,-443.7194 66.444,-443.7194 66.444,-443.7194 60.444,-443.7194 54.444,-437.7194 54.444,-431.7194 54.444,-431.7194 54.444,-419.7194 54.444,-419.7194 54.444,-413.7194 60.444,-407.7194 66.444,-407.7194 66.444,-407.7194 328.508,-407.7194 328.508,-407.7194 334.508,-407.7194 340.508,-413.7194 340.508,-419.7194 340.508,-419.7194 340.508,-431.7194 340.508,-431.7194 340.508,-437.7194 334.508,-443.7194 328.508,-443.7194"/>
<text text-anchor="middle" x="197.476" y="-419.7194" font-family="Arial" font-size="20.00" fill="#000000">Customer Service Logs Import</text>
<text text-anchor="middle" x="41.682" y="-389.7194" font-family="Arial" font-size="20.00" fill="#000000">lv0</text>
</g>
<!-- fab_pipeline_data_sync -->
<g id="fab_pipeline_data_sync" class="node">
<title>fab_pipeline_data_sync</title>
<path fill="none" stroke="#000000" d="M297.916,-227.7194C297.916,-227.7194 97.036,-227.7194 97.036,-227.7194 91.036,-227.7194 85.036,-221.7194 85.036,-215.7194 85.036,-215.7194 85.036,-203.7194 85.036,-203.7194 85.036,-197.7194 91.036,-191.7194 97.036,-191.7194 97.036,-191.7194 297.916,-191.7194 297.916,-191.7194 303.916,-191.7194 309.916,-197.7194 309.916,-203.7194 309.916,-203.7194 309.916,-215.7194 309.916,-215.7194 309.916,-221.7194 303.916,-227.7194 297.916,-227.7194"/>
<text text-anchor="middle" x="197.476" y="-203.7194" font-family="Arial" font-size="20.00" fill="#000000">Fab Pipeline Data Sync</text>
<text text-anchor="middle" x="72.228" y="-197.7194" font-family="Arial" font-size="20.00" fill="#000000">lv0</text>
</g>
<!-- vehicle_profile -->
<g id="vehicle_profile" class="node">
<title>vehicle_profile</title>
<path fill="none" stroke="#000000" d="M848.5452,-497.7194C848.5452,-497.7194 728.9608,-497.7194 728.9608,-497.7194 722.9608,-497.7194 716.9608,-491.7194 716.9608,-485.7194 716.9608,-485.7194 716.9608,-473.7194 716.9608,-473.7194 716.9608,-467.7194 722.9608,-461.7194 728.9608,-461.7194 728.9608,-461.7194 848.5452,-461.7194 848.5452,-461.7194 854.5452,-461.7194 860.5452,-467.7194 860.5452,-473.7194 860.5452,-473.7194 860.5452,-485.7194 860.5452,-485.7194 860.5452,-491.7194 854.5452,-497.7194 848.5452,-497.7194"/>
<text text-anchor="middle" x="788.753" y="-473.7194" font-family="Arial" font-size="20.00" fill="#000000">Vehicle Profile</text>
<text text-anchor="middle" x="704.079" y="-443.7194" font-family="Arial" font-size="20.00" fill="#000000">lv1</text>
</g>
<!-- kpi_benchmarking -->
<g id="kpi_benchmarking" class="node">
<title>kpi_benchmarking</title>
<path fill="none" stroke="#000000" d="M2637.8355,-1232.7194C2637.8355,-1232.7194 2480.6505,-1232.7194 2480.6505,-1232.7194 2474.6505,-1232.7194 2468.6505,-1226.7194 2468.6505,-1220.7194 2468.6505,-1220.7194 2468.6505,-1208.7194 2468.6505,-1208.7194 2468.6505,-1202.7194 2474.6505,-1196.7194 2480.6505,-1196.7194 2480.6505,-1196.7194 2637.8355,-1196.7194 2637.8355,-1196.7194 2643.8355,-1196.7194 2649.8355,-1202.7194 2649.8355,-1208.7194 2649.8355,-1208.7194 2649.8355,-1220.7194 2649.8355,-1220.7194 2649.8355,-1226.7194 2643.8355,-1232.7194 2637.8355,-1232.7194"/>
<text text-anchor="middle" x="2559.243" y="-1208.7194" font-family="Arial" font-size="20.00" fill="#000000">KPI Benchmarking</text>
<text text-anchor="middle" x="2455.669" y="-1178.7194" font-family="Arial" font-size="20.00" fill="#000000">lv2</text>
</g>
<!-- maintenance_insights -->
<g id="maintenance_insights" class="node">
<title>maintenance_insights</title>
<path fill="none" stroke="#000000" d="M2671.5392,-875.7194C2671.5392,-875.7194 2446.9468,-875.7194 2446.9468,-875.7194 2440.9468,-875.7194 2434.9468,-869.7194 2434.9468,-863.7194 2434.9468,-863.7194 2434.9468,-851.7194 2434.9468,-851.7194 2434.9468,-845.7194 2440.9468,-839.7194 2446.9468,-839.7194 2446.9468,-839.7194 2671.5392,-839.7194 2671.5392,-839.7194 2677.5392,-839.7194 2683.5392,-845.7194 2683.5392,-851.7194 2683.5392,-851.7194 2683.5392,-863.7194 2683.5392,-863.7194 2683.5392,-869.7194 2677.5392,-875.7194 2671.5392,-875.7194"/>
<text text-anchor="middle" x="2559.243" y="-851.7194" font-family="Arial" font-size="20.00" fill="#000000">API: Maintenance Insights</text>
<text text-anchor="middle" x="2422.317" y="-845.7194" font-family="Arial" font-size="20.00" fill="#000000">lv3</text>
</g>
<!-- regulatory_compliance_dashboard -->
<g id="regulatory_compliance_dashboard" class="node">
<title>regulatory_compliance_dashboard</title>
<path fill="none" stroke="#000000" d="M2732.2573,-821.7194C2732.2573,-821.7194 2386.2287,-821.7194 2386.2287,-821.7194 2380.2287,-821.7194 2374.2287,-815.7194 2374.2287,-809.7194 2374.2287,-809.7194 2374.2287,-797.7194 2374.2287,-797.7194 2374.2287,-791.7194 2380.2287,-785.7194 2386.2287,-785.7194 2386.2287,-785.7194 2732.2573,-785.7194 2732.2573,-785.7194 2738.2573,-785.7194 2744.2573,-791.7194 2744.2573,-797.7194 2744.2573,-797.7194 2744.2573,-809.7194 2744.2573,-809.7194 2744.2573,-815.7194 2738.2573,-821.7194 2732.2573,-821.7194"/>
<text text-anchor="middle" x="2559.243" y="-797.7194" font-family="Arial" font-size="20.00" fill="#000000">API: Regulatory Compliance Dashboard</text>
<text text-anchor="middle" x="2361.208" y="-767.7194" font-family="Arial" font-size="20.00" fill="#000000">lv3</text>
</g>
<!-- market_research_fetch -->
<g id="market_research_fetch" class="node">
<title>market_research_fetch</title>
<path fill="none" stroke="#000000" d="M330.3482,-335.7194C330.3482,-335.7194 64.6038,-335.7194 64.6038,-335.7194 58.6038,-335.7194 52.6038,-329.7194 52.6038,-323.7194 52.6038,-323.7194 52.6038,-311.7194 52.6038,-311.7194 52.6038,-305.7194 58.6038,-299.7194 64.6038,-299.7194 64.6038,-299.7194 330.3482,-299.7194 330.3482,-299.7194 336.3482,-299.7194 342.3482,-305.7194 342.3482,-311.7194 342.3482,-311.7194 342.3482,-323.7194 342.3482,-323.7194 342.3482,-329.7194 336.3482,-335.7194 330.3482,-335.7194"/>
<text text-anchor="middle" x="197.476" y="-311.7194" font-family="Arial" font-size="20.00" fill="#000000">Market Research Report Fetch</text>
<text text-anchor="middle" x="40.012" y="-305.7194" font-family="Arial" font-size="20.00" fill="#000000">lv0</text>
</g>
<!-- sensor_humidity -->
<g id="sensor_humidity" class="node">
<title>sensor_humidity</title>
<path fill="none" stroke="#000000" d="M847.3097,-1091.7194C847.3097,-1091.7194 730.1963,-1091.7194 730.1963,-1091.7194 724.1963,-1091.7194 718.1963,-1085.7194 718.1963,-1079.7194 718.1963,-1079.7194 718.1963,-1067.7194 718.1963,-1067.7194 718.1963,-1061.7194 724.1963,-1055.7194 730.1963,-1055.7194 730.1963,-1055.7194 847.3097,-1055.7194 847.3097,-1055.7194 853.3097,-1055.7194 859.3097,-1061.7194 859.3097,-1067.7194 859.3097,-1067.7194 859.3097,-1079.7194 859.3097,-1079.7194 859.3097,-1085.7194 853.3097,-1091.7194 847.3097,-1091.7194"/>
<text text-anchor="middle" x="788.753" y="-1067.7194" font-family="Arial" font-size="20.00" fill="#000000">Humidity Data</text>
<text text-anchor="middle" x="705.197" y="-1037.7194" font-family="Arial" font-size="20.00" fill="#000000">lv1</text>
</g>
<!-- sensor_temperature -->
<g id="sensor_temperature" class="node">
<title>sensor_temperature</title>
<path fill="none" stroke="#000000" d="M1438.3812,-605.7194C1438.3812,-605.7194 1283.8848,-605.7194 1283.8848,-605.7194 1277.8848,-605.7194 1271.8848,-599.7194 1271.8848,-593.7194 1271.8848,-593.7194 1271.8848,-581.7194 1271.8848,-581.7194 1271.8848,-575.7194 1277.8848,-569.7194 1283.8848,-569.7194 1283.8848,-569.7194 1438.3812,-569.7194 1438.3812,-569.7194 1444.3812,-569.7194 1450.3812,-575.7194 1450.3812,-581.7194 1450.3812,-581.7194 1450.3812,-593.7194 1450.3812,-593.7194 1450.3812,-599.7194 1444.3812,-605.7194 1438.3812,-605.7194"/>
<text text-anchor="middle" x="1361.133" y="-581.7194" font-family="Arial" font-size="20.00" fill="#000000">Temperature Data</text>
<text text-anchor="middle" x="1259.231" y="-575.7194" font-family="Arial" font-size="20.00" fill="#000000">lv1</text>
</g>
<!-- vehicle_maintenance_records_import -->
<g id="vehicle_maintenance_records_import" class="node">
<title>vehicle_maintenance_records_import</title>
<path fill="none" stroke="#000000" d="M357.316,-281.7194C357.316,-281.7194 37.636,-281.7194 37.636,-281.7194 31.636,-281.7194 25.636,-275.7194 25.636,-269.7194 25.636,-269.7194 25.636,-257.7194 25.636,-257.7194 25.636,-251.7194 31.636,-245.7194 37.636,-245.7194 37.636,-245.7194 357.316,-245.7194 357.316,-245.7194 363.316,-245.7194 369.316,-251.7194 369.316,-257.7194 369.316,-257.7194 369.316,-269.7194 369.316,-269.7194 369.316,-275.7194 363.316,-281.7194 357.316,-281.7194"/>
<text text-anchor="middle" x="197.476" y="-257.7194" font-family="Arial" font-size="20.00" fill="#000000">Vehicle Maintenance Records Import</text>
<text text-anchor="middle" x="12.778" y="-227.7194" font-family="Arial" font-size="20.00" fill="#000000">lv0</text>
</g>
<!-- sales_dashboard -->
<g id="sales_dashboard" class="node">
<title>sales_dashboard</title>
<path fill="none" stroke="#000000" d="M2681.5171,-983.7194C2681.5171,-983.7194 2436.9689,-983.7194 2436.9689,-983.7194 2430.9689,-983.7194 2424.9689,-977.7194 2424.9689,-971.7194 2424.9689,-971.7194 2424.9689,-959.7194 2424.9689,-959.7194 2424.9689,-953.7194 2430.9689,-947.7194 2436.9689,-947.7194 2436.9689,-947.7194 2681.5171,-947.7194 2681.5171,-947.7194 2687.5171,-947.7194 2693.5171,-953.7194 2693.5171,-959.7194 2693.5171,-959.7194 2693.5171,-971.7194 2693.5171,-971.7194 2693.5171,-977.7194 2687.5171,-983.7194 2681.5171,-983.7194"/>
<text text-anchor="middle" x="2559.243" y="-959.7194" font-family="Arial" font-size="20.00" fill="#000000">API: Sales Forecast Queries</text>
<text text-anchor="middle" x="2412.328" y="-929.7194" font-family="Arial" font-size="20.00" fill="#000000">lv3</text>
</g>
<!-- tire_spec_fetch -->
<g id="tire_spec_fetch" class="node">
<title>tire_spec_fetch</title>
<path fill="none" stroke="#000000" d="M264.1101,-821.7194C264.1101,-821.7194 130.8419,-821.7194 130.8419,-821.7194 124.8419,-821.7194 118.8419,-815.7194 118.8419,-809.7194 118.8419,-809.7194 118.8419,-797.7194 118.8419,-797.7194 118.8419,-791.7194 124.8419,-785.7194 130.8419,-785.7194 130.8419,-785.7194 264.1101,-785.7194 264.1101,-785.7194 270.1101,-785.7194 276.1101,-791.7194 276.1101,-797.7194 276.1101,-797.7194 276.1101,-809.7194 276.1101,-809.7194 276.1101,-815.7194 270.1101,-821.7194 264.1101,-821.7194"/>
<text text-anchor="middle" x="197.476" y="-797.7194" font-family="Arial" font-size="20.00" fill="#000000">Tire Spec Fetch</text>
<text text-anchor="middle" x="106.131" y="-791.7194" font-family="Arial" font-size="20.00" fill="#000000">lv0</text>
</g>
<!-- weather -->
<g id="weather" class="node">
<title>weather</title>
<path fill="none" stroke="#000000" d="M231.043,-875.7194C231.043,-875.7194 163.909,-875.7194 163.909,-875.7194 157.909,-875.7194 151.909,-869.7194 151.909,-863.7194 151.909,-863.7194 151.909,-851.7194 151.909,-851.7194 151.909,-845.7194 157.909,-839.7194 163.909,-839.7194 163.909,-839.7194 231.043,-839.7194 231.043,-839.7194 237.043,-839.7194 243.043,-845.7194 243.043,-851.7194 243.043,-851.7194 243.043,-863.7194 243.043,-863.7194 243.043,-869.7194 237.043,-875.7194 231.043,-875.7194"/>
<text text-anchor="middle" x="197.476" y="-851.7194" font-family="Arial" font-size="20.00" fill="#000000">Weather</text>
<text text-anchor="middle" x="138.915" y="-845.7194" font-family="Arial" font-size="20.00" fill="#000000">lv0</text>
</g>
<!-- sensor_data_collection -->
<g id="sensor_data_collection" class="node">
<title>sensor_data_collection</title>
<path fill="none" stroke="#000000" d="M295.9565,-767.7194C295.9565,-767.7194 98.9955,-767.7194 98.9955,-767.7194 92.9955,-767.7194 86.9955,-761.7194 86.9955,-755.7194 86.9955,-755.7194 86.9955,-743.7194 86.9955,-743.7194 86.9955,-737.7194 92.9955,-731.7194 98.9955,-731.7194 98.9955,-731.7194 295.9565,-731.7194 295.9565,-731.7194 301.9565,-731.7194 307.9565,-737.7194 307.9565,-743.7194 307.9565,-743.7194 307.9565,-755.7194 307.9565,-755.7194 307.9565,-761.7194 301.9565,-767.7194 295.9565,-767.7194"/>
<text text-anchor="middle" x="197.476" y="-743.7194" font-family="Arial" font-size="20.00" fill="#000000">Sensor Data Collection</text>
<text text-anchor="middle" x="74.458" y="-713.7194" font-family="Arial" font-size="20.00" fill="#000000">lv0</text>
</g>
<!-- public_relations -->
<g id="public_relations" class="node">
<title>public_relations</title>
<path fill="none" stroke="#000000" d="M2700.307,-1037.7194C2700.307,-1037.7194 2418.179,-1037.7194 2418.179,-1037.7194 2412.179,-1037.7194 2406.179,-1031.7194 2406.179,-1025.7194 2406.179,-1025.7194 2406.179,-1013.7194 2406.179,-1013.7194 2406.179,-1007.7194 2412.179,-1001.7194 2418.179,-1001.7194 2418.179,-1001.7194 2700.307,-1001.7194 2700.307,-1001.7194 2706.307,-1001.7194 2712.307,-1007.7194 2712.307,-1013.7194 2712.307,-1013.7194 2712.307,-1025.7194 2712.307,-1025.7194 2712.307,-1031.7194 2706.307,-1037.7194 2700.307,-1037.7194"/>
<text text-anchor="middle" x="2559.243" y="-1013.7194" font-family="Arial" font-size="20.00" fill="#000000">API: Public Relations Dashboard</text>
<text text-anchor="middle" x="2393.433" y="-983.7194" font-family="Arial" font-size="20.00" fill="#000000">lv3</text>
</g>
<!-- fb_crawler -->
<g id="fb_crawler" class="node">
<title>fb_crawler</title>
<path fill="none" stroke="#000000" d="M243.456,-983.7194C243.456,-983.7194 151.496,-983.7194 151.496,-983.7194 145.496,-983.7194 139.496,-977.7194 139.496,-971.7194 139.496,-971.7194 139.496,-959.7194 139.496,-959.7194 139.496,-953.7194 145.496,-947.7194 151.496,-947.7194 151.496,-947.7194 243.456,-947.7194 243.456,-947.7194 249.456,-947.7194 255.456,-953.7194 255.456,-959.7194 255.456,-959.7194 255.456,-971.7194 255.456,-971.7194 255.456,-977.7194 249.456,-983.7194 243.456,-983.7194"/>
<text text-anchor="middle" x="197.476" y="-959.7194" font-family="Arial" font-size="20.00" fill="#000000">FB Crawler</text>
<text text-anchor="middle" x="126.708" y="-929.7194" font-family="Arial" font-size="20.00" fill="#000000">lv0</text>
</g>
<!-- sensor_tire -->
<g id="sensor_tire" class="node">
<title>sensor_tire</title>
<path fill="none" stroke="#000000" d="M830.9933,-1037.7194C830.9933,-1037.7194 746.5127,-1037.7194 746.5127,-1037.7194 740.5127,-1037.7194 734.5127,-1031.7194 734.5127,-1025.7194 734.5127,-1025.7194 734.5127,-1013.7194 734.5127,-1013.7194 734.5127,-1007.7194 740.5127,-1001.7194 746.5127,-1001.7194 746.5127,-1001.7194 830.9933,-1001.7194 830.9933,-1001.7194 836.9933,-1001.7194 842.9933,-1007.7194 842.9933,-1013.7194 842.9933,-1013.7194 842.9933,-1025.7194 842.9933,-1025.7194 842.9933,-1031.7194 836.9933,-1037.7194 830.9933,-1037.7194"/>
<text text-anchor="middle" x="788.753" y="-1013.7194" font-family="Arial" font-size="20.00" fill="#000000">Lidar Data</text>
<text text-anchor="middle" x="721.855" y="-1007.7194" font-family="Arial" font-size="20.00" fill="#000000">lv1</text>
</g>
<!-- fleet_dashboard -->
<g id="fleet_dashboard" class="node">
<title>fleet_dashboard</title>
<path fill="none" stroke="#000000" d="M2650.9051,-929.7194C2650.9051,-929.7194 2467.5809,-929.7194 2467.5809,-929.7194 2461.5809,-929.7194 2455.5809,-923.7194 2455.5809,-917.7194 2455.5809,-917.7194 2455.5809,-905.7194 2455.5809,-905.7194 2455.5809,-899.7194 2461.5809,-893.7194 2467.5809,-893.7194 2467.5809,-893.7194 2650.9051,-893.7194 2650.9051,-893.7194 2656.9051,-893.7194 2662.9051,-899.7194 2662.9051,-905.7194 2662.9051,-905.7194 2662.9051,-917.7194 2662.9051,-917.7194 2662.9051,-923.7194 2656.9051,-929.7194 2650.9051,-929.7194"/>
<text text-anchor="middle" x="2559.243" y="-905.7194" font-family="Arial" font-size="20.00" fill="#000000">API: Fleet Dashboard</text>
<text text-anchor="middle" x="2442.884" y="-899.7194" font-family="Arial" font-size="20.00" fill="#000000">lv3</text>
</g>
<!-- lab_test_data_ingestion -->
<g id="lab_test_data_ingestion" class="node">
<title>lab_test_data_ingestion</title>
<path fill="none" stroke="#000000" d="M299.7742,-497.7194C299.7742,-497.7194 95.1778,-497.7194 95.1778,-497.7194 89.1778,-497.7194 83.1778,-491.7194 83.1778,-485.7194 83.1778,-485.7194 83.1778,-473.7194 83.1778,-473.7194 83.1778,-467.7194 89.1778,-461.7194 95.1778,-461.7194 95.1778,-461.7194 299.7742,-461.7194 299.7742,-461.7194 305.7742,-461.7194 311.7742,-467.7194 311.7742,-473.7194 311.7742,-473.7194 311.7742,-485.7194 311.7742,-485.7194 311.7742,-491.7194 305.7742,-497.7194 299.7742,-497.7194"/>
<text text-anchor="middle" x="197.476" y="-473.7194" font-family="Arial" font-size="20.00" fill="#000000">Lab Test Data Ingestion</text>
<text text-anchor="middle" x="70.549" y="-467.7194" font-family="Arial" font-size="20.00" fill="#000000">lv0</text>
</g>
<!-- sensor_gear -->
<g id="sensor_gear" class="node">
<title>sensor_gear</title>
<path fill="none" stroke="#000000" d="M830.9953,-929.7194C830.9953,-929.7194 746.5107,-929.7194 746.5107,-929.7194 740.5107,-929.7194 734.5107,-923.7194 734.5107,-917.7194 734.5107,-917.7194 734.5107,-905.7194 734.5107,-905.7194 734.5107,-899.7194 740.5107,-893.7194 746.5107,-893.7194 746.5107,-893.7194 830.9953,-893.7194 830.9953,-893.7194 836.9953,-893.7194 842.9953,-899.7194 842.9953,-905.7194 842.9953,-905.7194 842.9953,-917.7194 842.9953,-917.7194 842.9953,-923.7194 836.9953,-929.7194 830.9953,-929.7194"/>
<text text-anchor="middle" x="788.753" y="-905.7194" font-family="Arial" font-size="20.00" fill="#000000">Gear Data</text>
<text text-anchor="middle" x="721.854" y="-875.7194" font-family="Arial" font-size="20.00" fill="#000000">lv1</text>
</g>
<!-- sensor_lidar -->
<g id="sensor_lidar" class="node">
<title>sensor_lidar</title>
<path fill="none" stroke="#000000" d="M830.9933,-875.7194C830.9933,-875.7194 746.5127,-875.7194 746.5127,-875.7194 740.5127,-875.7194 734.5127,-869.7194 734.5127,-863.7194 734.5127,-863.7194 734.5127,-851.7194 734.5127,-851.7194 734.5127,-845.7194 740.5127,-839.7194 746.5127,-839.7194 746.5127,-839.7194 830.9933,-839.7194 830.9933,-839.7194 836.9933,-839.7194 842.9933,-845.7194 842.9933,-851.7194 842.9933,-851.7194 842.9933,-863.7194 842.9933,-863.7194 842.9933,-869.7194 836.9933,-875.7194 830.9933,-875.7194"/>
<text text-anchor="middle" x="788.753" y="-851.7194" font-family="Arial" font-size="20.00" fill="#000000">Lidar Data</text>
<text text-anchor="middle" x="721.855" y="-821.7194" font-family="Arial" font-size="20.00" fill="#000000">lv1</text>
</g>
<!-- customer_sentiment_analysis -->
<g id="customer_sentiment_analysis" class="node">
<title>customer_sentiment_analysis</title>
<path fill="none" stroke="#000000" d="M2071.3251,-1259.7194C2071.3251,-1259.7194 1816.8169,-1259.7194 1816.8169,-1259.7194 1810.8169,-1259.7194 1804.8169,-1253.7194 1804.8169,-1247.7194 1804.8169,-1247.7194 1804.8169,-1235.7194 1804.8169,-1235.7194 1804.8169,-1229.7194 1810.8169,-1223.7194 1816.8169,-1223.7194 1816.8169,-1223.7194 2071.3251,-1223.7194 2071.3251,-1223.7194 2077.3251,-1223.7194 2083.3251,-1229.7194 2083.3251,-1235.7194 2083.3251,-1235.7194 2083.3251,-1247.7194 2083.3251,-1247.7194 2083.3251,-1253.7194 2077.3251,-1259.7194 2071.3251,-1259.7194"/>
<text text-anchor="middle" x="1944.071" y="-1235.7194" font-family="Arial" font-size="20.00" fill="#000000">Customer Sentiment Analysis</text>
<text text-anchor="middle" x="1792.166" y="-1205.7194" font-family="Arial" font-size="20.00" fill="#000000">lv2</text>
</g>
<!-- social_media_sentiment_analysis -->
<g id="social_media_sentiment_analysis" class="node">
<title>social_media_sentiment_analysis</title>
<path fill="none" stroke="#000000" d="M1502.179,-1209.7194C1502.179,-1209.7194 1220.087,-1209.7194 1220.087,-1209.7194 1214.087,-1209.7194 1208.087,-1203.7194 1208.087,-1197.7194 1208.087,-1197.7194 1208.087,-1185.7194 1208.087,-1185.7194 1208.087,-1179.7194 1214.087,-1173.7194 1220.087,-1173.7194 1220.087,-1173.7194 1502.179,-1173.7194 1502.179,-1173.7194 1508.179,-1173.7194 1514.179,-1179.7194 1514.179,-1185.7194 1514.179,-1185.7194 1514.179,-1197.7194 1514.179,-1197.7194 1514.179,-1203.7194 1508.179,-1209.7194 1502.179,-1209.7194"/>
<text text-anchor="middle" x="1361.133" y="-1185.7194" font-family="Arial" font-size="20.00" fill="#000000">Social Media Sentiment Analysis</text>
<text text-anchor="middle" x="1195.332" y="-1155.7194" font-family="Arial" font-size="20.00" fill="#000000">lv2</text>
</g>
<!-- government_regulations_fetch -->
<g id="government_regulations_fetch" class="node">
<title>government_regulations_fetch</title>
<path fill="none" stroke="#000000" d="M331.7061,-173.7194C331.7061,-173.7194 63.2459,-173.7194 63.2459,-173.7194 57.2459,-173.7194 51.2459,-167.7194 51.2459,-161.7194 51.2459,-161.7194 51.2459,-149.7194 51.2459,-149.7194 51.2459,-143.7194 57.2459,-137.7194 63.2459,-137.7194 63.2459,-137.7194 331.7061,-137.7194 331.7061,-137.7194 337.7061,-137.7194 343.7061,-143.7194 343.7061,-149.7194 343.7061,-149.7194 343.7061,-161.7194 343.7061,-161.7194 343.7061,-167.7194 337.7061,-173.7194 331.7061,-173.7194"/>
<text text-anchor="middle" x="197.476" y="-149.7194" font-family="Arial" font-size="20.00" fill="#000000">Government Regulations Fetch</text>
<text text-anchor="middle" x="38.333" y="-119.7194" font-family="Arial" font-size="20.00" fill="#000000">lv0</text>
</g>
<!-- ig_crawler -->
<g id="ig_crawler" class="node">
<title>ig_crawler</title>
<path fill="none" stroke="#000000" d="M241.0169,-929.7194C241.0169,-929.7194 153.9351,-929.7194 153.9351,-929.7194 147.9351,-929.7194 141.9351,-923.7194 141.9351,-917.7194 141.9351,-917.7194 141.9351,-905.7194 141.9351,-905.7194 141.9351,-899.7194 147.9351,-893.7194 153.9351,-893.7194 153.9351,-893.7194 241.0169,-893.7194 241.0169,-893.7194 247.0169,-893.7194 253.0169,-899.7194 253.0169,-905.7194 253.0169,-905.7194 253.0169,-917.7194 253.0169,-917.7194 253.0169,-923.7194 247.0169,-929.7194 241.0169,-929.7194"/>
<text text-anchor="middle" x="197.476" y="-905.7194" font-family="Arial" font-size="20.00" fill="#000000">IG Crawler</text>
<text text-anchor="middle" x="128.928" y="-875.7194" font-family="Arial" font-size="20.00" fill="#000000">lv0</text>
</g>
<!-- x_crawler -->
<g id="x_crawler" class="node">
<title>x_crawler</title>
<path fill="none" stroke="#000000" d="M237.2383,-1145.7194C237.2383,-1145.7194 157.7137,-1145.7194 157.7137,-1145.7194 151.7137,-1145.7194 145.7137,-1139.7194 145.7137,-1133.7194 145.7137,-1133.7194 145.7137,-1121.7194 145.7137,-1121.7194 145.7137,-1115.7194 151.7137,-1109.7194 157.7137,-1109.7194 157.7137,-1109.7194 237.2383,-1109.7194 237.2383,-1109.7194 243.2383,-1109.7194 249.2383,-1115.7194 249.2383,-1121.7194 249.2383,-1121.7194 249.2383,-1133.7194 249.2383,-1133.7194 249.2383,-1139.7194 243.2383,-1145.7194 237.2383,-1145.7194"/>
<text text-anchor="middle" x="197.476" y="-1121.7194" font-family="Arial" font-size="20.00" fill="#000000">X Crawler</text>
<text text-anchor="middle" x="132.817" y="-1115.7194" font-family="Arial" font-size="20.00" fill="#000000">lv0</text>
</g>
<!-- customer_profile -->
<g id="customer_profile" class="node">
<title>customer_profile</title>
<path fill="none" stroke="#000000" d="M1431.523,-497.7194C1431.523,-497.7194 1290.743,-497.7194 1290.743,-497.7194 1284.743,-497.7194 1278.743,-491.7194 1278.743,-485.7194 1278.743,-485.7194 1278.743,-473.7194 1278.743,-473.7194 1278.743,-467.7194 1284.743,-461.7194 1290.743,-461.7194 1290.743,-461.7194 1431.523,-461.7194 1431.523,-461.7194 1437.523,-461.7194 1443.523,-467.7194 1443.523,-473.7194 1443.523,-473.7194 1443.523,-485.7194 1443.523,-485.7194 1443.523,-491.7194 1437.523,-497.7194 1431.523,-497.7194"/>
<text text-anchor="middle" x="1361.133" y="-473.7194" font-family="Arial" font-size="20.00" fill="#000000">Customer Profile</text>
<text text-anchor="middle" x="1265.91" y="-443.7194" font-family="Arial" font-size="20.00" fill="#000000">lv1</text>
</g>
<!-- sensor_gps -->
<g id="sensor_gps" class="node">
<title>sensor_gps</title>
<path fill="none" stroke="#000000" d="M829.777,-821.7194C829.777,-821.7194 747.729,-821.7194 747.729,-821.7194 741.729,-821.7194 735.729,-815.7194 735.729,-809.7194 735.729,-809.7194 735.729,-797.7194 735.729,-797.7194 735.729,-791.7194 741.729,-785.7194 747.729,-785.7194 747.729,-785.7194 829.777,-785.7194 829.777,-785.7194 835.777,-785.7194 841.777,-791.7194 841.777,-797.7194 841.777,-797.7194 841.777,-809.7194 841.777,-809.7194 841.777,-815.7194 835.777,-821.7194 829.777,-821.7194"/>
<text text-anchor="middle" x="788.753" y="-797.7194" font-family="Arial" font-size="20.00" fill="#000000">GPS Data</text>
<text text-anchor="middle" x="722.963" y="-791.7194" font-family="Arial" font-size="20.00" fill="#000000">lv1</text>
</g>
<!-- sensor_accelerometer -->
<g id="sensor_accelerometer" class="node">
<title>sensor_accelerometer</title>
<path fill="none" stroke="#000000" d="M872.9413,-767.7194C872.9413,-767.7194 704.5647,-767.7194 704.5647,-767.7194 698.5647,-767.7194 692.5647,-761.7194 692.5647,-755.7194 692.5647,-755.7194 692.5647,-743.7194 692.5647,-743.7194 692.5647,-737.7194 698.5647,-731.7194 704.5647,-731.7194 704.5647,-731.7194 872.9413,-731.7194 872.9413,-731.7194 878.9413,-731.7194 884.9413,-737.7194 884.9413,-743.7194 884.9413,-743.7194 884.9413,-755.7194 884.9413,-755.7194 884.9413,-761.7194 878.9413,-767.7194 872.9413,-767.7194"/>
<text text-anchor="middle" x="788.753" y="-743.7194" font-family="Arial" font-size="20.00" fill="#000000">Accelerometer Data</text>
<text text-anchor="middle" x="679.631" y="-713.7194" font-family="Arial" font-size="20.00" fill="#000000">lv1</text>
</g>
<!-- sensor_camera -->
<g id="sensor_camera" class="node">
<title>sensor_camera</title>
<path fill="none" stroke="#000000" d="M844.151,-983.7194C844.151,-983.7194 733.355,-983.7194 733.355,-983.7194 727.355,-983.7194 721.355,-977.7194 721.355,-971.7194 721.355,-971.7194 721.355,-959.7194 721.355,-959.7194 721.355,-953.7194 727.355,-947.7194 733.355,-947.7194 733.355,-947.7194 844.151,-947.7194 844.151,-947.7194 850.151,-947.7194 856.151,-953.7194 856.151,-959.7194 856.151,-959.7194 856.151,-971.7194 856.151,-971.7194 856.151,-977.7194 850.151,-983.7194 844.151,-983.7194"/>
<text text-anchor="middle" x="788.753" y="-959.7194" font-family="Arial" font-size="20.00" fill="#000000">Camera Data</text>
<text text-anchor="middle" x="708.526" y="-929.7194" font-family="Arial" font-size="20.00" fill="#000000">lv1</text>
</g>
<!-- transaction_data_cleansing -->
<g id="transaction_data_cleansing" class="node">
<title>transaction_data_cleansing</title>
<path fill="none" stroke="#000000" d="M907.9672,-551.7194C907.9672,-551.7194 669.5388,-551.7194 669.5388,-551.7194 663.5388,-551.7194 657.5388,-545.7194 657.5388,-539.7194 657.5388,-539.7194 657.5388,-527.7194 657.5388,-527.7194 657.5388,-521.7194 663.5388,-515.7194 669.5388,-515.7194 669.5388,-515.7194 907.9672,-515.7194 907.9672,-515.7194 913.9672,-515.7194 919.9672,-521.7194 919.9672,-527.7194 919.9672,-527.7194 919.9672,-539.7194 919.9672,-539.7194 919.9672,-545.7194 913.9672,-551.7194 907.9672,-551.7194"/>
<text text-anchor="middle" x="788.753" y="-527.7194" font-family="Arial" font-size="20.00" fill="#000000">Transaction Data Cleansing</text>
<text text-anchor="middle" x="644.618" y="-497.7194" font-family="Arial" font-size="20.00" fill="#000000">lv1</text>
</g>
<!-- battery_spec_fetch -->
<g id="battery_spec_fetch" class="node">
<title>battery_spec_fetch</title>
<path fill="none" stroke="#000000" d="M278.526,-713.7194C278.526,-713.7194 116.426,-713.7194 116.426,-713.7194 110.426,-713.7194 104.426,-707.7194 104.426,-701.7194 104.426,-701.7194 104.426,-689.7194 104.426,-689.7194 104.426,-683.7194 110.426,-677.7194 116.426,-677.7194 116.426,-677.7194 278.526,-677.7194 278.526,-677.7194 284.526,-677.7194 290.526,-683.7194 290.526,-689.7194 290.526,-689.7194 290.526,-701.7194 290.526,-701.7194 290.526,-707.7194 284.526,-713.7194 278.526,-713.7194"/>
<text text-anchor="middle" x="197.476" y="-689.7194" font-family="Arial" font-size="20.00" fill="#000000">Battery Spec Fetch</text>
<text text-anchor="middle" x="91.673" y="-683.7194" font-family="Arial" font-size="20.00" fill="#000000">lv0</text>
</g>
<!-- news_crawler -->
<g id="news_crawler" class="node">
<title>news_crawler</title>
<path fill="none" stroke="#000000" d="M255.8946,-1091.7194C255.8946,-1091.7194 139.0574,-1091.7194 139.0574,-1091.7194 133.0574,-1091.7194 127.0574,-1085.7194 127.0574,-1079.7194 127.0574,-1079.7194 127.0574,-1067.7194 127.0574,-1067.7194 127.0574,-1061.7194 133.0574,-1055.7194 139.0574,-1055.7194 139.0574,-1055.7194 255.8946,-1055.7194 255.8946,-1055.7194 261.8946,-1055.7194 267.8946,-1061.7194 267.8946,-1067.7194 267.8946,-1067.7194 267.8946,-1079.7194 267.8946,-1079.7194 267.8946,-1085.7194 261.8946,-1091.7194 255.8946,-1091.7194"/>
<text text-anchor="middle" x="197.476" y="-1067.7194" font-family="Arial" font-size="20.00" fill="#000000">News Crawler</text>
<text text-anchor="middle" x="114.489" y="-1061.7194" font-family="Arial" font-size="20.00" fill="#000000">lv0</text>
</g>
<!-- vehicle_manufacture_records_import -->
<g id="vehicle_manufacture_records_import" class="node">
<title>vehicle_manufacture_records_import</title>
<path fill="none" stroke="#000000" d="M324.7501,-605.7194C324.7501,-605.7194 70.2019,-605.7194 70.2019,-605.7194 64.2019,-605.7194 58.2019,-599.7194 58.2019,-593.7194 58.2019,-593.7194 58.2019,-581.7194 58.2019,-581.7194 58.2019,-575.7194 64.2019,-569.7194 70.2019,-569.7194 70.2019,-569.7194 324.7501,-569.7194 324.7501,-569.7194 330.7501,-569.7194 336.7501,-575.7194 336.7501,-581.7194 336.7501,-581.7194 336.7501,-593.7194 336.7501,-593.7194 336.7501,-599.7194 330.7501,-605.7194 324.7501,-605.7194"/>
<text text-anchor="middle" x="197.476" y="-581.7194" font-family="Arial" font-size="20.00" fill="#000000">Vehicle Manufacture Records</text>
<text text-anchor="middle" x="45.561" y="-551.7194" font-family="Arial" font-size="20.00" fill="#000000">lv0</text>
</g>
<!-- predictive_maintenance_model -->
<g id="predictive_maintenance_model" class="node">
<title>predictive_maintenance_model</title>
<path fill="none" stroke="#000000" d="M2073.9011,-1151.7194C2073.9011,-1151.7194 1814.2409,-1151.7194 1814.2409,-1151.7194 1808.2409,-1151.7194 1802.2409,-1145.7194 1802.2409,-1139.7194 1802.2409,-1139.7194 1802.2409,-1127.7194 1802.2409,-1127.7194 1802.2409,-1121.7194 1808.2409,-1115.7194 1814.2409,-1115.7194 1814.2409,-1115.7194 2073.9011,-1115.7194 2073.9011,-1115.7194 2079.9011,-1115.7194 2085.9011,-1121.7194 2085.9011,-1127.7194 2085.9011,-1127.7194 2085.9011,-1139.7194 2085.9011,-1139.7194 2085.9011,-1145.7194 2079.9011,-1151.7194 2073.9011,-1151.7194"/>
<text text-anchor="middle" x="1944.071" y="-1127.7194" font-family="Arial" font-size="20.00" fill="#000000">Predictive Maintenance Model</text>
<text text-anchor="middle" x="1789.378" y="-1097.7194" font-family="Arial" font-size="20.00" fill="#000000">lv2</text>
</g>
<!-- sales_forecast -->
<g id="sales_forecast" class="node">
<title>sales_forecast</title>
<path fill="none" stroke="#000000" d="M2006.9294,-1205.7194C2006.9294,-1205.7194 1881.2126,-1205.7194 1881.2126,-1205.7194 1875.2126,-1205.7194 1869.2126,-1199.7194 1869.2126,-1193.7194 1869.2126,-1193.7194 1869.2126,-1181.7194 1869.2126,-1181.7194 1869.2126,-1175.7194 1875.2126,-1169.7194 1881.2126,-1169.7194 1881.2126,-1169.7194 2006.9294,-1169.7194 2006.9294,-1169.7194 2012.9294,-1169.7194 2018.9294,-1175.7194 2018.9294,-1181.7194 2018.9294,-1181.7194 2018.9294,-1193.7194 2018.9294,-1193.7194 2018.9294,-1199.7194 2012.9294,-1205.7194 2006.9294,-1205.7194"/>
<text text-anchor="middle" x="1944.071" y="-1181.7194" font-family="Arial" font-size="20.00" fill="#000000">Sales Forecast</text>
<text text-anchor="middle" x="1856.614" y="-1175.7194" font-family="Arial" font-size="20.00" fill="#000000">lv2</text>
</g>
</g>
</svg>
