<?xml version="1.0" encoding="UTF-8" standalone="no"?>
<!DOCTYPE svg PUBLIC "-//W3C//DTD SVG 1.1//EN"
 "http://www.w3.org/Graphics/SVG/1.1/DTD/svg11.dtd">
<!-- Generated by graphviz version 2.40.1 (20161225.0304)
 -->
<!-- Pages: 1 -->
<svg width="1362pt" height="810pt"
 viewBox="0.00 0.00 1362.14 810.00" xmlns="http://www.w3.org/2000/svg" xmlns:xlink="http://www.w3.org/1999/xlink">
<g id="RootGraph" class="graph" transform="scale(.4267 .4267) rotate(0) translate(216 1682.4285)">
<polygon fill="#323237" stroke="transparent" points="-216,216 -216,-1682.4285 2976.5,-1682.4285 2976.5,216 -216,216"/>
<text text-anchor="middle" x="2149.068" y="-1354.4285" font-family="Arial" font-size="120.00" fill="#f3f3f3">Task Lineage Diagram</text>
<g id="lv2" class="cluster">
<title>cluster_lv2</title>
</g>
<g id="lv1" class="cluster">
<title>cluster_lv1</title>
</g>
<g id="lv0" class="cluster">
<title>cluster_lv0</title>
</g>
<g id="lv3" class="cluster">
<title>cluster_lv3</title>
</g>
<!-- ig_crawler&#45;&gt;social_media_discussions -->
<g id="edge7" class="edge">
<title>ig_crawler&#45;&gt;social_media_discussions</title>
<g id="a_edge7"><a xlink:title="ig_crawler&#45;&gt;social_media_discussions">
<path fill="none" stroke="#737d82" d="M253.1557,-1050.9185C288.9874,-1055.1525 336.3595,-1062.0643 377.396,-1072.4285 501.98,-1103.8933 526.111,-1134.2066 649.396,-1170.4285 663.3289,-1174.522 678.1711,-1178.4157 692.7796,-1181.9871"/>
<polygon fill="#737d82" stroke="#737d82" points="692.3006,-1185.4716 702.8417,-1184.4067 693.9372,-1178.6656 692.3006,-1185.4716"/>
</a>
</g>
</g>
<!-- x_crawler&#45;&gt;social_media_discussions -->
<g id="edge5" class="edge">
<title>x_crawler&#45;&gt;social_media_discussions</title>
<g id="a_edge5"><a xlink:title="x_crawler&#45;&gt;social_media_discussions">
<path fill="none" stroke="#737d82" d="M249.4404,-994.262C286.0215,-997.4434 335.7008,-1004.1807 377.396,-1018.4285 508.4405,-1063.2081 520.1662,-1120.6536 649.396,-1170.4285 660.3449,-1174.6456 672.0014,-1178.3964 683.7308,-1181.7092"/>
<polygon fill="#737d82" stroke="#737d82" points="683.0187,-1185.1426 693.5867,-1184.3896 684.8557,-1178.3879 683.0187,-1185.1426"/>
</a>
</g>
</g>
<!-- sensor_gps&#45;&gt;fleet_optimization_model -->
<g id="edge66" class="edge">
<title>sensor_gps&#45;&gt;fleet_optimization_model</title>
<g id="a_edge66"><a xlink:title="sensor_gps&#45;&gt;fleet_optimization_model">
<path fill="none" stroke="#737d82" d="M841.8986,-861.849C866.4982,-865.7238 895.6276,-872.306 920.11,-883.4285 1066.5134,-949.9404 1061.4045,-1036.5856 1208.11,-1102.4285 1216.0059,-1105.9722 1224.316,-1109.0987 1232.8139,-1111.8569"/>
<polygon fill="#737d82" stroke="#737d82" points="1231.8892,-1115.2342 1242.4758,-1114.8172 1233.9398,-1108.5413 1231.8892,-1115.2342"/>
</a>
</g>
</g>
<!-- sensor_tire&#45;&gt;fleet_optimization_model -->
<g id="edge58" class="edge">
<title>sensor_tire&#45;&gt;fleet_optimization_model</title>
<g id="a_edge58"><a xlink:title="sensor_tire&#45;&gt;fleet_optimization_model">
<path fill="none" stroke="#737d82" d="M843.0238,-1029.3731C922.9441,-1045.4736 1077.0074,-1076.447 1208.11,-1102.4285 1224.5372,-1105.684 1241.9604,-1109.1178 1258.9391,-1112.4538"/>
<polygon fill="#737d82" stroke="#737d82" points="1258.3866,-1115.912 1268.8736,-1114.4045 1259.7354,-1109.0432 1258.3866,-1115.912"/>
</a>
</g>
</g>
<!-- sensor_humidity&#45;&gt;fleet_optimization_model -->
<g id="edge63" class="edge">
<title>sensor_humidity&#45;&gt;fleet_optimization_model</title>
<g id="a_edge63"><a xlink:title="sensor_humidity&#45;&gt;fleet_optimization_model">
<path fill="none" stroke="#737d82" d="M859.5121,-1079.8458C952.4418,-1089.5872 1117.3027,-1106.8688 1232.5752,-1118.9523"/>
<polygon fill="#737d82" stroke="#737d82" points="1232.2145,-1122.4336 1242.525,-1119.9953 1232.9444,-1115.4718 1232.2145,-1122.4336"/>
</a>
</g>
</g>
<!-- vehicle_profile&#45;&gt;fleet_dashboard -->
<g id="edge26" class="edge">
<title>vehicle_profile&#45;&gt;fleet_dashboard</title>
<g id="a_edge26"><a xlink:title="vehicle_profile&#45;&gt;fleet_dashboard">
<path fill="none" stroke="#737d82" d="M860.7094,-545.5683C880.1056,-549.5583 901.0051,-554.2684 920.11,-559.4285 1050.5027,-594.6465 1077.5579,-621.806 1208.11,-656.4285 1714.9958,-790.8547 1848.8044,-796.6712 2365.986,-883.4285 2391.6864,-887.7397 2419.3907,-891.8978 2445.5742,-895.6056"/>
<polygon fill="#737d82" stroke="#737d82" points="2445.1378,-899.0786 2455.5275,-897.004 2446.1117,-892.1467 2445.1378,-899.0786"/>
</a>
</g>
</g>
<!-- vehicle_profile&#45;&gt;fleet_optimization_model -->
<g id="edge55" class="edge">
<title>vehicle_profile&#45;&gt;fleet_optimization_model</title>
<g id="a_edge55"><a xlink:title="vehicle_profile&#45;&gt;fleet_optimization_model">
<path fill="none" stroke="#737d82" d="M860.6433,-535.7255C881.4177,-539.5652 903.0604,-546.6565 920.11,-559.4285 1138.7454,-723.2098 988.7293,-939.6468 1208.11,-1102.4285 1215.7745,-1108.1156 1224.23,-1112.8053 1233.1133,-1116.6644"/>
<polygon fill="#737d82" stroke="#737d82" points="1231.9244,-1119.958 1242.5103,-1120.3923 1234.5057,-1113.4513 1231.9244,-1119.958"/>
</a>
</g>
</g>
<!-- vehicle_profile&#45;&gt;maintenance_insights -->
<g id="edge69" class="edge">
<title>vehicle_profile&#45;&gt;maintenance_insights</title>
<g id="a_edge69"><a xlink:title="vehicle_profile&#45;&gt;maintenance_insights">
<path fill="none" stroke="#737d82" d="M860.7051,-546.4708C944.214,-562.735 1086.0871,-590.2626 1208.11,-613.4285 1722.413,-711.0682 1849.3189,-745.1899 2365.986,-829.4285 2385.0073,-832.5297 2405.1181,-835.586 2424.8951,-838.4641"/>
<polygon fill="#737d82" stroke="#737d82" points="2424.4858,-841.9412 2434.8835,-839.907 2425.4867,-835.0131 2424.4858,-841.9412"/>
</a>
</g>
</g>
<!-- customer_sentiment_analysis&#45;&gt;kpi_benchmarking -->
<g id="edge50" class="edge">
<title>customer_sentiment_analysis&#45;&gt;kpi_benchmarking</title>
<g id="a_edge50"><a xlink:title="customer_sentiment_analysis&#45;&gt;kpi_benchmarking">
<path fill="none" stroke="#737d82" d="M2083.2787,-1234.3186C2197.3302,-1229.3129 2356.0254,-1222.3477 2458.1988,-1217.8633"/>
<polygon fill="#737d82" stroke="#737d82" points="2458.3771,-1221.3589 2468.214,-1217.4237 2458.0701,-1214.3657 2458.3771,-1221.3589"/>
</a>
</g>
</g>
<!-- customer_sentiment_analysis&#45;&gt;public_relations -->
<g id="edge72" class="edge">
<title>customer_sentiment_analysis&#45;&gt;public_relations</title>
<g id="a_edge72"><a xlink:title="customer_sentiment_analysis&#45;&gt;public_relations">
<path fill="none" stroke="#737d82" d="M2058.1604,-1222.422C2067.6924,-1219.8052 2077.0808,-1216.8233 2085.986,-1213.4285 2221.5923,-1161.7325 2229.1493,-1093.7735 2365.986,-1045.4285 2375.6686,-1042.0076 2385.7677,-1039.0183 2396.049,-1036.4063"/>
<polygon fill="#737d82" stroke="#737d82" points="2397.0546,-1039.7641 2405.9545,-1034.0158 2395.4124,-1032.9595 2397.0546,-1039.7641"/>
</a>
</g>
</g>
<!-- customer_service_logs_import&#45;&gt;transaction_data_cleansing -->
<g id="edge38" class="edge">
<title>customer_service_logs_import&#45;&gt;transaction_data_cleansing</title>
<g id="a_edge38"><a xlink:title="customer_service_logs_import&#45;&gt;transaction_data_cleansing">
<path fill="none" stroke="#737d82" d="M329.0667,-415.4553C423.4744,-428.3883 550.5398,-445.7953 647.1521,-459.0303"/>
<polygon fill="#737d82" stroke="#737d82" points="646.9094,-462.5297 657.292,-460.4194 647.8596,-455.5945 646.9094,-462.5297"/>
</a>
</g>
</g>
<!-- customer_service_logs_import&#45;&gt;sales_data_cleansing -->
<g id="edge44" class="edge">
<title>customer_service_logs_import&#45;&gt;sales_data_cleansing</title>
<g id="a_edge44"><a xlink:title="customer_service_logs_import&#45;&gt;sales_data_cleansing">
<path fill="none" stroke="#737d82" d="M338.0435,-379.3466C351.4233,-376.7231 364.7186,-373.7613 377.396,-370.4285 502.5669,-337.5216 522.1235,-289.9303 649.396,-266.4285 767.713,-244.5803 802.7998,-239.697 920.11,-266.4285 1081.7557,-303.2627 1253.2416,-407.1373 1325.6281,-454.4348"/>
<polygon fill="#737d82" stroke="#737d82" points="1324.086,-457.6099 1334.3636,-460.1834 1327.9341,-451.7624 1324.086,-457.6099"/>
</a>
</g>
</g>
<!-- customer_service_logs_import&#45;&gt;customer_profile -->
<g id="edge13" class="edge">
<title>customer_service_logs_import&#45;&gt;customer_profile</title>
<g id="a_edge13"><a xlink:title="customer_service_logs_import&#45;&gt;customer_profile">
<path fill="none" stroke="#737d82" d="M340.8405,-380.2822C519.443,-360.5929 814.0343,-334.077 920.11,-359.4285 1059.6872,-392.7866 1071.9738,-460.0246 1208.11,-505.4285 1227.3533,-511.8465 1248.4944,-516.8236 1268.7582,-520.6527"/>
<polygon fill="#737d82" stroke="#737d82" points="1268.1592,-524.1011 1278.6232,-522.4414 1269.4082,-517.2134 1268.1592,-524.1011"/>
</a>
</g>
</g>
<!-- fab_pipeline_data_sync&#45;&gt;predictive_maintenance_model -->
<g id="edge10" class="edge">
<title>fab_pipeline_data_sync&#45;&gt;predictive_maintenance_model</title>
<g id="a_edge10"><a xlink:title="fab_pipeline_data_sync&#45;&gt;predictive_maintenance_model">
<path fill="none" stroke="#737d82" d="M310.1057,-274.4697C332.4803,-270.9518 355.7438,-266.9047 377.396,-262.4285 499.8589,-237.1111 525.3888,-206.5633 649.396,-190.4285 744.6773,-178.0312 1433.3311,-138.4713 1514.156,-190.4285 1854.6553,-409.3137 1928.7696,-971.9212 1941.6823,-1104.2563"/>
<polygon fill="#737d82" stroke="#737d82" points="1938.2132,-1104.7499 1942.6308,-1114.3798 1945.1826,-1104.0968 1938.2132,-1104.7499"/>
</a>
</g>
</g>
<!-- transaction_logs_import&#45;&gt;transaction_data_cleansing -->
<g id="edge40" class="edge">
<title>transaction_logs_import&#45;&gt;transaction_data_cleansing</title>
<g id="a_edge40"><a xlink:title="transaction_logs_import&#45;&gt;transaction_data_cleansing">
<path fill="none" stroke="#737d82" d="M313.2356,-543.5704C408.893,-530.4661 545.0823,-511.8093 647.2146,-497.818"/>
<polygon fill="#737d82" stroke="#737d82" points="647.8691,-501.2612 657.3015,-496.4362 646.9189,-494.3259 647.8691,-501.2612"/>
</a>
</g>
</g>
<!-- vehicle_manufacture_records_import&#45;&gt;vehicle_profile -->
<g id="edge29" class="edge">
<title>vehicle_manufacture_records_import&#45;&gt;vehicle_profile</title>
<g id="a_edge29"><a xlink:title="vehicle_manufacture_records_import&#45;&gt;vehicle_profile">
<path fill="none" stroke="#737d82" d="M331.9698,-649.3642C347.3476,-646.6721 362.7517,-643.6908 377.396,-640.4285 500.5133,-613.0013 526.8881,-589.4606 649.396,-559.4285 667.9439,-554.8816 688.0319,-550.6134 707.0282,-546.8718"/>
<polygon fill="#737d82" stroke="#737d82" points="707.6993,-550.307 716.8486,-544.9645 706.3647,-543.4354 707.6993,-550.307"/>
</a>
</g>
</g>
<!-- sensor_accelerometer&#45;&gt;fleet_optimization_model -->
<g id="edge64" class="edge">
<title>sensor_accelerometer&#45;&gt;fleet_optimization_model</title>
<g id="a_edge64"><a xlink:title="sensor_accelerometer&#45;&gt;fleet_optimization_model">
<path fill="none" stroke="#737d82" d="M885.2573,-815.7734C897.3552,-819.3074 909.2722,-823.7766 920.11,-829.4285 1076.4912,-910.9804 1051.3582,-1021.5913 1208.11,-1102.4285 1215.8895,-1106.4403 1224.1447,-1109.9174 1232.6315,-1112.9307"/>
<polygon fill="#737d82" stroke="#737d82" points="1231.7053,-1116.3109 1242.2988,-1116.1395 1233.9106,-1109.6674 1231.7053,-1116.3109"/>
</a>
</g>
</g>
<!-- sensor_bms&#45;&gt;fleet_optimization_model -->
<g id="edge62" class="edge">
<title>sensor_bms&#45;&gt;fleet_optimization_model</title>
<g id="a_edge62"><a xlink:title="sensor_bms&#45;&gt;fleet_optimization_model">
<path fill="none" stroke="#737d82" d="M842.6293,-587.5794C868.1062,-590.4672 897.7608,-597.4519 920.11,-613.4285 1125.2987,-760.1097 1002.2539,-956.6854 1208.11,-1102.4285 1215.8174,-1107.8852 1224.2656,-1112.4119 1233.1096,-1116.1606"/>
<polygon fill="#737d82" stroke="#737d82" points="1231.866,-1119.4323 1242.4547,-1119.792 1234.4014,-1112.9076 1231.866,-1119.4323"/>
</a>
</g>
</g>
<!-- sensor_bms&#45;&gt;sensor_temperature -->
<g id="edge2" class="edge">
<title>sensor_bms&#45;&gt;sensor_temperature</title>
<g id="a_edge2"><a xlink:title="sensor_bms&#45;&gt;sensor_temperature">
<path fill="none" stroke="#737d82" d="M842.3439,-586.4285C938.1017,-586.4285 1139.9317,-586.4285 1261.6976,-586.4285"/>
<polygon fill="#737d82" stroke="#737d82" points="1261.7731,-589.9286 1271.7731,-586.4285 1261.773,-582.9286 1261.7731,-589.9286"/>
</a>
</g>
</g>
<!-- transaction_data_cleansing&#45;&gt;sales_data_cleansing -->
<g id="edge46" class="edge">
<title>transaction_data_cleansing&#45;&gt;sales_data_cleansing</title>
<g id="a_edge46"><a xlink:title="transaction_data_cleansing&#45;&gt;sales_data_cleansing">
<path fill="none" stroke="#737d82" d="M920.0685,-478.4285C1018.6281,-478.4285 1152.2565,-478.4285 1246.5196,-478.4285"/>
<polygon fill="#737d82" stroke="#737d82" points="1246.6633,-481.9286 1256.6633,-478.4285 1246.6632,-474.9286 1246.6633,-481.9286"/>
</a>
</g>
</g>
<!-- transaction_data_cleansing&#45;&gt;customer_profile -->
<g id="edge15" class="edge">
<title>transaction_data_cleansing&#45;&gt;customer_profile</title>
<g id="a_edge15"><a xlink:title="transaction_data_cleansing&#45;&gt;customer_profile">
<path fill="none" stroke="#737d82" d="M920.0685,-490.8172C1026.5893,-500.8666 1174.0731,-514.7807 1268.5523,-523.6941"/>
<polygon fill="#737d82" stroke="#737d82" points="1268.3797,-527.1933 1278.6643,-524.6481 1269.0373,-520.2242 1268.3797,-527.1933"/>
</a>
</g>
</g>
<!-- kpi_benchmarking&#45;&gt;kpi_dashboard -->
<g id="edge41" class="edge">
<title>kpi_benchmarking&#45;&gt;kpi_dashboard</title>
<g id="a_edge41"><a xlink:title="kpi_benchmarking&#45;&gt;kpi_dashboard">
<path fill="none" stroke="#737d82" d="M2559.243,-1195.1967C2559.243,-1163.7373 2559.243,-1132.2778 2559.243,-1100.8184"/>
<polygon fill="#737d82" stroke="#737d82" points="2562.7431,-1100.6042 2559.243,-1090.6042 2555.7431,-1100.6043 2562.7431,-1100.6042"/>
</a>
</g>
</g>
<!-- social_media_sentiment_analysis&#45;&gt;kpi_benchmarking -->
<g id="edge49" class="edge">
<title>social_media_sentiment_analysis&#45;&gt;kpi_benchmarking</title>
<g id="a_edge49"><a xlink:title="social_media_sentiment_analysis&#45;&gt;kpi_benchmarking">
<path fill="none" stroke="#737d82" d="M1426.5928,-1208.4967C1512.1356,-1231.0851 1666.9758,-1268.4789 1802.156,-1282.4285 2041.4266,-1307.1193 2323.7273,-1261.6834 2466.5216,-1233.4557"/>
<polygon fill="#737d82" stroke="#737d82" points="2467.4366,-1236.8422 2476.5592,-1231.4542 2466.0678,-1229.9774 2467.4366,-1236.8422"/>
</a>
</g>
</g>
<!-- social_media_sentiment_analysis&#45;&gt;public_relations -->
<g id="edge73" class="edge">
<title>social_media_sentiment_analysis&#45;&gt;public_relations</title>
<g id="a_edge73"><a xlink:title="social_media_sentiment_analysis&#45;&gt;public_relations">
<path fill="none" stroke="#737d82" d="M1450.5399,-1172.3626C1559.061,-1150.5813 1735.7779,-1115.6239 1802.156,-1105.4285 2006.0932,-1074.1044 2242.5184,-1048.6584 2396.1673,-1033.5534"/>
<polygon fill="#737d82" stroke="#737d82" points="2396.556,-1037.0322 2406.167,-1032.5735 2395.8732,-1030.0655 2396.556,-1037.0322"/>
</a>
</g>
</g>
<!-- social_media_sentiment_analysis&#45;&gt;sales_forecast -->
<g id="edge19" class="edge">
<title>social_media_sentiment_analysis&#45;&gt;sales_forecast</title>
<g id="a_edge19"><a xlink:title="social_media_sentiment_analysis&#45;&gt;sales_forecast">
<path fill="none" stroke="#737d82" d="M1514.2931,-1189.3775C1624.4053,-1188.6219 1768.8016,-1187.6311 1859.0114,-1187.0121"/>
<polygon fill="#737d82" stroke="#737d82" points="1859.2191,-1190.5109 1869.1948,-1186.9422 1859.171,-1183.511 1859.2191,-1190.5109"/>
</a>
</g>
</g>
<!-- dmv_record_fetch&#45;&gt;vehicle_profile -->
<g id="edge30" class="edge">
<title>dmv_record_fetch&#45;&gt;vehicle_profile</title>
<g id="a_edge30"><a xlink:title="dmv_record_fetch&#45;&gt;vehicle_profile">
<path fill="none" stroke="#737d82" d="M290.5135,-509.6769C404.8785,-514.8993 597.1815,-523.6806 706.4126,-528.6685"/>
<polygon fill="#737d82" stroke="#737d82" points="706.5693,-532.1792 716.7186,-529.1391 706.8887,-525.1865 706.5693,-532.1792"/>
</a>
</g>
</g>
<!-- dmv_record_fetch&#45;&gt;customer_profile -->
<g id="edge14" class="edge">
<title>dmv_record_fetch&#45;&gt;customer_profile</title>
<g id="a_edge14"><a xlink:title="dmv_record_fetch&#45;&gt;customer_profile">
<path fill="none" stroke="#737d82" d="M290.6248,-495.0096C318.738,-490.913 349.5279,-485.4668 377.396,-478.4285 501.98,-446.9637 522.8161,-402.5359 649.396,-380.4285 767.9192,-359.7281 802.3058,-355.9657 920.11,-380.4285 1056.7319,-408.7988 1074.4829,-465.2511 1208.11,-505.4285 1227.3375,-511.2095 1248.3188,-515.9113 1268.4091,-519.6726"/>
<polygon fill="#737d82" stroke="#737d82" points="1268.0393,-523.1625 1278.5028,-521.4992 1269.2859,-516.2744 1268.0393,-523.1625"/>
</a>
</g>
</g>
<!-- sales_data_cleansing&#45;&gt;sales_forecast -->
<g id="edge20" class="edge">
<title>sales_data_cleansing&#45;&gt;sales_forecast</title>
<g id="a_edge20"><a xlink:title="sales_data_cleansing&#45;&gt;sales_forecast">
<path fill="none" stroke="#737d82" d="M1465.343,-482.705C1482.9357,-487.2115 1500.0425,-494.3542 1514.156,-505.4285 1764.0208,-701.4863 1553.6065,-961.7058 1802.156,-1159.4285 1818.3484,-1172.3096 1838.8428,-1179.6925 1859.1849,-1183.7832"/>
<polygon fill="#737d82" stroke="#737d82" points="1858.6837,-1187.2488 1869.1393,-1185.5366 1859.8981,-1180.3549 1858.6837,-1187.2488"/>
</a>
</g>
</g>
<!-- sensor_gyroscope&#45;&gt;fleet_optimization_model -->
<g id="edge65" class="edge">
<title>sensor_gyroscope&#45;&gt;fleet_optimization_model</title>
<g id="a_edge65"><a xlink:title="sensor_gyroscope&#45;&gt;fleet_optimization_model">
<path fill="none" stroke="#737d82" d="M869.2087,-756.4533C886.7763,-760.4832 904.7046,-766.4904 920.11,-775.4285 1087.6217,-872.617 1040.1564,-1006.0056 1208.11,-1102.4285 1215.955,-1106.9323 1224.3591,-1110.7715 1233.0426,-1114.0429"/>
<polygon fill="#737d82" stroke="#737d82" points="1231.9667,-1117.3745 1242.5616,-1117.3744 1234.2791,-1110.7674 1231.9667,-1117.3745"/>
</a>
</g>
</g>
<!-- sensor_lidar&#45;&gt;fleet_optimization_model -->
<g id="edge56" class="edge">
<title>sensor_lidar&#45;&gt;fleet_optimization_model</title>
<g id="a_edge56"><a xlink:title="sensor_lidar&#45;&gt;fleet_optimization_model">
<path fill="none" stroke="#737d82" d="M843.1509,-696.8861C868.1617,-700.116 897.2732,-707.0113 920.11,-721.4285 1099.6021,-834.7438 1028.1025,-989.9336 1208.11,-1102.4285 1215.8654,-1107.2752 1224.2386,-1111.3652 1232.9316,-1114.8137"/>
<polygon fill="#737d82" stroke="#737d82" points="1231.8819,-1118.1566 1242.4757,-1118.3095 1234.2895,-1111.5836 1231.8819,-1118.1566"/>
</a>
</g>
</g>
<!-- vehicle_maintenance_records_import&#45;&gt;fleet_optimization_model -->
<g id="edge68" class="edge">
<title>vehicle_maintenance_records_import&#45;&gt;fleet_optimization_model</title>
<g id="a_edge68"><a xlink:title="vehicle_maintenance_records_import&#45;&gt;fleet_optimization_model">
<path fill="none" stroke="#737d82" d="M365.212,-253.5073C369.4659,-256.1947 373.5414,-259.16 377.396,-262.4285 676.6984,-516.2197 336.9707,-864.9788 649.396,-1102.4285 672.1548,-1119.7256 1033.3663,-1127.6869 1232.2247,-1130.7746"/>
<polygon fill="#737d82" stroke="#737d82" points="1232.395,-1134.2775 1242.4475,-1130.9313 1232.5023,-1127.2784 1232.395,-1134.2775"/>
</a>
</g>
</g>
<!-- vehicle_maintenance_records_import&#45;&gt;maintenance_insights -->
<g id="edge71" class="edge">
<title>vehicle_maintenance_records_import&#45;&gt;maintenance_insights</title>
<g id="a_edge71"><a xlink:title="vehicle_maintenance_records_import&#45;&gt;maintenance_insights">
<path fill="none" stroke="#737d82" d="M330.469,-217.4173C346.3376,-214.6943 362.2668,-211.6913 377.396,-208.4285 500.2118,-181.9413 525.3493,-151.3707 649.396,-131.4285 1029.0075,-70.4007 1153.1848,24.969 1514.156,-107.4285 1980.091,-278.3247 1913.0245,-626.631 2365.986,-829.4285 2384.387,-837.6669 2404.6766,-843.534 2424.9822,-847.6873"/>
<polygon fill="#737d82" stroke="#737d82" points="2424.4642,-851.1515 2434.9435,-849.5913 2425.7785,-844.276 2424.4642,-851.1515"/>
</a>
</g>
</g>
<!-- vehicle_maintenance_records_import&#45;&gt;predictive_maintenance_model -->
<g id="edge11" class="edge">
<title>vehicle_maintenance_records_import&#45;&gt;predictive_maintenance_model</title>
<g id="a_edge11"><a xlink:title="vehicle_maintenance_records_import&#45;&gt;predictive_maintenance_model">
<path fill="none" stroke="#737d82" d="M317.7303,-217.4049C448.7779,-197.7925 641.0894,-169.1082 649.396,-168.4285 840.9351,-152.7553 1353.129,-54.5323 1514.156,-159.4285 1862.9642,-386.6489 1930.827,-968.1068 1942.064,-1103.8085"/>
<polygon fill="#737d82" stroke="#737d82" points="1938.6065,-1104.485 1942.8825,-1114.1786 1945.5848,-1103.9342 1938.6065,-1104.485"/>
</a>
</g>
</g>
<!-- sensor_gear&#45;&gt;fleet_optimization_model -->
<g id="edge59" class="edge">
<title>sensor_gear&#45;&gt;fleet_optimization_model</title>
<g id="a_edge59"><a xlink:title="sensor_gear&#45;&gt;fleet_optimization_model">
<path fill="none" stroke="#737d82" d="M842.9311,-973.4804C866.8182,-978.0043 895.0884,-984.0897 920.11,-991.4285 1051.7429,-1030.0362 1076.3022,-1064.422 1208.11,-1102.4285 1220.4435,-1105.9848 1233.4576,-1109.2529 1246.4771,-1112.2175"/>
<polygon fill="#737d82" stroke="#737d82" points="1245.9022,-1115.675 1256.4231,-1114.4252 1247.4191,-1108.8413 1245.9022,-1115.675"/>
</a>
</g>
</g>
<!-- fleet_optimization_model&#45;&gt;fleet_dashboard -->
<g id="edge27" class="edge">
<title>fleet_optimization_model&#45;&gt;fleet_dashboard</title>
<g id="a_edge27"><a xlink:title="fleet_optimization_model&#45;&gt;fleet_dashboard">
<path fill="none" stroke="#737d82" d="M1453.3656,-1114.3927C1693.1449,-1067.5231 2320.6852,-944.983 2365.986,-937.4285 2391.6905,-933.1419 2419.3965,-928.9936 2445.5803,-925.2875"/>
<polygon fill="#737d82" stroke="#737d82" points="2446.1177,-928.7464 2455.5336,-923.8894 2445.1439,-921.8145 2446.1177,-928.7464"/>
</a>
</g>
</g>
<!-- fleet_optimization_model&#45;&gt;kpi_benchmarking -->
<g id="edge51" class="edge">
<title>fleet_optimization_model&#45;&gt;kpi_benchmarking</title>
<g id="a_edge51"><a xlink:title="fleet_optimization_model&#45;&gt;kpi_benchmarking">
<path fill="none" stroke="#737d82" d="M1461.2383,-1150.5087C1478.9751,-1154.3361 1497.1905,-1158.6745 1514.156,-1163.4285 1645.1984,-1200.1486 1668.1037,-1243.966 1802.156,-1267.4285 1926.4138,-1289.1766 1960.0428,-1274.5905 2085.986,-1267.4285 2214.9662,-1260.0938 2362.7662,-1241.6017 2458.3854,-1228.301"/>
<polygon fill="#737d82" stroke="#737d82" points="2458.9191,-1231.7605 2468.3379,-1226.9091 2457.9495,-1224.828 2458.9191,-1231.7605"/>
</a>
</g>
</g>
<!-- fleet_optimization_model&#45;&gt;predictive_maintenance_model -->
<g id="edge12" class="edge">
<title>fleet_optimization_model&#45;&gt;predictive_maintenance_model</title>
<g id="a_edge12"><a xlink:title="fleet_optimization_model&#45;&gt;predictive_maintenance_model">
<path fill="none" stroke="#737d82" d="M1479.8018,-1132.4285C1569.907,-1132.4285 1694.4951,-1132.4285 1791.9248,-1132.4285"/>
<polygon fill="#737d82" stroke="#737d82" points="1792.1639,-1135.9286 1802.1639,-1132.4285 1792.1639,-1128.9286 1792.1639,-1135.9286"/>
</a>
</g>
</g>
<!-- fb_crawler&#45;&gt;social_media_discussions -->
<g id="edge6" class="edge">
<title>fb_crawler&#45;&gt;social_media_discussions</title>
<g id="a_edge6"><a xlink:title="fb_crawler&#45;&gt;social_media_discussions">
<path fill="none" stroke="#737d82" d="M255.7641,-938.8764C291.983,-941.5239 338.8252,-948.1858 377.396,-964.4285 517.1555,-1023.2828 511.9977,-1106.2549 649.396,-1170.4285 658.2519,-1174.5647 667.6804,-1178.1857 677.2958,-1181.3519"/>
<polygon fill="#737d82" stroke="#737d82" points="676.3706,-1184.7296 686.9593,-1184.3688 678.4567,-1178.0476 676.3706,-1184.7296"/>
</a>
</g>
</g>
<!-- government_regulations_fetch&#45;&gt;regulatory_compliance_dashboard -->
<g id="edge21" class="edge">
<title>government_regulations_fetch&#45;&gt;regulatory_compliance_dashboard</title>
<g id="a_edge21"><a xlink:title="government_regulations_fetch&#45;&gt;regulatory_compliance_dashboard">
<path fill="none" stroke="#737d82" d="M255.5865,-163.4211C340.906,-138.0184 505.5528,-92.9192 649.396,-76.4285 966.5607,-40.0674 1805.2989,75.6581 2085.986,-76.4285 2378.4671,-234.9054 2518.7468,-661.1741 2551.561,-774.461"/>
<polygon fill="#737d82" stroke="#737d82" points="2548.2125,-775.4819 2554.3213,-784.1382 2554.944,-773.5617 2548.2125,-775.4819"/>
</a>
</g>
</g>
<!-- sensor_data_collection&#45;&gt;sensor_gps -->
<g id="edge23" class="edge">
<title>sensor_data_collection&#45;&gt;sensor_gps</title>
<g id="a_edge23"><a xlink:title="sensor_data_collection&#45;&gt;sensor_gps">
<path fill="none" stroke="#737d82" d="M307.9971,-790.5689C431.1187,-807.4355 625.9162,-834.1212 725.5319,-847.7677"/>
<polygon fill="#737d82" stroke="#737d82" points="725.0693,-851.2369 735.4518,-849.1266 726.0194,-844.3017 725.0693,-851.2369"/>
</a>
</g>
</g>
<!-- sensor_data_collection&#45;&gt;sensor_tire -->
<g id="edge24" class="edge">
<title>sensor_data_collection&#45;&gt;sensor_tire</title>
<g id="a_edge24"><a xlink:title="sensor_data_collection&#45;&gt;sensor_tire">
<path fill="none" stroke="#737d82" d="M308.0487,-783.881C331.4757,-787.9035 355.6735,-793.7998 377.396,-802.4285 514.2056,-856.7722 513.7697,-934.1953 649.396,-991.4285 672.9382,-1001.3631 700.2712,-1007.6794 724.4622,-1011.6787"/>
<polygon fill="#737d82" stroke="#737d82" points="724.1986,-1015.1796 734.6171,-1013.2546 725.2722,-1008.2624 724.1986,-1015.1796"/>
</a>
</g>
</g>
<!-- sensor_data_collection&#45;&gt;sensor_humidity -->
<g id="edge33" class="edge">
<title>sensor_data_collection&#45;&gt;sensor_humidity</title>
<g id="a_edge33"><a xlink:title="sensor_data_collection&#45;&gt;sensor_humidity">
<path fill="none" stroke="#737d82" d="M307.9594,-781.7324C331.6322,-785.8716 355.9534,-792.3586 377.396,-802.4285 524.1265,-871.3363 504.16,-973.4242 649.396,-1045.4285 667.4342,-1054.3713 688.152,-1060.3561 708.002,-1064.3601"/>
<polygon fill="#737d82" stroke="#737d82" points="707.4986,-1067.8265 717.9716,-1066.2245 708.7855,-1060.9458 707.4986,-1067.8265"/>
</a>
</g>
</g>
<!-- sensor_data_collection&#45;&gt;sensor_accelerometer -->
<g id="edge35" class="edge">
<title>sensor_data_collection&#45;&gt;sensor_accelerometer</title>
<g id="a_edge35"><a xlink:title="sensor_data_collection&#45;&gt;sensor_accelerometer">
<path fill="none" stroke="#737d82" d="M307.9971,-780.4753C415.1771,-785.3695 576.6736,-792.7441 682.4127,-797.5726"/>
<polygon fill="#737d82" stroke="#737d82" points="682.3185,-801.0718 692.4678,-798.0317 682.6379,-794.0791 682.3185,-801.0718"/>
</a>
</g>
</g>
<!-- sensor_data_collection&#45;&gt;sensor_bms -->
<g id="edge36" class="edge">
<title>sensor_data_collection&#45;&gt;sensor_bms</title>
<g id="a_edge36"><a xlink:title="sensor_data_collection&#45;&gt;sensor_bms">
<path fill="none" stroke="#737d82" d="M308.1316,-764.3716C331.3204,-760.5178 355.4013,-755.3488 377.396,-748.4285 506.1339,-707.923 521.5462,-656.6551 649.396,-613.4285 673.5003,-605.2787 700.8299,-599.3108 724.8622,-595.0906"/>
<polygon fill="#737d82" stroke="#737d82" points="725.6637,-598.5048 734.9408,-593.3876 724.4975,-591.6027 725.6637,-598.5048"/>
</a>
</g>
</g>
<!-- sensor_data_collection&#45;&gt;sensor_gyroscope -->
<g id="edge47" class="edge">
<title>sensor_data_collection&#45;&gt;sensor_gyroscope</title>
<g id="a_edge47"><a xlink:title="sensor_data_collection&#45;&gt;sensor_gyroscope">
<path fill="none" stroke="#737d82" d="M307.9971,-770.3816C420.5682,-765.2412 593.0575,-757.3647 697.9315,-752.5757"/>
<polygon fill="#737d82" stroke="#737d82" points="698.3487,-756.0604 708.1786,-752.1078 698.0294,-749.0677 698.3487,-756.0604"/>
</a>
</g>
</g>
<!-- sensor_data_collection&#45;&gt;sensor_lidar -->
<g id="edge48" class="edge">
<title>sensor_data_collection&#45;&gt;sensor_lidar</title>
<g id="a_edge48"><a xlink:title="sensor_data_collection&#45;&gt;sensor_lidar">
<path fill="none" stroke="#737d82" d="M307.9971,-760.288C430.6339,-743.4878 624.3835,-716.9457 724.3509,-703.251"/>
<polygon fill="#737d82" stroke="#737d82" points="724.8797,-706.7113 734.3121,-701.8864 723.9296,-699.7761 724.8797,-706.7113"/>
</a>
</g>
</g>
<!-- sensor_data_collection&#45;&gt;sensor_gear -->
<g id="edge54" class="edge">
<title>sensor_data_collection&#45;&gt;sensor_gear</title>
<g id="a_edge54"><a xlink:title="sensor_data_collection&#45;&gt;sensor_gear">
<path fill="none" stroke="#737d82" d="M308.1316,-786.4853C331.3204,-790.3391 355.4013,-795.5082 377.396,-802.4285 506.1339,-842.9339 521.5462,-894.2018 649.396,-937.4285 673.3982,-945.5437 700.5984,-951.4955 724.5565,-955.7126"/>
<polygon fill="#737d82" stroke="#737d82" points="724.1629,-959.1957 734.607,-957.415 725.332,-952.294 724.1629,-959.1957"/>
</a>
</g>
</g>
<!-- sensor_data_collection&#45;&gt;sensor_camera -->
<g id="edge0" class="edge">
<title>sensor_data_collection&#45;&gt;sensor_camera</title>
<g id="a_edge0"><a xlink:title="sensor_data_collection&#45;&gt;sensor_camera">
<path fill="none" stroke="#737d82" d="M307.8255,-789.4833C330.9222,-793.1245 355.0442,-797.4491 377.396,-802.4285 500.5133,-829.8556 526.8881,-853.3963 649.396,-883.4285 669.2575,-888.2974 690.8851,-892.8467 711.047,-896.7721"/>
<polygon fill="#737d82" stroke="#737d82" points="710.6444,-900.2586 721.125,-898.7067 711.9642,-893.3841 710.6444,-900.2586"/>
</a>
</g>
</g>
<!-- sensor_data_collection&#45;&gt;sensor_motor -->
<g id="edge16" class="edge">
<title>sensor_data_collection&#45;&gt;sensor_motor</title>
<g id="a_edge16"><a xlink:title="sensor_data_collection&#45;&gt;sensor_motor">
<path fill="none" stroke="#737d82" d="M307.8255,-761.3736C330.9222,-757.7324 355.0442,-753.4078 377.396,-748.4285 500.5133,-721.0013 526.8881,-697.4606 649.396,-667.4285 672.6435,-661.7295 698.3105,-656.4684 721.2148,-652.1332"/>
<polygon fill="#737d82" stroke="#737d82" points="721.9974,-655.5476 731.1848,-650.271 720.7121,-648.6666 721.9974,-655.5476"/>
</a>
</g>
</g>
<!-- sensor_data_collection&#45;&gt;sensor_temperature -->
<g id="edge1" class="edge">
<title>sensor_data_collection&#45;&gt;sensor_temperature</title>
<g id="a_edge1"><a xlink:title="sensor_data_collection&#45;&gt;sensor_temperature">
<path fill="none" stroke="#737d82" d="M307.7859,-771.7803C331.8429,-767.535 356.3693,-760.3339 377.396,-748.4285 542.7906,-654.7809 477.4917,-499.5097 649.396,-418.4285 881.0264,-309.1766 964.6055,-480.0926 1208.11,-559.4285 1225.2072,-564.9989 1243.7753,-569.499 1261.8892,-573.1085"/>
<polygon fill="#737d82" stroke="#737d82" points="1261.4138,-576.5809 1271.8935,-575.0233 1262.7298,-569.7057 1261.4138,-576.5809"/>
</a>
</g>
</g>
<!-- threads_crawler&#45;&gt;social_media_discussions -->
<g id="edge9" class="edge">
<title>threads_crawler&#45;&gt;social_media_discussions</title>
<g id="a_edge9"><a xlink:title="threads_crawler&#45;&gt;social_media_discussions">
<path fill="none" stroke="#737d82" d="M279.3799,-1160.216C377.1188,-1168.3157 541.8127,-1181.9642 657.4064,-1191.5436"/>
<polygon fill="#737d82" stroke="#737d82" points="657.1307,-1195.0326 667.3856,-1192.3706 657.7089,-1188.0565 657.1307,-1195.0326"/>
</a>
</g>
</g>
<!-- tire_spec_fetch&#45;&gt;sensor_tire -->
<g id="edge25" class="edge">
<title>tire_spec_fetch&#45;&gt;sensor_tire</title>
<g id="a_edge25"><a xlink:title="tire_spec_fetch&#45;&gt;sensor_tire">
<path fill="none" stroke="#737d82" d="M276.1665,-835.8565C308.0931,-839.8445 345.0066,-846.2376 377.396,-856.4285 506.1339,-896.9339 521.5462,-948.2018 649.396,-991.4285 673.3982,-999.5437 700.5984,-1005.4955 724.5565,-1009.7126"/>
<polygon fill="#737d82" stroke="#737d82" points="724.1629,-1013.1957 734.607,-1011.415 725.332,-1006.294 724.1629,-1013.1957"/>
</a>
</g>
</g>
<!-- sensor_camera&#45;&gt;fleet_optimization_model -->
<g id="edge60" class="edge">
<title>sensor_camera&#45;&gt;fleet_optimization_model</title>
<g id="a_edge60"><a xlink:title="sensor_camera&#45;&gt;fleet_optimization_model">
<path fill="none" stroke="#737d82" d="M856.4041,-920.0802C877.2297,-924.1744 899.9662,-929.8119 920.11,-937.4285 1058.0945,-989.6019 1069.8888,-1050.8855 1208.11,-1102.4285 1217.5291,-1105.9409 1227.4352,-1109.0655 1237.489,-1111.841"/>
<polygon fill="#737d82" stroke="#737d82" points="1236.6,-1115.2261 1247.1622,-1114.3963 1238.3878,-1108.4583 1236.6,-1115.2261"/>
</a>
</g>
</g>
<!-- sensor_motor&#45;&gt;fleet_optimization_model -->
<g id="edge57" class="edge">
<title>sensor_motor&#45;&gt;fleet_optimization_model</title>
<g id="a_edge57"><a xlink:title="sensor_motor&#45;&gt;fleet_optimization_model">
<path fill="none" stroke="#737d82" d="M846.1752,-642.5864C870.663,-645.8336 898.5061,-652.8268 920.11,-667.4285 1112.2134,-797.2671 1015.416,-973.4681 1208.11,-1102.4285 1215.7929,-1107.5703 1224.149,-1111.8741 1232.8619,-1115.4721"/>
<polygon fill="#737d82" stroke="#737d82" points="1231.8501,-1118.8315 1242.4414,-1119.1054 1234.3326,-1112.2865 1231.8501,-1118.8315"/>
</a>
</g>
</g>
<!-- sensor_motor&#45;&gt;sensor_temperature -->
<g id="edge3" class="edge">
<title>sensor_motor&#45;&gt;sensor_temperature</title>
<g id="a_edge3"><a xlink:title="sensor_motor&#45;&gt;sensor_temperature">
<path fill="none" stroke="#737d82" d="M846.2557,-635.0035C943.4941,-625.8297 1141.5256,-607.1469 1261.6612,-595.8129"/>
<polygon fill="#737d82" stroke="#737d82" points="1262.3355,-599.2649 1271.9625,-594.8411 1261.678,-592.2959 1262.3355,-599.2649"/>
</a>
</g>
</g>
<!-- sensor_temperature&#45;&gt;fleet_optimization_model -->
<g id="edge61" class="edge">
<title>sensor_temperature&#45;&gt;fleet_optimization_model</title>
<g id="a_edge61"><a xlink:title="sensor_temperature&#45;&gt;fleet_optimization_model">
<path fill="none" stroke="#737d82" d="M1361.133,-604.5574C1361.133,-771.0151 1361.133,-937.4728 1361.133,-1103.9305"/>
<polygon fill="#737d82" stroke="#737d82" points="1357.6331,-1104.386 1361.133,-1114.386 1364.6331,-1104.386 1357.6331,-1104.386"/>
</a>
</g>
</g>
<!-- social_media_discussions&#45;&gt;customer_sentiment_analysis -->
<g id="edge31" class="edge">
<title>social_media_discussions&#45;&gt;customer_sentiment_analysis</title>
<g id="a_edge31"><a xlink:title="social_media_discussions&#45;&gt;customer_sentiment_analysis">
<path fill="none" stroke="#737d82" d="M910.3211,-1206.9219C994.0339,-1209.9805 1107.8132,-1214.0675 1208.11,-1217.4285 1411.2157,-1224.2346 1645.8735,-1231.457 1794.5744,-1235.9541"/>
<polygon fill="#737d82" stroke="#737d82" points="1794.5857,-1239.456 1804.6869,-1236.2598 1794.7972,-1232.4592 1794.5857,-1239.456"/>
</a>
</g>
</g>
<!-- social_media_discussions&#45;&gt;social_media_sentiment_analysis -->
<g id="edge42" class="edge">
<title>social_media_discussions&#45;&gt;social_media_sentiment_analysis</title>
<g id="a_edge42"><a xlink:title="social_media_discussions&#45;&gt;social_media_sentiment_analysis">
<path fill="none" stroke="#737d82" d="M910.1401,-1199.8836C993.8807,-1198.1279 1106.1782,-1195.7736 1197.7648,-1193.8535"/>
<polygon fill="#737d82" stroke="#737d82" points="1198.0505,-1197.3484 1207.9749,-1193.6394 1197.9037,-1190.3499 1198.0505,-1197.3484"/>
</a>
</g>
</g>
<!-- predictive_maintenance_model&#45;&gt;fleet_dashboard -->
<g id="edge28" class="edge">
<title>predictive_maintenance_model&#45;&gt;fleet_dashboard</title>
<g id="a_edge28"><a xlink:title="predictive_maintenance_model&#45;&gt;fleet_dashboard">
<path fill="none" stroke="#737d82" d="M1974.8494,-1114.319C2042.8574,-1075.1921 2212.1153,-982.6548 2365.986,-937.4285 2391.2761,-929.9951 2419.0461,-924.5861 2445.4521,-920.6575"/>
<polygon fill="#737d82" stroke="#737d82" points="2446.0928,-924.1016 2455.4977,-919.2232 2445.1033,-917.1719 2446.0928,-924.1016"/>
</a>
</g>
</g>
<!-- predictive_maintenance_model&#45;&gt;regulatory_compliance_dashboard -->
<g id="edge22" class="edge">
<title>predictive_maintenance_model&#45;&gt;regulatory_compliance_dashboard</title>
<g id="a_edge22"><a xlink:title="predictive_maintenance_model&#45;&gt;regulatory_compliance_dashboard">
<path fill="none" stroke="#737d82" d="M1962.223,-1114.1885C2017.2598,-1060.1308 2189.3349,-900.151 2365.986,-829.4285 2371.426,-827.2506 2377.0131,-825.2437 2382.7026,-823.3947"/>
<polygon fill="#737d82" stroke="#737d82" points="2383.8329,-826.709 2392.3664,-820.4297 2381.7797,-820.0169 2383.8329,-826.709"/>
</a>
</g>
</g>
<!-- predictive_maintenance_model&#45;&gt;kpi_benchmarking -->
<g id="edge52" class="edge">
<title>predictive_maintenance_model&#45;&gt;kpi_benchmarking</title>
<g id="a_edge52"><a xlink:title="predictive_maintenance_model&#45;&gt;kpi_benchmarking">
<path fill="none" stroke="#737d82" d="M2080.9796,-1150.4553C2195.248,-1165.5011 2355.5016,-1186.6017 2458.3573,-1200.1448"/>
<polygon fill="#737d82" stroke="#737d82" points="2458.0663,-1203.6366 2468.4377,-1201.4721 2458.9802,-1196.6965 2458.0663,-1203.6366"/>
</a>
</g>
</g>
<!-- predictive_maintenance_model&#45;&gt;maintenance_insights -->
<g id="edge70" class="edge">
<title>predictive_maintenance_model&#45;&gt;maintenance_insights</title>
<g id="a_edge70"><a xlink:title="predictive_maintenance_model&#45;&gt;maintenance_insights">
<path fill="none" stroke="#737d82" d="M1967.1381,-1114.254C2028.1717,-1067.2267 2200.5713,-941.1955 2365.986,-883.4285 2384.7449,-876.8774 2405.0525,-871.9109 2425.2144,-868.1467"/>
<polygon fill="#737d82" stroke="#737d82" points="2425.8583,-871.5872 2435.0929,-866.3938 2424.6352,-864.6949 2425.8583,-871.5872"/>
</a>
</g>
</g>
<!-- battery_spec_fetch&#45;&gt;sensor_bms -->
<g id="edge37" class="edge">
<title>battery_spec_fetch&#45;&gt;sensor_bms</title>
<g id="a_edge37"><a xlink:title="battery_spec_fetch&#45;&gt;sensor_bms">
<path fill="none" stroke="#737d82" d="M290.8548,-709.9589C318.8353,-705.8394 349.4947,-700.6441 377.396,-694.4285 500.5133,-667.0013 526.8881,-643.4606 649.396,-613.4285 673.8996,-607.4215 701.0913,-601.9011 724.9026,-597.4387"/>
<polygon fill="#737d82" stroke="#737d82" points="725.6861,-600.8532 734.8827,-595.5926 724.4129,-593.9699 725.6861,-600.8532"/>
</a>
</g>
</g>
<!-- news_crawler&#45;&gt;social_media_discussions -->
<g id="edge8" class="edge">
<title>news_crawler&#45;&gt;social_media_discussions</title>
<g id="a_edge8"><a xlink:title="news_crawler&#45;&gt;social_media_discussions">
<path fill="none" stroke="#737d82" d="M268.0579,-1109.4581C301.2772,-1114.3225 341.4148,-1120.4066 377.396,-1126.4285 482.8788,-1144.0822 603.1265,-1166.5746 686.2467,-1182.497"/>
<polygon fill="#737d82" stroke="#737d82" points="685.7155,-1185.9588 696.1958,-1184.4054 687.0342,-1179.0842 685.7155,-1185.9588"/>
</a>
</g>
</g>
<!-- weather&#45;&gt;sensor_humidity -->
<g id="edge34" class="edge">
<title>weather&#45;&gt;sensor_humidity</title>
<g id="a_edge34"><a xlink:title="weather&#45;&gt;sensor_humidity">
<path fill="none" stroke="#737d82" d="M243.0887,-886.3322C279.9963,-889.6126 332.9547,-896.4457 377.396,-910.4285 506.1339,-950.9339 521.5462,-1002.2018 649.396,-1045.4285 667.984,-1051.7132 688.49,-1056.7003 707.9228,-1060.5891"/>
<polygon fill="#737d82" stroke="#737d82" points="707.4899,-1064.07 717.9713,-1062.5237 708.8133,-1057.1962 707.4899,-1064.07"/>
</a>
</g>
</g>
<!-- weather&#45;&gt;fleet_optimization_model -->
<g id="edge67" class="edge">
<title>weather&#45;&gt;fleet_optimization_model</title>
<g id="a_edge67"><a xlink:title="weather&#45;&gt;fleet_optimization_model">
<path fill="none" stroke="#737d82" d="M243.3201,-883.6692C280.8332,-885.3977 334.5054,-891.4421 377.396,-910.4285 520.0832,-973.5917 502.4045,-1080.0575 649.396,-1132.4285 753.0159,-1169.3468 1056.769,-1154.913 1232.1561,-1142.6988"/>
<polygon fill="#737d82" stroke="#737d82" points="1232.4931,-1146.1838 1242.2227,-1141.9904 1232.0017,-1139.2011 1232.4931,-1146.1838"/>
</a>
</g>
</g>
<!-- weather&#45;&gt;sensor_temperature -->
<g id="edge4" class="edge">
<title>weather&#45;&gt;sensor_temperature</title>
<g id="a_edge4"><a xlink:title="weather&#45;&gt;sensor_temperature">
<path fill="none" stroke="#737d82" d="M243.1093,-886.3989C281.7375,-886.7426 337.0924,-881.9315 377.396,-856.4285 560.6224,-740.4879 458.0506,-553.414 649.396,-451.4285 755.5734,-394.8368 801.7233,-429.9609 920.11,-451.4285 1054.6204,-475.8199 1076.2393,-523.399 1208.11,-559.4285 1225.3462,-564.1377 1243.9068,-568.2175 1261.9527,-571.6783"/>
<polygon fill="#737d82" stroke="#737d82" points="1261.4412,-575.1432 1271.9136,-573.5374 1262.7255,-568.262 1261.4412,-575.1432"/>
</a>
</g>
</g>
<!-- customer_profile&#45;&gt;customer_sentiment_analysis -->
<g id="edge32" class="edge">
<title>customer_profile&#45;&gt;customer_sentiment_analysis</title>
<g id="a_edge32"><a xlink:title="customer_profile&#45;&gt;customer_sentiment_analysis">
<path fill="none" stroke="#737d82" d="M1443.842,-532.4329C1468.551,-536.0595 1494.3122,-543.8579 1514.156,-559.4285 1764.0208,-755.4863 1553.6065,-1015.7058 1802.156,-1213.4285 1803.7384,-1214.6873 1805.362,-1215.8936 1807.0224,-1217.0495"/>
<polygon fill="#737d82" stroke="#737d82" points="1805.278,-1220.0866 1815.6132,-1222.418 1808.9877,-1214.1504 1805.278,-1220.0866"/>
</a>
</g>
</g>
<!-- customer_profile&#45;&gt;sales_forecast -->
<g id="edge18" class="edge">
<title>customer_profile&#45;&gt;sales_forecast</title>
<g id="a_edge18"><a xlink:title="customer_profile&#45;&gt;sales_forecast">
<path fill="none" stroke="#737d82" d="M1443.5374,-532.8277C1468.2311,-536.4741 1494.0602,-544.1845 1514.156,-559.4285 1749.82,-738.1954 1567.6916,-979.0912 1802.156,-1159.4285 1818.4714,-1171.9774 1838.9113,-1179.2552 1859.1543,-1183.3519"/>
<polygon fill="#737d82" stroke="#737d82" points="1858.598,-1186.8079 1869.057,-1185.1166 1859.8262,-1179.9164 1858.598,-1186.8079"/>
</a>
</g>
</g>
<!-- sales_forecast&#45;&gt;kpi_benchmarking -->
<g id="edge53" class="edge">
<title>sales_forecast&#45;&gt;kpi_benchmarking</title>
<g id="a_edge53"><a xlink:title="sales_forecast&#45;&gt;kpi_benchmarking">
<path fill="none" stroke="#737d82" d="M2018.8881,-1189.7122C2128.9851,-1194.5444 2334.9001,-1203.582 2458.2883,-1208.9975"/>
<polygon fill="#737d82" stroke="#737d82" points="2458.351,-1212.5036 2468.4949,-1209.4455 2458.658,-1205.5103 2458.351,-1212.5036"/>
</a>
</g>
</g>
<!-- sales_forecast&#45;&gt;sales_dashboard -->
<g id="edge43" class="edge">
<title>sales_forecast&#45;&gt;sales_dashboard</title>
<g id="a_edge43"><a xlink:title="sales_forecast&#45;&gt;sales_dashboard">
<path fill="none" stroke="#737d82" d="M2019.0936,-1177.2357C2041.093,-1173.193 2064.8947,-1167.4689 2085.986,-1159.4285 2221.5923,-1107.7325 2229.1493,-1039.7735 2365.986,-991.4285 2381.6066,-985.9096 2398.3114,-981.514 2415.1162,-978.0139"/>
<polygon fill="#737d82" stroke="#737d82" points="2415.8845,-981.4298 2425.0147,-976.0548 2414.5254,-974.563 2415.8845,-981.4298"/>
</a>
</g>
</g>
<!-- market_research_fetch&#45;&gt;sales_forecast -->
<g id="edge17" class="edge">
<title>market_research_fetch&#45;&gt;sales_forecast</title>
<g id="a_edge17"><a xlink:title="market_research_fetch&#45;&gt;sales_forecast">
<path fill="none" stroke="#737d82" d="M329.454,-325.3786C345.651,-322.6469 361.9356,-319.6523 377.396,-316.4285 499.9273,-290.8776 525.3032,-259.7911 649.396,-243.4285 1040.996,-191.7929 1227.6123,-176.5655 1514.156,-448.4285 1761.4895,-683.0902 1538.5512,-943.2052 1802.156,-1159.4285 1818.237,-1172.619 1838.7918,-1180.0969 1859.2344,-1184.1791"/>
<polygon fill="#737d82" stroke="#737d82" points="1858.7887,-1187.6541 1869.2407,-1185.9205 1859.9889,-1180.7577 1858.7887,-1187.6541"/>
</a>
</g>
</g>
<!-- sales_data_import&#45;&gt;transaction_data_cleansing -->
<g id="edge39" class="edge">
<title>sales_data_import&#45;&gt;transaction_data_cleansing</title>
<g id="a_edge39"><a xlink:title="sales_data_import&#45;&gt;transaction_data_cleansing">
<path fill="none" stroke="#737d82" d="M285.6767,-455.456C381.2238,-459.8191 535.0428,-466.8431 647.4706,-471.977"/>
<polygon fill="#737d82" stroke="#737d82" points="647.385,-475.4766 657.5343,-472.4365 647.7044,-468.4839 647.385,-475.4766"/>
</a>
</g>
</g>
<!-- sales_data_import&#45;&gt;sales_data_cleansing -->
<g id="edge45" class="edge">
<title>sales_data_import&#45;&gt;sales_data_cleansing</title>
<g id="a_edge45"><a xlink:title="sales_data_import&#45;&gt;sales_data_cleansing">
<path fill="none" stroke="#737d82" d="M285.5854,-439.7439C314.8865,-435.4493 347.6294,-430.2076 377.396,-424.4285 499.4104,-400.7395 525.9571,-373.9728 649.396,-359.4285 768.8867,-345.3493 800.8358,-343.6194 920.11,-359.4285 1059.8236,-377.9466 1218.0918,-428.1011 1301.8249,-457.0444"/>
<polygon fill="#737d82" stroke="#737d82" points="1300.8197,-460.4004 1311.4145,-460.3793 1303.119,-453.7888 1300.8197,-460.4004"/>
</a>
</g>
</g>
<!-- fleet_dashboard -->
<g id="fleet_dashboard" class="node">
<title>fleet_dashboard</title>
<path fill="none" stroke="#40fdcb" d="M2650.9051,-928.4285C2650.9051,-928.4285 2467.5809,-928.4285 2467.5809,-928.4285 2461.5809,-928.4285 2455.5809,-922.4285 2455.5809,-916.4285 2455.5809,-916.4285 2455.5809,-904.4285 2455.5809,-904.4285 2455.5809,-898.4285 2461.5809,-892.4285 2467.5809,-892.4285 2467.5809,-892.4285 2650.9051,-892.4285 2650.9051,-892.4285 2656.9051,-892.4285 2662.9051,-898.4285 2662.9051,-904.4285 2662.9051,-904.4285 2662.9051,-916.4285 2662.9051,-916.4285 2662.9051,-922.4285 2656.9051,-928.4285 2650.9051,-928.4285"/>
<text text-anchor="middle" x="2559.243" y="-904.4285" font-family="Arial" font-size="20.00" fill="#40fdcb">API: Fleet Dashboard</text>
<text text-anchor="middle" x="2442.884" y="-898.4285" font-family="Arial" font-size="20.00" fill="#40fdcb">lv3</text>
</g>
<!-- regulatory_compliance_dashboard -->
<g id="regulatory_compliance_dashboard" class="node">
<title>regulatory_compliance_dashboard</title>
<path fill="none" stroke="#40fdcb" d="M2732.2573,-820.4285C2732.2573,-820.4285 2386.2287,-820.4285 2386.2287,-820.4285 2380.2287,-820.4285 2374.2287,-814.4285 2374.2287,-808.4285 2374.2287,-808.4285 2374.2287,-796.4285 2374.2287,-796.4285 2374.2287,-790.4285 2380.2287,-784.4285 2386.2287,-784.4285 2386.2287,-784.4285 2732.2573,-784.4285 2732.2573,-784.4285 2738.2573,-784.4285 2744.2573,-790.4285 2744.2573,-796.4285 2744.2573,-796.4285 2744.2573,-808.4285 2744.2573,-808.4285 2744.2573,-814.4285 2738.2573,-820.4285 2732.2573,-820.4285"/>
<text text-anchor="middle" x="2559.243" y="-796.4285" font-family="Arial" font-size="20.00" fill="#40fdcb">API: Regulatory Compliance Dashboard</text>
<text text-anchor="middle" x="2361.208" y="-766.4285" font-family="Arial" font-size="20.00" fill="#40fdcb">lv3</text>
</g>
<!-- ig_crawler -->
<g id="ig_crawler" class="node">
<title>ig_crawler</title>
<path fill="none" stroke="#0074ff" d="M241.0169,-1063.4285C241.0169,-1063.4285 153.9351,-1063.4285 153.9351,-1063.4285 147.9351,-1063.4285 141.9351,-1057.4285 141.9351,-1051.4285 141.9351,-1051.4285 141.9351,-1039.4285 141.9351,-1039.4285 141.9351,-1033.4285 147.9351,-1027.4285 153.9351,-1027.4285 153.9351,-1027.4285 241.0169,-1027.4285 241.0169,-1027.4285 247.0169,-1027.4285 253.0169,-1033.4285 253.0169,-1039.4285 253.0169,-1039.4285 253.0169,-1051.4285 253.0169,-1051.4285 253.0169,-1057.4285 247.0169,-1063.4285 241.0169,-1063.4285"/>
<text text-anchor="middle" x="197.476" y="-1039.4285" font-family="Arial" font-size="20.00" fill="#0074ff">IG Crawler</text>
<text text-anchor="middle" x="128.928" y="-1009.4285" font-family="Arial" font-size="20.00" fill="#0074ff">lv0</text>
</g>
<!-- x_crawler -->
<g id="x_crawler" class="node">
<title>x_crawler</title>
<path fill="none" stroke="#0074ff" d="M237.2383,-1009.4285C237.2383,-1009.4285 157.7137,-1009.4285 157.7137,-1009.4285 151.7137,-1009.4285 145.7137,-1003.4285 145.7137,-997.4285 145.7137,-997.4285 145.7137,-985.4285 145.7137,-985.4285 145.7137,-979.4285 151.7137,-973.4285 157.7137,-973.4285 157.7137,-973.4285 237.2383,-973.4285 237.2383,-973.4285 243.2383,-973.4285 249.2383,-979.4285 249.2383,-985.4285 249.2383,-985.4285 249.2383,-997.4285 249.2383,-997.4285 249.2383,-1003.4285 243.2383,-1009.4285 237.2383,-1009.4285"/>
<text text-anchor="middle" x="197.476" y="-985.4285" font-family="Arial" font-size="20.00" fill="#0074ff">X Crawler</text>
<text text-anchor="middle" x="132.817" y="-979.4285" font-family="Arial" font-size="20.00" fill="#0074ff">lv0</text>
</g>
<!-- sensor_gps -->
<g id="sensor_gps" class="node">
<title>sensor_gps</title>
<path fill="none" stroke="#17c3ff" d="M829.777,-874.4285C829.777,-874.4285 747.729,-874.4285 747.729,-874.4285 741.729,-874.4285 735.729,-868.4285 735.729,-862.4285 735.729,-862.4285 735.729,-850.4285 735.729,-850.4285 735.729,-844.4285 741.729,-838.4285 747.729,-838.4285 747.729,-838.4285 829.777,-838.4285 829.777,-838.4285 835.777,-838.4285 841.777,-844.4285 841.777,-850.4285 841.777,-850.4285 841.777,-862.4285 841.777,-862.4285 841.777,-868.4285 835.777,-874.4285 829.777,-874.4285"/>
<text text-anchor="middle" x="788.753" y="-850.4285" font-family="Arial" font-size="20.00" fill="#17c3ff">GPS Data</text>
<text text-anchor="middle" x="722.963" y="-844.4285" font-family="Arial" font-size="20.00" fill="#17c3ff">lv1</text>
</g>
<!-- sensor_tire -->
<g id="sensor_tire" class="node">
<title>sensor_tire</title>
<path fill="none" stroke="#17c3ff" d="M830.9933,-1036.4285C830.9933,-1036.4285 746.5127,-1036.4285 746.5127,-1036.4285 740.5127,-1036.4285 734.5127,-1030.4285 734.5127,-1024.4285 734.5127,-1024.4285 734.5127,-1012.4285 734.5127,-1012.4285 734.5127,-1006.4285 740.5127,-1000.4285 746.5127,-1000.4285 746.5127,-1000.4285 830.9933,-1000.4285 830.9933,-1000.4285 836.9933,-1000.4285 842.9933,-1006.4285 842.9933,-1012.4285 842.9933,-1012.4285 842.9933,-1024.4285 842.9933,-1024.4285 842.9933,-1030.4285 836.9933,-1036.4285 830.9933,-1036.4285"/>
<text text-anchor="middle" x="788.753" y="-1012.4285" font-family="Arial" font-size="20.00" fill="#17c3ff">Lidar Data</text>
<text text-anchor="middle" x="721.855" y="-982.4285" font-family="Arial" font-size="20.00" fill="#17c3ff">lv1</text>
</g>
<!-- sensor_humidity -->
<g id="sensor_humidity" class="node">
<title>sensor_humidity</title>
<path fill="none" stroke="#17c3ff" d="M847.3097,-1090.4285C847.3097,-1090.4285 730.1963,-1090.4285 730.1963,-1090.4285 724.1963,-1090.4285 718.1963,-1084.4285 718.1963,-1078.4285 718.1963,-1078.4285 718.1963,-1066.4285 718.1963,-1066.4285 718.1963,-1060.4285 724.1963,-1054.4285 730.1963,-1054.4285 730.1963,-1054.4285 847.3097,-1054.4285 847.3097,-1054.4285 853.3097,-1054.4285 859.3097,-1060.4285 859.3097,-1066.4285 859.3097,-1066.4285 859.3097,-1078.4285 859.3097,-1078.4285 859.3097,-1084.4285 853.3097,-1090.4285 847.3097,-1090.4285"/>
<text text-anchor="middle" x="788.753" y="-1066.4285" font-family="Arial" font-size="20.00" fill="#17c3ff">Humidity Data</text>
<text text-anchor="middle" x="705.197" y="-1036.4285" font-family="Arial" font-size="20.00" fill="#17c3ff">lv1</text>
</g>
<!-- vehicle_profile -->
<g id="vehicle_profile" class="node">
<title>vehicle_profile</title>
<path fill="none" stroke="#17c3ff" d="M848.5452,-550.4285C848.5452,-550.4285 728.9608,-550.4285 728.9608,-550.4285 722.9608,-550.4285 716.9608,-544.4285 716.9608,-538.4285 716.9608,-538.4285 716.9608,-526.4285 716.9608,-526.4285 716.9608,-520.4285 722.9608,-514.4285 728.9608,-514.4285 728.9608,-514.4285 848.5452,-514.4285 848.5452,-514.4285 854.5452,-514.4285 860.5452,-520.4285 860.5452,-526.4285 860.5452,-526.4285 860.5452,-538.4285 860.5452,-538.4285 860.5452,-544.4285 854.5452,-550.4285 848.5452,-550.4285"/>
<text text-anchor="middle" x="788.753" y="-526.4285" font-family="Arial" font-size="20.00" fill="#17c3ff">Vehicle Profile</text>
<text text-anchor="middle" x="704.079" y="-520.4285" font-family="Arial" font-size="20.00" fill="#17c3ff">lv1</text>
</g>
<!-- customer_sentiment_analysis -->
<g id="customer_sentiment_analysis" class="node">
<title>customer_sentiment_analysis</title>
<path fill="none" stroke="#7adef4" d="M2071.3251,-1258.4285C2071.3251,-1258.4285 1816.8169,-1258.4285 1816.8169,-1258.4285 1810.8169,-1258.4285 1804.8169,-1252.4285 1804.8169,-1246.4285 1804.8169,-1246.4285 1804.8169,-1234.4285 1804.8169,-1234.4285 1804.8169,-1228.4285 1810.8169,-1222.4285 1816.8169,-1222.4285 1816.8169,-1222.4285 2071.3251,-1222.4285 2071.3251,-1222.4285 2077.3251,-1222.4285 2083.3251,-1228.4285 2083.3251,-1234.4285 2083.3251,-1234.4285 2083.3251,-1246.4285 2083.3251,-1246.4285 2083.3251,-1252.4285 2077.3251,-1258.4285 2071.3251,-1258.4285"/>
<text text-anchor="middle" x="1944.071" y="-1234.4285" font-family="Arial" font-size="20.00" fill="#7adef4">Customer Sentiment Analysis</text>
<text text-anchor="middle" x="1792.166" y="-1204.4285" font-family="Arial" font-size="20.00" fill="#7adef4">lv2</text>
</g>
<!-- customer_service_logs_import -->
<g id="customer_service_logs_import" class="node">
<title>customer_service_logs_import</title>
<path fill="none" stroke="#0074ff" d="M328.508,-415.4285C328.508,-415.4285 66.444,-415.4285 66.444,-415.4285 60.444,-415.4285 54.444,-409.4285 54.444,-403.4285 54.444,-403.4285 54.444,-391.4285 54.444,-391.4285 54.444,-385.4285 60.444,-379.4285 66.444,-379.4285 66.444,-379.4285 328.508,-379.4285 328.508,-379.4285 334.508,-379.4285 340.508,-385.4285 340.508,-391.4285 340.508,-391.4285 340.508,-403.4285 340.508,-403.4285 340.508,-409.4285 334.508,-415.4285 328.508,-415.4285"/>
<text text-anchor="middle" x="197.476" y="-391.4285" font-family="Arial" font-size="20.00" fill="#0074ff">Customer Service Logs Import</text>
<text text-anchor="middle" x="41.682" y="-385.4285" font-family="Arial" font-size="20.00" fill="#0074ff">lv0</text>
</g>
<!-- fab_pipeline_data_sync -->
<g id="fab_pipeline_data_sync" class="node">
<title>fab_pipeline_data_sync</title>
<path fill="none" stroke="#0074ff" d="M297.916,-307.4285C297.916,-307.4285 97.036,-307.4285 97.036,-307.4285 91.036,-307.4285 85.036,-301.4285 85.036,-295.4285 85.036,-295.4285 85.036,-283.4285 85.036,-283.4285 85.036,-277.4285 91.036,-271.4285 97.036,-271.4285 97.036,-271.4285 297.916,-271.4285 297.916,-271.4285 303.916,-271.4285 309.916,-277.4285 309.916,-283.4285 309.916,-283.4285 309.916,-295.4285 309.916,-295.4285 309.916,-301.4285 303.916,-307.4285 297.916,-307.4285"/>
<text text-anchor="middle" x="197.476" y="-283.4285" font-family="Arial" font-size="20.00" fill="#0074ff">Fab Pipeline Data Sync</text>
<text text-anchor="middle" x="72.228" y="-277.4285" font-family="Arial" font-size="20.00" fill="#0074ff">lv0</text>
</g>
<!-- transaction_logs_import -->
<g id="transaction_logs_import" class="node">
<title>transaction_logs_import</title>
<path fill="none" stroke="#0074ff" d="M301.0763,-577.4285C301.0763,-577.4285 93.8757,-577.4285 93.8757,-577.4285 87.8757,-577.4285 81.8757,-571.4285 81.8757,-565.4285 81.8757,-565.4285 81.8757,-553.4285 81.8757,-553.4285 81.8757,-547.4285 87.8757,-541.4285 93.8757,-541.4285 93.8757,-541.4285 301.0763,-541.4285 301.0763,-541.4285 307.0763,-541.4285 313.0763,-547.4285 313.0763,-553.4285 313.0763,-553.4285 313.0763,-565.4285 313.0763,-565.4285 313.0763,-571.4285 307.0763,-577.4285 301.0763,-577.4285"/>
<text text-anchor="middle" x="197.476" y="-553.4285" font-family="Arial" font-size="20.00" fill="#0074ff">Transaction Logs Import</text>
<text text-anchor="middle" x="68.898" y="-523.4285" font-family="Arial" font-size="20.00" fill="#0074ff">lv0</text>
</g>
<!-- vehicle_manufacture_records_import -->
<g id="vehicle_manufacture_records_import" class="node">
<title>vehicle_manufacture_records_import</title>
<path fill="none" stroke="#0074ff" d="M324.7501,-685.4285C324.7501,-685.4285 70.2019,-685.4285 70.2019,-685.4285 64.2019,-685.4285 58.2019,-679.4285 58.2019,-673.4285 58.2019,-673.4285 58.2019,-661.4285 58.2019,-661.4285 58.2019,-655.4285 64.2019,-649.4285 70.2019,-649.4285 70.2019,-649.4285 324.7501,-649.4285 324.7501,-649.4285 330.7501,-649.4285 336.7501,-655.4285 336.7501,-661.4285 336.7501,-661.4285 336.7501,-673.4285 336.7501,-673.4285 336.7501,-679.4285 330.7501,-685.4285 324.7501,-685.4285"/>
<text text-anchor="middle" x="197.476" y="-661.4285" font-family="Arial" font-size="20.00" fill="#0074ff">Vehicle Manufacture Records</text>
<text text-anchor="middle" x="45.561" y="-631.4285" font-family="Arial" font-size="20.00" fill="#0074ff">lv0</text>
</g>
<!-- sensor_accelerometer -->
<g id="sensor_accelerometer" class="node">
<title>sensor_accelerometer</title>
<path fill="none" stroke="#17c3ff" d="M872.9413,-820.4285C872.9413,-820.4285 704.5647,-820.4285 704.5647,-820.4285 698.5647,-820.4285 692.5647,-814.4285 692.5647,-808.4285 692.5647,-808.4285 692.5647,-796.4285 692.5647,-796.4285 692.5647,-790.4285 698.5647,-784.4285 704.5647,-784.4285 704.5647,-784.4285 872.9413,-784.4285 872.9413,-784.4285 878.9413,-784.4285 884.9413,-790.4285 884.9413,-796.4285 884.9413,-796.4285 884.9413,-808.4285 884.9413,-808.4285 884.9413,-814.4285 878.9413,-820.4285 872.9413,-820.4285"/>
<text text-anchor="middle" x="788.753" y="-796.4285" font-family="Arial" font-size="20.00" fill="#17c3ff">Accelerometer Data</text>
<text text-anchor="middle" x="679.631" y="-766.4285" font-family="Arial" font-size="20.00" fill="#17c3ff">lv1</text>
</g>
<!-- sensor_bms -->
<g id="sensor_bms" class="node">
<title>sensor_bms</title>
<path fill="none" stroke="#17c3ff" d="M830.3771,-604.4285C830.3771,-604.4285 747.1289,-604.4285 747.1289,-604.4285 741.1289,-604.4285 735.1289,-598.4285 735.1289,-592.4285 735.1289,-592.4285 735.1289,-580.4285 735.1289,-580.4285 735.1289,-574.4285 741.1289,-568.4285 747.1289,-568.4285 747.1289,-568.4285 830.3771,-568.4285 830.3771,-568.4285 836.3771,-568.4285 842.3771,-574.4285 842.3771,-580.4285 842.3771,-580.4285 842.3771,-592.4285 842.3771,-592.4285 842.3771,-598.4285 836.3771,-604.4285 830.3771,-604.4285"/>
<text text-anchor="middle" x="788.753" y="-580.4285" font-family="Arial" font-size="20.00" fill="#17c3ff">BMS Data</text>
<text text-anchor="middle" x="722.413" y="-574.4285" font-family="Arial" font-size="20.00" fill="#17c3ff">lv1</text>
</g>
<!-- transaction_data_cleansing -->
<g id="transaction_data_cleansing" class="node">
<title>transaction_data_cleansing</title>
<path fill="none" stroke="#17c3ff" d="M907.9672,-496.4285C907.9672,-496.4285 669.5388,-496.4285 669.5388,-496.4285 663.5388,-496.4285 657.5388,-490.4285 657.5388,-484.4285 657.5388,-484.4285 657.5388,-472.4285 657.5388,-472.4285 657.5388,-466.4285 663.5388,-460.4285 669.5388,-460.4285 669.5388,-460.4285 907.9672,-460.4285 907.9672,-460.4285 913.9672,-460.4285 919.9672,-466.4285 919.9672,-472.4285 919.9672,-472.4285 919.9672,-484.4285 919.9672,-484.4285 919.9672,-490.4285 913.9672,-496.4285 907.9672,-496.4285"/>
<text text-anchor="middle" x="788.753" y="-472.4285" font-family="Arial" font-size="20.00" fill="#17c3ff">Transaction Data Cleansing</text>
<text text-anchor="middle" x="644.618" y="-442.4285" font-family="Arial" font-size="20.00" fill="#17c3ff">lv1</text>
</g>
<!-- kpi_dashboard -->
<g id="kpi_dashboard" class="node">
<title>kpi_dashboard</title>
<path fill="none" stroke="#40fdcb" d="M2644.689,-1090.4285C2644.689,-1090.4285 2473.797,-1090.4285 2473.797,-1090.4285 2467.797,-1090.4285 2461.797,-1084.4285 2461.797,-1078.4285 2461.797,-1078.4285 2461.797,-1066.4285 2461.797,-1066.4285 2461.797,-1060.4285 2467.797,-1054.4285 2473.797,-1054.4285 2473.797,-1054.4285 2644.689,-1054.4285 2644.689,-1054.4285 2650.689,-1054.4285 2656.689,-1060.4285 2656.689,-1066.4285 2656.689,-1066.4285 2656.689,-1078.4285 2656.689,-1078.4285 2656.689,-1084.4285 2650.689,-1090.4285 2644.689,-1090.4285"/>
<text text-anchor="middle" x="2559.243" y="-1066.4285" font-family="Arial" font-size="20.00" fill="#40fdcb">API: KPI Dashboard</text>
<text text-anchor="middle" x="2448.992" y="-1060.4285" font-family="Arial" font-size="20.00" fill="#40fdcb">lv3</text>
</g>
<!-- kpi_benchmarking -->
<g id="kpi_benchmarking" class="node">
<title>kpi_benchmarking</title>
<path fill="none" stroke="#7adef4" d="M2637.8355,-1231.4285C2637.8355,-1231.4285 2480.6505,-1231.4285 2480.6505,-1231.4285 2474.6505,-1231.4285 2468.6505,-1225.4285 2468.6505,-1219.4285 2468.6505,-1219.4285 2468.6505,-1207.4285 2468.6505,-1207.4285 2468.6505,-1201.4285 2474.6505,-1195.4285 2480.6505,-1195.4285 2480.6505,-1195.4285 2637.8355,-1195.4285 2637.8355,-1195.4285 2643.8355,-1195.4285 2649.8355,-1201.4285 2649.8355,-1207.4285 2649.8355,-1207.4285 2649.8355,-1219.4285 2649.8355,-1219.4285 2649.8355,-1225.4285 2643.8355,-1231.4285 2637.8355,-1231.4285"/>
<text text-anchor="middle" x="2559.243" y="-1207.4285" font-family="Arial" font-size="20.00" fill="#7adef4">KPI Benchmarking</text>
<text text-anchor="middle" x="2455.669" y="-1177.4285" font-family="Arial" font-size="20.00" fill="#7adef4">lv2</text>
</g>
<!-- social_media_sentiment_analysis -->
<g id="social_media_sentiment_analysis" class="node">
<title>social_media_sentiment_analysis</title>
<path fill="none" stroke="#7adef4" d="M1502.179,-1208.4285C1502.179,-1208.4285 1220.087,-1208.4285 1220.087,-1208.4285 1214.087,-1208.4285 1208.087,-1202.4285 1208.087,-1196.4285 1208.087,-1196.4285 1208.087,-1184.4285 1208.087,-1184.4285 1208.087,-1178.4285 1214.087,-1172.4285 1220.087,-1172.4285 1220.087,-1172.4285 1502.179,-1172.4285 1502.179,-1172.4285 1508.179,-1172.4285 1514.179,-1178.4285 1514.179,-1184.4285 1514.179,-1184.4285 1514.179,-1196.4285 1514.179,-1196.4285 1514.179,-1202.4285 1508.179,-1208.4285 1502.179,-1208.4285"/>
<text text-anchor="middle" x="1361.133" y="-1184.4285" font-family="Arial" font-size="20.00" fill="#7adef4">Social Media Sentiment Analysis</text>
<text text-anchor="middle" x="1195.332" y="-1154.4285" font-family="Arial" font-size="20.00" fill="#7adef4">lv2</text>
</g>
<!-- sales_dashboard -->
<g id="sales_dashboard" class="node">
<title>sales_dashboard</title>
<path fill="none" stroke="#40fdcb" d="M2681.5171,-982.4285C2681.5171,-982.4285 2436.9689,-982.4285 2436.9689,-982.4285 2430.9689,-982.4285 2424.9689,-976.4285 2424.9689,-970.4285 2424.9689,-970.4285 2424.9689,-958.4285 2424.9689,-958.4285 2424.9689,-952.4285 2430.9689,-946.4285 2436.9689,-946.4285 2436.9689,-946.4285 2681.5171,-946.4285 2681.5171,-946.4285 2687.5171,-946.4285 2693.5171,-952.4285 2693.5171,-958.4285 2693.5171,-958.4285 2693.5171,-970.4285 2693.5171,-970.4285 2693.5171,-976.4285 2687.5171,-982.4285 2681.5171,-982.4285"/>
<text text-anchor="middle" x="2559.243" y="-958.4285" font-family="Arial" font-size="20.00" fill="#40fdcb">API: Sales Forecast Queries</text>
<text text-anchor="middle" x="2412.328" y="-928.4285" font-family="Arial" font-size="20.00" fill="#40fdcb">lv3</text>
</g>
<!-- dmv_record_fetch -->
<g id="dmv_record_fetch" class="node">
<title>dmv_record_fetch</title>
<path fill="none" stroke="#0074ff" d="M278.488,-523.4285C278.488,-523.4285 116.464,-523.4285 116.464,-523.4285 110.464,-523.4285 104.464,-517.4285 104.464,-511.4285 104.464,-511.4285 104.464,-499.4285 104.464,-499.4285 104.464,-493.4285 110.464,-487.4285 116.464,-487.4285 116.464,-487.4285 278.488,-487.4285 278.488,-487.4285 284.488,-487.4285 290.488,-493.4285 290.488,-499.4285 290.488,-499.4285 290.488,-511.4285 290.488,-511.4285 290.488,-517.4285 284.488,-523.4285 278.488,-523.4285"/>
<text text-anchor="middle" x="197.476" y="-499.4285" font-family="Arial" font-size="20.00" fill="#0074ff">DMV Record Fetch</text>
<text text-anchor="middle" x="91.692" y="-469.4285" font-family="Arial" font-size="20.00" fill="#0074ff">lv0</text>
</g>
<!-- sales_data_cleansing -->
<g id="sales_data_cleansing" class="node">
<title>sales_data_cleansing</title>
<path fill="none" stroke="#17c3ff" d="M1453.3972,-496.4285C1453.3972,-496.4285 1268.8688,-496.4285 1268.8688,-496.4285 1262.8688,-496.4285 1256.8688,-490.4285 1256.8688,-484.4285 1256.8688,-484.4285 1256.8688,-472.4285 1256.8688,-472.4285 1256.8688,-466.4285 1262.8688,-460.4285 1268.8688,-460.4285 1268.8688,-460.4285 1453.3972,-460.4285 1453.3972,-460.4285 1459.3972,-460.4285 1465.3972,-466.4285 1465.3972,-472.4285 1465.3972,-472.4285 1465.3972,-484.4285 1465.3972,-484.4285 1465.3972,-490.4285 1459.3972,-496.4285 1453.3972,-496.4285"/>
<text text-anchor="middle" x="1361.133" y="-472.4285" font-family="Arial" font-size="20.00" fill="#17c3ff">Sales Data Cleansing</text>
<text text-anchor="middle" x="1244.223" y="-442.4285" font-family="Arial" font-size="20.00" fill="#17c3ff">lv1</text>
</g>
<!-- sensor_gyroscope -->
<g id="sensor_gyroscope" class="node">
<title>sensor_gyroscope</title>
<path fill="none" stroke="#17c3ff" d="M857.2317,-766.4285C857.2317,-766.4285 720.2743,-766.4285 720.2743,-766.4285 714.2743,-766.4285 708.2743,-760.4285 708.2743,-754.4285 708.2743,-754.4285 708.2743,-742.4285 708.2743,-742.4285 708.2743,-736.4285 714.2743,-730.4285 720.2743,-730.4285 720.2743,-730.4285 857.2317,-730.4285 857.2317,-730.4285 863.2317,-730.4285 869.2317,-736.4285 869.2317,-742.4285 869.2317,-742.4285 869.2317,-754.4285 869.2317,-754.4285 869.2317,-760.4285 863.2317,-766.4285 857.2317,-766.4285"/>
<text text-anchor="middle" x="788.753" y="-742.4285" font-family="Arial" font-size="20.00" fill="#17c3ff">Gyroscope Data</text>
<text text-anchor="middle" x="695.736" y="-712.4285" font-family="Arial" font-size="20.00" fill="#17c3ff">lv1</text>
</g>
<!-- sensor_lidar -->
<g id="sensor_lidar" class="node">
<title>sensor_lidar</title>
<path fill="none" stroke="#17c3ff" d="M830.9933,-712.4285C830.9933,-712.4285 746.5127,-712.4285 746.5127,-712.4285 740.5127,-712.4285 734.5127,-706.4285 734.5127,-700.4285 734.5127,-700.4285 734.5127,-688.4285 734.5127,-688.4285 734.5127,-682.4285 740.5127,-676.4285 746.5127,-676.4285 746.5127,-676.4285 830.9933,-676.4285 830.9933,-676.4285 836.9933,-676.4285 842.9933,-682.4285 842.9933,-688.4285 842.9933,-688.4285 842.9933,-700.4285 842.9933,-700.4285 842.9933,-706.4285 836.9933,-712.4285 830.9933,-712.4285"/>
<text text-anchor="middle" x="788.753" y="-688.4285" font-family="Arial" font-size="20.00" fill="#17c3ff">Lidar Data</text>
<text text-anchor="middle" x="721.855" y="-682.4285" font-family="Arial" font-size="20.00" fill="#17c3ff">lv1</text>
</g>
<!-- vehicle_maintenance_records_import -->
<g id="vehicle_maintenance_records_import" class="node">
<title>vehicle_maintenance_records_import</title>
<path fill="none" stroke="#0074ff" d="M357.316,-253.4285C357.316,-253.4285 37.636,-253.4285 37.636,-253.4285 31.636,-253.4285 25.636,-247.4285 25.636,-241.4285 25.636,-241.4285 25.636,-229.4285 25.636,-229.4285 25.636,-223.4285 31.636,-217.4285 37.636,-217.4285 37.636,-217.4285 357.316,-217.4285 357.316,-217.4285 363.316,-217.4285 369.316,-223.4285 369.316,-229.4285 369.316,-229.4285 369.316,-241.4285 369.316,-241.4285 369.316,-247.4285 363.316,-253.4285 357.316,-253.4285"/>
<text text-anchor="middle" x="197.476" y="-229.4285" font-family="Arial" font-size="20.00" fill="#0074ff">Vehicle Maintenance Records Import</text>
<text text-anchor="middle" x="12.778" y="-199.4285" font-family="Arial" font-size="20.00" fill="#0074ff">lv0</text>
</g>
<!-- sensor_gear -->
<g id="sensor_gear" class="node">
<title>sensor_gear</title>
<path fill="none" stroke="#17c3ff" d="M830.9953,-982.4285C830.9953,-982.4285 746.5107,-982.4285 746.5107,-982.4285 740.5107,-982.4285 734.5107,-976.4285 734.5107,-970.4285 734.5107,-970.4285 734.5107,-958.4285 734.5107,-958.4285 734.5107,-952.4285 740.5107,-946.4285 746.5107,-946.4285 746.5107,-946.4285 830.9953,-946.4285 830.9953,-946.4285 836.9953,-946.4285 842.9953,-952.4285 842.9953,-958.4285 842.9953,-958.4285 842.9953,-970.4285 842.9953,-970.4285 842.9953,-976.4285 836.9953,-982.4285 830.9953,-982.4285"/>
<text text-anchor="middle" x="788.753" y="-958.4285" font-family="Arial" font-size="20.00" fill="#17c3ff">Gear Data</text>
<text text-anchor="middle" x="721.854" y="-952.4285" font-family="Arial" font-size="20.00" fill="#17c3ff">lv1</text>
</g>
<!-- fleet_optimization_model -->
<g id="fleet_optimization_model" class="node">
<title>fleet_optimization_model</title>
<path fill="none" stroke="#7adef4" d="M1467.767,-1150.4285C1467.767,-1150.4285 1254.499,-1150.4285 1254.499,-1150.4285 1248.499,-1150.4285 1242.499,-1144.4285 1242.499,-1138.4285 1242.499,-1138.4285 1242.499,-1126.4285 1242.499,-1126.4285 1242.499,-1120.4285 1248.499,-1114.4285 1254.499,-1114.4285 1254.499,-1114.4285 1467.767,-1114.4285 1467.767,-1114.4285 1473.767,-1114.4285 1479.767,-1120.4285 1479.767,-1126.4285 1479.767,-1126.4285 1479.767,-1138.4285 1479.767,-1138.4285 1479.767,-1144.4285 1473.767,-1150.4285 1467.767,-1150.4285"/>
<text text-anchor="middle" x="1361.133" y="-1126.4285" font-family="Arial" font-size="20.00" fill="#7adef4">Fleet Optimization Model</text>
<text text-anchor="middle" x="1229.788" y="-1096.4285" font-family="Arial" font-size="20.00" fill="#7adef4">lv2</text>
</g>
<!-- maintenance_insights -->
<g id="maintenance_insights" class="node">
<title>maintenance_insights</title>
<path fill="none" stroke="#40fdcb" d="M2671.5392,-874.4285C2671.5392,-874.4285 2446.9468,-874.4285 2446.9468,-874.4285 2440.9468,-874.4285 2434.9468,-868.4285 2434.9468,-862.4285 2434.9468,-862.4285 2434.9468,-850.4285 2434.9468,-850.4285 2434.9468,-844.4285 2440.9468,-838.4285 2446.9468,-838.4285 2446.9468,-838.4285 2671.5392,-838.4285 2671.5392,-838.4285 2677.5392,-838.4285 2683.5392,-844.4285 2683.5392,-850.4285 2683.5392,-850.4285 2683.5392,-862.4285 2683.5392,-862.4285 2683.5392,-868.4285 2677.5392,-874.4285 2671.5392,-874.4285"/>
<text text-anchor="middle" x="2559.243" y="-850.4285" font-family="Arial" font-size="20.00" fill="#40fdcb">API: Maintenance Insights</text>
<text text-anchor="middle" x="2422.317" y="-844.4285" font-family="Arial" font-size="20.00" fill="#40fdcb">lv3</text>
</g>
<!-- fb_crawler -->
<g id="fb_crawler" class="node">
<title>fb_crawler</title>
<path fill="none" stroke="#0074ff" d="M243.456,-955.4285C243.456,-955.4285 151.496,-955.4285 151.496,-955.4285 145.496,-955.4285 139.496,-949.4285 139.496,-943.4285 139.496,-943.4285 139.496,-931.4285 139.496,-931.4285 139.496,-925.4285 145.496,-919.4285 151.496,-919.4285 151.496,-919.4285 243.456,-919.4285 243.456,-919.4285 249.456,-919.4285 255.456,-925.4285 255.456,-931.4285 255.456,-931.4285 255.456,-943.4285 255.456,-943.4285 255.456,-949.4285 249.456,-955.4285 243.456,-955.4285"/>
<text text-anchor="middle" x="197.476" y="-931.4285" font-family="Arial" font-size="20.00" fill="#0074ff">FB Crawler</text>
<text text-anchor="middle" x="126.708" y="-901.4285" font-family="Arial" font-size="20.00" fill="#0074ff">lv0</text>
</g>
<!-- government_regulations_fetch -->
<g id="government_regulations_fetch" class="node">
<title>government_regulations_fetch</title>
<path fill="none" stroke="#0074ff" d="M331.7061,-199.4285C331.7061,-199.4285 63.2459,-199.4285 63.2459,-199.4285 57.2459,-199.4285 51.2459,-193.4285 51.2459,-187.4285 51.2459,-187.4285 51.2459,-175.4285 51.2459,-175.4285 51.2459,-169.4285 57.2459,-163.4285 63.2459,-163.4285 63.2459,-163.4285 331.7061,-163.4285 331.7061,-163.4285 337.7061,-163.4285 343.7061,-169.4285 343.7061,-175.4285 343.7061,-175.4285 343.7061,-187.4285 343.7061,-187.4285 343.7061,-193.4285 337.7061,-199.4285 331.7061,-199.4285"/>
<text text-anchor="middle" x="197.476" y="-175.4285" font-family="Arial" font-size="20.00" fill="#0074ff">Government Regulations Fetch</text>
<text text-anchor="middle" x="38.333" y="-145.4285" font-family="Arial" font-size="20.00" fill="#0074ff">lv0</text>
</g>
<!-- lab_test_data_ingestion -->
<g id="lab_test_data_ingestion" class="node">
<title>lab_test_data_ingestion</title>
<path fill="none" stroke="#0074ff" d="M299.7742,-631.4285C299.7742,-631.4285 95.1778,-631.4285 95.1778,-631.4285 89.1778,-631.4285 83.1778,-625.4285 83.1778,-619.4285 83.1778,-619.4285 83.1778,-607.4285 83.1778,-607.4285 83.1778,-601.4285 89.1778,-595.4285 95.1778,-595.4285 95.1778,-595.4285 299.7742,-595.4285 299.7742,-595.4285 305.7742,-595.4285 311.7742,-601.4285 311.7742,-607.4285 311.7742,-607.4285 311.7742,-619.4285 311.7742,-619.4285 311.7742,-625.4285 305.7742,-631.4285 299.7742,-631.4285"/>
<text text-anchor="middle" x="197.476" y="-607.4285" font-family="Arial" font-size="20.00" fill="#0074ff">Lab Test Data Ingestion</text>
<text text-anchor="middle" x="70.549" y="-601.4285" font-family="Arial" font-size="20.00" fill="#0074ff">lv0</text>
</g>
<!-- sensor_data_collection -->
<g id="sensor_data_collection" class="node">
<title>sensor_data_collection</title>
<path fill="none" stroke="#0074ff" d="M295.9565,-793.4285C295.9565,-793.4285 98.9955,-793.4285 98.9955,-793.4285 92.9955,-793.4285 86.9955,-787.4285 86.9955,-781.4285 86.9955,-781.4285 86.9955,-769.4285 86.9955,-769.4285 86.9955,-763.4285 92.9955,-757.4285 98.9955,-757.4285 98.9955,-757.4285 295.9565,-757.4285 295.9565,-757.4285 301.9565,-757.4285 307.9565,-763.4285 307.9565,-769.4285 307.9565,-769.4285 307.9565,-781.4285 307.9565,-781.4285 307.9565,-787.4285 301.9565,-793.4285 295.9565,-793.4285"/>
<text text-anchor="middle" x="197.476" y="-769.4285" font-family="Arial" font-size="20.00" fill="#0074ff">Sensor Data Collection</text>
<text text-anchor="middle" x="74.458" y="-739.4285" font-family="Arial" font-size="20.00" fill="#0074ff">lv0</text>
</g>
<!-- public_relations -->
<g id="public_relations" class="node">
<title>public_relations</title>
<path fill="none" stroke="#40fdcb" d="M2700.307,-1036.4285C2700.307,-1036.4285 2418.179,-1036.4285 2418.179,-1036.4285 2412.179,-1036.4285 2406.179,-1030.4285 2406.179,-1024.4285 2406.179,-1024.4285 2406.179,-1012.4285 2406.179,-1012.4285 2406.179,-1006.4285 2412.179,-1000.4285 2418.179,-1000.4285 2418.179,-1000.4285 2700.307,-1000.4285 2700.307,-1000.4285 2706.307,-1000.4285 2712.307,-1006.4285 2712.307,-1012.4285 2712.307,-1012.4285 2712.307,-1024.4285 2712.307,-1024.4285 2712.307,-1030.4285 2706.307,-1036.4285 2700.307,-1036.4285"/>
<text text-anchor="middle" x="2559.243" y="-1012.4285" font-family="Arial" font-size="20.00" fill="#40fdcb">API: Public Relations Dashboard</text>
<text text-anchor="middle" x="2393.433" y="-982.4285" font-family="Arial" font-size="20.00" fill="#40fdcb">lv3</text>
</g>
<!-- threads_crawler -->
<g id="threads_crawler" class="node">
<title>threads_crawler</title>
<path fill="none" stroke="#0074ff" d="M267.2482,-1171.4285C267.2482,-1171.4285 127.7038,-1171.4285 127.7038,-1171.4285 121.7038,-1171.4285 115.7038,-1165.4285 115.7038,-1159.4285 115.7038,-1159.4285 115.7038,-1147.4285 115.7038,-1147.4285 115.7038,-1141.4285 121.7038,-1135.4285 127.7038,-1135.4285 127.7038,-1135.4285 267.2482,-1135.4285 267.2482,-1135.4285 273.2482,-1135.4285 279.2482,-1141.4285 279.2482,-1147.4285 279.2482,-1147.4285 279.2482,-1159.4285 279.2482,-1159.4285 279.2482,-1165.4285 273.2482,-1171.4285 267.2482,-1171.4285"/>
<text text-anchor="middle" x="197.476" y="-1147.4285" font-family="Arial" font-size="20.00" fill="#0074ff">Threads Crawler</text>
<text text-anchor="middle" x="102.812" y="-1117.4285" font-family="Arial" font-size="20.00" fill="#0074ff">lv0</text>
</g>
<!-- tire_spec_fetch -->
<g id="tire_spec_fetch" class="node">
<title>tire_spec_fetch</title>
<path fill="none" stroke="#0074ff" d="M264.1101,-847.4285C264.1101,-847.4285 130.8419,-847.4285 130.8419,-847.4285 124.8419,-847.4285 118.8419,-841.4285 118.8419,-835.4285 118.8419,-835.4285 118.8419,-823.4285 118.8419,-823.4285 118.8419,-817.4285 124.8419,-811.4285 130.8419,-811.4285 130.8419,-811.4285 264.1101,-811.4285 264.1101,-811.4285 270.1101,-811.4285 276.1101,-817.4285 276.1101,-823.4285 276.1101,-823.4285 276.1101,-835.4285 276.1101,-835.4285 276.1101,-841.4285 270.1101,-847.4285 264.1101,-847.4285"/>
<text text-anchor="middle" x="197.476" y="-823.4285" font-family="Arial" font-size="20.00" fill="#0074ff">Tire Spec Fetch</text>
<text text-anchor="middle" x="106.131" y="-817.4285" font-family="Arial" font-size="20.00" fill="#0074ff">lv0</text>
</g>
<!-- sensor_camera -->
<g id="sensor_camera" class="node">
<title>sensor_camera</title>
<path fill="none" stroke="#17c3ff" d="M844.151,-928.4285C844.151,-928.4285 733.355,-928.4285 733.355,-928.4285 727.355,-928.4285 721.355,-922.4285 721.355,-916.4285 721.355,-916.4285 721.355,-904.4285 721.355,-904.4285 721.355,-898.4285 727.355,-892.4285 733.355,-892.4285 733.355,-892.4285 844.151,-892.4285 844.151,-892.4285 850.151,-892.4285 856.151,-898.4285 856.151,-904.4285 856.151,-904.4285 856.151,-916.4285 856.151,-916.4285 856.151,-922.4285 850.151,-928.4285 844.151,-928.4285"/>
<text text-anchor="middle" x="788.753" y="-904.4285" font-family="Arial" font-size="20.00" fill="#17c3ff">Camera Data</text>
<text text-anchor="middle" x="708.526" y="-874.4285" font-family="Arial" font-size="20.00" fill="#17c3ff">lv1</text>
</g>
<!-- sensor_motor -->
<g id="sensor_motor" class="node">
<title>sensor_motor</title>
<path fill="none" stroke="#17c3ff" d="M834.153,-658.4285C834.153,-658.4285 743.353,-658.4285 743.353,-658.4285 737.353,-658.4285 731.353,-652.4285 731.353,-646.4285 731.353,-646.4285 731.353,-634.4285 731.353,-634.4285 731.353,-628.4285 737.353,-622.4285 743.353,-622.4285 743.353,-622.4285 834.153,-622.4285 834.153,-622.4285 840.153,-622.4285 846.153,-628.4285 846.153,-634.4285 846.153,-634.4285 846.153,-646.4285 846.153,-646.4285 846.153,-652.4285 840.153,-658.4285 834.153,-658.4285"/>
<text text-anchor="middle" x="788.753" y="-634.4285" font-family="Arial" font-size="20.00" fill="#17c3ff">Motor Data</text>
<text text-anchor="middle" x="718.525" y="-604.4285" font-family="Arial" font-size="20.00" fill="#17c3ff">lv1</text>
</g>
<!-- sensor_temperature -->
<g id="sensor_temperature" class="node">
<title>sensor_temperature</title>
<path fill="none" stroke="#17c3ff" d="M1438.3812,-604.4285C1438.3812,-604.4285 1283.8848,-604.4285 1283.8848,-604.4285 1277.8848,-604.4285 1271.8848,-598.4285 1271.8848,-592.4285 1271.8848,-592.4285 1271.8848,-580.4285 1271.8848,-580.4285 1271.8848,-574.4285 1277.8848,-568.4285 1283.8848,-568.4285 1283.8848,-568.4285 1438.3812,-568.4285 1438.3812,-568.4285 1444.3812,-568.4285 1450.3812,-574.4285 1450.3812,-580.4285 1450.3812,-580.4285 1450.3812,-592.4285 1450.3812,-592.4285 1450.3812,-598.4285 1444.3812,-604.4285 1438.3812,-604.4285"/>
<text text-anchor="middle" x="1361.133" y="-580.4285" font-family="Arial" font-size="20.00" fill="#17c3ff">Temperature Data</text>
<text text-anchor="middle" x="1259.231" y="-550.4285" font-family="Arial" font-size="20.00" fill="#17c3ff">lv1</text>
</g>
<!-- social_media_discussions -->
<g id="social_media_discussions" class="node">
<title>social_media_discussions</title>
<path fill="none" stroke="#7adef4" d="M897.9372,-1220.4285C897.9372,-1220.4285 679.5688,-1220.4285 679.5688,-1220.4285 673.5688,-1220.4285 667.5688,-1214.4285 667.5688,-1208.4285 667.5688,-1208.4285 667.5688,-1196.4285 667.5688,-1196.4285 667.5688,-1190.4285 673.5688,-1184.4285 679.5688,-1184.4285 679.5688,-1184.4285 897.9372,-1184.4285 897.9372,-1184.4285 903.9372,-1184.4285 909.9372,-1190.4285 909.9372,-1196.4285 909.9372,-1196.4285 909.9372,-1208.4285 909.9372,-1208.4285 909.9372,-1214.4285 903.9372,-1220.4285 897.9372,-1220.4285"/>
<text text-anchor="middle" x="788.753" y="-1196.4285" font-family="Arial" font-size="20.00" fill="#7adef4">Social Media Discussions</text>
<text text-anchor="middle" x="654.633" y="-1166.4285" font-family="Arial" font-size="20.00" fill="#7adef4">lv2</text>
</g>
<!-- predictive_maintenance_model -->
<g id="predictive_maintenance_model" class="node">
<title>predictive_maintenance_model</title>
<path fill="none" stroke="#7adef4" d="M2073.9011,-1150.4285C2073.9011,-1150.4285 1814.2409,-1150.4285 1814.2409,-1150.4285 1808.2409,-1150.4285 1802.2409,-1144.4285 1802.2409,-1138.4285 1802.2409,-1138.4285 1802.2409,-1126.4285 1802.2409,-1126.4285 1802.2409,-1120.4285 1808.2409,-1114.4285 1814.2409,-1114.4285 1814.2409,-1114.4285 2073.9011,-1114.4285 2073.9011,-1114.4285 2079.9011,-1114.4285 2085.9011,-1120.4285 2085.9011,-1126.4285 2085.9011,-1126.4285 2085.9011,-1138.4285 2085.9011,-1138.4285 2085.9011,-1144.4285 2079.9011,-1150.4285 2073.9011,-1150.4285"/>
<text text-anchor="middle" x="1944.071" y="-1126.4285" font-family="Arial" font-size="20.00" fill="#7adef4">Predictive Maintenance Model</text>
<text text-anchor="middle" x="1789.378" y="-1096.4285" font-family="Arial" font-size="20.00" fill="#7adef4">lv2</text>
</g>
<!-- battery_spec_fetch -->
<g id="battery_spec_fetch" class="node">
<title>battery_spec_fetch</title>
<path fill="none" stroke="#0074ff" d="M278.526,-739.4285C278.526,-739.4285 116.426,-739.4285 116.426,-739.4285 110.426,-739.4285 104.426,-733.4285 104.426,-727.4285 104.426,-727.4285 104.426,-715.4285 104.426,-715.4285 104.426,-709.4285 110.426,-703.4285 116.426,-703.4285 116.426,-703.4285 278.526,-703.4285 278.526,-703.4285 284.526,-703.4285 290.526,-709.4285 290.526,-715.4285 290.526,-715.4285 290.526,-727.4285 290.526,-727.4285 290.526,-733.4285 284.526,-739.4285 278.526,-739.4285"/>
<text text-anchor="middle" x="197.476" y="-715.4285" font-family="Arial" font-size="20.00" fill="#0074ff">Battery Spec Fetch</text>
<text text-anchor="middle" x="91.673" y="-709.4285" font-family="Arial" font-size="20.00" fill="#0074ff">lv0</text>
</g>
<!-- news_crawler -->
<g id="news_crawler" class="node">
<title>news_crawler</title>
<path fill="none" stroke="#0074ff" d="M255.8946,-1117.4285C255.8946,-1117.4285 139.0574,-1117.4285 139.0574,-1117.4285 133.0574,-1117.4285 127.0574,-1111.4285 127.0574,-1105.4285 127.0574,-1105.4285 127.0574,-1093.4285 127.0574,-1093.4285 127.0574,-1087.4285 133.0574,-1081.4285 139.0574,-1081.4285 139.0574,-1081.4285 255.8946,-1081.4285 255.8946,-1081.4285 261.8946,-1081.4285 267.8946,-1087.4285 267.8946,-1093.4285 267.8946,-1093.4285 267.8946,-1105.4285 267.8946,-1105.4285 267.8946,-1111.4285 261.8946,-1117.4285 255.8946,-1117.4285"/>
<text text-anchor="middle" x="197.476" y="-1093.4285" font-family="Arial" font-size="20.00" fill="#0074ff">News Crawler</text>
<text text-anchor="middle" x="114.489" y="-1063.4285" font-family="Arial" font-size="20.00" fill="#0074ff">lv0</text>
</g>
<!-- weather -->
<g id="weather" class="node">
<title>weather</title>
<path fill="none" stroke="#0074ff" d="M231.043,-901.4285C231.043,-901.4285 163.909,-901.4285 163.909,-901.4285 157.909,-901.4285 151.909,-895.4285 151.909,-889.4285 151.909,-889.4285 151.909,-877.4285 151.909,-877.4285 151.909,-871.4285 157.909,-865.4285 163.909,-865.4285 163.909,-865.4285 231.043,-865.4285 231.043,-865.4285 237.043,-865.4285 243.043,-871.4285 243.043,-877.4285 243.043,-877.4285 243.043,-889.4285 243.043,-889.4285 243.043,-895.4285 237.043,-901.4285 231.043,-901.4285"/>
<text text-anchor="middle" x="197.476" y="-877.4285" font-family="Arial" font-size="20.00" fill="#0074ff">Weather</text>
<text text-anchor="middle" x="138.915" y="-871.4285" font-family="Arial" font-size="20.00" fill="#0074ff">lv0</text>
</g>
<!-- customer_profile -->
<g id="customer_profile" class="node">
<title>customer_profile</title>
<path fill="none" stroke="#17c3ff" d="M1431.523,-550.4285C1431.523,-550.4285 1290.743,-550.4285 1290.743,-550.4285 1284.743,-550.4285 1278.743,-544.4285 1278.743,-538.4285 1278.743,-538.4285 1278.743,-526.4285 1278.743,-526.4285 1278.743,-520.4285 1284.743,-514.4285 1290.743,-514.4285 1290.743,-514.4285 1431.523,-514.4285 1431.523,-514.4285 1437.523,-514.4285 1443.523,-520.4285 1443.523,-526.4285 1443.523,-526.4285 1443.523,-538.4285 1443.523,-538.4285 1443.523,-544.4285 1437.523,-550.4285 1431.523,-550.4285"/>
<text text-anchor="middle" x="1361.133" y="-526.4285" font-family="Arial" font-size="20.00" fill="#17c3ff">Customer Profile</text>
<text text-anchor="middle" x="1265.91" y="-520.4285" font-family="Arial" font-size="20.00" fill="#17c3ff">lv1</text>
</g>
<!-- sales_forecast -->
<g id="sales_forecast" class="node">
<title>sales_forecast</title>
<path fill="none" stroke="#7adef4" d="M2006.9294,-1204.4285C2006.9294,-1204.4285 1881.2126,-1204.4285 1881.2126,-1204.4285 1875.2126,-1204.4285 1869.2126,-1198.4285 1869.2126,-1192.4285 1869.2126,-1192.4285 1869.2126,-1180.4285 1869.2126,-1180.4285 1869.2126,-1174.4285 1875.2126,-1168.4285 1881.2126,-1168.4285 1881.2126,-1168.4285 2006.9294,-1168.4285 2006.9294,-1168.4285 2012.9294,-1168.4285 2018.9294,-1174.4285 2018.9294,-1180.4285 2018.9294,-1180.4285 2018.9294,-1192.4285 2018.9294,-1192.4285 2018.9294,-1198.4285 2012.9294,-1204.4285 2006.9294,-1204.4285"/>
<text text-anchor="middle" x="1944.071" y="-1180.4285" font-family="Arial" font-size="20.00" fill="#7adef4">Sales Forecast</text>
<text text-anchor="middle" x="1856.614" y="-1174.4285" font-family="Arial" font-size="20.00" fill="#7adef4">lv2</text>
</g>
<!-- market_research_fetch -->
<g id="market_research_fetch" class="node">
<title>market_research_fetch</title>
<path fill="none" stroke="#0074ff" d="M330.3482,-361.4285C330.3482,-361.4285 64.6038,-361.4285 64.6038,-361.4285 58.6038,-361.4285 52.6038,-355.4285 52.6038,-349.4285 52.6038,-349.4285 52.6038,-337.4285 52.6038,-337.4285 52.6038,-331.4285 58.6038,-325.4285 64.6038,-325.4285 64.6038,-325.4285 330.3482,-325.4285 330.3482,-325.4285 336.3482,-325.4285 342.3482,-331.4285 342.3482,-337.4285 342.3482,-337.4285 342.3482,-349.4285 342.3482,-349.4285 342.3482,-355.4285 336.3482,-361.4285 330.3482,-361.4285"/>
<text text-anchor="middle" x="197.476" y="-337.4285" font-family="Arial" font-size="20.00" fill="#0074ff">Market Research Report Fetch</text>
<text text-anchor="middle" x="40.012" y="-307.4285" font-family="Arial" font-size="20.00" fill="#0074ff">lv0</text>
</g>
<!-- sales_data_import -->
<g id="sales_data_import" class="node">
<title>sales_data_import</title>
<path fill="none" stroke="#0074ff" d="M273.504,-469.4285C273.504,-469.4285 121.448,-469.4285 121.448,-469.4285 115.448,-469.4285 109.448,-463.4285 109.448,-457.4285 109.448,-457.4285 109.448,-445.4285 109.448,-445.4285 109.448,-439.4285 115.448,-433.4285 121.448,-433.4285 121.448,-433.4285 273.504,-433.4285 273.504,-433.4285 279.504,-433.4285 285.504,-439.4285 285.504,-445.4285 285.504,-445.4285 285.504,-457.4285 285.504,-457.4285 285.504,-463.4285 279.504,-469.4285 273.504,-469.4285"/>
<text text-anchor="middle" x="197.476" y="-445.4285" font-family="Arial" font-size="20.00" fill="#0074ff">Sales Data Import</text>
<text text-anchor="middle" x="96.684" y="-439.4285" font-family="Arial" font-size="20.00" fill="#0074ff">lv0</text>
</g>
</g>
</svg>
