<?xml version="1.0" encoding="UTF-8" standalone="no"?>
<!DOCTYPE svg PUBLIC "-//W3C//DTD SVG 1.1//EN"
 "http://www.w3.org/Graphics/SVG/1.1/DTD/svg11.dtd">
<!-- Generated by graphviz version 2.40.1 (20161225.0304)
 -->
<!-- Pages: 1 -->
<svg width="1367pt" height="810pt"
 viewBox="0.00 0.00 1367.49 810.00" xmlns="http://www.w3.org/2000/svg" xmlns:xlink="http://www.w3.org/1999/xlink">
<g id="RootGraph" class="graph" transform="scale(.4283 .4283) rotate(0) translate(216 1675.0053)">
<polygon fill="#ffffff" stroke="transparent" points="-216,216 -216,-1675.0053 2976.5,-1675.0053 2976.5,216 -216,216"/>
<text text-anchor="middle" x="2149.068" y="-1347.0053" font-family="Arial" font-size="120.00" fill="#000000">Task Lineage Diagram</text>
<g id="lv2" class="cluster">
<title>cluster_lv2</title>
</g>
<g id="lv0" class="cluster">
<title>cluster_lv0</title>
</g>
<g id="lv3" class="cluster">
<title>cluster_lv3</title>
</g>
<g id="lv1" class="cluster">
<title>cluster_lv1</title>
</g>
<!-- vehicle_profile&#45;&gt;maintenance_insights -->
<g id="edge65" class="edge">
<title>vehicle_profile&#45;&gt;maintenance_insights</title>
<g id="a_edge65"><a xlink:title="vehicle_profile&#45;&gt;maintenance_insights">
<path fill="none" stroke="#000000" d="M829.2491,-452.92C996.935,-380.9466 1648.5496,-130.2708 2085.986,-373.0053 2291.6258,-487.1154 2168.7548,-693.9088 2365.986,-822.0053 2383.6453,-833.4746 2404.122,-840.9661 2425.0069,-845.7353"/>
<polygon fill="#000000" stroke="#000000" points="2424.4478,-849.1938 2434.9507,-847.8014 2425.8719,-842.3402 2424.4478,-849.1938"/>
</a>
</g>
</g>
<!-- vehicle_profile&#45;&gt;fleet_dashboard -->
<g id="edge21" class="edge">
<title>vehicle_profile&#45;&gt;fleet_dashboard</title>
<g id="a_edge21"><a xlink:title="vehicle_profile&#45;&gt;fleet_dashboard">
<path fill="none" stroke="#000000" d="M860.7994,-455.6935C992.6049,-430.4456 1280.5052,-388.1445 1514.156,-444.0053 1927.0149,-542.7108 1960.9664,-748.9056 2365.986,-876.0053 2391.2082,-883.9203 2419.0098,-889.5187 2445.4749,-893.4774"/>
<polygon fill="#000000" stroke="#000000" points="2445.1499,-896.9664 2455.5443,-894.9158 2446.1398,-890.0368 2445.1499,-896.9664"/>
</a>
</g>
</g>
<!-- vehicle_profile&#45;&gt;fleet_optimization_model -->
<g id="edge2" class="edge">
<title>vehicle_profile&#45;&gt;fleet_optimization_model</title>
<g id="a_edge2"><a xlink:title="vehicle_profile&#45;&gt;fleet_optimization_model">
<path fill="none" stroke="#000000" d="M860.6085,-473.8396C881.4991,-477.6485 903.2155,-484.8387 920.11,-498.0053 1152.4718,-679.0959 974.924,-914.9773 1208.11,-1095.0053 1215.6646,-1100.8377 1224.0404,-1105.6327 1232.868,-1109.5653"/>
<polygon fill="#000000" stroke="#000000" points="1231.6332,-1112.8414 1242.2154,-1113.3587 1234.2656,-1106.3552 1231.6332,-1112.8414"/>
</a>
</g>
</g>
<!-- government_regulations_fetch&#45;&gt;regulatory_compliance_dashboard -->
<g id="edge24" class="edge">
<title>government_regulations_fetch&#45;&gt;regulatory_compliance_dashboard</title>
<g id="a_edge24"><a xlink:title="government_regulations_fetch&#45;&gt;regulatory_compliance_dashboard">
<path fill="none" stroke="#000000" d="M262.0707,-128.9693C513.2552,-62.5779 1442.8406,148.026 2085.986,-176.0053 2349.6567,-308.8486 2507.7271,-665.1006 2548.6079,-767.2669"/>
<polygon fill="#000000" stroke="#000000" points="2545.4744,-768.861 2552.4048,-776.8748 2551.9845,-766.2882 2545.4744,-768.861"/>
</a>
</g>
</g>
<!-- x_crawler&#45;&gt;social_media_discussions -->
<g id="edge32" class="edge">
<title>x_crawler&#45;&gt;social_media_discussions</title>
<g id="a_edge32"><a xlink:title="x_crawler&#45;&gt;social_media_discussions">
<path fill="none" stroke="#000000" d="M249.504,-1014.9058C285.8957,-1018.5749 335.3232,-1025.4565 377.396,-1038.0053 504.8892,-1076.0321 523.4558,-1120.1146 649.396,-1163.0053 661.661,-1167.1823 674.7177,-1170.9863 687.7335,-1174.3957"/>
<polygon fill="#000000" stroke="#000000" points="687.1104,-1177.8487 697.6649,-1176.9257 688.8384,-1171.0653 687.1104,-1177.8487"/>
</a>
</g>
</g>
<!-- fab_pipeline_data_sync&#45;&gt;predictive_maintenance_model -->
<g id="edge71" class="edge">
<title>fab_pipeline_data_sync&#45;&gt;predictive_maintenance_model</title>
<g id="a_edge71"><a xlink:title="fab_pipeline_data_sync&#45;&gt;predictive_maintenance_model">
<path fill="none" stroke="#000000" d="M310.0246,-238.7487C432.7782,-221.1482 616.2862,-195.2659 649.396,-193.0053 850.5367,-179.2722 1496.1595,-193.2935 1514.156,-205.0053 1846.1612,-421.0679 1926.5499,-966.5478 1941.2495,-1096.7713"/>
<polygon fill="#000000" stroke="#000000" points="1937.7744,-1097.1911 1942.3376,-1106.7529 1944.7332,-1096.4325 1937.7744,-1097.1911"/>
</a>
</g>
</g>
<!-- sales_data_cleansing&#45;&gt;sales_forecast -->
<g id="edge44" class="edge">
<title>sales_data_cleansing&#45;&gt;sales_forecast</title>
<g id="a_edge44"><a xlink:title="sales_data_cleansing&#45;&gt;sales_forecast">
<path fill="none" stroke="#000000" d="M1465.4459,-529.7649C1482.9288,-534.2382 1499.9708,-541.2449 1514.156,-552.0053 1749.82,-730.7722 1567.6916,-971.668 1802.156,-1152.0053 1818.4714,-1164.5542 1838.9113,-1171.8321 1859.1543,-1175.9288"/>
<polygon fill="#000000" stroke="#000000" points="1858.598,-1179.3847 1869.057,-1177.6935 1859.8262,-1172.4933 1858.598,-1179.3847"/>
</a>
</g>
</g>
<!-- sensor_accelerometer&#45;&gt;fleet_optimization_model -->
<g id="edge11" class="edge">
<title>sensor_accelerometer&#45;&gt;fleet_optimization_model</title>
<g id="a_edge11"><a xlink:title="sensor_accelerometer&#45;&gt;fleet_optimization_model">
<path fill="none" stroke="#000000" d="M885.1846,-698.3721C897.4884,-702.2125 909.4791,-707.2939 920.11,-714.0053 1099.6021,-827.3207 1028.1025,-982.5105 1208.11,-1095.0053 1215.8654,-1099.852 1224.2386,-1103.942 1232.9316,-1107.3906"/>
<polygon fill="#000000" stroke="#000000" points="1231.8819,-1110.7335 1242.4757,-1110.8863 1234.2895,-1104.1605 1231.8819,-1110.7335"/>
</a>
</g>
</g>
<!-- customer_service_logs_import&#45;&gt;sales_data_cleansing -->
<g id="edge54" class="edge">
<title>customer_service_logs_import&#45;&gt;sales_data_cleansing</title>
<g id="a_edge54"><a xlink:title="customer_service_logs_import&#45;&gt;sales_data_cleansing">
<path fill="none" stroke="#000000" d="M335.5104,-452.9441C349.7272,-450.2934 363.8994,-447.3203 377.396,-444.0053 501.6085,-413.4969 523.2578,-371.1867 649.396,-350.0053 768.052,-330.0804 803.1658,-321.7156 920.11,-350.0053 1059.9876,-383.8429 1071.7164,-452.0977 1208.11,-498.0053 1220.4363,-502.1541 1233.5471,-505.6979 1246.7096,-508.7173"/>
<polygon fill="#000000" stroke="#000000" points="1246.2552,-512.2008 1256.773,-510.9255 1247.7556,-505.3635 1246.2552,-512.2008"/>
</a>
</g>
</g>
<!-- customer_service_logs_import&#45;&gt;customer_profile -->
<g id="edge45" class="edge">
<title>customer_service_logs_import&#45;&gt;customer_profile</title>
<g id="a_edge45"><a xlink:title="customer_service_logs_import&#45;&gt;customer_profile">
<path fill="none" stroke="#000000" d="M340.9544,-454.1029C353.4114,-451.2452 365.7115,-447.9062 377.396,-444.0053 507.738,-400.4907 516.1774,-330.7007 649.396,-297.0053 766.04,-267.5022 802.9347,-269.6883 920.11,-297.0053 1059.0961,-329.407 1073.1954,-392.4751 1208.11,-439.0053 1227.4037,-445.6594 1248.5656,-451.1654 1268.8336,-455.6236"/>
<polygon fill="#000000" stroke="#000000" points="1268.1892,-459.0649 1278.6994,-457.7285 1269.6498,-452.2189 1268.1892,-459.0649"/>
</a>
</g>
</g>
<!-- customer_service_logs_import&#45;&gt;transaction_data_cleansing -->
<g id="edge48" class="edge">
<title>customer_service_logs_import&#45;&gt;transaction_data_cleansing</title>
<g id="a_edge48"><a xlink:title="customer_service_logs_import&#45;&gt;transaction_data_cleansing">
<path fill="none" stroke="#000000" d="M340.6077,-484.0772C433.6005,-492.57 554.3157,-503.5947 647.0273,-512.0618"/>
<polygon fill="#000000" stroke="#000000" points="646.7706,-515.5529 657.0475,-512.977 647.4073,-508.5819 646.7706,-515.5529"/>
</a>
</g>
</g>
<!-- sensor_data_collection&#45;&gt;sensor_accelerometer -->
<g id="edge57" class="edge">
<title>sensor_data_collection&#45;&gt;sensor_accelerometer</title>
<g id="a_edge57"><a xlink:title="sensor_data_collection&#45;&gt;sensor_accelerometer">
<path fill="none" stroke="#000000" d="M307.9971,-730.9117C415.1771,-721.1232 576.6736,-706.3741 682.4127,-696.7171"/>
<polygon fill="#000000" stroke="#000000" points="682.8276,-700.1939 692.4678,-695.7988 682.1909,-693.2229 682.8276,-700.1939"/>
</a>
</g>
</g>
<!-- sensor_data_collection&#45;&gt;sensor_humidity -->
<g id="edge61" class="edge">
<title>sensor_data_collection&#45;&gt;sensor_humidity</title>
<g id="a_edge61"><a xlink:title="sensor_data_collection&#45;&gt;sensor_humidity">
<path fill="none" stroke="#000000" d="M307.8945,-746.3861C331.6939,-750.5672 356.0843,-757.3046 377.396,-768.0053 529.62,-844.4381 498.8272,-958.3613 649.396,-1038.0053 667.2861,-1047.4684 688.0396,-1053.6386 707.9782,-1057.6548"/>
<polygon fill="#000000" stroke="#000000" points="707.5261,-1061.1305 717.9965,-1059.5114 708.8017,-1054.2477 707.5261,-1061.1305"/>
</a>
</g>
</g>
<!-- sensor_data_collection&#45;&gt;sensor_lidar -->
<g id="edge63" class="edge">
<title>sensor_data_collection&#45;&gt;sensor_lidar</title>
<g id="a_edge63"><a xlink:title="sensor_data_collection&#45;&gt;sensor_lidar">
<path fill="none" stroke="#000000" d="M307.7217,-753.4656C330.9382,-757.2249 355.1339,-762.0005 377.396,-768.0053 502.9775,-801.8786 524.5611,-839.4762 649.396,-876.0053 673.6097,-883.0907 700.7435,-888.8271 724.5894,-893.1603"/>
<polygon fill="#000000" stroke="#000000" points="724.1326,-896.6337 734.5897,-894.9313 725.3533,-889.741 724.1326,-896.6337"/>
</a>
</g>
</g>
<!-- sensor_data_collection&#45;&gt;sensor_gear -->
<g id="edge70" class="edge">
<title>sensor_data_collection&#45;&gt;sensor_gear</title>
<g id="a_edge70"><a xlink:title="sensor_data_collection&#45;&gt;sensor_gear">
<path fill="none" stroke="#000000" d="M307.9831,-756.7508C330.9577,-760.2593 354.9916,-764.1025 377.396,-768.0053 498.8157,-789.1565 528.4522,-798.2837 649.396,-822.0053 673.9418,-826.8197 700.9305,-832.0608 724.5663,-836.6334"/>
<polygon fill="#000000" stroke="#000000" points="723.9911,-840.087 734.4737,-838.549 725.32,-833.2143 723.9911,-840.087"/>
</a>
</g>
</g>
<!-- sensor_data_collection&#45;&gt;sensor_motor -->
<g id="edge26" class="edge">
<title>sensor_data_collection&#45;&gt;sensor_motor</title>
<g id="a_edge26"><a xlink:title="sensor_data_collection&#45;&gt;sensor_motor">
<path fill="none" stroke="#000000" d="M307.9831,-725.2598C330.9577,-721.7514 354.9916,-717.9081 377.396,-714.0053 498.8157,-692.8542 528.4522,-683.7269 649.396,-660.0053 672.7789,-655.4191 698.3788,-650.4455 721.185,-646.0315"/>
<polygon fill="#000000" stroke="#000000" points="721.9567,-649.4472 731.11,-644.1117 720.6273,-642.5746 721.9567,-649.4472"/>
</a>
</g>
</g>
<!-- sensor_data_collection&#45;&gt;sensor_gps -->
<g id="edge27" class="edge">
<title>sensor_data_collection&#45;&gt;sensor_gps</title>
<g id="a_edge27"><a xlink:title="sensor_data_collection&#45;&gt;sensor_gps">
<path fill="none" stroke="#000000" d="M307.9971,-751.099C430.9943,-762.332 625.5227,-780.0979 725.2298,-789.2039"/>
<polygon fill="#000000" stroke="#000000" points="725.1749,-792.7134 735.4518,-790.1374 725.8116,-785.7424 725.1749,-792.7134"/>
</a>
</g>
</g>
<!-- sensor_data_collection&#45;&gt;sensor_temperature -->
<g id="edge28" class="edge">
<title>sensor_data_collection&#45;&gt;sensor_temperature</title>
<g id="a_edge28"><a xlink:title="sensor_data_collection&#45;&gt;sensor_temperature">
<path fill="none" stroke="#000000" d="M307.8945,-736.6161C331.819,-732.3943 356.2619,-725.3897 377.396,-714.0053 536.7184,-628.1823 484.1293,-484.7355 649.396,-411.0053 883.2792,-306.6634 964.6055,-472.6695 1208.11,-552.0053 1225.2072,-557.5757 1243.7753,-562.0758 1261.8892,-565.6853"/>
<polygon fill="#000000" stroke="#000000" points="1261.4138,-569.1578 1271.8935,-567.6001 1262.7298,-562.2826 1261.4138,-569.1578"/>
</a>
</g>
</g>
<!-- sensor_data_collection&#45;&gt;sensor_camera -->
<g id="edge38" class="edge">
<title>sensor_data_collection&#45;&gt;sensor_camera</title>
<g id="a_edge38"><a xlink:title="sensor_data_collection&#45;&gt;sensor_camera">
<path fill="none" stroke="#000000" d="M307.9971,-741.0053C425.4204,-741.0053 608.0386,-741.0053 711.1057,-741.0053"/>
<polygon fill="#000000" stroke="#000000" points="711.132,-744.5054 721.132,-741.0053 711.132,-737.5054 711.132,-744.5054"/>
</a>
</g>
</g>
<!-- sensor_data_collection&#45;&gt;sensor_tire -->
<g id="edge39" class="edge">
<title>sensor_data_collection&#45;&gt;sensor_tire</title>
<g id="a_edge39"><a xlink:title="sensor_data_collection&#45;&gt;sensor_tire">
<path fill="none" stroke="#000000" d="M308.0091,-748.3301C331.5577,-752.4168 355.8153,-758.6244 377.396,-768.0053 518.969,-829.5457 509.1601,-919.4762 649.396,-984.0053 672.7069,-994.7318 700.1096,-1001.1993 724.4191,-1005.0978"/>
<polygon fill="#000000" stroke="#000000" points="724.2209,-1008.6068 734.6271,-1006.6163 725.2509,-1001.683 724.2209,-1008.6068"/>
</a>
</g>
</g>
<!-- sensor_data_collection&#45;&gt;sensor_bms -->
<g id="edge51" class="edge">
<title>sensor_data_collection&#45;&gt;sensor_bms</title>
<g id="a_edge51"><a xlink:title="sensor_data_collection&#45;&gt;sensor_bms">
<path fill="none" stroke="#000000" d="M307.7217,-728.545C330.9382,-724.7858 355.1339,-720.0101 377.396,-714.0053 502.9775,-680.132 524.5611,-642.5345 649.396,-606.0053 673.7132,-598.8896 700.9754,-593.1345 724.895,-588.7949"/>
<polygon fill="#000000" stroke="#000000" points="725.6853,-592.2095 734.9232,-587.0219 724.4665,-585.3164 725.6853,-592.2095"/>
</a>
</g>
</g>
<!-- sensor_data_collection&#45;&gt;sensor_gyroscope -->
<g id="edge53" class="edge">
<title>sensor_data_collection&#45;&gt;sensor_gyroscope</title>
<g id="a_edge53"><a xlink:title="sensor_data_collection&#45;&gt;sensor_gyroscope">
<path fill="none" stroke="#000000" d="M308.086,-750.7003C331.3933,-754.6456 355.5332,-760.1962 377.396,-768.0053 509.9027,-815.3349 517.9229,-879.8761 649.396,-930.0053 664.7466,-935.8583 681.5524,-940.4939 698.0146,-944.1492"/>
<polygon fill="#000000" stroke="#000000" points="697.6968,-947.6592 708.2042,-946.3007 699.1429,-940.8102 697.6968,-947.6592"/>
</a>
</g>
</g>
<!-- transaction_logs_import&#45;&gt;transaction_data_cleansing -->
<g id="edge50" class="edge">
<title>transaction_logs_import&#45;&gt;transaction_data_cleansing</title>
<g id="a_edge50"><a xlink:title="transaction_logs_import&#45;&gt;transaction_data_cleansing">
<path fill="none" stroke="#000000" d="M313.2655,-616.4501C334.62,-613.1639 356.703,-609.61 377.396,-606.0053 498.8157,-584.8542 528.4522,-575.7269 649.396,-552.0053 661.0152,-549.7264 673.1818,-547.3518 685.281,-544.9977"/>
<polygon fill="#000000" stroke="#000000" points="686.2667,-548.3717 695.415,-543.0277 684.9309,-541.5004 686.2667,-548.3717"/>
</a>
</g>
</g>
<!-- sensor_humidity&#45;&gt;fleet_optimization_model -->
<g id="edge10" class="edge">
<title>sensor_humidity&#45;&gt;fleet_optimization_model</title>
<g id="a_edge10"><a xlink:title="sensor_humidity&#45;&gt;fleet_optimization_model">
<path fill="none" stroke="#000000" d="M859.5121,-1072.4227C952.4418,-1082.1641 1117.3027,-1099.4457 1232.5752,-1111.5292"/>
<polygon fill="#000000" stroke="#000000" points="1232.2145,-1115.0105 1242.525,-1112.5722 1232.9444,-1108.0486 1232.2145,-1115.0105"/>
</a>
</g>
</g>
<!-- sensor_lidar&#45;&gt;fleet_optimization_model -->
<g id="edge3" class="edge">
<title>sensor_lidar&#45;&gt;fleet_optimization_model</title>
<g id="a_edge3"><a xlink:title="sensor_lidar&#45;&gt;fleet_optimization_model">
<path fill="none" stroke="#000000" d="M842.8885,-910.1577C867.0246,-914.3497 895.5019,-920.7007 920.11,-930.0053 1058.0945,-982.1787 1069.8888,-1043.4623 1208.11,-1095.0053 1217.5291,-1098.5177 1227.4352,-1101.6424 1237.489,-1104.4178"/>
<polygon fill="#000000" stroke="#000000" points="1236.6,-1107.803 1247.1622,-1106.9731 1238.3878,-1101.0351 1236.6,-1107.803"/>
</a>
</g>
</g>
<!-- ig_crawler&#45;&gt;social_media_discussions -->
<g id="edge34" class="edge">
<title>ig_crawler&#45;&gt;social_media_discussions</title>
<g id="a_edge34"><a xlink:title="ig_crawler&#45;&gt;social_media_discussions">
<path fill="none" stroke="#000000" d="M253.3731,-959.1847C289.7154,-962.0898 337.5717,-968.7649 377.396,-984.0053 512.5545,-1035.7295 516.3217,-1106.1333 649.396,-1163.0053 659.1828,-1167.1879 669.6003,-1170.8671 680.1628,-1174.0942"/>
<polygon fill="#000000" stroke="#000000" points="679.3098,-1177.4911 689.8899,-1176.9322 681.2704,-1170.7713 679.3098,-1177.4911"/>
</a>
</g>
</g>
<!-- sensor_gear&#45;&gt;fleet_optimization_model -->
<g id="edge6" class="edge">
<title>sensor_gear&#45;&gt;fleet_optimization_model</title>
<g id="a_edge6"><a xlink:title="sensor_gear&#45;&gt;fleet_optimization_model">
<path fill="none" stroke="#000000" d="M843.1805,-854.6296C867.5056,-858.5299 896.0515,-865.0754 920.11,-876.0053 1066.5134,-942.5172 1061.4045,-1029.1624 1208.11,-1095.0053 1216.0059,-1098.5491 1224.316,-1101.6756 1232.8139,-1104.4338"/>
<polygon fill="#000000" stroke="#000000" points="1231.8892,-1107.811 1242.4758,-1107.394 1233.9398,-1101.1181 1231.8892,-1107.811"/>
</a>
</g>
</g>
<!-- predictive_maintenance_model&#45;&gt;maintenance_insights -->
<g id="edge66" class="edge">
<title>predictive_maintenance_model&#45;&gt;maintenance_insights</title>
<g id="a_edge66"><a xlink:title="predictive_maintenance_model&#45;&gt;maintenance_insights">
<path fill="none" stroke="#000000" d="M1967.1381,-1106.8308C2028.1717,-1059.8035 2200.5713,-933.7723 2365.986,-876.0053 2384.7449,-869.4542 2405.0525,-864.4877 2425.2144,-860.7236"/>
<polygon fill="#000000" stroke="#000000" points="2425.8583,-864.1641 2435.0929,-858.9706 2424.6352,-857.2717 2425.8583,-864.1641"/>
</a>
</g>
</g>
<!-- predictive_maintenance_model&#45;&gt;kpi_benchmarking -->
<g id="edge19" class="edge">
<title>predictive_maintenance_model&#45;&gt;kpi_benchmarking</title>
<g id="a_edge19"><a xlink:title="predictive_maintenance_model&#45;&gt;kpi_benchmarking">
<path fill="none" stroke="#000000" d="M2080.9796,-1143.0321C2195.248,-1158.0779 2355.5016,-1179.1786 2458.3573,-1192.7216"/>
<polygon fill="#000000" stroke="#000000" points="2458.0663,-1196.2135 2468.4377,-1194.0489 2458.9802,-1189.2734 2458.0663,-1196.2135"/>
</a>
</g>
</g>
<!-- predictive_maintenance_model&#45;&gt;fleet_dashboard -->
<g id="edge23" class="edge">
<title>predictive_maintenance_model&#45;&gt;fleet_dashboard</title>
<g id="a_edge23"><a xlink:title="predictive_maintenance_model&#45;&gt;fleet_dashboard">
<path fill="none" stroke="#000000" d="M1974.8494,-1106.8959C2042.8574,-1067.769 2212.1153,-975.2317 2365.986,-930.0053 2391.2761,-922.5719 2419.0461,-917.1629 2445.4521,-913.2344"/>
<polygon fill="#000000" stroke="#000000" points="2446.0928,-916.6785 2455.4977,-911.8001 2445.1033,-909.7488 2446.0928,-916.6785"/>
</a>
</g>
</g>
<!-- predictive_maintenance_model&#45;&gt;regulatory_compliance_dashboard -->
<g id="edge25" class="edge">
<title>predictive_maintenance_model&#45;&gt;regulatory_compliance_dashboard</title>
<g id="a_edge25"><a xlink:title="predictive_maintenance_model&#45;&gt;regulatory_compliance_dashboard">
<path fill="none" stroke="#000000" d="M1962.223,-1106.7653C2017.2598,-1052.7077 2189.3349,-892.7278 2365.986,-822.0053 2371.426,-819.8274 2377.0131,-817.8206 2382.7026,-815.9716"/>
<polygon fill="#000000" stroke="#000000" points="2383.8329,-819.2859 2392.3664,-813.0066 2381.7797,-812.5938 2383.8329,-819.2859"/>
</a>
</g>
</g>
<!-- social_media_sentiment_analysis&#45;&gt;public_relations -->
<g id="edge69" class="edge">
<title>social_media_sentiment_analysis&#45;&gt;public_relations</title>
<g id="a_edge69"><a xlink:title="social_media_sentiment_analysis&#45;&gt;public_relations">
<path fill="none" stroke="#000000" d="M1450.5399,-1164.9395C1559.061,-1143.1582 1735.7779,-1108.2008 1802.156,-1098.0053 2006.0932,-1066.6812 2242.5184,-1041.2353 2396.1673,-1026.1303"/>
<polygon fill="#000000" stroke="#000000" points="2396.556,-1029.609 2406.167,-1025.1503 2395.8732,-1022.6424 2396.556,-1029.609"/>
</a>
</g>
</g>
<!-- social_media_sentiment_analysis&#45;&gt;kpi_benchmarking -->
<g id="edge16" class="edge">
<title>social_media_sentiment_analysis&#45;&gt;kpi_benchmarking</title>
<g id="a_edge16"><a xlink:title="social_media_sentiment_analysis&#45;&gt;kpi_benchmarking">
<path fill="none" stroke="#000000" d="M1426.5928,-1201.0735C1512.1356,-1223.662 1666.9758,-1261.0558 1802.156,-1275.0053 2041.4266,-1299.6962 2323.7273,-1254.2603 2466.5216,-1226.0326"/>
<polygon fill="#000000" stroke="#000000" points="2467.4366,-1229.4191 2476.5592,-1224.0311 2466.0678,-1222.5542 2467.4366,-1229.4191"/>
</a>
</g>
</g>
<!-- social_media_sentiment_analysis&#45;&gt;sales_forecast -->
<g id="edge43" class="edge">
<title>social_media_sentiment_analysis&#45;&gt;sales_forecast</title>
<g id="a_edge43"><a xlink:title="social_media_sentiment_analysis&#45;&gt;sales_forecast">
<path fill="none" stroke="#000000" d="M1514.2931,-1181.9544C1624.4053,-1181.1988 1768.8016,-1180.208 1859.0114,-1179.589"/>
<polygon fill="#000000" stroke="#000000" points="1859.2191,-1183.0877 1869.1948,-1179.5191 1859.171,-1176.0879 1859.2191,-1183.0877"/>
</a>
</g>
</g>
<!-- kpi_benchmarking&#45;&gt;kpi_dashboard -->
<g id="edge37" class="edge">
<title>kpi_benchmarking&#45;&gt;kpi_dashboard</title>
<g id="a_edge37"><a xlink:title="kpi_benchmarking&#45;&gt;kpi_dashboard">
<path fill="none" stroke="#000000" d="M2559.243,-1187.7736C2559.243,-1156.3141 2559.243,-1124.8547 2559.243,-1093.3952"/>
<polygon fill="#000000" stroke="#000000" points="2562.7431,-1093.1811 2559.243,-1083.1811 2555.7431,-1093.1811 2562.7431,-1093.1811"/>
</a>
</g>
</g>
<!-- fb_crawler&#45;&gt;social_media_discussions -->
<g id="edge33" class="edge">
<title>fb_crawler&#45;&gt;social_media_discussions</title>
<g id="a_edge33"><a xlink:title="fb_crawler&#45;&gt;social_media_discussions">
<path fill="none" stroke="#000000" d="M255.7061,-903.6225C292.1171,-905.9393 339.1873,-912.5449 377.396,-930.0053 522.1742,-996.1654 507.263,-1091.3389 649.396,-1163.0053 657.4534,-1167.0681 666.0325,-1170.6222 674.8226,-1173.7303"/>
<polygon fill="#000000" stroke="#000000" points="673.8354,-1177.0905 684.429,-1176.9308 676.048,-1170.4493 673.8354,-1177.0905"/>
</a>
</g>
</g>
<!-- vehicle_maintenance_records_import&#45;&gt;predictive_maintenance_model -->
<g id="edge72" class="edge">
<title>vehicle_maintenance_records_import&#45;&gt;predictive_maintenance_model</title>
<g id="a_edge72"><a xlink:title="vehicle_maintenance_records_import&#45;&gt;predictive_maintenance_model">
<path fill="none" stroke="#000000" d="M330.4581,-290.9436C346.3286,-288.2295 362.2612,-285.2424 377.396,-282.0053 500.139,-255.7526 525.0398,-223.0522 649.396,-206.0053 850.659,-178.4161 1494.5424,-223.9855 1514.156,-237.0053 1833.7738,-449.1733 1923.2018,-969.7995 1940.5756,-1096.7484"/>
<polygon fill="#000000" stroke="#000000" points="1937.1281,-1097.376 1941.915,-1106.8278 1944.0671,-1096.4538 1937.1281,-1097.376"/>
</a>
</g>
</g>
<!-- vehicle_maintenance_records_import&#45;&gt;maintenance_insights -->
<g id="edge67" class="edge">
<title>vehicle_maintenance_records_import&#45;&gt;maintenance_insights</title>
<g id="a_edge67"><a xlink:title="vehicle_maintenance_records_import&#45;&gt;maintenance_insights">
<path fill="none" stroke="#000000" d="M333.9998,-290.9801C348.7143,-288.306 363.4114,-285.318 377.396,-282.0053 501.1667,-252.6868 523.7868,-213.0329 649.396,-193.0053 965.1945,-142.6532 1824.0059,-93.6191 2085.986,-277.0053 2309.0789,-433.1705 2143.9569,-664.3312 2365.986,-822.0053 2383.3927,-834.3667 2403.9407,-842.2783 2425.0286,-847.1817"/>
<polygon fill="#000000" stroke="#000000" points="2424.5723,-850.6622 2435.078,-849.2908 2426.0101,-843.8114 2424.5723,-850.6622"/>
</a>
</g>
</g>
<!-- vehicle_maintenance_records_import&#45;&gt;fleet_optimization_model -->
<g id="edge15" class="edge">
<title>vehicle_maintenance_records_import&#45;&gt;fleet_optimization_model</title>
<g id="a_edge15"><a xlink:title="vehicle_maintenance_records_import&#45;&gt;fleet_optimization_model">
<path fill="none" stroke="#000000" d="M365.0799,-327.2425C369.3719,-329.8841 373.4913,-332.7969 377.396,-336.0053 654.2609,-563.4997 360.7801,-882.617 649.396,-1095.0053 672.4198,-1111.9482 1033.5134,-1120.067 1232.286,-1123.2695"/>
<polygon fill="#000000" stroke="#000000" points="1232.4499,-1126.7725 1242.5044,-1123.4321 1232.5613,-1119.7733 1232.4499,-1126.7725"/>
</a>
</g>
</g>
<!-- sensor_motor&#45;&gt;fleet_optimization_model -->
<g id="edge4" class="edge">
<title>sensor_motor&#45;&gt;fleet_optimization_model</title>
<g id="a_edge4"><a xlink:title="sensor_motor&#45;&gt;fleet_optimization_model">
<path fill="none" stroke="#000000" d="M846.1752,-635.1632C870.663,-638.4105 898.5061,-645.4037 920.11,-660.0053 1112.2134,-789.844 1015.416,-966.0449 1208.11,-1095.0053 1215.7929,-1100.1471 1224.149,-1104.451 1232.8619,-1108.0489"/>
<polygon fill="#000000" stroke="#000000" points="1231.8501,-1111.4084 1242.4414,-1111.6823 1234.3326,-1104.8634 1231.8501,-1111.4084"/>
</a>
</g>
</g>
<!-- sensor_motor&#45;&gt;sensor_temperature -->
<g id="edge30" class="edge">
<title>sensor_motor&#45;&gt;sensor_temperature</title>
<g id="a_edge30"><a xlink:title="sensor_motor&#45;&gt;sensor_temperature">
<path fill="none" stroke="#000000" d="M846.2557,-627.5804C943.4941,-618.4066 1141.5256,-599.7237 1261.6612,-588.3898"/>
<polygon fill="#000000" stroke="#000000" points="1262.3355,-591.8418 1271.9625,-587.4179 1261.678,-584.8727 1262.3355,-591.8418"/>
</a>
</g>
</g>
<!-- customer_sentiment_analysis&#45;&gt;public_relations -->
<g id="edge68" class="edge">
<title>customer_sentiment_analysis&#45;&gt;public_relations</title>
<g id="a_edge68"><a xlink:title="customer_sentiment_analysis&#45;&gt;public_relations">
<path fill="none" stroke="#000000" d="M2058.1604,-1214.9989C2067.6924,-1212.3821 2077.0808,-1209.4002 2085.986,-1206.0053 2221.5923,-1154.3093 2229.1493,-1086.3504 2365.986,-1038.0053 2375.6686,-1034.5844 2385.7677,-1031.5951 2396.049,-1028.9831"/>
<polygon fill="#000000" stroke="#000000" points="2397.0546,-1032.341 2405.9545,-1026.5927 2395.4124,-1025.5363 2397.0546,-1032.341"/>
</a>
</g>
</g>
<!-- customer_sentiment_analysis&#45;&gt;kpi_benchmarking -->
<g id="edge17" class="edge">
<title>customer_sentiment_analysis&#45;&gt;kpi_benchmarking</title>
<g id="a_edge17"><a xlink:title="customer_sentiment_analysis&#45;&gt;kpi_benchmarking">
<path fill="none" stroke="#000000" d="M2083.2787,-1226.8955C2197.3302,-1221.8897 2356.0254,-1214.9246 2458.1988,-1210.4402"/>
<polygon fill="#000000" stroke="#000000" points="2458.3771,-1213.9358 2468.214,-1210.0006 2458.0701,-1206.9425 2458.3771,-1213.9358"/>
</a>
</g>
</g>
<!-- fleet_optimization_model&#45;&gt;predictive_maintenance_model -->
<g id="edge73" class="edge">
<title>fleet_optimization_model&#45;&gt;predictive_maintenance_model</title>
<g id="a_edge73"><a xlink:title="fleet_optimization_model&#45;&gt;predictive_maintenance_model">
<path fill="none" stroke="#000000" d="M1479.8018,-1125.0053C1569.907,-1125.0053 1694.4951,-1125.0053 1791.9248,-1125.0053"/>
<polygon fill="#000000" stroke="#000000" points="1792.1639,-1128.5054 1802.1639,-1125.0053 1792.1639,-1121.5054 1792.1639,-1128.5054"/>
</a>
</g>
</g>
<!-- fleet_optimization_model&#45;&gt;kpi_benchmarking -->
<g id="edge18" class="edge">
<title>fleet_optimization_model&#45;&gt;kpi_benchmarking</title>
<g id="a_edge18"><a xlink:title="fleet_optimization_model&#45;&gt;kpi_benchmarking">
<path fill="none" stroke="#000000" d="M1461.2383,-1143.0856C1478.9751,-1146.9129 1497.1905,-1151.2513 1514.156,-1156.0053 1645.1984,-1192.7255 1668.1037,-1236.5429 1802.156,-1260.0053 1926.4138,-1281.7535 1960.0428,-1267.1673 2085.986,-1260.0053 2214.9662,-1252.6706 2362.7662,-1234.1786 2458.3854,-1220.8779"/>
<polygon fill="#000000" stroke="#000000" points="2458.9191,-1224.3374 2468.3379,-1219.486 2457.9495,-1217.4048 2458.9191,-1224.3374"/>
</a>
</g>
</g>
<!-- fleet_optimization_model&#45;&gt;fleet_dashboard -->
<g id="edge22" class="edge">
<title>fleet_optimization_model&#45;&gt;fleet_dashboard</title>
<g id="a_edge22"><a xlink:title="fleet_optimization_model&#45;&gt;fleet_dashboard">
<path fill="none" stroke="#000000" d="M1453.3656,-1106.9695C1693.1449,-1060.0999 2320.6852,-937.5599 2365.986,-930.0053 2391.6905,-925.7187 2419.3965,-921.5704 2445.5803,-917.8643"/>
<polygon fill="#000000" stroke="#000000" points="2446.1177,-921.3233 2455.5336,-916.4662 2445.1439,-914.3913 2446.1177,-921.3233"/>
</a>
</g>
</g>
<!-- sensor_gps&#45;&gt;fleet_optimization_model -->
<g id="edge13" class="edge">
<title>sensor_gps&#45;&gt;fleet_optimization_model</title>
<g id="a_edge13"><a xlink:title="sensor_gps&#45;&gt;fleet_optimization_model">
<path fill="none" stroke="#000000" d="M841.8351,-799.1474C866.6963,-802.7452 896.0605,-809.4636 920.11,-822.0053 1076.4912,-903.5572 1051.3582,-1014.1681 1208.11,-1095.0053 1215.8895,-1099.0172 1224.1447,-1102.4942 1232.6315,-1105.5075"/>
<polygon fill="#000000" stroke="#000000" points="1231.7053,-1108.8878 1242.2988,-1108.7164 1233.9106,-1102.2442 1231.7053,-1108.8878"/>
</a>
</g>
</g>
<!-- sensor_temperature&#45;&gt;fleet_optimization_model -->
<g id="edge8" class="edge">
<title>sensor_temperature&#45;&gt;fleet_optimization_model</title>
<g id="a_edge8"><a xlink:title="sensor_temperature&#45;&gt;fleet_optimization_model">
<path fill="none" stroke="#000000" d="M1361.133,-597.1342C1361.133,-763.5919 1361.133,-930.0497 1361.133,-1096.5074"/>
<polygon fill="#000000" stroke="#000000" points="1357.6331,-1096.9628 1361.133,-1106.9629 1364.6331,-1096.9629 1357.6331,-1096.9628"/>
</a>
</g>
</g>
<!-- social_media_discussions&#45;&gt;social_media_sentiment_analysis -->
<g id="edge64" class="edge">
<title>social_media_discussions&#45;&gt;social_media_sentiment_analysis</title>
<g id="a_edge64"><a xlink:title="social_media_discussions&#45;&gt;social_media_sentiment_analysis">
<path fill="none" stroke="#000000" d="M910.1401,-1192.4604C993.8807,-1190.7048 1106.1782,-1188.3505 1197.7648,-1186.4304"/>
<polygon fill="#000000" stroke="#000000" points="1198.0505,-1189.9252 1207.9749,-1186.2163 1197.9037,-1182.9268 1198.0505,-1189.9252"/>
</a>
</g>
</g>
<!-- social_media_discussions&#45;&gt;customer_sentiment_analysis -->
<g id="edge0" class="edge">
<title>social_media_discussions&#45;&gt;customer_sentiment_analysis</title>
<g id="a_edge0"><a xlink:title="social_media_discussions&#45;&gt;customer_sentiment_analysis">
<path fill="none" stroke="#000000" d="M910.3211,-1199.4987C994.0339,-1202.5573 1107.8132,-1206.6444 1208.11,-1210.0053 1411.2157,-1216.8114 1645.8735,-1224.0339 1794.5744,-1228.531"/>
<polygon fill="#000000" stroke="#000000" points="1794.5857,-1232.0328 1804.6869,-1228.8366 1794.7972,-1225.036 1794.5857,-1232.0328"/>
</a>
</g>
</g>
<!-- battery_spec_fetch&#45;&gt;sensor_bms -->
<g id="edge52" class="edge">
<title>battery_spec_fetch&#45;&gt;sensor_bms</title>
<g id="a_edge52"><a xlink:title="battery_spec_fetch&#45;&gt;sensor_bms">
<path fill="none" stroke="#000000" d="M290.529,-673.8932C318.4993,-669.7224 349.2349,-664.911 377.396,-660.0053 498.8157,-638.8542 528.4522,-629.7269 649.396,-606.0053 674.1534,-601.1495 701.396,-595.8595 725.1768,-591.2591"/>
<polygon fill="#000000" stroke="#000000" points="725.9855,-594.6676 735.1393,-589.333 724.6567,-587.7949 725.9855,-594.6676"/>
</a>
</g>
</g>
<!-- news_crawler&#45;&gt;social_media_discussions -->
<g id="edge35" class="edge">
<title>news_crawler&#45;&gt;social_media_discussions</title>
<g id="a_edge35"><a xlink:title="news_crawler&#45;&gt;social_media_discussions">
<path fill="none" stroke="#000000" d="M267.9176,-1128.0596C363.8238,-1140.3869 537.2872,-1162.6831 657.5358,-1178.1393"/>
<polygon fill="#000000" stroke="#000000" points="657.1836,-1181.6227 667.5482,-1179.4262 658.076,-1174.6798 657.1836,-1181.6227"/>
</a>
</g>
</g>
<!-- tire_spec_fetch&#45;&gt;sensor_tire -->
<g id="edge40" class="edge">
<title>tire_spec_fetch&#45;&gt;sensor_tire</title>
<g id="a_edge40"><a xlink:title="tire_spec_fetch&#45;&gt;sensor_tire">
<path fill="none" stroke="#000000" d="M276.1376,-800.1382C308.2296,-803.9324 345.271,-810.5307 377.396,-822.0053 509.9027,-869.3349 517.9229,-933.8761 649.396,-984.0053 673.1712,-993.0705 700.4371,-999.2154 724.5106,-1003.3209"/>
<polygon fill="#000000" stroke="#000000" points="724.1818,-1006.8132 734.6129,-1004.9582 725.3017,-999.9034 724.1818,-1006.8132"/>
</a>
</g>
</g>
<!-- weather&#45;&gt;sensor_humidity -->
<g id="edge62" class="edge">
<title>weather&#45;&gt;sensor_humidity</title>
<g id="a_edge62"><a xlink:title="weather&#45;&gt;sensor_humidity">
<path fill="none" stroke="#000000" d="M243.3943,-850.9991C280.4769,-853.7581 333.5216,-860.334 377.396,-876.0053 509.9027,-923.3349 517.9229,-987.8761 649.396,-1038.0053 667.9128,-1045.0656 688.547,-1050.3544 708.1413,-1054.288"/>
<polygon fill="#000000" stroke="#000000" points="707.4889,-1057.7266 717.9685,-1056.1678 708.8041,-1050.8513 707.4889,-1057.7266"/>
</a>
</g>
</g>
<!-- weather&#45;&gt;fleet_optimization_model -->
<g id="edge14" class="edge">
<title>weather&#45;&gt;fleet_optimization_model</title>
<g id="a_edge14"><a xlink:title="weather&#45;&gt;fleet_optimization_model">
<path fill="none" stroke="#000000" d="M243.234,-848.5928C280.938,-849.9197 334.9189,-855.7417 377.396,-876.0053 525.3201,-946.5722 496.6312,-1065.6409 649.396,-1125.0053 751.9974,-1164.8762 1056.5247,-1149.2498 1232.216,-1136.0622"/>
<polygon fill="#000000" stroke="#000000" points="1232.5932,-1139.5437 1242.2998,-1135.2974 1232.0637,-1132.5638 1232.5932,-1139.5437"/>
</a>
</g>
</g>
<!-- weather&#45;&gt;sensor_temperature -->
<g id="edge31" class="edge">
<title>weather&#45;&gt;sensor_temperature</title>
<g id="a_edge31"><a xlink:title="weather&#45;&gt;sensor_temperature">
<path fill="none" stroke="#000000" d="M243.2869,-851.6465C281.7696,-851.7494 336.8202,-846.7712 377.396,-822.0053 554.0618,-714.1753 465.1965,-538.391 649.396,-444.0053 756.4743,-389.1373 801.7233,-422.5377 920.11,-444.0053 1054.6204,-468.3967 1076.2393,-515.9759 1208.11,-552.0053 1225.3462,-556.7146 1243.9068,-560.7944 1261.9527,-564.2552"/>
<polygon fill="#000000" stroke="#000000" points="1261.4412,-567.7201 1271.9136,-566.1143 1262.7255,-560.8389 1261.4412,-567.7201"/>
</a>
</g>
</g>
<!-- sales_data_import&#45;&gt;sales_data_cleansing -->
<g id="edge55" class="edge">
<title>sales_data_import&#45;&gt;sales_data_cleansing</title>
<g id="a_edge55"><a xlink:title="sales_data_import&#45;&gt;sales_data_cleansing">
<path fill="none" stroke="#000000" d="M285.5001,-516.8313C315.0941,-512.7597 348.0359,-506.7624 377.396,-498.0053 504.8892,-459.9785 519.4268,-401.4401 649.396,-373.0053 766.9332,-347.2904 802.3058,-348.5426 920.11,-373.0053 1056.7319,-401.3757 1074.4829,-457.8279 1208.11,-498.0053 1220.4621,-501.7192 1233.538,-504.9876 1246.6365,-507.8474"/>
<polygon fill="#000000" stroke="#000000" points="1246.1391,-511.3194 1256.6458,-509.9553 1247.5817,-504.4696 1246.1391,-511.3194"/>
</a>
</g>
</g>
<!-- sales_data_import&#45;&gt;transaction_data_cleansing -->
<g id="edge49" class="edge">
<title>sales_data_import&#45;&gt;transaction_data_cleansing</title>
<g id="a_edge49"><a xlink:title="sales_data_import&#45;&gt;transaction_data_cleansing">
<path fill="none" stroke="#000000" d="M285.6767,-525.0053C381.2238,-525.0053 535.0428,-525.0053 647.4706,-525.0053"/>
<polygon fill="#000000" stroke="#000000" points="647.5343,-528.5054 657.5343,-525.0053 647.5343,-521.5054 647.5343,-528.5054"/>
</a>
</g>
</g>
<!-- sales_forecast&#45;&gt;sales_dashboard -->
<g id="edge60" class="edge">
<title>sales_forecast&#45;&gt;sales_dashboard</title>
<g id="a_edge60"><a xlink:title="sales_forecast&#45;&gt;sales_dashboard">
<path fill="none" stroke="#000000" d="M2019.0936,-1169.8126C2041.093,-1165.7699 2064.8947,-1160.0458 2085.986,-1152.0053 2221.5923,-1100.3093 2229.1493,-1032.3504 2365.986,-984.0053 2381.6066,-978.4865 2398.3114,-974.0909 2415.1162,-970.5908"/>
<polygon fill="#000000" stroke="#000000" points="2415.8845,-974.0067 2425.0147,-968.6317 2414.5254,-967.1399 2415.8845,-974.0067"/>
</a>
</g>
</g>
<!-- sales_forecast&#45;&gt;kpi_benchmarking -->
<g id="edge20" class="edge">
<title>sales_forecast&#45;&gt;kpi_benchmarking</title>
<g id="a_edge20"><a xlink:title="sales_forecast&#45;&gt;kpi_benchmarking">
<path fill="none" stroke="#000000" d="M2018.8881,-1182.2891C2128.9851,-1187.1212 2334.9001,-1196.1589 2458.2883,-1201.5744"/>
<polygon fill="#000000" stroke="#000000" points="2458.351,-1205.0804 2468.4949,-1202.0224 2458.658,-1198.0872 2458.351,-1205.0804"/>
</a>
</g>
</g>
<!-- market_research_fetch&#45;&gt;sales_forecast -->
<g id="edge41" class="edge">
<title>market_research_fetch&#45;&gt;sales_forecast</title>
<g id="a_edge41"><a xlink:title="market_research_fetch&#45;&gt;sales_forecast">
<path fill="none" stroke="#000000" d="M334.5072,-344.9852C349.0553,-342.3158 363.576,-339.3274 377.396,-336.0053 501.3404,-306.2116 523.5783,-265.4939 649.396,-245.0053 1038.3586,-181.6653 1226.4298,-171.7146 1514.156,-441.0053 1763.0796,-673.9796 1538.5512,-935.7821 1802.156,-1152.0053 1818.237,-1165.1958 1838.7918,-1172.6737 1859.2344,-1176.756"/>
<polygon fill="#000000" stroke="#000000" points="1858.7887,-1180.2309 1869.2407,-1178.4973 1859.9889,-1173.3346 1858.7887,-1180.2309"/>
</a>
</g>
</g>
<!-- threads_crawler&#45;&gt;social_media_discussions -->
<g id="edge36" class="edge">
<title>threads_crawler&#45;&gt;social_media_discussions</title>
<g id="a_edge36"><a xlink:title="threads_crawler&#45;&gt;social_media_discussions">
<path fill="none" stroke="#000000" d="M279.304,-1075.4108C310.1746,-1079.8271 345.525,-1085.4736 377.396,-1092.0053 499.7915,-1117.0894 528.0531,-1133.2435 649.396,-1163.0053 665.1686,-1166.8739 681.9808,-1170.855 698.2711,-1174.6386"/>
<polygon fill="#000000" stroke="#000000" points="697.8013,-1178.1222 708.3328,-1176.9661 699.3789,-1171.3023 697.8013,-1178.1222"/>
</a>
</g>
</g>
<!-- vehicle_manufacture_records_import&#45;&gt;vehicle_profile -->
<g id="edge58" class="edge">
<title>vehicle_manufacture_records_import&#45;&gt;vehicle_profile</title>
<g id="a_edge58"><a xlink:title="vehicle_manufacture_records_import&#45;&gt;vehicle_profile">
<path fill="none" stroke="#000000" d="M322.9413,-560.9501C341.2301,-558.0939 359.8147,-555.068 377.396,-552.0053 498.8157,-530.8542 528.4522,-521.7269 649.396,-498.0053 667.9475,-494.3667 687.8945,-490.4843 706.7346,-486.8309"/>
<polygon fill="#000000" stroke="#000000" points="707.6195,-490.2246 716.771,-484.886 706.2877,-483.3525 707.6195,-490.2246"/>
</a>
</g>
</g>
<!-- sensor_camera&#45;&gt;fleet_optimization_model -->
<g id="edge7" class="edge">
<title>sensor_camera&#45;&gt;fleet_optimization_model</title>
<g id="a_edge7"><a xlink:title="sensor_camera&#45;&gt;fleet_optimization_model">
<path fill="none" stroke="#000000" d="M856.2301,-746.3788C877.7152,-750.2568 900.8784,-756.8473 920.11,-768.0053 1087.6217,-865.1939 1040.1564,-998.5825 1208.11,-1095.0053 1215.955,-1099.5092 1224.3591,-1103.3484 1233.0426,-1106.6198"/>
<polygon fill="#000000" stroke="#000000" points="1231.9667,-1109.9513 1242.5616,-1109.9513 1234.2791,-1103.3443 1231.9667,-1109.9513"/>
</a>
</g>
</g>
<!-- sensor_tire&#45;&gt;fleet_optimization_model -->
<g id="edge5" class="edge">
<title>sensor_tire&#45;&gt;fleet_optimization_model</title>
<g id="a_edge5"><a xlink:title="sensor_tire&#45;&gt;fleet_optimization_model">
<path fill="none" stroke="#000000" d="M843.0238,-1021.9499C922.9441,-1038.0505 1077.0074,-1069.0238 1208.11,-1095.0053 1224.5372,-1098.2608 1241.9604,-1101.6947 1258.9391,-1105.0306"/>
<polygon fill="#000000" stroke="#000000" points="1258.3866,-1108.4889 1268.8736,-1106.9814 1259.7354,-1101.6201 1258.3866,-1108.4889"/>
</a>
</g>
</g>
<!-- customer_profile&#45;&gt;customer_sentiment_analysis -->
<g id="edge1" class="edge">
<title>customer_profile&#45;&gt;customer_sentiment_analysis</title>
<g id="a_edge1"><a xlink:title="customer_profile&#45;&gt;customer_sentiment_analysis">
<path fill="none" stroke="#000000" d="M1443.7158,-470.6126C1468.5599,-474.1957 1494.431,-482.069 1514.156,-498.0053 1778.3964,-711.491 1539.3477,-990.7592 1802.156,-1206.0053 1803.5566,-1207.1525 1804.9911,-1208.2564 1806.4565,-1209.3186"/>
<polygon fill="#000000" stroke="#000000" points="1804.8684,-1212.46 1815.1648,-1214.957 1808.6729,-1206.5841 1804.8684,-1212.46"/>
</a>
</g>
</g>
<!-- customer_profile&#45;&gt;sales_forecast -->
<g id="edge42" class="edge">
<title>customer_profile&#45;&gt;sales_forecast</title>
<g id="a_edge42"><a xlink:title="customer_profile&#45;&gt;sales_forecast">
<path fill="none" stroke="#000000" d="M1443.842,-471.0098C1468.551,-474.6363 1494.3122,-482.4348 1514.156,-498.0053 1764.0208,-694.0631 1553.6065,-954.2826 1802.156,-1152.0053 1818.3484,-1164.8865 1838.8428,-1172.2694 1859.1849,-1176.3601"/>
<polygon fill="#000000" stroke="#000000" points="1858.6837,-1179.8256 1869.1393,-1178.1135 1859.8981,-1172.9317 1858.6837,-1179.8256"/>
</a>
</g>
</g>
<!-- dmv_record_fetch&#45;&gt;vehicle_profile -->
<g id="edge59" class="edge">
<title>dmv_record_fetch&#45;&gt;vehicle_profile</title>
<g id="a_edge59"><a xlink:title="dmv_record_fetch&#45;&gt;vehicle_profile">
<path fill="none" stroke="#000000" d="M290.5135,-425.5022C404.9938,-435.9575 597.5693,-453.5449 706.7427,-463.5155"/>
<polygon fill="#000000" stroke="#000000" points="706.4417,-467.0025 716.7186,-464.4266 707.0784,-460.0315 706.4417,-467.0025"/>
</a>
</g>
</g>
<!-- dmv_record_fetch&#45;&gt;customer_profile -->
<g id="edge46" class="edge">
<title>dmv_record_fetch&#45;&gt;customer_profile</title>
<g id="a_edge46"><a xlink:title="dmv_record_fetch&#45;&gt;customer_profile">
<path fill="none" stroke="#000000" d="M290.936,-407.7378C319.0599,-403.6807 349.7777,-397.9675 377.396,-390.0053 504.1844,-353.453 520.2393,-298.0221 649.396,-271.0053 767.1644,-246.3707 803.9624,-239.6049 920.11,-271.0053 1063.1606,-309.6789 1069.7979,-385.8183 1208.11,-439.0053 1227.2679,-446.3723 1248.4607,-452.1793 1268.8145,-456.7051"/>
<polygon fill="#000000" stroke="#000000" points="1268.2154,-460.156 1278.7263,-458.8251 1269.6796,-453.3109 1268.2154,-460.156"/>
</a>
</g>
</g>
<!-- sensor_bms&#45;&gt;fleet_optimization_model -->
<g id="edge9" class="edge">
<title>sensor_bms&#45;&gt;fleet_optimization_model</title>
<g id="a_edge9"><a xlink:title="sensor_bms&#45;&gt;fleet_optimization_model">
<path fill="none" stroke="#000000" d="M842.6293,-580.1563C868.1062,-583.0441 897.7608,-590.0287 920.11,-606.0053 1125.2987,-752.6865 1002.2539,-949.2623 1208.11,-1095.0053 1215.8174,-1100.4621 1224.2656,-1104.9887 1233.1096,-1108.7375"/>
<polygon fill="#000000" stroke="#000000" points="1231.866,-1112.0092 1242.4547,-1112.3689 1234.4014,-1105.4845 1231.866,-1112.0092"/>
</a>
</g>
</g>
<!-- sensor_bms&#45;&gt;sensor_temperature -->
<g id="edge29" class="edge">
<title>sensor_bms&#45;&gt;sensor_temperature</title>
<g id="a_edge29"><a xlink:title="sensor_bms&#45;&gt;sensor_temperature">
<path fill="none" stroke="#000000" d="M842.3439,-579.0053C938.1017,-579.0053 1139.9317,-579.0053 1261.6976,-579.0053"/>
<polygon fill="#000000" stroke="#000000" points="1261.7731,-582.5054 1271.7731,-579.0053 1261.773,-575.5054 1261.7731,-582.5054"/>
</a>
</g>
</g>
<!-- sensor_gyroscope&#45;&gt;fleet_optimization_model -->
<g id="edge12" class="edge">
<title>sensor_gyroscope&#45;&gt;fleet_optimization_model</title>
<g id="a_edge12"><a xlink:title="sensor_gyroscope&#45;&gt;fleet_optimization_model">
<path fill="none" stroke="#000000" d="M869.1567,-971.3381C886.1125,-974.9712 903.8013,-979.222 920.11,-984.0053 1051.7429,-1022.6131 1076.3022,-1056.9989 1208.11,-1095.0053 1220.4435,-1098.5617 1233.4576,-1101.8298 1246.4771,-1104.7944"/>
<polygon fill="#000000" stroke="#000000" points="1245.9022,-1108.2519 1256.4231,-1107.002 1247.4191,-1101.4182 1245.9022,-1108.2519"/>
</a>
</g>
</g>
<!-- transaction_data_cleansing&#45;&gt;sales_data_cleansing -->
<g id="edge56" class="edge">
<title>transaction_data_cleansing&#45;&gt;sales_data_cleansing</title>
<g id="a_edge56"><a xlink:title="transaction_data_cleansing&#45;&gt;sales_data_cleansing">
<path fill="none" stroke="#000000" d="M920.0685,-525.0053C1018.6281,-525.0053 1152.2565,-525.0053 1246.5196,-525.0053"/>
<polygon fill="#000000" stroke="#000000" points="1246.6633,-528.5054 1256.6633,-525.0053 1246.6632,-521.5054 1246.6633,-528.5054"/>
</a>
</g>
</g>
<!-- transaction_data_cleansing&#45;&gt;customer_profile -->
<g id="edge47" class="edge">
<title>transaction_data_cleansing&#45;&gt;customer_profile</title>
<g id="a_edge47"><a xlink:title="transaction_data_cleansing&#45;&gt;customer_profile">
<path fill="none" stroke="#000000" d="M920.0685,-512.6166C1026.5893,-502.5672 1174.0731,-488.6531 1268.5523,-479.7397"/>
<polygon fill="#000000" stroke="#000000" points="1269.0373,-483.2095 1278.6643,-478.7857 1268.3797,-476.2405 1269.0373,-483.2095"/>
</a>
</g>
</g>
<!-- vehicle_profile -->
<g id="vehicle_profile" class="node">
<title>vehicle_profile</title>
<path fill="none" stroke="#000000" d="M848.5452,-489.0053C848.5452,-489.0053 728.9608,-489.0053 728.9608,-489.0053 722.9608,-489.0053 716.9608,-483.0053 716.9608,-477.0053 716.9608,-477.0053 716.9608,-465.0053 716.9608,-465.0053 716.9608,-459.0053 722.9608,-453.0053 728.9608,-453.0053 728.9608,-453.0053 848.5452,-453.0053 848.5452,-453.0053 854.5452,-453.0053 860.5452,-459.0053 860.5452,-465.0053 860.5452,-465.0053 860.5452,-477.0053 860.5452,-477.0053 860.5452,-483.0053 854.5452,-489.0053 848.5452,-489.0053"/>
<text text-anchor="middle" x="788.753" y="-465.0053" font-family="Arial" font-size="20.00" fill="#000000">Vehicle Profile</text>
<text text-anchor="middle" x="704.079" y="-435.0053" font-family="Arial" font-size="20.00" fill="#000000">lv1</text>
</g>
<!-- sales_dashboard -->
<g id="sales_dashboard" class="node">
<title>sales_dashboard</title>
<path fill="none" stroke="#000000" d="M2681.5171,-975.0053C2681.5171,-975.0053 2436.9689,-975.0053 2436.9689,-975.0053 2430.9689,-975.0053 2424.9689,-969.0053 2424.9689,-963.0053 2424.9689,-963.0053 2424.9689,-951.0053 2424.9689,-951.0053 2424.9689,-945.0053 2430.9689,-939.0053 2436.9689,-939.0053 2436.9689,-939.0053 2681.5171,-939.0053 2681.5171,-939.0053 2687.5171,-939.0053 2693.5171,-945.0053 2693.5171,-951.0053 2693.5171,-951.0053 2693.5171,-963.0053 2693.5171,-963.0053 2693.5171,-969.0053 2687.5171,-975.0053 2681.5171,-975.0053"/>
<text text-anchor="middle" x="2559.243" y="-951.0053" font-family="Arial" font-size="20.00" fill="#000000">API: Sales Forecast Queries</text>
<text text-anchor="middle" x="2412.328" y="-921.0053" font-family="Arial" font-size="20.00" fill="#000000">lv3</text>
</g>
<!-- government_regulations_fetch -->
<g id="government_regulations_fetch" class="node">
<title>government_regulations_fetch</title>
<path fill="none" stroke="#000000" d="M331.7061,-165.0053C331.7061,-165.0053 63.2459,-165.0053 63.2459,-165.0053 57.2459,-165.0053 51.2459,-159.0053 51.2459,-153.0053 51.2459,-153.0053 51.2459,-141.0053 51.2459,-141.0053 51.2459,-135.0053 57.2459,-129.0053 63.2459,-129.0053 63.2459,-129.0053 331.7061,-129.0053 331.7061,-129.0053 337.7061,-129.0053 343.7061,-135.0053 343.7061,-141.0053 343.7061,-141.0053 343.7061,-153.0053 343.7061,-153.0053 343.7061,-159.0053 337.7061,-165.0053 331.7061,-165.0053"/>
<text text-anchor="middle" x="197.476" y="-141.0053" font-family="Arial" font-size="20.00" fill="#000000">Government Regulations Fetch</text>
<text text-anchor="middle" x="38.333" y="-111.0053" font-family="Arial" font-size="20.00" fill="#000000">lv0</text>
</g>
<!-- x_crawler -->
<g id="x_crawler" class="node">
<title>x_crawler</title>
<path fill="none" stroke="#000000" d="M237.2383,-1029.0053C237.2383,-1029.0053 157.7137,-1029.0053 157.7137,-1029.0053 151.7137,-1029.0053 145.7137,-1023.0053 145.7137,-1017.0053 145.7137,-1017.0053 145.7137,-1005.0053 145.7137,-1005.0053 145.7137,-999.0053 151.7137,-993.0053 157.7137,-993.0053 157.7137,-993.0053 237.2383,-993.0053 237.2383,-993.0053 243.2383,-993.0053 249.2383,-999.0053 249.2383,-1005.0053 249.2383,-1005.0053 249.2383,-1017.0053 249.2383,-1017.0053 249.2383,-1023.0053 243.2383,-1029.0053 237.2383,-1029.0053"/>
<text text-anchor="middle" x="197.476" y="-1005.0053" font-family="Arial" font-size="20.00" fill="#000000">X Crawler</text>
<text text-anchor="middle" x="132.817" y="-999.0053" font-family="Arial" font-size="20.00" fill="#000000">lv0</text>
</g>
<!-- fab_pipeline_data_sync -->
<g id="fab_pipeline_data_sync" class="node">
<title>fab_pipeline_data_sync</title>
<path fill="none" stroke="#000000" d="M297.916,-273.0053C297.916,-273.0053 97.036,-273.0053 97.036,-273.0053 91.036,-273.0053 85.036,-267.0053 85.036,-261.0053 85.036,-261.0053 85.036,-249.0053 85.036,-249.0053 85.036,-243.0053 91.036,-237.0053 97.036,-237.0053 97.036,-237.0053 297.916,-237.0053 297.916,-237.0053 303.916,-237.0053 309.916,-243.0053 309.916,-249.0053 309.916,-249.0053 309.916,-261.0053 309.916,-261.0053 309.916,-267.0053 303.916,-273.0053 297.916,-273.0053"/>
<text text-anchor="middle" x="197.476" y="-249.0053" font-family="Arial" font-size="20.00" fill="#000000">Fab Pipeline Data Sync</text>
<text text-anchor="middle" x="72.228" y="-243.0053" font-family="Arial" font-size="20.00" fill="#000000">lv0</text>
</g>
<!-- sales_data_cleansing -->
<g id="sales_data_cleansing" class="node">
<title>sales_data_cleansing</title>
<path fill="none" stroke="#000000" d="M1453.3972,-543.0053C1453.3972,-543.0053 1268.8688,-543.0053 1268.8688,-543.0053 1262.8688,-543.0053 1256.8688,-537.0053 1256.8688,-531.0053 1256.8688,-531.0053 1256.8688,-519.0053 1256.8688,-519.0053 1256.8688,-513.0053 1262.8688,-507.0053 1268.8688,-507.0053 1268.8688,-507.0053 1453.3972,-507.0053 1453.3972,-507.0053 1459.3972,-507.0053 1465.3972,-513.0053 1465.3972,-519.0053 1465.3972,-519.0053 1465.3972,-531.0053 1465.3972,-531.0053 1465.3972,-537.0053 1459.3972,-543.0053 1453.3972,-543.0053"/>
<text text-anchor="middle" x="1361.133" y="-519.0053" font-family="Arial" font-size="20.00" fill="#000000">Sales Data Cleansing</text>
<text text-anchor="middle" x="1244.223" y="-489.0053" font-family="Arial" font-size="20.00" fill="#000000">lv1</text>
</g>
<!-- sensor_accelerometer -->
<g id="sensor_accelerometer" class="node">
<title>sensor_accelerometer</title>
<path fill="none" stroke="#000000" d="M872.9413,-705.0053C872.9413,-705.0053 704.5647,-705.0053 704.5647,-705.0053 698.5647,-705.0053 692.5647,-699.0053 692.5647,-693.0053 692.5647,-693.0053 692.5647,-681.0053 692.5647,-681.0053 692.5647,-675.0053 698.5647,-669.0053 704.5647,-669.0053 704.5647,-669.0053 872.9413,-669.0053 872.9413,-669.0053 878.9413,-669.0053 884.9413,-675.0053 884.9413,-681.0053 884.9413,-681.0053 884.9413,-693.0053 884.9413,-693.0053 884.9413,-699.0053 878.9413,-705.0053 872.9413,-705.0053"/>
<text text-anchor="middle" x="788.753" y="-681.0053" font-family="Arial" font-size="20.00" fill="#000000">Accelerometer Data</text>
<text text-anchor="middle" x="679.631" y="-651.0053" font-family="Arial" font-size="20.00" fill="#000000">lv1</text>
</g>
<!-- customer_service_logs_import -->
<g id="customer_service_logs_import" class="node">
<title>customer_service_logs_import</title>
<path fill="none" stroke="#000000" d="M328.508,-489.0053C328.508,-489.0053 66.444,-489.0053 66.444,-489.0053 60.444,-489.0053 54.444,-483.0053 54.444,-477.0053 54.444,-477.0053 54.444,-465.0053 54.444,-465.0053 54.444,-459.0053 60.444,-453.0053 66.444,-453.0053 66.444,-453.0053 328.508,-453.0053 328.508,-453.0053 334.508,-453.0053 340.508,-459.0053 340.508,-465.0053 340.508,-465.0053 340.508,-477.0053 340.508,-477.0053 340.508,-483.0053 334.508,-489.0053 328.508,-489.0053"/>
<text text-anchor="middle" x="197.476" y="-465.0053" font-family="Arial" font-size="20.00" fill="#000000">Customer Service Logs Import</text>
<text text-anchor="middle" x="41.682" y="-435.0053" font-family="Arial" font-size="20.00" fill="#000000">lv0</text>
</g>
<!-- sensor_data_collection -->
<g id="sensor_data_collection" class="node">
<title>sensor_data_collection</title>
<path fill="none" stroke="#000000" d="M295.9565,-759.0053C295.9565,-759.0053 98.9955,-759.0053 98.9955,-759.0053 92.9955,-759.0053 86.9955,-753.0053 86.9955,-747.0053 86.9955,-747.0053 86.9955,-735.0053 86.9955,-735.0053 86.9955,-729.0053 92.9955,-723.0053 98.9955,-723.0053 98.9955,-723.0053 295.9565,-723.0053 295.9565,-723.0053 301.9565,-723.0053 307.9565,-729.0053 307.9565,-735.0053 307.9565,-735.0053 307.9565,-747.0053 307.9565,-747.0053 307.9565,-753.0053 301.9565,-759.0053 295.9565,-759.0053"/>
<text text-anchor="middle" x="197.476" y="-735.0053" font-family="Arial" font-size="20.00" fill="#000000">Sensor Data Collection</text>
<text text-anchor="middle" x="74.458" y="-705.0053" font-family="Arial" font-size="20.00" fill="#000000">lv0</text>
</g>
<!-- transaction_logs_import -->
<g id="transaction_logs_import" class="node">
<title>transaction_logs_import</title>
<path fill="none" stroke="#000000" d="M301.0763,-651.0053C301.0763,-651.0053 93.8757,-651.0053 93.8757,-651.0053 87.8757,-651.0053 81.8757,-645.0053 81.8757,-639.0053 81.8757,-639.0053 81.8757,-627.0053 81.8757,-627.0053 81.8757,-621.0053 87.8757,-615.0053 93.8757,-615.0053 93.8757,-615.0053 301.0763,-615.0053 301.0763,-615.0053 307.0763,-615.0053 313.0763,-621.0053 313.0763,-627.0053 313.0763,-627.0053 313.0763,-639.0053 313.0763,-639.0053 313.0763,-645.0053 307.0763,-651.0053 301.0763,-651.0053"/>
<text text-anchor="middle" x="197.476" y="-627.0053" font-family="Arial" font-size="20.00" fill="#000000">Transaction Logs Import</text>
<text text-anchor="middle" x="68.898" y="-621.0053" font-family="Arial" font-size="20.00" fill="#000000">lv0</text>
</g>
<!-- sensor_humidity -->
<g id="sensor_humidity" class="node">
<title>sensor_humidity</title>
<path fill="none" stroke="#000000" d="M847.3097,-1083.0053C847.3097,-1083.0053 730.1963,-1083.0053 730.1963,-1083.0053 724.1963,-1083.0053 718.1963,-1077.0053 718.1963,-1071.0053 718.1963,-1071.0053 718.1963,-1059.0053 718.1963,-1059.0053 718.1963,-1053.0053 724.1963,-1047.0053 730.1963,-1047.0053 730.1963,-1047.0053 847.3097,-1047.0053 847.3097,-1047.0053 853.3097,-1047.0053 859.3097,-1053.0053 859.3097,-1059.0053 859.3097,-1059.0053 859.3097,-1071.0053 859.3097,-1071.0053 859.3097,-1077.0053 853.3097,-1083.0053 847.3097,-1083.0053"/>
<text text-anchor="middle" x="788.753" y="-1059.0053" font-family="Arial" font-size="20.00" fill="#000000">Humidity Data</text>
<text text-anchor="middle" x="705.197" y="-1029.0053" font-family="Arial" font-size="20.00" fill="#000000">lv1</text>
</g>
<!-- sensor_lidar -->
<g id="sensor_lidar" class="node">
<title>sensor_lidar</title>
<path fill="none" stroke="#000000" d="M830.9933,-921.0053C830.9933,-921.0053 746.5127,-921.0053 746.5127,-921.0053 740.5127,-921.0053 734.5127,-915.0053 734.5127,-909.0053 734.5127,-909.0053 734.5127,-897.0053 734.5127,-897.0053 734.5127,-891.0053 740.5127,-885.0053 746.5127,-885.0053 746.5127,-885.0053 830.9933,-885.0053 830.9933,-885.0053 836.9933,-885.0053 842.9933,-891.0053 842.9933,-897.0053 842.9933,-897.0053 842.9933,-909.0053 842.9933,-909.0053 842.9933,-915.0053 836.9933,-921.0053 830.9933,-921.0053"/>
<text text-anchor="middle" x="788.753" y="-897.0053" font-family="Arial" font-size="20.00" fill="#000000">Lidar Data</text>
<text text-anchor="middle" x="721.855" y="-867.0053" font-family="Arial" font-size="20.00" fill="#000000">lv1</text>
</g>
<!-- public_relations -->
<g id="public_relations" class="node">
<title>public_relations</title>
<path fill="none" stroke="#000000" d="M2700.307,-1029.0053C2700.307,-1029.0053 2418.179,-1029.0053 2418.179,-1029.0053 2412.179,-1029.0053 2406.179,-1023.0053 2406.179,-1017.0053 2406.179,-1017.0053 2406.179,-1005.0053 2406.179,-1005.0053 2406.179,-999.0053 2412.179,-993.0053 2418.179,-993.0053 2418.179,-993.0053 2700.307,-993.0053 2700.307,-993.0053 2706.307,-993.0053 2712.307,-999.0053 2712.307,-1005.0053 2712.307,-1005.0053 2712.307,-1017.0053 2712.307,-1017.0053 2712.307,-1023.0053 2706.307,-1029.0053 2700.307,-1029.0053"/>
<text text-anchor="middle" x="2559.243" y="-1005.0053" font-family="Arial" font-size="20.00" fill="#000000">API: Public Relations Dashboard</text>
<text text-anchor="middle" x="2393.433" y="-975.0053" font-family="Arial" font-size="20.00" fill="#000000">lv3</text>
</g>
<!-- ig_crawler -->
<g id="ig_crawler" class="node">
<title>ig_crawler</title>
<path fill="none" stroke="#000000" d="M241.0169,-975.0053C241.0169,-975.0053 153.9351,-975.0053 153.9351,-975.0053 147.9351,-975.0053 141.9351,-969.0053 141.9351,-963.0053 141.9351,-963.0053 141.9351,-951.0053 141.9351,-951.0053 141.9351,-945.0053 147.9351,-939.0053 153.9351,-939.0053 153.9351,-939.0053 241.0169,-939.0053 241.0169,-939.0053 247.0169,-939.0053 253.0169,-945.0053 253.0169,-951.0053 253.0169,-951.0053 253.0169,-963.0053 253.0169,-963.0053 253.0169,-969.0053 247.0169,-975.0053 241.0169,-975.0053"/>
<text text-anchor="middle" x="197.476" y="-951.0053" font-family="Arial" font-size="20.00" fill="#000000">IG Crawler</text>
<text text-anchor="middle" x="128.928" y="-945.0053" font-family="Arial" font-size="20.00" fill="#000000">lv0</text>
</g>
<!-- sensor_gear -->
<g id="sensor_gear" class="node">
<title>sensor_gear</title>
<path fill="none" stroke="#000000" d="M830.9953,-867.0053C830.9953,-867.0053 746.5107,-867.0053 746.5107,-867.0053 740.5107,-867.0053 734.5107,-861.0053 734.5107,-855.0053 734.5107,-855.0053 734.5107,-843.0053 734.5107,-843.0053 734.5107,-837.0053 740.5107,-831.0053 746.5107,-831.0053 746.5107,-831.0053 830.9953,-831.0053 830.9953,-831.0053 836.9953,-831.0053 842.9953,-837.0053 842.9953,-843.0053 842.9953,-843.0053 842.9953,-855.0053 842.9953,-855.0053 842.9953,-861.0053 836.9953,-867.0053 830.9953,-867.0053"/>
<text text-anchor="middle" x="788.753" y="-843.0053" font-family="Arial" font-size="20.00" fill="#000000">Gear Data</text>
<text text-anchor="middle" x="721.854" y="-813.0053" font-family="Arial" font-size="20.00" fill="#000000">lv1</text>
</g>
<!-- predictive_maintenance_model -->
<g id="predictive_maintenance_model" class="node">
<title>predictive_maintenance_model</title>
<path fill="none" stroke="#000000" d="M2073.9011,-1143.0053C2073.9011,-1143.0053 1814.2409,-1143.0053 1814.2409,-1143.0053 1808.2409,-1143.0053 1802.2409,-1137.0053 1802.2409,-1131.0053 1802.2409,-1131.0053 1802.2409,-1119.0053 1802.2409,-1119.0053 1802.2409,-1113.0053 1808.2409,-1107.0053 1814.2409,-1107.0053 1814.2409,-1107.0053 2073.9011,-1107.0053 2073.9011,-1107.0053 2079.9011,-1107.0053 2085.9011,-1113.0053 2085.9011,-1119.0053 2085.9011,-1119.0053 2085.9011,-1131.0053 2085.9011,-1131.0053 2085.9011,-1137.0053 2079.9011,-1143.0053 2073.9011,-1143.0053"/>
<text text-anchor="middle" x="1944.071" y="-1119.0053" font-family="Arial" font-size="20.00" fill="#000000">Predictive Maintenance Model</text>
<text text-anchor="middle" x="1789.378" y="-1089.0053" font-family="Arial" font-size="20.00" fill="#000000">lv2</text>
</g>
<!-- social_media_sentiment_analysis -->
<g id="social_media_sentiment_analysis" class="node">
<title>social_media_sentiment_analysis</title>
<path fill="none" stroke="#000000" d="M1502.179,-1201.0053C1502.179,-1201.0053 1220.087,-1201.0053 1220.087,-1201.0053 1214.087,-1201.0053 1208.087,-1195.0053 1208.087,-1189.0053 1208.087,-1189.0053 1208.087,-1177.0053 1208.087,-1177.0053 1208.087,-1171.0053 1214.087,-1165.0053 1220.087,-1165.0053 1220.087,-1165.0053 1502.179,-1165.0053 1502.179,-1165.0053 1508.179,-1165.0053 1514.179,-1171.0053 1514.179,-1177.0053 1514.179,-1177.0053 1514.179,-1189.0053 1514.179,-1189.0053 1514.179,-1195.0053 1508.179,-1201.0053 1502.179,-1201.0053"/>
<text text-anchor="middle" x="1361.133" y="-1177.0053" font-family="Arial" font-size="20.00" fill="#000000">Social Media Sentiment Analysis</text>
<text text-anchor="middle" x="1195.332" y="-1147.0053" font-family="Arial" font-size="20.00" fill="#000000">lv2</text>
</g>
<!-- maintenance_insights -->
<g id="maintenance_insights" class="node">
<title>maintenance_insights</title>
<path fill="none" stroke="#000000" d="M2671.5392,-867.0053C2671.5392,-867.0053 2446.9468,-867.0053 2446.9468,-867.0053 2440.9468,-867.0053 2434.9468,-861.0053 2434.9468,-855.0053 2434.9468,-855.0053 2434.9468,-843.0053 2434.9468,-843.0053 2434.9468,-837.0053 2440.9468,-831.0053 2446.9468,-831.0053 2446.9468,-831.0053 2671.5392,-831.0053 2671.5392,-831.0053 2677.5392,-831.0053 2683.5392,-837.0053 2683.5392,-843.0053 2683.5392,-843.0053 2683.5392,-855.0053 2683.5392,-855.0053 2683.5392,-861.0053 2677.5392,-867.0053 2671.5392,-867.0053"/>
<text text-anchor="middle" x="2559.243" y="-843.0053" font-family="Arial" font-size="20.00" fill="#000000">API: Maintenance Insights</text>
<text text-anchor="middle" x="2422.317" y="-837.0053" font-family="Arial" font-size="20.00" fill="#000000">lv3</text>
</g>
<!-- kpi_benchmarking -->
<g id="kpi_benchmarking" class="node">
<title>kpi_benchmarking</title>
<path fill="none" stroke="#000000" d="M2637.8355,-1224.0053C2637.8355,-1224.0053 2480.6505,-1224.0053 2480.6505,-1224.0053 2474.6505,-1224.0053 2468.6505,-1218.0053 2468.6505,-1212.0053 2468.6505,-1212.0053 2468.6505,-1200.0053 2468.6505,-1200.0053 2468.6505,-1194.0053 2474.6505,-1188.0053 2480.6505,-1188.0053 2480.6505,-1188.0053 2637.8355,-1188.0053 2637.8355,-1188.0053 2643.8355,-1188.0053 2649.8355,-1194.0053 2649.8355,-1200.0053 2649.8355,-1200.0053 2649.8355,-1212.0053 2649.8355,-1212.0053 2649.8355,-1218.0053 2643.8355,-1224.0053 2637.8355,-1224.0053"/>
<text text-anchor="middle" x="2559.243" y="-1200.0053" font-family="Arial" font-size="20.00" fill="#000000">KPI Benchmarking</text>
<text text-anchor="middle" x="2455.669" y="-1170.0053" font-family="Arial" font-size="20.00" fill="#000000">lv2</text>
</g>
<!-- fleet_dashboard -->
<g id="fleet_dashboard" class="node">
<title>fleet_dashboard</title>
<path fill="none" stroke="#000000" d="M2650.9051,-921.0053C2650.9051,-921.0053 2467.5809,-921.0053 2467.5809,-921.0053 2461.5809,-921.0053 2455.5809,-915.0053 2455.5809,-909.0053 2455.5809,-909.0053 2455.5809,-897.0053 2455.5809,-897.0053 2455.5809,-891.0053 2461.5809,-885.0053 2467.5809,-885.0053 2467.5809,-885.0053 2650.9051,-885.0053 2650.9051,-885.0053 2656.9051,-885.0053 2662.9051,-891.0053 2662.9051,-897.0053 2662.9051,-897.0053 2662.9051,-909.0053 2662.9051,-909.0053 2662.9051,-915.0053 2656.9051,-921.0053 2650.9051,-921.0053"/>
<text text-anchor="middle" x="2559.243" y="-897.0053" font-family="Arial" font-size="20.00" fill="#000000">API: Fleet Dashboard</text>
<text text-anchor="middle" x="2442.884" y="-891.0053" font-family="Arial" font-size="20.00" fill="#000000">lv3</text>
</g>
<!-- regulatory_compliance_dashboard -->
<g id="regulatory_compliance_dashboard" class="node">
<title>regulatory_compliance_dashboard</title>
<path fill="none" stroke="#000000" d="M2732.2573,-813.0053C2732.2573,-813.0053 2386.2287,-813.0053 2386.2287,-813.0053 2380.2287,-813.0053 2374.2287,-807.0053 2374.2287,-801.0053 2374.2287,-801.0053 2374.2287,-789.0053 2374.2287,-789.0053 2374.2287,-783.0053 2380.2287,-777.0053 2386.2287,-777.0053 2386.2287,-777.0053 2732.2573,-777.0053 2732.2573,-777.0053 2738.2573,-777.0053 2744.2573,-783.0053 2744.2573,-789.0053 2744.2573,-789.0053 2744.2573,-801.0053 2744.2573,-801.0053 2744.2573,-807.0053 2738.2573,-813.0053 2732.2573,-813.0053"/>
<text text-anchor="middle" x="2559.243" y="-789.0053" font-family="Arial" font-size="20.00" fill="#000000">API: Regulatory Compliance Dashboard</text>
<text text-anchor="middle" x="2361.208" y="-759.0053" font-family="Arial" font-size="20.00" fill="#000000">lv3</text>
</g>
<!-- fb_crawler -->
<g id="fb_crawler" class="node">
<title>fb_crawler</title>
<path fill="none" stroke="#000000" d="M243.456,-921.0053C243.456,-921.0053 151.496,-921.0053 151.496,-921.0053 145.496,-921.0053 139.496,-915.0053 139.496,-909.0053 139.496,-909.0053 139.496,-897.0053 139.496,-897.0053 139.496,-891.0053 145.496,-885.0053 151.496,-885.0053 151.496,-885.0053 243.456,-885.0053 243.456,-885.0053 249.456,-885.0053 255.456,-891.0053 255.456,-897.0053 255.456,-897.0053 255.456,-909.0053 255.456,-909.0053 255.456,-915.0053 249.456,-921.0053 243.456,-921.0053"/>
<text text-anchor="middle" x="197.476" y="-897.0053" font-family="Arial" font-size="20.00" fill="#000000">FB Crawler</text>
<text text-anchor="middle" x="126.708" y="-867.0053" font-family="Arial" font-size="20.00" fill="#000000">lv0</text>
</g>
<!-- vehicle_maintenance_records_import -->
<g id="vehicle_maintenance_records_import" class="node">
<title>vehicle_maintenance_records_import</title>
<path fill="none" stroke="#000000" d="M357.316,-327.0053C357.316,-327.0053 37.636,-327.0053 37.636,-327.0053 31.636,-327.0053 25.636,-321.0053 25.636,-315.0053 25.636,-315.0053 25.636,-303.0053 25.636,-303.0053 25.636,-297.0053 31.636,-291.0053 37.636,-291.0053 37.636,-291.0053 357.316,-291.0053 357.316,-291.0053 363.316,-291.0053 369.316,-297.0053 369.316,-303.0053 369.316,-303.0053 369.316,-315.0053 369.316,-315.0053 369.316,-321.0053 363.316,-327.0053 357.316,-327.0053"/>
<text text-anchor="middle" x="197.476" y="-303.0053" font-family="Arial" font-size="20.00" fill="#000000">Vehicle Maintenance Records Import</text>
<text text-anchor="middle" x="12.778" y="-273.0053" font-family="Arial" font-size="20.00" fill="#000000">lv0</text>
</g>
<!-- sensor_motor -->
<g id="sensor_motor" class="node">
<title>sensor_motor</title>
<path fill="none" stroke="#000000" d="M834.153,-651.0053C834.153,-651.0053 743.353,-651.0053 743.353,-651.0053 737.353,-651.0053 731.353,-645.0053 731.353,-639.0053 731.353,-639.0053 731.353,-627.0053 731.353,-627.0053 731.353,-621.0053 737.353,-615.0053 743.353,-615.0053 743.353,-615.0053 834.153,-615.0053 834.153,-615.0053 840.153,-615.0053 846.153,-621.0053 846.153,-627.0053 846.153,-627.0053 846.153,-639.0053 846.153,-639.0053 846.153,-645.0053 840.153,-651.0053 834.153,-651.0053"/>
<text text-anchor="middle" x="788.753" y="-627.0053" font-family="Arial" font-size="20.00" fill="#000000">Motor Data</text>
<text text-anchor="middle" x="718.525" y="-597.0053" font-family="Arial" font-size="20.00" fill="#000000">lv1</text>
</g>
<!-- customer_sentiment_analysis -->
<g id="customer_sentiment_analysis" class="node">
<title>customer_sentiment_analysis</title>
<path fill="none" stroke="#000000" d="M2071.3251,-1251.0053C2071.3251,-1251.0053 1816.8169,-1251.0053 1816.8169,-1251.0053 1810.8169,-1251.0053 1804.8169,-1245.0053 1804.8169,-1239.0053 1804.8169,-1239.0053 1804.8169,-1227.0053 1804.8169,-1227.0053 1804.8169,-1221.0053 1810.8169,-1215.0053 1816.8169,-1215.0053 1816.8169,-1215.0053 2071.3251,-1215.0053 2071.3251,-1215.0053 2077.3251,-1215.0053 2083.3251,-1221.0053 2083.3251,-1227.0053 2083.3251,-1227.0053 2083.3251,-1239.0053 2083.3251,-1239.0053 2083.3251,-1245.0053 2077.3251,-1251.0053 2071.3251,-1251.0053"/>
<text text-anchor="middle" x="1944.071" y="-1227.0053" font-family="Arial" font-size="20.00" fill="#000000">Customer Sentiment Analysis</text>
<text text-anchor="middle" x="1792.166" y="-1197.0053" font-family="Arial" font-size="20.00" fill="#000000">lv2</text>
</g>
<!-- fleet_optimization_model -->
<g id="fleet_optimization_model" class="node">
<title>fleet_optimization_model</title>
<path fill="none" stroke="#000000" d="M1467.767,-1143.0053C1467.767,-1143.0053 1254.499,-1143.0053 1254.499,-1143.0053 1248.499,-1143.0053 1242.499,-1137.0053 1242.499,-1131.0053 1242.499,-1131.0053 1242.499,-1119.0053 1242.499,-1119.0053 1242.499,-1113.0053 1248.499,-1107.0053 1254.499,-1107.0053 1254.499,-1107.0053 1467.767,-1107.0053 1467.767,-1107.0053 1473.767,-1107.0053 1479.767,-1113.0053 1479.767,-1119.0053 1479.767,-1119.0053 1479.767,-1131.0053 1479.767,-1131.0053 1479.767,-1137.0053 1473.767,-1143.0053 1467.767,-1143.0053"/>
<text text-anchor="middle" x="1361.133" y="-1119.0053" font-family="Arial" font-size="20.00" fill="#000000">Fleet Optimization Model</text>
<text text-anchor="middle" x="1229.788" y="-1089.0053" font-family="Arial" font-size="20.00" fill="#000000">lv2</text>
</g>
<!-- sensor_gps -->
<g id="sensor_gps" class="node">
<title>sensor_gps</title>
<path fill="none" stroke="#000000" d="M829.777,-813.0053C829.777,-813.0053 747.729,-813.0053 747.729,-813.0053 741.729,-813.0053 735.729,-807.0053 735.729,-801.0053 735.729,-801.0053 735.729,-789.0053 735.729,-789.0053 735.729,-783.0053 741.729,-777.0053 747.729,-777.0053 747.729,-777.0053 829.777,-777.0053 829.777,-777.0053 835.777,-777.0053 841.777,-783.0053 841.777,-789.0053 841.777,-789.0053 841.777,-801.0053 841.777,-801.0053 841.777,-807.0053 835.777,-813.0053 829.777,-813.0053"/>
<text text-anchor="middle" x="788.753" y="-789.0053" font-family="Arial" font-size="20.00" fill="#000000">GPS Data</text>
<text text-anchor="middle" x="722.963" y="-783.0053" font-family="Arial" font-size="20.00" fill="#000000">lv1</text>
</g>
<!-- sensor_temperature -->
<g id="sensor_temperature" class="node">
<title>sensor_temperature</title>
<path fill="none" stroke="#000000" d="M1438.3812,-597.0053C1438.3812,-597.0053 1283.8848,-597.0053 1283.8848,-597.0053 1277.8848,-597.0053 1271.8848,-591.0053 1271.8848,-585.0053 1271.8848,-585.0053 1271.8848,-573.0053 1271.8848,-573.0053 1271.8848,-567.0053 1277.8848,-561.0053 1283.8848,-561.0053 1283.8848,-561.0053 1438.3812,-561.0053 1438.3812,-561.0053 1444.3812,-561.0053 1450.3812,-567.0053 1450.3812,-573.0053 1450.3812,-573.0053 1450.3812,-585.0053 1450.3812,-585.0053 1450.3812,-591.0053 1444.3812,-597.0053 1438.3812,-597.0053"/>
<text text-anchor="middle" x="1361.133" y="-573.0053" font-family="Arial" font-size="20.00" fill="#000000">Temperature Data</text>
<text text-anchor="middle" x="1259.231" y="-567.0053" font-family="Arial" font-size="20.00" fill="#000000">lv1</text>
</g>
<!-- social_media_discussions -->
<g id="social_media_discussions" class="node">
<title>social_media_discussions</title>
<path fill="none" stroke="#000000" d="M897.9372,-1213.0053C897.9372,-1213.0053 679.5688,-1213.0053 679.5688,-1213.0053 673.5688,-1213.0053 667.5688,-1207.0053 667.5688,-1201.0053 667.5688,-1201.0053 667.5688,-1189.0053 667.5688,-1189.0053 667.5688,-1183.0053 673.5688,-1177.0053 679.5688,-1177.0053 679.5688,-1177.0053 897.9372,-1177.0053 897.9372,-1177.0053 903.9372,-1177.0053 909.9372,-1183.0053 909.9372,-1189.0053 909.9372,-1189.0053 909.9372,-1201.0053 909.9372,-1201.0053 909.9372,-1207.0053 903.9372,-1213.0053 897.9372,-1213.0053"/>
<text text-anchor="middle" x="788.753" y="-1189.0053" font-family="Arial" font-size="20.00" fill="#000000">Social Media Discussions</text>
<text text-anchor="middle" x="654.633" y="-1159.0053" font-family="Arial" font-size="20.00" fill="#000000">lv2</text>
</g>
<!-- battery_spec_fetch -->
<g id="battery_spec_fetch" class="node">
<title>battery_spec_fetch</title>
<path fill="none" stroke="#000000" d="M278.526,-705.0053C278.526,-705.0053 116.426,-705.0053 116.426,-705.0053 110.426,-705.0053 104.426,-699.0053 104.426,-693.0053 104.426,-693.0053 104.426,-681.0053 104.426,-681.0053 104.426,-675.0053 110.426,-669.0053 116.426,-669.0053 116.426,-669.0053 278.526,-669.0053 278.526,-669.0053 284.526,-669.0053 290.526,-675.0053 290.526,-681.0053 290.526,-681.0053 290.526,-693.0053 290.526,-693.0053 290.526,-699.0053 284.526,-705.0053 278.526,-705.0053"/>
<text text-anchor="middle" x="197.476" y="-681.0053" font-family="Arial" font-size="20.00" fill="#000000">Battery Spec Fetch</text>
<text text-anchor="middle" x="91.673" y="-675.0053" font-family="Arial" font-size="20.00" fill="#000000">lv0</text>
</g>
<!-- news_crawler -->
<g id="news_crawler" class="node">
<title>news_crawler</title>
<path fill="none" stroke="#000000" d="M255.8946,-1137.0053C255.8946,-1137.0053 139.0574,-1137.0053 139.0574,-1137.0053 133.0574,-1137.0053 127.0574,-1131.0053 127.0574,-1125.0053 127.0574,-1125.0053 127.0574,-1113.0053 127.0574,-1113.0053 127.0574,-1107.0053 133.0574,-1101.0053 139.0574,-1101.0053 139.0574,-1101.0053 255.8946,-1101.0053 255.8946,-1101.0053 261.8946,-1101.0053 267.8946,-1107.0053 267.8946,-1113.0053 267.8946,-1113.0053 267.8946,-1125.0053 267.8946,-1125.0053 267.8946,-1131.0053 261.8946,-1137.0053 255.8946,-1137.0053"/>
<text text-anchor="middle" x="197.476" y="-1113.0053" font-family="Arial" font-size="20.00" fill="#000000">News Crawler</text>
<text text-anchor="middle" x="114.489" y="-1107.0053" font-family="Arial" font-size="20.00" fill="#000000">lv0</text>
</g>
<!-- tire_spec_fetch -->
<g id="tire_spec_fetch" class="node">
<title>tire_spec_fetch</title>
<path fill="none" stroke="#000000" d="M264.1101,-813.0053C264.1101,-813.0053 130.8419,-813.0053 130.8419,-813.0053 124.8419,-813.0053 118.8419,-807.0053 118.8419,-801.0053 118.8419,-801.0053 118.8419,-789.0053 118.8419,-789.0053 118.8419,-783.0053 124.8419,-777.0053 130.8419,-777.0053 130.8419,-777.0053 264.1101,-777.0053 264.1101,-777.0053 270.1101,-777.0053 276.1101,-783.0053 276.1101,-789.0053 276.1101,-789.0053 276.1101,-801.0053 276.1101,-801.0053 276.1101,-807.0053 270.1101,-813.0053 264.1101,-813.0053"/>
<text text-anchor="middle" x="197.476" y="-789.0053" font-family="Arial" font-size="20.00" fill="#000000">Tire Spec Fetch</text>
<text text-anchor="middle" x="106.131" y="-783.0053" font-family="Arial" font-size="20.00" fill="#000000">lv0</text>
</g>
<!-- weather -->
<g id="weather" class="node">
<title>weather</title>
<path fill="none" stroke="#000000" d="M231.043,-867.0053C231.043,-867.0053 163.909,-867.0053 163.909,-867.0053 157.909,-867.0053 151.909,-861.0053 151.909,-855.0053 151.909,-855.0053 151.909,-843.0053 151.909,-843.0053 151.909,-837.0053 157.909,-831.0053 163.909,-831.0053 163.909,-831.0053 231.043,-831.0053 231.043,-831.0053 237.043,-831.0053 243.043,-837.0053 243.043,-843.0053 243.043,-843.0053 243.043,-855.0053 243.043,-855.0053 243.043,-861.0053 237.043,-867.0053 231.043,-867.0053"/>
<text text-anchor="middle" x="197.476" y="-843.0053" font-family="Arial" font-size="20.00" fill="#000000">Weather</text>
<text text-anchor="middle" x="138.915" y="-837.0053" font-family="Arial" font-size="20.00" fill="#000000">lv0</text>
</g>
<!-- sales_data_import -->
<g id="sales_data_import" class="node">
<title>sales_data_import</title>
<path fill="none" stroke="#000000" d="M273.504,-543.0053C273.504,-543.0053 121.448,-543.0053 121.448,-543.0053 115.448,-543.0053 109.448,-537.0053 109.448,-531.0053 109.448,-531.0053 109.448,-519.0053 109.448,-519.0053 109.448,-513.0053 115.448,-507.0053 121.448,-507.0053 121.448,-507.0053 273.504,-507.0053 273.504,-507.0053 279.504,-507.0053 285.504,-513.0053 285.504,-519.0053 285.504,-519.0053 285.504,-531.0053 285.504,-531.0053 285.504,-537.0053 279.504,-543.0053 273.504,-543.0053"/>
<text text-anchor="middle" x="197.476" y="-519.0053" font-family="Arial" font-size="20.00" fill="#000000">Sales Data Import</text>
<text text-anchor="middle" x="96.684" y="-513.0053" font-family="Arial" font-size="20.00" fill="#000000">lv0</text>
</g>
<!-- kpi_dashboard -->
<g id="kpi_dashboard" class="node">
<title>kpi_dashboard</title>
<path fill="none" stroke="#000000" d="M2644.689,-1083.0053C2644.689,-1083.0053 2473.797,-1083.0053 2473.797,-1083.0053 2467.797,-1083.0053 2461.797,-1077.0053 2461.797,-1071.0053 2461.797,-1071.0053 2461.797,-1059.0053 2461.797,-1059.0053 2461.797,-1053.0053 2467.797,-1047.0053 2473.797,-1047.0053 2473.797,-1047.0053 2644.689,-1047.0053 2644.689,-1047.0053 2650.689,-1047.0053 2656.689,-1053.0053 2656.689,-1059.0053 2656.689,-1059.0053 2656.689,-1071.0053 2656.689,-1071.0053 2656.689,-1077.0053 2650.689,-1083.0053 2644.689,-1083.0053"/>
<text text-anchor="middle" x="2559.243" y="-1059.0053" font-family="Arial" font-size="20.00" fill="#000000">API: KPI Dashboard</text>
<text text-anchor="middle" x="2448.992" y="-1053.0053" font-family="Arial" font-size="20.00" fill="#000000">lv3</text>
</g>
<!-- sales_forecast -->
<g id="sales_forecast" class="node">
<title>sales_forecast</title>
<path fill="none" stroke="#000000" d="M2006.9294,-1197.0053C2006.9294,-1197.0053 1881.2126,-1197.0053 1881.2126,-1197.0053 1875.2126,-1197.0053 1869.2126,-1191.0053 1869.2126,-1185.0053 1869.2126,-1185.0053 1869.2126,-1173.0053 1869.2126,-1173.0053 1869.2126,-1167.0053 1875.2126,-1161.0053 1881.2126,-1161.0053 1881.2126,-1161.0053 2006.9294,-1161.0053 2006.9294,-1161.0053 2012.9294,-1161.0053 2018.9294,-1167.0053 2018.9294,-1173.0053 2018.9294,-1173.0053 2018.9294,-1185.0053 2018.9294,-1185.0053 2018.9294,-1191.0053 2012.9294,-1197.0053 2006.9294,-1197.0053"/>
<text text-anchor="middle" x="1944.071" y="-1173.0053" font-family="Arial" font-size="20.00" fill="#000000">Sales Forecast</text>
<text text-anchor="middle" x="1856.614" y="-1167.0053" font-family="Arial" font-size="20.00" fill="#000000">lv2</text>
</g>
<!-- market_research_fetch -->
<g id="market_research_fetch" class="node">
<title>market_research_fetch</title>
<path fill="none" stroke="#000000" d="M330.3482,-381.0053C330.3482,-381.0053 64.6038,-381.0053 64.6038,-381.0053 58.6038,-381.0053 52.6038,-375.0053 52.6038,-369.0053 52.6038,-369.0053 52.6038,-357.0053 52.6038,-357.0053 52.6038,-351.0053 58.6038,-345.0053 64.6038,-345.0053 64.6038,-345.0053 330.3482,-345.0053 330.3482,-345.0053 336.3482,-345.0053 342.3482,-351.0053 342.3482,-357.0053 342.3482,-357.0053 342.3482,-369.0053 342.3482,-369.0053 342.3482,-375.0053 336.3482,-381.0053 330.3482,-381.0053"/>
<text text-anchor="middle" x="197.476" y="-357.0053" font-family="Arial" font-size="20.00" fill="#000000">Market Research Report Fetch</text>
<text text-anchor="middle" x="40.012" y="-351.0053" font-family="Arial" font-size="20.00" fill="#000000">lv0</text>
</g>
<!-- threads_crawler -->
<g id="threads_crawler" class="node">
<title>threads_crawler</title>
<path fill="none" stroke="#000000" d="M267.2482,-1083.0053C267.2482,-1083.0053 127.7038,-1083.0053 127.7038,-1083.0053 121.7038,-1083.0053 115.7038,-1077.0053 115.7038,-1071.0053 115.7038,-1071.0053 115.7038,-1059.0053 115.7038,-1059.0053 115.7038,-1053.0053 121.7038,-1047.0053 127.7038,-1047.0053 127.7038,-1047.0053 267.2482,-1047.0053 267.2482,-1047.0053 273.2482,-1047.0053 279.2482,-1053.0053 279.2482,-1059.0053 279.2482,-1059.0053 279.2482,-1071.0053 279.2482,-1071.0053 279.2482,-1077.0053 273.2482,-1083.0053 267.2482,-1083.0053"/>
<text text-anchor="middle" x="197.476" y="-1059.0053" font-family="Arial" font-size="20.00" fill="#000000">Threads Crawler</text>
<text text-anchor="middle" x="102.812" y="-1029.0053" font-family="Arial" font-size="20.00" fill="#000000">lv0</text>
</g>
<!-- vehicle_manufacture_records_import -->
<g id="vehicle_manufacture_records_import" class="node">
<title>vehicle_manufacture_records_import</title>
<path fill="none" stroke="#000000" d="M324.7501,-597.0053C324.7501,-597.0053 70.2019,-597.0053 70.2019,-597.0053 64.2019,-597.0053 58.2019,-591.0053 58.2019,-585.0053 58.2019,-585.0053 58.2019,-573.0053 58.2019,-573.0053 58.2019,-567.0053 64.2019,-561.0053 70.2019,-561.0053 70.2019,-561.0053 324.7501,-561.0053 324.7501,-561.0053 330.7501,-561.0053 336.7501,-567.0053 336.7501,-573.0053 336.7501,-573.0053 336.7501,-585.0053 336.7501,-585.0053 336.7501,-591.0053 330.7501,-597.0053 324.7501,-597.0053"/>
<text text-anchor="middle" x="197.476" y="-573.0053" font-family="Arial" font-size="20.00" fill="#000000">Vehicle Manufacture Records</text>
<text text-anchor="middle" x="45.561" y="-543.0053" font-family="Arial" font-size="20.00" fill="#000000">lv0</text>
</g>
<!-- sensor_camera -->
<g id="sensor_camera" class="node">
<title>sensor_camera</title>
<path fill="none" stroke="#000000" d="M844.151,-759.0053C844.151,-759.0053 733.355,-759.0053 733.355,-759.0053 727.355,-759.0053 721.355,-753.0053 721.355,-747.0053 721.355,-747.0053 721.355,-735.0053 721.355,-735.0053 721.355,-729.0053 727.355,-723.0053 733.355,-723.0053 733.355,-723.0053 844.151,-723.0053 844.151,-723.0053 850.151,-723.0053 856.151,-729.0053 856.151,-735.0053 856.151,-735.0053 856.151,-747.0053 856.151,-747.0053 856.151,-753.0053 850.151,-759.0053 844.151,-759.0053"/>
<text text-anchor="middle" x="788.753" y="-735.0053" font-family="Arial" font-size="20.00" fill="#000000">Camera Data</text>
<text text-anchor="middle" x="708.526" y="-729.0053" font-family="Arial" font-size="20.00" fill="#000000">lv1</text>
</g>
<!-- sensor_tire -->
<g id="sensor_tire" class="node">
<title>sensor_tire</title>
<path fill="none" stroke="#000000" d="M830.9933,-1029.0053C830.9933,-1029.0053 746.5127,-1029.0053 746.5127,-1029.0053 740.5127,-1029.0053 734.5127,-1023.0053 734.5127,-1017.0053 734.5127,-1017.0053 734.5127,-1005.0053 734.5127,-1005.0053 734.5127,-999.0053 740.5127,-993.0053 746.5127,-993.0053 746.5127,-993.0053 830.9933,-993.0053 830.9933,-993.0053 836.9933,-993.0053 842.9933,-999.0053 842.9933,-1005.0053 842.9933,-1005.0053 842.9933,-1017.0053 842.9933,-1017.0053 842.9933,-1023.0053 836.9933,-1029.0053 830.9933,-1029.0053"/>
<text text-anchor="middle" x="788.753" y="-1005.0053" font-family="Arial" font-size="20.00" fill="#000000">Lidar Data</text>
<text text-anchor="middle" x="721.855" y="-999.0053" font-family="Arial" font-size="20.00" fill="#000000">lv1</text>
</g>
<!-- lab_test_data_ingestion -->
<g id="lab_test_data_ingestion" class="node">
<title>lab_test_data_ingestion</title>
<path fill="none" stroke="#000000" d="M299.7742,-219.0053C299.7742,-219.0053 95.1778,-219.0053 95.1778,-219.0053 89.1778,-219.0053 83.1778,-213.0053 83.1778,-207.0053 83.1778,-207.0053 83.1778,-195.0053 83.1778,-195.0053 83.1778,-189.0053 89.1778,-183.0053 95.1778,-183.0053 95.1778,-183.0053 299.7742,-183.0053 299.7742,-183.0053 305.7742,-183.0053 311.7742,-189.0053 311.7742,-195.0053 311.7742,-195.0053 311.7742,-207.0053 311.7742,-207.0053 311.7742,-213.0053 305.7742,-219.0053 299.7742,-219.0053"/>
<text text-anchor="middle" x="197.476" y="-195.0053" font-family="Arial" font-size="20.00" fill="#000000">Lab Test Data Ingestion</text>
<text text-anchor="middle" x="70.549" y="-189.0053" font-family="Arial" font-size="20.00" fill="#000000">lv0</text>
</g>
<!-- customer_profile -->
<g id="customer_profile" class="node">
<title>customer_profile</title>
<path fill="none" stroke="#000000" d="M1431.523,-489.0053C1431.523,-489.0053 1290.743,-489.0053 1290.743,-489.0053 1284.743,-489.0053 1278.743,-483.0053 1278.743,-477.0053 1278.743,-477.0053 1278.743,-465.0053 1278.743,-465.0053 1278.743,-459.0053 1284.743,-453.0053 1290.743,-453.0053 1290.743,-453.0053 1431.523,-453.0053 1431.523,-453.0053 1437.523,-453.0053 1443.523,-459.0053 1443.523,-465.0053 1443.523,-465.0053 1443.523,-477.0053 1443.523,-477.0053 1443.523,-483.0053 1437.523,-489.0053 1431.523,-489.0053"/>
<text text-anchor="middle" x="1361.133" y="-465.0053" font-family="Arial" font-size="20.00" fill="#000000">Customer Profile</text>
<text text-anchor="middle" x="1265.91" y="-435.0053" font-family="Arial" font-size="20.00" fill="#000000">lv1</text>
</g>
<!-- dmv_record_fetch -->
<g id="dmv_record_fetch" class="node">
<title>dmv_record_fetch</title>
<path fill="none" stroke="#000000" d="M278.488,-435.0053C278.488,-435.0053 116.464,-435.0053 116.464,-435.0053 110.464,-435.0053 104.464,-429.0053 104.464,-423.0053 104.464,-423.0053 104.464,-411.0053 104.464,-411.0053 104.464,-405.0053 110.464,-399.0053 116.464,-399.0053 116.464,-399.0053 278.488,-399.0053 278.488,-399.0053 284.488,-399.0053 290.488,-405.0053 290.488,-411.0053 290.488,-411.0053 290.488,-423.0053 290.488,-423.0053 290.488,-429.0053 284.488,-435.0053 278.488,-435.0053"/>
<text text-anchor="middle" x="197.476" y="-411.0053" font-family="Arial" font-size="20.00" fill="#000000">DMV Record Fetch</text>
<text text-anchor="middle" x="91.692" y="-405.0053" font-family="Arial" font-size="20.00" fill="#000000">lv0</text>
</g>
<!-- sensor_bms -->
<g id="sensor_bms" class="node">
<title>sensor_bms</title>
<path fill="none" stroke="#000000" d="M830.3771,-597.0053C830.3771,-597.0053 747.1289,-597.0053 747.1289,-597.0053 741.1289,-597.0053 735.1289,-591.0053 735.1289,-585.0053 735.1289,-585.0053 735.1289,-573.0053 735.1289,-573.0053 735.1289,-567.0053 741.1289,-561.0053 747.1289,-561.0053 747.1289,-561.0053 830.3771,-561.0053 830.3771,-561.0053 836.3771,-561.0053 842.3771,-567.0053 842.3771,-573.0053 842.3771,-573.0053 842.3771,-585.0053 842.3771,-585.0053 842.3771,-591.0053 836.3771,-597.0053 830.3771,-597.0053"/>
<text text-anchor="middle" x="788.753" y="-573.0053" font-family="Arial" font-size="20.00" fill="#000000">BMS Data</text>
<text text-anchor="middle" x="722.413" y="-567.0053" font-family="Arial" font-size="20.00" fill="#000000">lv1</text>
</g>
<!-- sensor_gyroscope -->
<g id="sensor_gyroscope" class="node">
<title>sensor_gyroscope</title>
<path fill="none" stroke="#000000" d="M857.2317,-975.0053C857.2317,-975.0053 720.2743,-975.0053 720.2743,-975.0053 714.2743,-975.0053 708.2743,-969.0053 708.2743,-963.0053 708.2743,-963.0053 708.2743,-951.0053 708.2743,-951.0053 708.2743,-945.0053 714.2743,-939.0053 720.2743,-939.0053 720.2743,-939.0053 857.2317,-939.0053 857.2317,-939.0053 863.2317,-939.0053 869.2317,-945.0053 869.2317,-951.0053 869.2317,-951.0053 869.2317,-963.0053 869.2317,-963.0053 869.2317,-969.0053 863.2317,-975.0053 857.2317,-975.0053"/>
<text text-anchor="middle" x="788.753" y="-951.0053" font-family="Arial" font-size="20.00" fill="#000000">Gyroscope Data</text>
<text text-anchor="middle" x="695.736" y="-921.0053" font-family="Arial" font-size="20.00" fill="#000000">lv1</text>
</g>
<!-- transaction_data_cleansing -->
<g id="transaction_data_cleansing" class="node">
<title>transaction_data_cleansing</title>
<path fill="none" stroke="#000000" d="M907.9672,-543.0053C907.9672,-543.0053 669.5388,-543.0053 669.5388,-543.0053 663.5388,-543.0053 657.5388,-537.0053 657.5388,-531.0053 657.5388,-531.0053 657.5388,-519.0053 657.5388,-519.0053 657.5388,-513.0053 663.5388,-507.0053 669.5388,-507.0053 669.5388,-507.0053 907.9672,-507.0053 907.9672,-507.0053 913.9672,-507.0053 919.9672,-513.0053 919.9672,-519.0053 919.9672,-519.0053 919.9672,-531.0053 919.9672,-531.0053 919.9672,-537.0053 913.9672,-543.0053 907.9672,-543.0053"/>
<text text-anchor="middle" x="788.753" y="-519.0053" font-family="Arial" font-size="20.00" fill="#000000">Transaction Data Cleansing</text>
<text text-anchor="middle" x="644.618" y="-489.0053" font-family="Arial" font-size="20.00" fill="#000000">lv1</text>
</g>
</g>
</svg>
