<?xml version="1.0" encoding="UTF-8" standalone="no"?>
<!DOCTYPE svg PUBLIC "-//W3C//DTD SVG 1.1//EN"
 "http://www.w3.org/Graphics/SVG/1.1/DTD/svg11.dtd">
<!-- Generated by graphviz version 2.40.1 (20161225.0304)
 -->
<!-- Pages: 1 -->
<svg width="1349pt" height="810pt"
 viewBox="0.00 0.00 1349.31 810.00" xmlns="http://www.w3.org/2000/svg" xmlns:xlink="http://www.w3.org/1999/xlink">
<g id="RootGraph" class="graph" transform="scale(.4226 .4226) rotate(0) translate(216 1700.4858)">
<polygon fill="#323237" stroke="transparent" points="-216,216 -216,-1700.4858 2976.5,-1700.4858 2976.5,216 -216,216"/>
<text text-anchor="middle" x="611.432" y="-1372.4858" font-family="Arial" font-size="120.00" fill="#f3f3f3">Task Lineage Diagram</text>
<g id="lv3" class="cluster">
<title>cluster_lv3</title>
</g>
<g id="lv2" class="cluster">
<title>cluster_lv2</title>
</g>
<g id="lv1" class="cluster">
<title>cluster_lv1</title>
</g>
<g id="lv0" class="cluster">
<title>cluster_lv0</title>
</g>
<!-- weather&#45;&gt;sensor_temperature -->
<g id="edge65" class="edge">
<title>weather&#45;&gt;sensor_temperature</title>
<g id="a_edge65"><a xlink:title="weather&#45;&gt;sensor_temperature">
<path fill="none" stroke="#737d82" d="M243.3409,-794.8749C281.3542,-794.1542 335.7122,-788.673 377.396,-766.4858 535.3996,-682.3848 485.5725,-541.5968 649.396,-469.4858 759.5172,-421.0132 801.7233,-448.0182 920.11,-469.4858 1054.6204,-493.8772 1076.2393,-541.4564 1208.11,-577.4858 1225.3462,-582.195 1243.9068,-586.2748 1261.9527,-589.7357"/>
<polygon fill="#737d82" stroke="#737d82" points="1261.4412,-593.2006 1271.9136,-591.5947 1262.7255,-586.3194 1261.4412,-593.2006"/>
</a>
</g>
</g>
<!-- weather&#45;&gt;sensor_humidity -->
<g id="edge14" class="edge">
<title>weather&#45;&gt;sensor_humidity</title>
<g id="a_edge14"><a xlink:title="weather&#45;&gt;sensor_humidity">
<path fill="none" stroke="#737d82" d="M243.3263,-794.6332C280.6048,-796.9008 333.9509,-803.2285 377.396,-820.4858 514.2056,-874.8296 513.7697,-952.2527 649.396,-1009.4858 667.7511,-1017.2315 688.4106,-1022.7777 708.0886,-1026.7411"/>
<polygon fill="#737d82" stroke="#737d82" points="707.4849,-1030.189 717.9625,-1028.6174 708.7917,-1023.312 707.4849,-1030.189"/>
</a>
</g>
</g>
<!-- weather&#45;&gt;fleet_optimization_model -->
<g id="edge28" class="edge">
<title>weather&#45;&gt;fleet_optimization_model</title>
<g id="a_edge28"><a xlink:title="weather&#45;&gt;fleet_optimization_model">
<path fill="none" stroke="#737d82" d="M243.2658,-791.5328C281.4828,-791.8843 336.1673,-797.1418 377.396,-820.4858 542.7906,-914.1334 477.4917,-1069.4046 649.396,-1150.4858 749.0905,-1197.5082 1055.5158,-1178.9889 1232.1008,-1163.4439"/>
<polygon fill="#737d82" stroke="#737d82" points="1232.585,-1166.9147 1242.2355,-1162.5424 1231.9647,-1159.9422 1232.585,-1166.9147"/>
</a>
</g>
</g>
<!-- sensor_gps&#45;&gt;fleet_optimization_model -->
<g id="edge27" class="edge">
<title>sensor_gps&#45;&gt;fleet_optimization_model</title>
<g id="a_edge27"><a xlink:title="sensor_gps&#45;&gt;fleet_optimization_model">
<path fill="none" stroke="#737d82" d="M841.861,-714.7796C867.156,-717.9378 896.8795,-724.8201 920.11,-739.4858 1099.6021,-852.8012 1028.1025,-1007.991 1208.11,-1120.4858 1215.8654,-1125.3325 1224.2386,-1129.4225 1232.9316,-1132.8711"/>
<polygon fill="#737d82" stroke="#737d82" points="1231.8819,-1136.2139 1242.4757,-1136.3668 1234.2895,-1129.641 1231.8819,-1136.2139"/>
</a>
</g>
</g>
<!-- sensor_bms&#45;&gt;sensor_temperature -->
<g id="edge63" class="edge">
<title>sensor_bms&#45;&gt;sensor_temperature</title>
<g id="a_edge63"><a xlink:title="sensor_bms&#45;&gt;sensor_temperature">
<path fill="none" stroke="#737d82" d="M842.3439,-604.4858C938.1017,-604.4858 1139.9317,-604.4858 1261.6976,-604.4858"/>
<polygon fill="#737d82" stroke="#737d82" points="1261.7731,-607.9859 1271.7731,-604.4858 1261.773,-600.9859 1261.7731,-607.9859"/>
</a>
</g>
</g>
<!-- sensor_bms&#45;&gt;fleet_optimization_model -->
<g id="edge23" class="edge">
<title>sensor_bms&#45;&gt;fleet_optimization_model</title>
<g id="a_edge23"><a xlink:title="sensor_bms&#45;&gt;fleet_optimization_model">
<path fill="none" stroke="#737d82" d="M842.6293,-605.6368C868.1062,-608.5245 897.7608,-615.5092 920.11,-631.4858 1125.2987,-778.167 1002.2539,-974.7428 1208.11,-1120.4858 1215.8174,-1125.9426 1224.2656,-1130.4692 1233.1096,-1134.218"/>
<polygon fill="#737d82" stroke="#737d82" points="1231.866,-1137.4897 1242.4547,-1137.8494 1234.4014,-1130.9649 1231.866,-1137.4897"/>
</a>
</g>
</g>
<!-- sensor_temperature&#45;&gt;fleet_optimization_model -->
<g id="edge22" class="edge">
<title>sensor_temperature&#45;&gt;fleet_optimization_model</title>
<g id="a_edge22"><a xlink:title="sensor_temperature&#45;&gt;fleet_optimization_model">
<path fill="none" stroke="#737d82" d="M1361.133,-622.6147C1361.133,-789.0724 1361.133,-955.5301 1361.133,-1121.9879"/>
<polygon fill="#737d82" stroke="#737d82" points="1357.6331,-1122.4433 1361.133,-1132.4433 1364.6331,-1122.4434 1357.6331,-1122.4433"/>
</a>
</g>
</g>
<!-- social_media_discussions&#45;&gt;social_media_sentiment_analysis -->
<g id="edge10" class="edge">
<title>social_media_discussions&#45;&gt;social_media_sentiment_analysis</title>
<g id="a_edge10"><a xlink:title="social_media_discussions&#45;&gt;social_media_sentiment_analysis">
<path fill="none" stroke="#737d82" d="M910.1401,-1217.9409C993.8807,-1216.1853 1106.1782,-1213.831 1197.7648,-1211.9108"/>
<polygon fill="#737d82" stroke="#737d82" points="1198.0505,-1215.4057 1207.9749,-1211.6968 1197.9037,-1208.4072 1198.0505,-1215.4057"/>
</a>
</g>
</g>
<!-- social_media_discussions&#45;&gt;customer_sentiment_analysis -->
<g id="edge40" class="edge">
<title>social_media_discussions&#45;&gt;customer_sentiment_analysis</title>
<g id="a_edge40"><a xlink:title="social_media_discussions&#45;&gt;customer_sentiment_analysis">
<path fill="none" stroke="#737d82" d="M910.3211,-1224.9792C994.0339,-1228.0378 1107.8132,-1232.1248 1208.11,-1235.4858 1411.2157,-1242.2919 1645.8735,-1249.5144 1794.5744,-1254.0115"/>
<polygon fill="#737d82" stroke="#737d82" points="1794.5857,-1257.5133 1804.6869,-1254.3171 1794.7972,-1250.5165 1794.5857,-1257.5133"/>
</a>
</g>
</g>
<!-- customer_service_logs_import&#45;&gt;sales_data_cleansing -->
<g id="edge3" class="edge">
<title>customer_service_logs_import&#45;&gt;sales_data_cleansing</title>
<g id="a_edge3"><a xlink:title="customer_service_logs_import&#45;&gt;sales_data_cleansing">
<path fill="none" stroke="#737d82" d="M327.9535,-451.4711C344.6373,-448.7084 361.4493,-445.6967 377.396,-442.4858 615.7599,-394.4907 683.9363,-315.6682 920.11,-373.4858 1060.2911,-407.8035 1071.4559,-477.0734 1208.11,-523.4858 1220.4249,-527.6684 1233.5285,-531.2332 1246.687,-534.2645"/>
<polygon fill="#737d82" stroke="#737d82" points="1246.2292,-537.7475 1256.748,-536.48 1247.7347,-530.9113 1246.2292,-537.7475"/>
</a>
</g>
</g>
<!-- customer_service_logs_import&#45;&gt;customer_profile -->
<g id="edge42" class="edge">
<title>customer_service_logs_import&#45;&gt;customer_profile</title>
<g id="a_edge42"><a xlink:title="customer_service_logs_import&#45;&gt;customer_profile">
<path fill="none" stroke="#737d82" d="M340.6384,-451.5697C353.1628,-448.9284 365.5648,-445.9164 377.396,-442.4858 504.2996,-405.6884 520.1062,-349.7385 649.396,-322.4858 767.1263,-297.6698 802.9347,-295.1688 920.11,-322.4858 1059.0961,-354.8875 1073.1954,-417.9555 1208.11,-464.4858 1227.4037,-471.1399 1248.5656,-476.6459 1268.8336,-481.1041"/>
<polygon fill="#737d82" stroke="#737d82" points="1268.1892,-484.5453 1278.6994,-483.209 1269.6498,-477.6994 1268.1892,-484.5453"/>
</a>
</g>
</g>
<!-- customer_service_logs_import&#45;&gt;transaction_data_cleansing -->
<g id="edge35" class="edge">
<title>customer_service_logs_import&#45;&gt;transaction_data_cleansing</title>
<g id="a_edge35"><a xlink:title="customer_service_logs_import&#45;&gt;transaction_data_cleansing">
<path fill="none" stroke="#737d82" d="M329.0667,-487.5126C423.4744,-500.4457 550.5398,-517.8526 647.1521,-531.0877"/>
<polygon fill="#737d82" stroke="#737d82" points="646.9094,-534.587 657.292,-532.4767 647.8596,-527.6518 646.9094,-534.587"/>
</a>
</g>
</g>
<!-- fab_pipeline_data_sync&#45;&gt;predictive_maintenance_model -->
<g id="edge30" class="edge">
<title>fab_pipeline_data_sync&#45;&gt;predictive_maintenance_model</title>
<g id="a_edge30"><a xlink:title="fab_pipeline_data_sync&#45;&gt;predictive_maintenance_model">
<path fill="none" stroke="#737d82" d="M310.102,-237.5016C610.4916,-195.9509 1414.7163,-92.1785 1514.156,-157.4858 1868.8446,-390.4284 1932.3211,-985.395 1942.3475,-1122.161"/>
<polygon fill="#737d82" stroke="#737d82" points="1938.8636,-1122.515 1943.0492,-1132.248 1945.8467,-1122.0292 1938.8636,-1122.515"/>
</a>
</g>
</g>
<!-- sensor_data_collection&#45;&gt;sensor_gps -->
<g id="edge59" class="edge">
<title>sensor_data_collection&#45;&gt;sensor_gps</title>
<g id="a_edge59"><a xlink:title="sensor_data_collection&#45;&gt;sensor_gps">
<path fill="none" stroke="#737d82" d="M307.9971,-734.439C430.9943,-728.8225 625.5227,-719.9395 725.2298,-715.3865"/>
<polygon fill="#737d82" stroke="#737d82" points="725.6219,-718.8724 735.4518,-714.9197 725.3025,-711.8796 725.6219,-718.8724"/>
</a>
</g>
</g>
<!-- sensor_data_collection&#45;&gt;sensor_bms -->
<g id="edge60" class="edge">
<title>sensor_data_collection&#45;&gt;sensor_bms</title>
<g id="a_edge60"><a xlink:title="sensor_data_collection&#45;&gt;sensor_bms">
<path fill="none" stroke="#737d82" d="M307.8255,-725.431C330.9222,-721.7897 355.0442,-717.4652 377.396,-712.4858 500.5133,-685.0586 526.8881,-661.518 649.396,-631.4858 673.8996,-625.4789 701.0913,-619.9584 724.9026,-615.496"/>
<polygon fill="#737d82" stroke="#737d82" points="725.6861,-618.9105 734.8827,-613.65 724.4129,-612.0273 725.6861,-618.9105"/>
</a>
</g>
</g>
<!-- sensor_data_collection&#45;&gt;sensor_temperature -->
<g id="edge62" class="edge">
<title>sensor_data_collection&#45;&gt;sensor_temperature</title>
<g id="a_edge62"><a xlink:title="sensor_data_collection&#45;&gt;sensor_temperature">
<path fill="none" stroke="#737d82" d="M307.9826,-734.2795C331.7773,-730.0889 356.1434,-723.3035 377.396,-712.4858 530.8813,-634.3609 490.523,-502.9735 649.396,-436.4858 760.3859,-390.037 802.8966,-409.3327 920.11,-436.4858 1058.9504,-468.6489 1072.6037,-533.3367 1208.11,-577.4858 1225.2072,-583.0562 1243.7753,-587.5563 1261.8892,-591.1658"/>
<polygon fill="#737d82" stroke="#737d82" points="1261.4138,-594.6383 1271.8935,-593.0806 1262.7298,-587.7631 1261.4138,-594.6383"/>
</a>
</g>
</g>
<!-- sensor_data_collection&#45;&gt;sensor_gyroscope -->
<g id="edge71" class="edge">
<title>sensor_data_collection&#45;&gt;sensor_gyroscope</title>
<g id="a_edge71"><a xlink:title="sensor_data_collection&#45;&gt;sensor_gyroscope">
<path fill="none" stroke="#737d82" d="M308.0487,-747.9383C331.4757,-751.9609 355.6735,-757.8571 377.396,-766.4858 514.2056,-820.8296 513.7697,-898.2527 649.396,-955.4858 664.6261,-961.9128 681.4427,-966.8254 697.9687,-970.5761"/>
<polygon fill="#737d82" stroke="#737d82" points="697.6933,-974.0963 708.2041,-972.7644 699.1569,-967.2509 697.6933,-974.0963"/>
</a>
</g>
</g>
<!-- sensor_data_collection&#45;&gt;sensor_tire -->
<g id="edge72" class="edge">
<title>sensor_data_collection&#45;&gt;sensor_tire</title>
<g id="a_edge72"><a xlink:title="sensor_data_collection&#45;&gt;sensor_tire">
<path fill="none" stroke="#737d82" d="M307.8109,-744.0312C331.7397,-748.245 356.2056,-755.2067 377.396,-766.4858 535.3996,-850.5868 493.2116,-976.0527 649.396,-1063.4858 672.0756,-1076.182 699.7214,-1082.9997 724.3918,-1086.6276"/>
<polygon fill="#737d82" stroke="#737d82" points="724.0258,-1090.1096 734.3987,-1087.9525 724.9446,-1083.1702 724.0258,-1090.1096"/>
</a>
</g>
</g>
<!-- sensor_data_collection&#45;&gt;sensor_humidity -->
<g id="edge13" class="edge">
<title>sensor_data_collection&#45;&gt;sensor_humidity</title>
<g id="a_edge13"><a xlink:title="sensor_data_collection&#45;&gt;sensor_humidity">
<path fill="none" stroke="#737d82" d="M307.9594,-745.7898C331.6322,-749.9289 355.9534,-756.4159 377.396,-766.4858 524.1265,-835.3936 504.16,-937.4815 649.396,-1009.4858 667.4342,-1018.4287 688.152,-1024.4135 708.002,-1028.4174"/>
<polygon fill="#737d82" stroke="#737d82" points="707.4986,-1031.8839 717.9716,-1030.2819 708.7855,-1025.0032 707.4986,-1031.8839"/>
</a>
</g>
</g>
<!-- sensor_data_collection&#45;&gt;sensor_motor -->
<g id="edge15" class="edge">
<title>sensor_data_collection&#45;&gt;sensor_motor</title>
<g id="a_edge15"><a xlink:title="sensor_data_collection&#45;&gt;sensor_motor">
<path fill="none" stroke="#737d82" d="M307.9971,-724.3453C429.3413,-707.7222 620.3071,-681.5615 721.1589,-667.7456"/>
<polygon fill="#737d82" stroke="#737d82" points="721.7919,-671.1917 731.2243,-666.3668 720.8418,-664.2565 721.7919,-671.1917"/>
</a>
</g>
</g>
<!-- sensor_data_collection&#45;&gt;sensor_lidar -->
<g id="edge34" class="edge">
<title>sensor_data_collection&#45;&gt;sensor_lidar</title>
<g id="a_edge34"><a xlink:title="sensor_data_collection&#45;&gt;sensor_lidar">
<path fill="none" stroke="#737d82" d="M307.8255,-753.5407C330.9222,-757.1819 355.0442,-761.5064 377.396,-766.4858 500.5133,-793.913 526.8881,-817.4536 649.396,-847.4858 673.7949,-853.4671 700.859,-858.966 724.5971,-863.4183"/>
<polygon fill="#737d82" stroke="#737d82" points="724.0794,-866.8819 734.5495,-865.2608 725.3537,-859.9988 724.0794,-866.8819"/>
</a>
</g>
</g>
<!-- sensor_data_collection&#45;&gt;sensor_accelerometer -->
<g id="edge45" class="edge">
<title>sensor_data_collection&#45;&gt;sensor_accelerometer</title>
<g id="a_edge45"><a xlink:title="sensor_data_collection&#45;&gt;sensor_accelerometer">
<path fill="none" stroke="#737d82" d="M307.9971,-754.6263C415.1771,-769.309 576.6736,-791.4327 682.4127,-805.9181"/>
<polygon fill="#737d82" stroke="#737d82" points="682.0853,-809.4058 692.4678,-807.2955 683.0354,-802.4706 682.0853,-809.4058"/>
</a>
</g>
</g>
<!-- sensor_data_collection&#45;&gt;sensor_camera -->
<g id="edge50" class="edge">
<title>sensor_data_collection&#45;&gt;sensor_camera</title>
<g id="a_edge50"><a xlink:title="sensor_data_collection&#45;&gt;sensor_camera">
<path fill="none" stroke="#737d82" d="M307.9971,-744.5326C425.4204,-749.8946 608.0386,-758.2337 711.1057,-762.9401"/>
<polygon fill="#737d82" stroke="#737d82" points="710.9827,-766.4381 721.132,-763.398 711.3021,-759.4454 710.9827,-766.4381"/>
</a>
</g>
</g>
<!-- sensor_data_collection&#45;&gt;sensor_gear -->
<g id="edge51" class="edge">
<title>sensor_data_collection&#45;&gt;sensor_gear</title>
<g id="a_edge51"><a xlink:title="sensor_data_collection&#45;&gt;sensor_gear">
<path fill="none" stroke="#737d82" d="M308.1316,-750.5426C331.3204,-754.3965 355.4013,-759.5655 377.396,-766.4858 506.1339,-806.9912 521.5462,-858.2591 649.396,-901.4858 673.3982,-909.6011 700.5984,-915.5528 724.5565,-919.77"/>
<polygon fill="#737d82" stroke="#737d82" points="724.1629,-923.2531 734.607,-921.4723 725.332,-916.3514 724.1629,-923.2531"/>
</a>
</g>
</g>
<!-- vehicle_maintenance_records_import&#45;&gt;maintenance_insights -->
<g id="edge2" class="edge">
<title>vehicle_maintenance_records_import&#45;&gt;maintenance_insights</title>
<g id="a_edge2"><a xlink:title="vehicle_maintenance_records_import&#45;&gt;maintenance_insights">
<path fill="none" stroke="#737d82" d="M331.9808,-289.4707C347.3566,-286.7696 362.7572,-283.7729 377.396,-280.4858 500.5913,-252.823 525.1811,-221.135 649.396,-198.4858 1027.8646,-129.4764 1132.2928,-113.7818 1514.156,-160.4858 1774.0846,-192.2765 1880.6978,-139.9118 2085.986,-302.4858 2299.4697,-471.5501 2143.9569,-689.8117 2365.986,-847.4858 2383.3927,-859.8472 2403.9407,-867.7587 2425.0286,-872.6622"/>
<polygon fill="#737d82" stroke="#737d82" points="2424.5723,-876.1426 2435.078,-874.7713 2426.0101,-869.2919 2424.5723,-876.1426"/>
</a>
</g>
</g>
<!-- vehicle_maintenance_records_import&#45;&gt;fleet_optimization_model -->
<g id="edge29" class="edge">
<title>vehicle_maintenance_records_import&#45;&gt;fleet_optimization_model</title>
<g id="a_edge29"><a xlink:title="vehicle_maintenance_records_import&#45;&gt;fleet_optimization_model">
<path fill="none" stroke="#737d82" d="M365.1264,-325.6667C369.405,-328.3246 373.509,-331.2561 377.396,-334.4858 661.7168,-570.7264 352.868,-899.7619 649.396,-1120.4858 672.3267,-1137.5545 1033.4617,-1145.6173 1232.2645,-1148.7791"/>
<polygon fill="#737d82" stroke="#737d82" points="1232.4306,-1152.282 1242.4844,-1148.9396 1232.5406,-1145.2829 1232.4306,-1152.282"/>
</a>
</g>
</g>
<!-- vehicle_maintenance_records_import&#45;&gt;predictive_maintenance_model -->
<g id="edge31" class="edge">
<title>vehicle_maintenance_records_import&#45;&gt;predictive_maintenance_model</title>
<g id="a_edge31"><a xlink:title="vehicle_maintenance_records_import&#45;&gt;predictive_maintenance_model">
<path fill="none" stroke="#737d82" d="M318.3463,-289.4731C440.903,-271.3536 617.0122,-245.7675 649.396,-243.4858 1032.9566,-216.4611 1192.5841,-58.6765 1514.156,-269.4858 1832.9421,-478.4689 1922.9937,-996.125 1940.5365,-1122.3806"/>
<polygon fill="#737d82" stroke="#737d82" points="1937.0833,-1122.9632 1941.8895,-1132.4052 1944.0204,-1122.0269 1937.0833,-1122.9632"/>
</a>
</g>
</g>
<!-- ig_crawler&#45;&gt;social_media_discussions -->
<g id="edge68" class="edge">
<title>ig_crawler&#45;&gt;social_media_discussions</title>
<g id="a_edge68"><a xlink:title="ig_crawler&#45;&gt;social_media_discussions">
<path fill="none" stroke="#737d82" d="M253.0728,-1125.3349C288.6658,-1130.482 335.8073,-1137.5255 377.396,-1144.4858 482.8788,-1162.1396 603.1265,-1184.632 686.2467,-1200.5543"/>
<polygon fill="#737d82" stroke="#737d82" points="685.7155,-1204.0162 696.1958,-1202.4628 687.0342,-1197.1415 685.7155,-1204.0162"/>
</a>
</g>
</g>
<!-- sensor_gyroscope&#45;&gt;fleet_optimization_model -->
<g id="edge26" class="edge">
<title>sensor_gyroscope&#45;&gt;fleet_optimization_model</title>
<g id="a_edge26"><a xlink:title="sensor_gyroscope&#45;&gt;fleet_optimization_model">
<path fill="none" stroke="#737d82" d="M869.1567,-996.8186C886.1125,-1000.4517 903.8013,-1004.7025 920.11,-1009.4858 1051.7429,-1048.0936 1076.3022,-1082.4793 1208.11,-1120.4858 1220.4435,-1124.0422 1233.4576,-1127.3102 1246.4771,-1130.2749"/>
<polygon fill="#737d82" stroke="#737d82" points="1245.9022,-1133.7324 1256.4231,-1132.4825 1247.4191,-1126.8987 1245.9022,-1133.7324"/>
</a>
</g>
</g>
<!-- sensor_tire&#45;&gt;fleet_optimization_model -->
<g id="edge19" class="edge">
<title>sensor_tire&#45;&gt;fleet_optimization_model</title>
<g id="a_edge19"><a xlink:title="sensor_tire&#45;&gt;fleet_optimization_model">
<path fill="none" stroke="#737d82" d="M843.1171,-1096.1846C931.737,-1105.4742 1109.7137,-1124.1307 1232.1047,-1136.9604"/>
<polygon fill="#737d82" stroke="#737d82" points="1231.9814,-1140.4665 1242.2919,-1138.0282 1232.7113,-1133.5047 1231.9814,-1140.4665"/>
</a>
</g>
</g>
<!-- fb_crawler&#45;&gt;social_media_discussions -->
<g id="edge67" class="edge">
<title>fb_crawler&#45;&gt;social_media_discussions</title>
<g id="a_edge67"><a xlink:title="fb_crawler&#45;&gt;social_media_discussions">
<path fill="none" stroke="#737d82" d="M255.5794,-1069.2642C291.1053,-1073.5211 337.2782,-1080.3537 377.396,-1090.4858 501.98,-1121.9506 526.111,-1152.2639 649.396,-1188.4858 663.3289,-1192.5794 678.1711,-1196.4731 692.7796,-1200.0445"/>
<polygon fill="#737d82" stroke="#737d82" points="692.3006,-1203.529 702.8417,-1202.464 693.9372,-1196.723 692.3006,-1203.529"/>
</a>
</g>
</g>
<!-- sales_data_import&#45;&gt;sales_data_cleansing -->
<g id="edge4" class="edge">
<title>sales_data_import&#45;&gt;sales_data_cleansing</title>
<g id="a_edge4"><a xlink:title="sales_data_import&#45;&gt;sales_data_cleansing">
<path fill="none" stroke="#737d82" d="M285.9258,-570.6426C315.551,-566.6686 348.4037,-560.3929 377.396,-550.4858 508.4405,-505.7061 515.3828,-433.3905 649.396,-398.4858 765.8289,-368.16 802.3058,-374.023 920.11,-398.4858 1056.7319,-426.8562 1074.4829,-483.3084 1208.11,-523.4858 1220.4621,-527.1997 1233.538,-530.4681 1246.6365,-533.3279"/>
<polygon fill="#737d82" stroke="#737d82" points="1246.1391,-536.7999 1256.6458,-535.4358 1247.5817,-529.9501 1246.1391,-536.7999"/>
</a>
</g>
</g>
<!-- sales_data_import&#45;&gt;transaction_data_cleansing -->
<g id="edge36" class="edge">
<title>sales_data_import&#45;&gt;transaction_data_cleansing</title>
<g id="a_edge36"><a xlink:title="sales_data_import&#45;&gt;transaction_data_cleansing">
<path fill="none" stroke="#737d82" d="M285.6767,-573.4582C381.2238,-569.0952 535.0428,-562.0712 647.4706,-556.9373"/>
<polygon fill="#737d82" stroke="#737d82" points="647.7044,-560.4304 657.5343,-556.4778 647.385,-553.4377 647.7044,-560.4304"/>
</a>
</g>
</g>
<!-- sales_data_cleansing&#45;&gt;sales_forecast -->
<g id="edge9" class="edge">
<title>sales_data_cleansing&#45;&gt;sales_forecast</title>
<g id="a_edge9"><a xlink:title="sales_data_cleansing&#45;&gt;sales_forecast">
<path fill="none" stroke="#737d82" d="M1465.4459,-555.2454C1482.9288,-559.7186 1499.9708,-566.7254 1514.156,-577.4858 1749.82,-756.2527 1567.6916,-997.1485 1802.156,-1177.4858 1818.4714,-1190.0347 1838.9113,-1197.3126 1859.1543,-1201.4093"/>
<polygon fill="#737d82" stroke="#737d82" points="1858.598,-1204.8652 1869.057,-1203.174 1859.8262,-1197.9738 1858.598,-1204.8652"/>
</a>
</g>
</g>
<!-- sales_forecast&#45;&gt;sales_dashboard -->
<g id="edge46" class="edge">
<title>sales_forecast&#45;&gt;sales_dashboard</title>
<g id="a_edge46"><a xlink:title="sales_forecast&#45;&gt;sales_dashboard">
<path fill="none" stroke="#737d82" d="M2019.0936,-1195.2931C2041.093,-1191.2504 2064.8947,-1185.5263 2085.986,-1177.4858 2221.5923,-1125.7898 2229.1493,-1057.8308 2365.986,-1009.4858 2381.6066,-1003.967 2398.3114,-999.5714 2415.1162,-996.0712"/>
<polygon fill="#737d82" stroke="#737d82" points="2415.8845,-999.4872 2425.0147,-994.1122 2414.5254,-992.6204 2415.8845,-999.4872"/>
</a>
</g>
</g>
<!-- sales_forecast&#45;&gt;kpi_benchmarking -->
<g id="edge56" class="edge">
<title>sales_forecast&#45;&gt;kpi_benchmarking</title>
<g id="a_edge56"><a xlink:title="sales_forecast&#45;&gt;kpi_benchmarking">
<path fill="none" stroke="#737d82" d="M2018.8881,-1207.7695C2128.9851,-1212.6017 2334.9001,-1221.6394 2458.2883,-1227.0549"/>
<polygon fill="#737d82" stroke="#737d82" points="2458.351,-1230.5609 2468.4949,-1227.5029 2458.658,-1223.5676 2458.351,-1230.5609"/>
</a>
</g>
</g>
<!-- social_media_sentiment_analysis&#45;&gt;public_relations -->
<g id="edge58" class="edge">
<title>social_media_sentiment_analysis&#45;&gt;public_relations</title>
<g id="a_edge58"><a xlink:title="social_media_sentiment_analysis&#45;&gt;public_relations">
<path fill="none" stroke="#737d82" d="M1450.5399,-1190.42C1559.061,-1168.6386 1735.7779,-1133.6813 1802.156,-1123.4858 2006.0932,-1092.1617 2242.5184,-1066.7158 2396.1673,-1051.6107"/>
<polygon fill="#737d82" stroke="#737d82" points="2396.556,-1055.0895 2406.167,-1050.6308 2395.8732,-1048.1229 2396.556,-1055.0895"/>
</a>
</g>
</g>
<!-- social_media_sentiment_analysis&#45;&gt;sales_forecast -->
<g id="edge8" class="edge">
<title>social_media_sentiment_analysis&#45;&gt;sales_forecast</title>
<g id="a_edge8"><a xlink:title="social_media_sentiment_analysis&#45;&gt;sales_forecast">
<path fill="none" stroke="#737d82" d="M1514.2931,-1207.4349C1624.4053,-1206.6793 1768.8016,-1205.6885 1859.0114,-1205.0695"/>
<polygon fill="#737d82" stroke="#737d82" points="1859.2191,-1208.5682 1869.1948,-1204.9996 1859.171,-1201.5684 1859.2191,-1208.5682"/>
</a>
</g>
</g>
<!-- social_media_sentiment_analysis&#45;&gt;kpi_benchmarking -->
<g id="edge52" class="edge">
<title>social_media_sentiment_analysis&#45;&gt;kpi_benchmarking</title>
<g id="a_edge52"><a xlink:title="social_media_sentiment_analysis&#45;&gt;kpi_benchmarking">
<path fill="none" stroke="#737d82" d="M1426.5928,-1226.554C1512.1356,-1249.1425 1666.9758,-1286.5363 1802.156,-1300.4858 2041.4266,-1325.1767 2323.7273,-1279.7407 2466.5216,-1251.513"/>
<polygon fill="#737d82" stroke="#737d82" points="2467.4366,-1254.8996 2476.5592,-1249.5116 2466.0678,-1248.0347 2467.4366,-1254.8996"/>
</a>
</g>
</g>
<!-- tire_spec_fetch&#45;&gt;sensor_tire -->
<g id="edge73" class="edge">
<title>tire_spec_fetch&#45;&gt;sensor_tire</title>
<g id="a_edge73"><a xlink:title="tire_spec_fetch&#45;&gt;sensor_tire">
<path fill="none" stroke="#737d82" d="M276.1665,-907.9139C308.0931,-911.9018 345.0066,-918.295 377.396,-928.4858 506.1339,-968.9912 521.5462,-1020.2591 649.396,-1063.4858 673.3982,-1071.6011 700.5984,-1077.5528 724.5565,-1081.77"/>
<polygon fill="#737d82" stroke="#737d82" points="724.1629,-1085.2531 734.607,-1083.4723 725.332,-1078.3514 724.1629,-1085.2531"/>
</a>
</g>
</g>
<!-- sensor_humidity&#45;&gt;fleet_optimization_model -->
<g id="edge24" class="edge">
<title>sensor_humidity&#45;&gt;fleet_optimization_model</title>
<g id="a_edge24"><a xlink:title="sensor_humidity&#45;&gt;fleet_optimization_model">
<path fill="none" stroke="#737d82" d="M859.5956,-1050.768C942.9601,-1067.5534 1085.5655,-1096.2003 1208.11,-1120.4858 1224.5372,-1123.7413 1241.9604,-1127.1752 1258.9391,-1130.5111"/>
<polygon fill="#737d82" stroke="#737d82" points="1258.3866,-1133.9694 1268.8736,-1132.4619 1259.7354,-1127.1006 1258.3866,-1133.9694"/>
</a>
</g>
</g>
<!-- sensor_motor&#45;&gt;sensor_temperature -->
<g id="edge64" class="edge">
<title>sensor_motor&#45;&gt;sensor_temperature</title>
<g id="a_edge64"><a xlink:title="sensor_motor&#45;&gt;sensor_temperature">
<path fill="none" stroke="#737d82" d="M846.2557,-653.0608C943.4941,-643.8871 1141.5256,-625.2042 1261.6612,-613.8703"/>
<polygon fill="#737d82" stroke="#737d82" points="1262.3355,-617.3223 1271.9625,-612.8984 1261.678,-610.3532 1262.3355,-617.3223"/>
</a>
</g>
</g>
<!-- sensor_motor&#45;&gt;fleet_optimization_model -->
<g id="edge18" class="edge">
<title>sensor_motor&#45;&gt;fleet_optimization_model</title>
<g id="a_edge18"><a xlink:title="sensor_motor&#45;&gt;fleet_optimization_model">
<path fill="none" stroke="#737d82" d="M846.1752,-660.6437C870.663,-663.891 898.5061,-670.8842 920.11,-685.4858 1112.2134,-815.3245 1015.416,-991.5254 1208.11,-1120.4858 1215.7929,-1125.6276 1224.149,-1129.9314 1232.8619,-1133.5294"/>
<polygon fill="#737d82" stroke="#737d82" points="1231.8501,-1136.8889 1242.4414,-1137.1628 1234.3326,-1130.3438 1231.8501,-1136.8889"/>
</a>
</g>
</g>
<!-- fleet_optimization_model&#45;&gt;predictive_maintenance_model -->
<g id="edge32" class="edge">
<title>fleet_optimization_model&#45;&gt;predictive_maintenance_model</title>
<g id="a_edge32"><a xlink:title="fleet_optimization_model&#45;&gt;predictive_maintenance_model">
<path fill="none" stroke="#737d82" d="M1479.8018,-1150.4858C1569.907,-1150.4858 1694.4951,-1150.4858 1791.9248,-1150.4858"/>
<polygon fill="#737d82" stroke="#737d82" points="1792.1639,-1153.9859 1802.1639,-1150.4858 1792.1639,-1146.9859 1792.1639,-1153.9859"/>
</a>
</g>
</g>
<!-- fleet_optimization_model&#45;&gt;kpi_benchmarking -->
<g id="edge54" class="edge">
<title>fleet_optimization_model&#45;&gt;kpi_benchmarking</title>
<g id="a_edge54"><a xlink:title="fleet_optimization_model&#45;&gt;kpi_benchmarking">
<path fill="none" stroke="#737d82" d="M1461.2383,-1168.5661C1478.9751,-1172.3934 1497.1905,-1176.7318 1514.156,-1181.4858 1645.1984,-1218.206 1668.1037,-1262.0234 1802.156,-1285.4858 1926.4138,-1307.234 1960.0428,-1292.6478 2085.986,-1285.4858 2214.9662,-1278.1511 2362.7662,-1259.659 2458.3854,-1246.3583"/>
<polygon fill="#737d82" stroke="#737d82" points="2458.9191,-1249.8179 2468.3379,-1244.9665 2457.9495,-1242.8853 2458.9191,-1249.8179"/>
</a>
</g>
</g>
<!-- fleet_optimization_model&#45;&gt;fleet_dashboard -->
<g id="edge48" class="edge">
<title>fleet_optimization_model&#45;&gt;fleet_dashboard</title>
<g id="a_edge48"><a xlink:title="fleet_optimization_model&#45;&gt;fleet_dashboard">
<path fill="none" stroke="#737d82" d="M1453.3656,-1132.45C1693.1449,-1085.5804 2320.6852,-963.0404 2365.986,-955.4858 2391.6905,-951.1992 2419.3965,-947.0509 2445.5803,-943.3448"/>
<polygon fill="#737d82" stroke="#737d82" points="2446.1177,-946.8038 2455.5336,-941.9467 2445.1439,-939.8718 2446.1177,-946.8038"/>
</a>
</g>
</g>
<!-- predictive_maintenance_model&#45;&gt;maintenance_insights -->
<g id="edge1" class="edge">
<title>predictive_maintenance_model&#45;&gt;maintenance_insights</title>
<g id="a_edge1"><a xlink:title="predictive_maintenance_model&#45;&gt;maintenance_insights">
<path fill="none" stroke="#737d82" d="M1967.1381,-1132.3113C2028.1717,-1085.284 2200.5713,-959.2528 2365.986,-901.4858 2384.7449,-894.9347 2405.0525,-889.9682 2425.2144,-886.2041"/>
<polygon fill="#737d82" stroke="#737d82" points="2425.8583,-889.6446 2435.0929,-884.4511 2424.6352,-882.7522 2425.8583,-889.6446"/>
</a>
</g>
</g>
<!-- predictive_maintenance_model&#45;&gt;regulatory_compliance_dashboard -->
<g id="edge12" class="edge">
<title>predictive_maintenance_model&#45;&gt;regulatory_compliance_dashboard</title>
<g id="a_edge12"><a xlink:title="predictive_maintenance_model&#45;&gt;regulatory_compliance_dashboard">
<path fill="none" stroke="#737d82" d="M1962.223,-1132.2458C2017.2598,-1078.1882 2189.3349,-918.2083 2365.986,-847.4858 2371.426,-845.3079 2377.0131,-843.3011 2382.7026,-841.4521"/>
<polygon fill="#737d82" stroke="#737d82" points="2383.8329,-844.7664 2392.3664,-838.4871 2381.7797,-838.0743 2383.8329,-844.7664"/>
</a>
</g>
</g>
<!-- predictive_maintenance_model&#45;&gt;kpi_benchmarking -->
<g id="edge55" class="edge">
<title>predictive_maintenance_model&#45;&gt;kpi_benchmarking</title>
<g id="a_edge55"><a xlink:title="predictive_maintenance_model&#45;&gt;kpi_benchmarking">
<path fill="none" stroke="#737d82" d="M2080.9796,-1168.5126C2195.248,-1183.5584 2355.5016,-1204.6591 2458.3573,-1218.2021"/>
<polygon fill="#737d82" stroke="#737d82" points="2458.0663,-1221.694 2468.4377,-1219.5294 2458.9802,-1214.7539 2458.0663,-1221.694"/>
</a>
</g>
</g>
<!-- predictive_maintenance_model&#45;&gt;fleet_dashboard -->
<g id="edge49" class="edge">
<title>predictive_maintenance_model&#45;&gt;fleet_dashboard</title>
<g id="a_edge49"><a xlink:title="predictive_maintenance_model&#45;&gt;fleet_dashboard">
<path fill="none" stroke="#737d82" d="M1974.8494,-1132.3764C2042.8574,-1093.2495 2212.1153,-1000.7121 2365.986,-955.4858 2391.2761,-948.0524 2419.0461,-942.6434 2445.4521,-938.7149"/>
<polygon fill="#737d82" stroke="#737d82" points="2446.0928,-942.159 2455.4977,-937.2806 2445.1033,-935.2292 2446.0928,-942.159"/>
</a>
</g>
</g>
<!-- battery_spec_fetch&#45;&gt;sensor_bms -->
<g id="edge61" class="edge">
<title>battery_spec_fetch&#45;&gt;sensor_bms</title>
<g id="a_edge61"><a xlink:title="battery_spec_fetch&#45;&gt;sensor_bms">
<path fill="none" stroke="#737d82" d="M290.5135,-672.7405C411.6875,-656.1406 620.356,-627.5548 725.005,-613.2187"/>
<polygon fill="#737d82" stroke="#737d82" points="725.6739,-616.6599 735.1063,-611.835 724.7238,-609.7247 725.6739,-616.6599"/>
</a>
</g>
</g>
<!-- dmv_record_fetch&#45;&gt;vehicle_profile -->
<g id="edge39" class="edge">
<title>dmv_record_fetch&#45;&gt;vehicle_profile</title>
<g id="a_edge39"><a xlink:title="dmv_record_fetch&#45;&gt;vehicle_profile">
<path fill="none" stroke="#737d82" d="M290.5135,-428.2312C404.9938,-443.914 597.5693,-470.2952 706.7427,-485.2511"/>
<polygon fill="#737d82" stroke="#737d82" points="706.3361,-488.728 716.7186,-486.6177 707.2862,-481.7928 706.3361,-488.728"/>
</a>
</g>
</g>
<!-- dmv_record_fetch&#45;&gt;customer_profile -->
<g id="edge43" class="edge">
<title>dmv_record_fetch&#45;&gt;customer_profile</title>
<g id="a_edge43"><a xlink:title="dmv_record_fetch&#45;&gt;customer_profile">
<path fill="none" stroke="#737d82" d="M290.5125,-404.6099C318.6219,-400.4976 349.4379,-395.1575 377.396,-388.4858 501.253,-358.9298 523.6831,-318.7438 649.396,-298.4858 768.1809,-279.3442 803.8812,-267.3873 920.11,-298.4858 1062.8298,-336.6723 1070.0767,-411.8173 1208.11,-464.4858 1227.178,-471.7615 1248.2468,-477.5238 1268.4958,-482.0342"/>
<polygon fill="#737d82" stroke="#737d82" points="1267.8465,-485.4744 1278.3581,-484.1489 1269.3142,-478.63 1267.8465,-485.4744"/>
</a>
</g>
</g>
<!-- threads_crawler&#45;&gt;social_media_discussions -->
<g id="edge70" class="edge">
<title>threads_crawler&#45;&gt;social_media_discussions</title>
<g id="a_edge70"><a xlink:title="threads_crawler&#45;&gt;social_media_discussions">
<path fill="none" stroke="#737d82" d="M279.5652,-1015.5042C310.7893,-1019.4161 346.3114,-1025.8638 377.396,-1036.4858 508.4405,-1081.2655 520.1662,-1138.711 649.396,-1188.4858 660.3449,-1192.703 672.0014,-1196.4537 683.7308,-1199.7665"/>
<polygon fill="#737d82" stroke="#737d82" points="683.0187,-1203.1999 693.5867,-1202.4469 684.8557,-1196.4453 683.0187,-1203.1999"/>
</a>
</g>
</g>
<!-- x_crawler&#45;&gt;social_media_discussions -->
<g id="edge66" class="edge">
<title>x_crawler&#45;&gt;social_media_discussions</title>
<g id="a_edge66"><a xlink:title="x_crawler&#45;&gt;social_media_discussions">
<path fill="none" stroke="#737d82" d="M249.3241,-956.4968C286.2964,-958.8117 336.4964,-965.2625 377.396,-982.4858 517.1555,-1041.3402 511.9977,-1124.3123 649.396,-1188.4858 658.2519,-1192.6221 667.6804,-1196.243 677.2958,-1199.4092"/>
<polygon fill="#737d82" stroke="#737d82" points="676.3706,-1202.7869 686.9593,-1202.4262 678.4567,-1196.105 676.3706,-1202.7869"/>
</a>
</g>
</g>
<!-- sensor_lidar&#45;&gt;fleet_optimization_model -->
<g id="edge17" class="edge">
<title>sensor_lidar&#45;&gt;fleet_optimization_model</title>
<g id="a_edge17"><a xlink:title="sensor_lidar&#45;&gt;fleet_optimization_model">
<path fill="none" stroke="#737d82" d="M843.1805,-880.1101C867.5056,-884.0104 896.0515,-890.5559 920.11,-901.4858 1066.5134,-967.9977 1061.4045,-1054.6429 1208.11,-1120.4858 1216.0059,-1124.0296 1224.316,-1127.1561 1232.8139,-1129.9143"/>
<polygon fill="#737d82" stroke="#737d82" points="1231.8892,-1133.2915 1242.4758,-1132.8745 1233.9398,-1126.5986 1231.8892,-1133.2915"/>
</a>
</g>
</g>
<!-- vehicle_profile&#45;&gt;maintenance_insights -->
<g id="edge0" class="edge">
<title>vehicle_profile&#45;&gt;maintenance_insights</title>
<g id="a_edge0"><a xlink:title="vehicle_profile&#45;&gt;maintenance_insights">
<path fill="none" stroke="#737d82" d="M829.2491,-478.4005C996.935,-406.427 1648.5496,-155.7513 2085.986,-398.4858 2291.6258,-512.5959 2168.7548,-719.3893 2365.986,-847.4858 2383.6453,-858.9551 2404.122,-866.4466 2425.0069,-871.2158"/>
<polygon fill="#737d82" stroke="#737d82" points="2424.4478,-874.6743 2434.9507,-873.2818 2425.8719,-867.8207 2424.4478,-874.6743"/>
</a>
</g>
</g>
<!-- vehicle_profile&#45;&gt;fleet_optimization_model -->
<g id="edge16" class="edge">
<title>vehicle_profile&#45;&gt;fleet_optimization_model</title>
<g id="a_edge16"><a xlink:title="vehicle_profile&#45;&gt;fleet_optimization_model">
<path fill="none" stroke="#737d82" d="M860.6085,-499.3201C881.4991,-503.1289 903.2155,-510.3191 920.11,-523.4858 1152.4718,-704.5764 974.924,-940.4578 1208.11,-1120.4858 1215.6646,-1126.3182 1224.0404,-1131.1132 1232.868,-1135.0458"/>
<polygon fill="#737d82" stroke="#737d82" points="1231.6332,-1138.3219 1242.2154,-1138.8392 1234.2656,-1131.8356 1231.6332,-1138.3219"/>
</a>
</g>
</g>
<!-- vehicle_profile&#45;&gt;fleet_dashboard -->
<g id="edge47" class="edge">
<title>vehicle_profile&#45;&gt;fleet_dashboard</title>
<g id="a_edge47"><a xlink:title="vehicle_profile&#45;&gt;fleet_dashboard">
<path fill="none" stroke="#737d82" d="M860.7994,-481.174C992.6049,-455.9261 1280.5052,-413.625 1514.156,-469.4858 1927.0149,-568.1913 1960.9664,-774.3861 2365.986,-901.4858 2391.2082,-909.4008 2419.0098,-914.9992 2445.4749,-918.9579"/>
<polygon fill="#737d82" stroke="#737d82" points="2445.1499,-922.4469 2455.5443,-920.3962 2446.1398,-915.5173 2445.1499,-922.4469"/>
</a>
</g>
</g>
<!-- customer_sentiment_analysis&#45;&gt;public_relations -->
<g id="edge57" class="edge">
<title>customer_sentiment_analysis&#45;&gt;public_relations</title>
<g id="a_edge57"><a xlink:title="customer_sentiment_analysis&#45;&gt;public_relations">
<path fill="none" stroke="#737d82" d="M2058.1604,-1240.4794C2067.6924,-1237.8626 2077.0808,-1234.8807 2085.986,-1231.4858 2221.5923,-1179.7898 2229.1493,-1111.8308 2365.986,-1063.4858 2375.6686,-1060.0649 2385.7677,-1057.0756 2396.049,-1054.4636"/>
<polygon fill="#737d82" stroke="#737d82" points="2397.0546,-1057.8215 2405.9545,-1052.0732 2395.4124,-1051.0168 2397.0546,-1057.8215"/>
</a>
</g>
</g>
<!-- customer_sentiment_analysis&#45;&gt;kpi_benchmarking -->
<g id="edge53" class="edge">
<title>customer_sentiment_analysis&#45;&gt;kpi_benchmarking</title>
<g id="a_edge53"><a xlink:title="customer_sentiment_analysis&#45;&gt;kpi_benchmarking">
<path fill="none" stroke="#737d82" d="M2083.2787,-1252.376C2197.3302,-1247.3702 2356.0254,-1240.4051 2458.1988,-1235.9207"/>
<polygon fill="#737d82" stroke="#737d82" points="2458.3771,-1239.4163 2468.214,-1235.4811 2458.0701,-1232.423 2458.3771,-1239.4163"/>
</a>
</g>
</g>
<!-- market_research_fetch&#45;&gt;sales_forecast -->
<g id="edge6" class="edge">
<title>market_research_fetch&#45;&gt;sales_forecast</title>
<g id="a_edge6"><a xlink:title="market_research_fetch&#45;&gt;sales_forecast">
<path fill="none" stroke="#737d82" d="M324.9443,-343.4594C342.5952,-340.6419 360.4692,-337.619 377.396,-334.4858 499.1233,-311.9535 526.3296,-287.8981 649.396,-274.4858 1040.7755,-231.8317 1225.8968,-198.3367 1514.156,-466.4858 1763.7872,-698.7018 1538.5512,-961.2626 1802.156,-1177.4858 1818.237,-1190.6763 1838.7918,-1198.1542 1859.2344,-1202.2364"/>
<polygon fill="#737d82" stroke="#737d82" points="1858.7887,-1205.7114 1869.2407,-1203.9778 1859.9889,-1198.8151 1858.7887,-1205.7114"/>
</a>
</g>
</g>
<!-- transaction_logs_import&#45;&gt;transaction_data_cleansing -->
<g id="edge37" class="edge">
<title>transaction_logs_import&#45;&gt;transaction_data_cleansing</title>
<g id="a_edge37"><a xlink:title="transaction_logs_import&#45;&gt;transaction_data_cleansing">
<path fill="none" stroke="#737d82" d="M313.2356,-615.6277C408.893,-602.5234 545.0823,-583.8666 647.2146,-569.8754"/>
<polygon fill="#737d82" stroke="#737d82" points="647.8691,-573.3185 657.3015,-568.4936 646.9189,-566.3833 647.8691,-573.3185"/>
</a>
</g>
</g>
<!-- vehicle_manufacture_records_import&#45;&gt;vehicle_profile -->
<g id="edge38" class="edge">
<title>vehicle_manufacture_records_import&#45;&gt;vehicle_profile</title>
<g id="a_edge38"><a xlink:title="vehicle_manufacture_records_import&#45;&gt;vehicle_profile">
<path fill="none" stroke="#737d82" d="M336.8517,-517.1214C451.8184,-511.8715 611.028,-504.6014 706.558,-500.2391"/>
<polygon fill="#737d82" stroke="#737d82" points="706.9117,-503.7267 716.7417,-499.7741 706.5924,-496.734 706.9117,-503.7267"/>
</a>
</g>
</g>
<!-- customer_profile&#45;&gt;sales_forecast -->
<g id="edge7" class="edge">
<title>customer_profile&#45;&gt;sales_forecast</title>
<g id="a_edge7"><a xlink:title="customer_profile&#45;&gt;sales_forecast">
<path fill="none" stroke="#737d82" d="M1443.842,-496.4902C1468.551,-500.1168 1494.3122,-507.9153 1514.156,-523.4858 1764.0208,-719.5436 1553.6065,-979.7631 1802.156,-1177.4858 1818.3484,-1190.3669 1838.8428,-1197.7499 1859.1849,-1201.8406"/>
<polygon fill="#737d82" stroke="#737d82" points="1858.6837,-1205.3061 1869.1393,-1203.594 1859.8981,-1198.4122 1858.6837,-1205.3061"/>
</a>
</g>
</g>
<!-- customer_profile&#45;&gt;customer_sentiment_analysis -->
<g id="edge41" class="edge">
<title>customer_profile&#45;&gt;customer_sentiment_analysis</title>
<g id="a_edge41"><a xlink:title="customer_profile&#45;&gt;customer_sentiment_analysis">
<path fill="none" stroke="#737d82" d="M1443.7158,-496.0931C1468.5599,-499.6761 1494.431,-507.5495 1514.156,-523.4858 1778.3964,-736.9714 1539.3477,-1016.2396 1802.156,-1231.4858 1803.5566,-1232.633 1804.9911,-1233.7369 1806.4565,-1234.7991"/>
<polygon fill="#737d82" stroke="#737d82" points="1804.8684,-1237.9405 1815.1648,-1240.4375 1808.6729,-1232.0645 1804.8684,-1237.9405"/>
</a>
</g>
</g>
<!-- sensor_accelerometer&#45;&gt;fleet_optimization_model -->
<g id="edge25" class="edge">
<title>sensor_accelerometer&#45;&gt;fleet_optimization_model</title>
<g id="a_edge25"><a xlink:title="sensor_accelerometer&#45;&gt;fleet_optimization_model">
<path fill="none" stroke="#737d82" d="M885.2573,-833.8307C897.3552,-837.3647 909.2722,-841.834 920.11,-847.4858 1076.4912,-929.0377 1051.3582,-1039.6486 1208.11,-1120.4858 1215.8895,-1124.4977 1224.1447,-1127.9747 1232.6315,-1130.988"/>
<polygon fill="#737d82" stroke="#737d82" points="1231.7053,-1134.3683 1242.2988,-1134.1968 1233.9106,-1127.7247 1231.7053,-1134.3683"/>
</a>
</g>
</g>
<!-- transaction_data_cleansing&#45;&gt;sales_data_cleansing -->
<g id="edge5" class="edge">
<title>transaction_data_cleansing&#45;&gt;sales_data_cleansing</title>
<g id="a_edge5"><a xlink:title="transaction_data_cleansing&#45;&gt;sales_data_cleansing">
<path fill="none" stroke="#737d82" d="M920.0685,-550.4858C1018.6281,-550.4858 1152.2565,-550.4858 1246.5196,-550.4858"/>
<polygon fill="#737d82" stroke="#737d82" points="1246.6633,-553.9859 1256.6633,-550.4858 1246.6632,-546.9859 1246.6633,-553.9859"/>
</a>
</g>
</g>
<!-- transaction_data_cleansing&#45;&gt;customer_profile -->
<g id="edge44" class="edge">
<title>transaction_data_cleansing&#45;&gt;customer_profile</title>
<g id="a_edge44"><a xlink:title="transaction_data_cleansing&#45;&gt;customer_profile">
<path fill="none" stroke="#737d82" d="M920.0685,-538.0971C1026.5893,-528.0476 1174.0731,-514.1336 1268.5523,-505.2201"/>
<polygon fill="#737d82" stroke="#737d82" points="1269.0373,-508.69 1278.6643,-504.2661 1268.3797,-501.721 1269.0373,-508.69"/>
</a>
</g>
</g>
<!-- government_regulations_fetch&#45;&gt;regulatory_compliance_dashboard -->
<g id="edge11" class="edge">
<title>government_regulations_fetch&#45;&gt;regulatory_compliance_dashboard</title>
<g id="a_edge11"><a xlink:title="government_regulations_fetch&#45;&gt;regulatory_compliance_dashboard">
<path fill="none" stroke="#737d82" d="M249.3064,-181.4698C481.7523,-104.0185 1444.7204,180.9348 2085.986,-175.4858 2351.5026,-323.0621 2508.7713,-689.2793 2548.9481,-792.8191"/>
<polygon fill="#737d82" stroke="#737d82" points="2545.7239,-794.1867 2552.5719,-802.2711 2552.26,-791.6808 2545.7239,-794.1867"/>
</a>
</g>
</g>
<!-- news_crawler&#45;&gt;social_media_discussions -->
<g id="edge69" class="edge">
<title>news_crawler&#45;&gt;social_media_discussions</title>
<g id="a_edge69"><a xlink:title="news_crawler&#45;&gt;social_media_discussions">
<path fill="none" stroke="#737d82" d="M267.9176,-1177.3234C363.8238,-1185.2713 537.2872,-1199.6465 657.5358,-1209.6116"/>
<polygon fill="#737d82" stroke="#737d82" points="657.2933,-1213.1035 667.5482,-1210.4414 657.8715,-1206.1274 657.2933,-1213.1035"/>
</a>
</g>
</g>
<!-- sensor_camera&#45;&gt;fleet_optimization_model -->
<g id="edge21" class="edge">
<title>sensor_camera&#45;&gt;fleet_optimization_model</title>
<g id="a_edge21"><a xlink:title="sensor_camera&#45;&gt;fleet_optimization_model">
<path fill="none" stroke="#737d82" d="M856.2301,-771.8593C877.7152,-775.7373 900.8784,-782.3278 920.11,-793.4858 1087.6217,-890.6743 1040.1564,-1024.0629 1208.11,-1120.4858 1215.955,-1124.9897 1224.3591,-1128.8289 1233.0426,-1132.1003"/>
<polygon fill="#737d82" stroke="#737d82" points="1231.9667,-1135.4318 1242.5616,-1135.4317 1234.2791,-1128.8248 1231.9667,-1135.4318"/>
</a>
</g>
</g>
<!-- sensor_gear&#45;&gt;fleet_optimization_model -->
<g id="edge20" class="edge">
<title>sensor_gear&#45;&gt;fleet_optimization_model</title>
<g id="a_edge20"><a xlink:title="sensor_gear&#45;&gt;fleet_optimization_model">
<path fill="none" stroke="#737d82" d="M842.8885,-935.6381C867.0246,-939.8302 895.5019,-946.1812 920.11,-955.4858 1058.0945,-1007.6592 1069.8888,-1068.9428 1208.11,-1120.4858 1217.5291,-1123.9982 1227.4352,-1127.1228 1237.489,-1129.8983"/>
<polygon fill="#737d82" stroke="#737d82" points="1236.6,-1133.2835 1247.1622,-1132.4536 1238.3878,-1126.5156 1236.6,-1133.2835"/>
</a>
</g>
</g>
<!-- kpi_benchmarking&#45;&gt;kpi_dashboard -->
<g id="edge33" class="edge">
<title>kpi_benchmarking&#45;&gt;kpi_dashboard</title>
<g id="a_edge33"><a xlink:title="kpi_benchmarking&#45;&gt;kpi_dashboard">
<path fill="none" stroke="#737d82" d="M2559.243,-1213.2541C2559.243,-1181.7946 2559.243,-1150.3352 2559.243,-1118.8757"/>
<polygon fill="#737d82" stroke="#737d82" points="2562.7431,-1118.6616 2559.243,-1108.6616 2555.7431,-1118.6616 2562.7431,-1118.6616"/>
</a>
</g>
</g>
<!-- weather -->
<g id="weather" class="node">
<title>weather</title>
<path fill="none" stroke="#0074ff" d="M231.043,-811.4858C231.043,-811.4858 163.909,-811.4858 163.909,-811.4858 157.909,-811.4858 151.909,-805.4858 151.909,-799.4858 151.909,-799.4858 151.909,-787.4858 151.909,-787.4858 151.909,-781.4858 157.909,-775.4858 163.909,-775.4858 163.909,-775.4858 231.043,-775.4858 231.043,-775.4858 237.043,-775.4858 243.043,-781.4858 243.043,-787.4858 243.043,-787.4858 243.043,-799.4858 243.043,-799.4858 243.043,-805.4858 237.043,-811.4858 231.043,-811.4858"/>
<text text-anchor="middle" x="197.476" y="-787.4858" font-family="Arial" font-size="20.00" fill="#0074ff">Weather</text>
<text text-anchor="middle" x="138.915" y="-781.4858" font-family="Arial" font-size="20.00" fill="#0074ff">lv0</text>
</g>
<!-- sensor_gps -->
<g id="sensor_gps" class="node">
<title>sensor_gps</title>
<path fill="none" stroke="#17c3ff" d="M829.777,-730.4858C829.777,-730.4858 747.729,-730.4858 747.729,-730.4858 741.729,-730.4858 735.729,-724.4858 735.729,-718.4858 735.729,-718.4858 735.729,-706.4858 735.729,-706.4858 735.729,-700.4858 741.729,-694.4858 747.729,-694.4858 747.729,-694.4858 829.777,-694.4858 829.777,-694.4858 835.777,-694.4858 841.777,-700.4858 841.777,-706.4858 841.777,-706.4858 841.777,-718.4858 841.777,-718.4858 841.777,-724.4858 835.777,-730.4858 829.777,-730.4858"/>
<text text-anchor="middle" x="788.753" y="-706.4858" font-family="Arial" font-size="20.00" fill="#17c3ff">GPS Data</text>
<text text-anchor="middle" x="722.963" y="-700.4858" font-family="Arial" font-size="20.00" fill="#17c3ff">lv1</text>
</g>
<!-- sensor_bms -->
<g id="sensor_bms" class="node">
<title>sensor_bms</title>
<path fill="none" stroke="#17c3ff" d="M830.3771,-622.4858C830.3771,-622.4858 747.1289,-622.4858 747.1289,-622.4858 741.1289,-622.4858 735.1289,-616.4858 735.1289,-610.4858 735.1289,-610.4858 735.1289,-598.4858 735.1289,-598.4858 735.1289,-592.4858 741.1289,-586.4858 747.1289,-586.4858 747.1289,-586.4858 830.3771,-586.4858 830.3771,-586.4858 836.3771,-586.4858 842.3771,-592.4858 842.3771,-598.4858 842.3771,-598.4858 842.3771,-610.4858 842.3771,-610.4858 842.3771,-616.4858 836.3771,-622.4858 830.3771,-622.4858"/>
<text text-anchor="middle" x="788.753" y="-598.4858" font-family="Arial" font-size="20.00" fill="#17c3ff">BMS Data</text>
<text text-anchor="middle" x="722.413" y="-592.4858" font-family="Arial" font-size="20.00" fill="#17c3ff">lv1</text>
</g>
<!-- sensor_temperature -->
<g id="sensor_temperature" class="node">
<title>sensor_temperature</title>
<path fill="none" stroke="#17c3ff" d="M1438.3812,-622.4858C1438.3812,-622.4858 1283.8848,-622.4858 1283.8848,-622.4858 1277.8848,-622.4858 1271.8848,-616.4858 1271.8848,-610.4858 1271.8848,-610.4858 1271.8848,-598.4858 1271.8848,-598.4858 1271.8848,-592.4858 1277.8848,-586.4858 1283.8848,-586.4858 1283.8848,-586.4858 1438.3812,-586.4858 1438.3812,-586.4858 1444.3812,-586.4858 1450.3812,-592.4858 1450.3812,-598.4858 1450.3812,-598.4858 1450.3812,-610.4858 1450.3812,-610.4858 1450.3812,-616.4858 1444.3812,-622.4858 1438.3812,-622.4858"/>
<text text-anchor="middle" x="1361.133" y="-598.4858" font-family="Arial" font-size="20.00" fill="#17c3ff">Temperature Data</text>
<text text-anchor="middle" x="1259.231" y="-592.4858" font-family="Arial" font-size="20.00" fill="#17c3ff">lv1</text>
</g>
<!-- social_media_discussions -->
<g id="social_media_discussions" class="node">
<title>social_media_discussions</title>
<path fill="none" stroke="#7adef4" d="M897.9372,-1238.4858C897.9372,-1238.4858 679.5688,-1238.4858 679.5688,-1238.4858 673.5688,-1238.4858 667.5688,-1232.4858 667.5688,-1226.4858 667.5688,-1226.4858 667.5688,-1214.4858 667.5688,-1214.4858 667.5688,-1208.4858 673.5688,-1202.4858 679.5688,-1202.4858 679.5688,-1202.4858 897.9372,-1202.4858 897.9372,-1202.4858 903.9372,-1202.4858 909.9372,-1208.4858 909.9372,-1214.4858 909.9372,-1214.4858 909.9372,-1226.4858 909.9372,-1226.4858 909.9372,-1232.4858 903.9372,-1238.4858 897.9372,-1238.4858"/>
<text text-anchor="middle" x="788.753" y="-1214.4858" font-family="Arial" font-size="20.00" fill="#7adef4">Social Media Discussions</text>
<text text-anchor="middle" x="654.633" y="-1184.4858" font-family="Arial" font-size="20.00" fill="#7adef4">lv2</text>
</g>
<!-- public_relations -->
<g id="public_relations" class="node">
<title>public_relations</title>
<path fill="none" stroke="#40fdcb" d="M2700.307,-1054.4858C2700.307,-1054.4858 2418.179,-1054.4858 2418.179,-1054.4858 2412.179,-1054.4858 2406.179,-1048.4858 2406.179,-1042.4858 2406.179,-1042.4858 2406.179,-1030.4858 2406.179,-1030.4858 2406.179,-1024.4858 2412.179,-1018.4858 2418.179,-1018.4858 2418.179,-1018.4858 2700.307,-1018.4858 2700.307,-1018.4858 2706.307,-1018.4858 2712.307,-1024.4858 2712.307,-1030.4858 2712.307,-1030.4858 2712.307,-1042.4858 2712.307,-1042.4858 2712.307,-1048.4858 2706.307,-1054.4858 2700.307,-1054.4858"/>
<text text-anchor="middle" x="2559.243" y="-1030.4858" font-family="Arial" font-size="20.00" fill="#40fdcb">API: Public Relations Dashboard</text>
<text text-anchor="middle" x="2393.433" y="-1000.4858" font-family="Arial" font-size="20.00" fill="#40fdcb">lv3</text>
</g>
<!-- customer_service_logs_import -->
<g id="customer_service_logs_import" class="node">
<title>customer_service_logs_import</title>
<path fill="none" stroke="#0074ff" d="M328.508,-487.4858C328.508,-487.4858 66.444,-487.4858 66.444,-487.4858 60.444,-487.4858 54.444,-481.4858 54.444,-475.4858 54.444,-475.4858 54.444,-463.4858 54.444,-463.4858 54.444,-457.4858 60.444,-451.4858 66.444,-451.4858 66.444,-451.4858 328.508,-451.4858 328.508,-451.4858 334.508,-451.4858 340.508,-457.4858 340.508,-463.4858 340.508,-463.4858 340.508,-475.4858 340.508,-475.4858 340.508,-481.4858 334.508,-487.4858 328.508,-487.4858"/>
<text text-anchor="middle" x="197.476" y="-463.4858" font-family="Arial" font-size="20.00" fill="#0074ff">Customer Service Logs Import</text>
<text text-anchor="middle" x="41.682" y="-433.4858" font-family="Arial" font-size="20.00" fill="#0074ff">lv0</text>
</g>
<!-- fab_pipeline_data_sync -->
<g id="fab_pipeline_data_sync" class="node">
<title>fab_pipeline_data_sync</title>
<path fill="none" stroke="#0074ff" d="M297.916,-271.4858C297.916,-271.4858 97.036,-271.4858 97.036,-271.4858 91.036,-271.4858 85.036,-265.4858 85.036,-259.4858 85.036,-259.4858 85.036,-247.4858 85.036,-247.4858 85.036,-241.4858 91.036,-235.4858 97.036,-235.4858 97.036,-235.4858 297.916,-235.4858 297.916,-235.4858 303.916,-235.4858 309.916,-241.4858 309.916,-247.4858 309.916,-247.4858 309.916,-259.4858 309.916,-259.4858 309.916,-265.4858 303.916,-271.4858 297.916,-271.4858"/>
<text text-anchor="middle" x="197.476" y="-247.4858" font-family="Arial" font-size="20.00" fill="#0074ff">Fab Pipeline Data Sync</text>
<text text-anchor="middle" x="72.228" y="-241.4858" font-family="Arial" font-size="20.00" fill="#0074ff">lv0</text>
</g>
<!-- sensor_data_collection -->
<g id="sensor_data_collection" class="node">
<title>sensor_data_collection</title>
<path fill="none" stroke="#0074ff" d="M295.9565,-757.4858C295.9565,-757.4858 98.9955,-757.4858 98.9955,-757.4858 92.9955,-757.4858 86.9955,-751.4858 86.9955,-745.4858 86.9955,-745.4858 86.9955,-733.4858 86.9955,-733.4858 86.9955,-727.4858 92.9955,-721.4858 98.9955,-721.4858 98.9955,-721.4858 295.9565,-721.4858 295.9565,-721.4858 301.9565,-721.4858 307.9565,-727.4858 307.9565,-733.4858 307.9565,-733.4858 307.9565,-745.4858 307.9565,-745.4858 307.9565,-751.4858 301.9565,-757.4858 295.9565,-757.4858"/>
<text text-anchor="middle" x="197.476" y="-733.4858" font-family="Arial" font-size="20.00" fill="#0074ff">Sensor Data Collection</text>
<text text-anchor="middle" x="74.458" y="-703.4858" font-family="Arial" font-size="20.00" fill="#0074ff">lv0</text>
</g>
<!-- vehicle_maintenance_records_import -->
<g id="vehicle_maintenance_records_import" class="node">
<title>vehicle_maintenance_records_import</title>
<path fill="none" stroke="#0074ff" d="M357.316,-325.4858C357.316,-325.4858 37.636,-325.4858 37.636,-325.4858 31.636,-325.4858 25.636,-319.4858 25.636,-313.4858 25.636,-313.4858 25.636,-301.4858 25.636,-301.4858 25.636,-295.4858 31.636,-289.4858 37.636,-289.4858 37.636,-289.4858 357.316,-289.4858 357.316,-289.4858 363.316,-289.4858 369.316,-295.4858 369.316,-301.4858 369.316,-301.4858 369.316,-313.4858 369.316,-313.4858 369.316,-319.4858 363.316,-325.4858 357.316,-325.4858"/>
<text text-anchor="middle" x="197.476" y="-301.4858" font-family="Arial" font-size="20.00" fill="#0074ff">Vehicle Maintenance Records Import</text>
<text text-anchor="middle" x="12.778" y="-271.4858" font-family="Arial" font-size="20.00" fill="#0074ff">lv0</text>
</g>
<!-- ig_crawler -->
<g id="ig_crawler" class="node">
<title>ig_crawler</title>
<path fill="none" stroke="#0074ff" d="M241.0169,-1135.4858C241.0169,-1135.4858 153.9351,-1135.4858 153.9351,-1135.4858 147.9351,-1135.4858 141.9351,-1129.4858 141.9351,-1123.4858 141.9351,-1123.4858 141.9351,-1111.4858 141.9351,-1111.4858 141.9351,-1105.4858 147.9351,-1099.4858 153.9351,-1099.4858 153.9351,-1099.4858 241.0169,-1099.4858 241.0169,-1099.4858 247.0169,-1099.4858 253.0169,-1105.4858 253.0169,-1111.4858 253.0169,-1111.4858 253.0169,-1123.4858 253.0169,-1123.4858 253.0169,-1129.4858 247.0169,-1135.4858 241.0169,-1135.4858"/>
<text text-anchor="middle" x="197.476" y="-1111.4858" font-family="Arial" font-size="20.00" fill="#0074ff">IG Crawler</text>
<text text-anchor="middle" x="128.928" y="-1105.4858" font-family="Arial" font-size="20.00" fill="#0074ff">lv0</text>
</g>
<!-- lab_test_data_ingestion -->
<g id="lab_test_data_ingestion" class="node">
<title>lab_test_data_ingestion</title>
<path fill="none" stroke="#0074ff" d="M299.7742,-865.4858C299.7742,-865.4858 95.1778,-865.4858 95.1778,-865.4858 89.1778,-865.4858 83.1778,-859.4858 83.1778,-853.4858 83.1778,-853.4858 83.1778,-841.4858 83.1778,-841.4858 83.1778,-835.4858 89.1778,-829.4858 95.1778,-829.4858 95.1778,-829.4858 299.7742,-829.4858 299.7742,-829.4858 305.7742,-829.4858 311.7742,-835.4858 311.7742,-841.4858 311.7742,-841.4858 311.7742,-853.4858 311.7742,-853.4858 311.7742,-859.4858 305.7742,-865.4858 299.7742,-865.4858"/>
<text text-anchor="middle" x="197.476" y="-841.4858" font-family="Arial" font-size="20.00" fill="#0074ff">Lab Test Data Ingestion</text>
<text text-anchor="middle" x="70.549" y="-811.4858" font-family="Arial" font-size="20.00" fill="#0074ff">lv0</text>
</g>
<!-- sensor_gyroscope -->
<g id="sensor_gyroscope" class="node">
<title>sensor_gyroscope</title>
<path fill="none" stroke="#17c3ff" d="M857.2317,-1000.4858C857.2317,-1000.4858 720.2743,-1000.4858 720.2743,-1000.4858 714.2743,-1000.4858 708.2743,-994.4858 708.2743,-988.4858 708.2743,-988.4858 708.2743,-976.4858 708.2743,-976.4858 708.2743,-970.4858 714.2743,-964.4858 720.2743,-964.4858 720.2743,-964.4858 857.2317,-964.4858 857.2317,-964.4858 863.2317,-964.4858 869.2317,-970.4858 869.2317,-976.4858 869.2317,-976.4858 869.2317,-988.4858 869.2317,-988.4858 869.2317,-994.4858 863.2317,-1000.4858 857.2317,-1000.4858"/>
<text text-anchor="middle" x="788.753" y="-976.4858" font-family="Arial" font-size="20.00" fill="#17c3ff">Gyroscope Data</text>
<text text-anchor="middle" x="695.736" y="-946.4858" font-family="Arial" font-size="20.00" fill="#17c3ff">lv1</text>
</g>
<!-- sensor_tire -->
<g id="sensor_tire" class="node">
<title>sensor_tire</title>
<path fill="none" stroke="#17c3ff" d="M830.9933,-1108.4858C830.9933,-1108.4858 746.5127,-1108.4858 746.5127,-1108.4858 740.5127,-1108.4858 734.5127,-1102.4858 734.5127,-1096.4858 734.5127,-1096.4858 734.5127,-1084.4858 734.5127,-1084.4858 734.5127,-1078.4858 740.5127,-1072.4858 746.5127,-1072.4858 746.5127,-1072.4858 830.9933,-1072.4858 830.9933,-1072.4858 836.9933,-1072.4858 842.9933,-1078.4858 842.9933,-1084.4858 842.9933,-1084.4858 842.9933,-1096.4858 842.9933,-1096.4858 842.9933,-1102.4858 836.9933,-1108.4858 830.9933,-1108.4858"/>
<text text-anchor="middle" x="788.753" y="-1084.4858" font-family="Arial" font-size="20.00" fill="#17c3ff">Lidar Data</text>
<text text-anchor="middle" x="721.855" y="-1078.4858" font-family="Arial" font-size="20.00" fill="#17c3ff">lv1</text>
</g>
<!-- fb_crawler -->
<g id="fb_crawler" class="node">
<title>fb_crawler</title>
<path fill="none" stroke="#0074ff" d="M243.456,-1081.4858C243.456,-1081.4858 151.496,-1081.4858 151.496,-1081.4858 145.496,-1081.4858 139.496,-1075.4858 139.496,-1069.4858 139.496,-1069.4858 139.496,-1057.4858 139.496,-1057.4858 139.496,-1051.4858 145.496,-1045.4858 151.496,-1045.4858 151.496,-1045.4858 243.456,-1045.4858 243.456,-1045.4858 249.456,-1045.4858 255.456,-1051.4858 255.456,-1057.4858 255.456,-1057.4858 255.456,-1069.4858 255.456,-1069.4858 255.456,-1075.4858 249.456,-1081.4858 243.456,-1081.4858"/>
<text text-anchor="middle" x="197.476" y="-1057.4858" font-family="Arial" font-size="20.00" fill="#0074ff">FB Crawler</text>
<text text-anchor="middle" x="126.708" y="-1051.4858" font-family="Arial" font-size="20.00" fill="#0074ff">lv0</text>
</g>
<!-- sales_data_import -->
<g id="sales_data_import" class="node">
<title>sales_data_import</title>
<path fill="none" stroke="#0074ff" d="M273.504,-595.4858C273.504,-595.4858 121.448,-595.4858 121.448,-595.4858 115.448,-595.4858 109.448,-589.4858 109.448,-583.4858 109.448,-583.4858 109.448,-571.4858 109.448,-571.4858 109.448,-565.4858 115.448,-559.4858 121.448,-559.4858 121.448,-559.4858 273.504,-559.4858 273.504,-559.4858 279.504,-559.4858 285.504,-565.4858 285.504,-571.4858 285.504,-571.4858 285.504,-583.4858 285.504,-583.4858 285.504,-589.4858 279.504,-595.4858 273.504,-595.4858"/>
<text text-anchor="middle" x="197.476" y="-571.4858" font-family="Arial" font-size="20.00" fill="#0074ff">Sales Data Import</text>
<text text-anchor="middle" x="96.684" y="-565.4858" font-family="Arial" font-size="20.00" fill="#0074ff">lv0</text>
</g>
<!-- sales_data_cleansing -->
<g id="sales_data_cleansing" class="node">
<title>sales_data_cleansing</title>
<path fill="none" stroke="#17c3ff" d="M1453.3972,-568.4858C1453.3972,-568.4858 1268.8688,-568.4858 1268.8688,-568.4858 1262.8688,-568.4858 1256.8688,-562.4858 1256.8688,-556.4858 1256.8688,-556.4858 1256.8688,-544.4858 1256.8688,-544.4858 1256.8688,-538.4858 1262.8688,-532.4858 1268.8688,-532.4858 1268.8688,-532.4858 1453.3972,-532.4858 1453.3972,-532.4858 1459.3972,-532.4858 1465.3972,-538.4858 1465.3972,-544.4858 1465.3972,-544.4858 1465.3972,-556.4858 1465.3972,-556.4858 1465.3972,-562.4858 1459.3972,-568.4858 1453.3972,-568.4858"/>
<text text-anchor="middle" x="1361.133" y="-544.4858" font-family="Arial" font-size="20.00" fill="#17c3ff">Sales Data Cleansing</text>
<text text-anchor="middle" x="1244.223" y="-514.4858" font-family="Arial" font-size="20.00" fill="#17c3ff">lv1</text>
</g>
<!-- sales_forecast -->
<g id="sales_forecast" class="node">
<title>sales_forecast</title>
<path fill="none" stroke="#7adef4" d="M2006.9294,-1222.4858C2006.9294,-1222.4858 1881.2126,-1222.4858 1881.2126,-1222.4858 1875.2126,-1222.4858 1869.2126,-1216.4858 1869.2126,-1210.4858 1869.2126,-1210.4858 1869.2126,-1198.4858 1869.2126,-1198.4858 1869.2126,-1192.4858 1875.2126,-1186.4858 1881.2126,-1186.4858 1881.2126,-1186.4858 2006.9294,-1186.4858 2006.9294,-1186.4858 2012.9294,-1186.4858 2018.9294,-1192.4858 2018.9294,-1198.4858 2018.9294,-1198.4858 2018.9294,-1210.4858 2018.9294,-1210.4858 2018.9294,-1216.4858 2012.9294,-1222.4858 2006.9294,-1222.4858"/>
<text text-anchor="middle" x="1944.071" y="-1198.4858" font-family="Arial" font-size="20.00" fill="#7adef4">Sales Forecast</text>
<text text-anchor="middle" x="1856.614" y="-1192.4858" font-family="Arial" font-size="20.00" fill="#7adef4">lv2</text>
</g>
<!-- social_media_sentiment_analysis -->
<g id="social_media_sentiment_analysis" class="node">
<title>social_media_sentiment_analysis</title>
<path fill="none" stroke="#7adef4" d="M1502.179,-1226.4858C1502.179,-1226.4858 1220.087,-1226.4858 1220.087,-1226.4858 1214.087,-1226.4858 1208.087,-1220.4858 1208.087,-1214.4858 1208.087,-1214.4858 1208.087,-1202.4858 1208.087,-1202.4858 1208.087,-1196.4858 1214.087,-1190.4858 1220.087,-1190.4858 1220.087,-1190.4858 1502.179,-1190.4858 1502.179,-1190.4858 1508.179,-1190.4858 1514.179,-1196.4858 1514.179,-1202.4858 1514.179,-1202.4858 1514.179,-1214.4858 1514.179,-1214.4858 1514.179,-1220.4858 1508.179,-1226.4858 1502.179,-1226.4858"/>
<text text-anchor="middle" x="1361.133" y="-1202.4858" font-family="Arial" font-size="20.00" fill="#7adef4">Social Media Sentiment Analysis</text>
<text text-anchor="middle" x="1195.332" y="-1172.4858" font-family="Arial" font-size="20.00" fill="#7adef4">lv2</text>
</g>
<!-- maintenance_insights -->
<g id="maintenance_insights" class="node">
<title>maintenance_insights</title>
<path fill="none" stroke="#40fdcb" d="M2671.5392,-892.4858C2671.5392,-892.4858 2446.9468,-892.4858 2446.9468,-892.4858 2440.9468,-892.4858 2434.9468,-886.4858 2434.9468,-880.4858 2434.9468,-880.4858 2434.9468,-868.4858 2434.9468,-868.4858 2434.9468,-862.4858 2440.9468,-856.4858 2446.9468,-856.4858 2446.9468,-856.4858 2671.5392,-856.4858 2671.5392,-856.4858 2677.5392,-856.4858 2683.5392,-862.4858 2683.5392,-868.4858 2683.5392,-868.4858 2683.5392,-880.4858 2683.5392,-880.4858 2683.5392,-886.4858 2677.5392,-892.4858 2671.5392,-892.4858"/>
<text text-anchor="middle" x="2559.243" y="-868.4858" font-family="Arial" font-size="20.00" fill="#40fdcb">API: Maintenance Insights</text>
<text text-anchor="middle" x="2422.317" y="-862.4858" font-family="Arial" font-size="20.00" fill="#40fdcb">lv3</text>
</g>
<!-- tire_spec_fetch -->
<g id="tire_spec_fetch" class="node">
<title>tire_spec_fetch</title>
<path fill="none" stroke="#0074ff" d="M264.1101,-919.4858C264.1101,-919.4858 130.8419,-919.4858 130.8419,-919.4858 124.8419,-919.4858 118.8419,-913.4858 118.8419,-907.4858 118.8419,-907.4858 118.8419,-895.4858 118.8419,-895.4858 118.8419,-889.4858 124.8419,-883.4858 130.8419,-883.4858 130.8419,-883.4858 264.1101,-883.4858 264.1101,-883.4858 270.1101,-883.4858 276.1101,-889.4858 276.1101,-895.4858 276.1101,-895.4858 276.1101,-907.4858 276.1101,-907.4858 276.1101,-913.4858 270.1101,-919.4858 264.1101,-919.4858"/>
<text text-anchor="middle" x="197.476" y="-895.4858" font-family="Arial" font-size="20.00" fill="#0074ff">Tire Spec Fetch</text>
<text text-anchor="middle" x="106.131" y="-889.4858" font-family="Arial" font-size="20.00" fill="#0074ff">lv0</text>
</g>
<!-- sensor_humidity -->
<g id="sensor_humidity" class="node">
<title>sensor_humidity</title>
<path fill="none" stroke="#17c3ff" d="M847.3097,-1054.4858C847.3097,-1054.4858 730.1963,-1054.4858 730.1963,-1054.4858 724.1963,-1054.4858 718.1963,-1048.4858 718.1963,-1042.4858 718.1963,-1042.4858 718.1963,-1030.4858 718.1963,-1030.4858 718.1963,-1024.4858 724.1963,-1018.4858 730.1963,-1018.4858 730.1963,-1018.4858 847.3097,-1018.4858 847.3097,-1018.4858 853.3097,-1018.4858 859.3097,-1024.4858 859.3097,-1030.4858 859.3097,-1030.4858 859.3097,-1042.4858 859.3097,-1042.4858 859.3097,-1048.4858 853.3097,-1054.4858 847.3097,-1054.4858"/>
<text text-anchor="middle" x="788.753" y="-1030.4858" font-family="Arial" font-size="20.00" fill="#17c3ff">Humidity Data</text>
<text text-anchor="middle" x="705.197" y="-1024.4858" font-family="Arial" font-size="20.00" fill="#17c3ff">lv1</text>
</g>
<!-- sensor_motor -->
<g id="sensor_motor" class="node">
<title>sensor_motor</title>
<path fill="none" stroke="#17c3ff" d="M834.153,-676.4858C834.153,-676.4858 743.353,-676.4858 743.353,-676.4858 737.353,-676.4858 731.353,-670.4858 731.353,-664.4858 731.353,-664.4858 731.353,-652.4858 731.353,-652.4858 731.353,-646.4858 737.353,-640.4858 743.353,-640.4858 743.353,-640.4858 834.153,-640.4858 834.153,-640.4858 840.153,-640.4858 846.153,-646.4858 846.153,-652.4858 846.153,-652.4858 846.153,-664.4858 846.153,-664.4858 846.153,-670.4858 840.153,-676.4858 834.153,-676.4858"/>
<text text-anchor="middle" x="788.753" y="-652.4858" font-family="Arial" font-size="20.00" fill="#17c3ff">Motor Data</text>
<text text-anchor="middle" x="718.525" y="-622.4858" font-family="Arial" font-size="20.00" fill="#17c3ff">lv1</text>
</g>
<!-- fleet_optimization_model -->
<g id="fleet_optimization_model" class="node">
<title>fleet_optimization_model</title>
<path fill="none" stroke="#7adef4" d="M1467.767,-1168.4858C1467.767,-1168.4858 1254.499,-1168.4858 1254.499,-1168.4858 1248.499,-1168.4858 1242.499,-1162.4858 1242.499,-1156.4858 1242.499,-1156.4858 1242.499,-1144.4858 1242.499,-1144.4858 1242.499,-1138.4858 1248.499,-1132.4858 1254.499,-1132.4858 1254.499,-1132.4858 1467.767,-1132.4858 1467.767,-1132.4858 1473.767,-1132.4858 1479.767,-1138.4858 1479.767,-1144.4858 1479.767,-1144.4858 1479.767,-1156.4858 1479.767,-1156.4858 1479.767,-1162.4858 1473.767,-1168.4858 1467.767,-1168.4858"/>
<text text-anchor="middle" x="1361.133" y="-1144.4858" font-family="Arial" font-size="20.00" fill="#7adef4">Fleet Optimization Model</text>
<text text-anchor="middle" x="1229.788" y="-1114.4858" font-family="Arial" font-size="20.00" fill="#7adef4">lv2</text>
</g>
<!-- predictive_maintenance_model -->
<g id="predictive_maintenance_model" class="node">
<title>predictive_maintenance_model</title>
<path fill="none" stroke="#7adef4" d="M2073.9011,-1168.4858C2073.9011,-1168.4858 1814.2409,-1168.4858 1814.2409,-1168.4858 1808.2409,-1168.4858 1802.2409,-1162.4858 1802.2409,-1156.4858 1802.2409,-1156.4858 1802.2409,-1144.4858 1802.2409,-1144.4858 1802.2409,-1138.4858 1808.2409,-1132.4858 1814.2409,-1132.4858 1814.2409,-1132.4858 2073.9011,-1132.4858 2073.9011,-1132.4858 2079.9011,-1132.4858 2085.9011,-1138.4858 2085.9011,-1144.4858 2085.9011,-1144.4858 2085.9011,-1156.4858 2085.9011,-1156.4858 2085.9011,-1162.4858 2079.9011,-1168.4858 2073.9011,-1168.4858"/>
<text text-anchor="middle" x="1944.071" y="-1144.4858" font-family="Arial" font-size="20.00" fill="#7adef4">Predictive Maintenance Model</text>
<text text-anchor="middle" x="1789.378" y="-1114.4858" font-family="Arial" font-size="20.00" fill="#7adef4">lv2</text>
</g>
<!-- regulatory_compliance_dashboard -->
<g id="regulatory_compliance_dashboard" class="node">
<title>regulatory_compliance_dashboard</title>
<path fill="none" stroke="#40fdcb" d="M2732.2573,-838.4858C2732.2573,-838.4858 2386.2287,-838.4858 2386.2287,-838.4858 2380.2287,-838.4858 2374.2287,-832.4858 2374.2287,-826.4858 2374.2287,-826.4858 2374.2287,-814.4858 2374.2287,-814.4858 2374.2287,-808.4858 2380.2287,-802.4858 2386.2287,-802.4858 2386.2287,-802.4858 2732.2573,-802.4858 2732.2573,-802.4858 2738.2573,-802.4858 2744.2573,-808.4858 2744.2573,-814.4858 2744.2573,-814.4858 2744.2573,-826.4858 2744.2573,-826.4858 2744.2573,-832.4858 2738.2573,-838.4858 2732.2573,-838.4858"/>
<text text-anchor="middle" x="2559.243" y="-814.4858" font-family="Arial" font-size="20.00" fill="#40fdcb">API: Regulatory Compliance Dashboard</text>
<text text-anchor="middle" x="2361.208" y="-784.4858" font-family="Arial" font-size="20.00" fill="#40fdcb">lv3</text>
</g>
<!-- battery_spec_fetch -->
<g id="battery_spec_fetch" class="node">
<title>battery_spec_fetch</title>
<path fill="none" stroke="#0074ff" d="M278.526,-703.4858C278.526,-703.4858 116.426,-703.4858 116.426,-703.4858 110.426,-703.4858 104.426,-697.4858 104.426,-691.4858 104.426,-691.4858 104.426,-679.4858 104.426,-679.4858 104.426,-673.4858 110.426,-667.4858 116.426,-667.4858 116.426,-667.4858 278.526,-667.4858 278.526,-667.4858 284.526,-667.4858 290.526,-673.4858 290.526,-679.4858 290.526,-679.4858 290.526,-691.4858 290.526,-691.4858 290.526,-697.4858 284.526,-703.4858 278.526,-703.4858"/>
<text text-anchor="middle" x="197.476" y="-679.4858" font-family="Arial" font-size="20.00" fill="#0074ff">Battery Spec Fetch</text>
<text text-anchor="middle" x="91.673" y="-673.4858" font-family="Arial" font-size="20.00" fill="#0074ff">lv0</text>
</g>
<!-- dmv_record_fetch -->
<g id="dmv_record_fetch" class="node">
<title>dmv_record_fetch</title>
<path fill="none" stroke="#0074ff" d="M278.488,-433.4858C278.488,-433.4858 116.464,-433.4858 116.464,-433.4858 110.464,-433.4858 104.464,-427.4858 104.464,-421.4858 104.464,-421.4858 104.464,-409.4858 104.464,-409.4858 104.464,-403.4858 110.464,-397.4858 116.464,-397.4858 116.464,-397.4858 278.488,-397.4858 278.488,-397.4858 284.488,-397.4858 290.488,-403.4858 290.488,-409.4858 290.488,-409.4858 290.488,-421.4858 290.488,-421.4858 290.488,-427.4858 284.488,-433.4858 278.488,-433.4858"/>
<text text-anchor="middle" x="197.476" y="-409.4858" font-family="Arial" font-size="20.00" fill="#0074ff">DMV Record Fetch</text>
<text text-anchor="middle" x="91.692" y="-403.4858" font-family="Arial" font-size="20.00" fill="#0074ff">lv0</text>
</g>
<!-- threads_crawler -->
<g id="threads_crawler" class="node">
<title>threads_crawler</title>
<path fill="none" stroke="#0074ff" d="M267.2482,-1027.4858C267.2482,-1027.4858 127.7038,-1027.4858 127.7038,-1027.4858 121.7038,-1027.4858 115.7038,-1021.4858 115.7038,-1015.4858 115.7038,-1015.4858 115.7038,-1003.4858 115.7038,-1003.4858 115.7038,-997.4858 121.7038,-991.4858 127.7038,-991.4858 127.7038,-991.4858 267.2482,-991.4858 267.2482,-991.4858 273.2482,-991.4858 279.2482,-997.4858 279.2482,-1003.4858 279.2482,-1003.4858 279.2482,-1015.4858 279.2482,-1015.4858 279.2482,-1021.4858 273.2482,-1027.4858 267.2482,-1027.4858"/>
<text text-anchor="middle" x="197.476" y="-1003.4858" font-family="Arial" font-size="20.00" fill="#0074ff">Threads Crawler</text>
<text text-anchor="middle" x="102.812" y="-973.4858" font-family="Arial" font-size="20.00" fill="#0074ff">lv0</text>
</g>
<!-- x_crawler -->
<g id="x_crawler" class="node">
<title>x_crawler</title>
<path fill="none" stroke="#0074ff" d="M237.2383,-973.4858C237.2383,-973.4858 157.7137,-973.4858 157.7137,-973.4858 151.7137,-973.4858 145.7137,-967.4858 145.7137,-961.4858 145.7137,-961.4858 145.7137,-949.4858 145.7137,-949.4858 145.7137,-943.4858 151.7137,-937.4858 157.7137,-937.4858 157.7137,-937.4858 237.2383,-937.4858 237.2383,-937.4858 243.2383,-937.4858 249.2383,-943.4858 249.2383,-949.4858 249.2383,-949.4858 249.2383,-961.4858 249.2383,-961.4858 249.2383,-967.4858 243.2383,-973.4858 237.2383,-973.4858"/>
<text text-anchor="middle" x="197.476" y="-949.4858" font-family="Arial" font-size="20.00" fill="#0074ff">X Crawler</text>
<text text-anchor="middle" x="132.817" y="-943.4858" font-family="Arial" font-size="20.00" fill="#0074ff">lv0</text>
</g>
<!-- sensor_lidar -->
<g id="sensor_lidar" class="node">
<title>sensor_lidar</title>
<path fill="none" stroke="#17c3ff" d="M830.9933,-892.4858C830.9933,-892.4858 746.5127,-892.4858 746.5127,-892.4858 740.5127,-892.4858 734.5127,-886.4858 734.5127,-880.4858 734.5127,-880.4858 734.5127,-868.4858 734.5127,-868.4858 734.5127,-862.4858 740.5127,-856.4858 746.5127,-856.4858 746.5127,-856.4858 830.9933,-856.4858 830.9933,-856.4858 836.9933,-856.4858 842.9933,-862.4858 842.9933,-868.4858 842.9933,-868.4858 842.9933,-880.4858 842.9933,-880.4858 842.9933,-886.4858 836.9933,-892.4858 830.9933,-892.4858"/>
<text text-anchor="middle" x="788.753" y="-868.4858" font-family="Arial" font-size="20.00" fill="#17c3ff">Lidar Data</text>
<text text-anchor="middle" x="721.855" y="-862.4858" font-family="Arial" font-size="20.00" fill="#17c3ff">lv1</text>
</g>
<!-- kpi_dashboard -->
<g id="kpi_dashboard" class="node">
<title>kpi_dashboard</title>
<path fill="none" stroke="#40fdcb" d="M2644.689,-1108.4858C2644.689,-1108.4858 2473.797,-1108.4858 2473.797,-1108.4858 2467.797,-1108.4858 2461.797,-1102.4858 2461.797,-1096.4858 2461.797,-1096.4858 2461.797,-1084.4858 2461.797,-1084.4858 2461.797,-1078.4858 2467.797,-1072.4858 2473.797,-1072.4858 2473.797,-1072.4858 2644.689,-1072.4858 2644.689,-1072.4858 2650.689,-1072.4858 2656.689,-1078.4858 2656.689,-1084.4858 2656.689,-1084.4858 2656.689,-1096.4858 2656.689,-1096.4858 2656.689,-1102.4858 2650.689,-1108.4858 2644.689,-1108.4858"/>
<text text-anchor="middle" x="2559.243" y="-1084.4858" font-family="Arial" font-size="20.00" fill="#40fdcb">API: KPI Dashboard</text>
<text text-anchor="middle" x="2448.992" y="-1078.4858" font-family="Arial" font-size="20.00" fill="#40fdcb">lv3</text>
</g>
<!-- vehicle_profile -->
<g id="vehicle_profile" class="node">
<title>vehicle_profile</title>
<path fill="none" stroke="#17c3ff" d="M848.5452,-514.4858C848.5452,-514.4858 728.9608,-514.4858 728.9608,-514.4858 722.9608,-514.4858 716.9608,-508.4858 716.9608,-502.4858 716.9608,-502.4858 716.9608,-490.4858 716.9608,-490.4858 716.9608,-484.4858 722.9608,-478.4858 728.9608,-478.4858 728.9608,-478.4858 848.5452,-478.4858 848.5452,-478.4858 854.5452,-478.4858 860.5452,-484.4858 860.5452,-490.4858 860.5452,-490.4858 860.5452,-502.4858 860.5452,-502.4858 860.5452,-508.4858 854.5452,-514.4858 848.5452,-514.4858"/>
<text text-anchor="middle" x="788.753" y="-490.4858" font-family="Arial" font-size="20.00" fill="#17c3ff">Vehicle Profile</text>
<text text-anchor="middle" x="704.079" y="-460.4858" font-family="Arial" font-size="20.00" fill="#17c3ff">lv1</text>
</g>
<!-- customer_sentiment_analysis -->
<g id="customer_sentiment_analysis" class="node">
<title>customer_sentiment_analysis</title>
<path fill="none" stroke="#7adef4" d="M2071.3251,-1276.4858C2071.3251,-1276.4858 1816.8169,-1276.4858 1816.8169,-1276.4858 1810.8169,-1276.4858 1804.8169,-1270.4858 1804.8169,-1264.4858 1804.8169,-1264.4858 1804.8169,-1252.4858 1804.8169,-1252.4858 1804.8169,-1246.4858 1810.8169,-1240.4858 1816.8169,-1240.4858 1816.8169,-1240.4858 2071.3251,-1240.4858 2071.3251,-1240.4858 2077.3251,-1240.4858 2083.3251,-1246.4858 2083.3251,-1252.4858 2083.3251,-1252.4858 2083.3251,-1264.4858 2083.3251,-1264.4858 2083.3251,-1270.4858 2077.3251,-1276.4858 2071.3251,-1276.4858"/>
<text text-anchor="middle" x="1944.071" y="-1252.4858" font-family="Arial" font-size="20.00" fill="#7adef4">Customer Sentiment Analysis</text>
<text text-anchor="middle" x="1792.166" y="-1222.4858" font-family="Arial" font-size="20.00" fill="#7adef4">lv2</text>
</g>
<!-- market_research_fetch -->
<g id="market_research_fetch" class="node">
<title>market_research_fetch</title>
<path fill="none" stroke="#0074ff" d="M330.3482,-379.4858C330.3482,-379.4858 64.6038,-379.4858 64.6038,-379.4858 58.6038,-379.4858 52.6038,-373.4858 52.6038,-367.4858 52.6038,-367.4858 52.6038,-355.4858 52.6038,-355.4858 52.6038,-349.4858 58.6038,-343.4858 64.6038,-343.4858 64.6038,-343.4858 330.3482,-343.4858 330.3482,-343.4858 336.3482,-343.4858 342.3482,-349.4858 342.3482,-355.4858 342.3482,-355.4858 342.3482,-367.4858 342.3482,-367.4858 342.3482,-373.4858 336.3482,-379.4858 330.3482,-379.4858"/>
<text text-anchor="middle" x="197.476" y="-355.4858" font-family="Arial" font-size="20.00" fill="#0074ff">Market Research Report Fetch</text>
<text text-anchor="middle" x="40.012" y="-349.4858" font-family="Arial" font-size="20.00" fill="#0074ff">lv0</text>
</g>
<!-- transaction_logs_import -->
<g id="transaction_logs_import" class="node">
<title>transaction_logs_import</title>
<path fill="none" stroke="#0074ff" d="M301.0763,-649.4858C301.0763,-649.4858 93.8757,-649.4858 93.8757,-649.4858 87.8757,-649.4858 81.8757,-643.4858 81.8757,-637.4858 81.8757,-637.4858 81.8757,-625.4858 81.8757,-625.4858 81.8757,-619.4858 87.8757,-613.4858 93.8757,-613.4858 93.8757,-613.4858 301.0763,-613.4858 301.0763,-613.4858 307.0763,-613.4858 313.0763,-619.4858 313.0763,-625.4858 313.0763,-625.4858 313.0763,-637.4858 313.0763,-637.4858 313.0763,-643.4858 307.0763,-649.4858 301.0763,-649.4858"/>
<text text-anchor="middle" x="197.476" y="-625.4858" font-family="Arial" font-size="20.00" fill="#0074ff">Transaction Logs Import</text>
<text text-anchor="middle" x="68.898" y="-595.4858" font-family="Arial" font-size="20.00" fill="#0074ff">lv0</text>
</g>
<!-- vehicle_manufacture_records_import -->
<g id="vehicle_manufacture_records_import" class="node">
<title>vehicle_manufacture_records_import</title>
<path fill="none" stroke="#0074ff" d="M324.7501,-541.4858C324.7501,-541.4858 70.2019,-541.4858 70.2019,-541.4858 64.2019,-541.4858 58.2019,-535.4858 58.2019,-529.4858 58.2019,-529.4858 58.2019,-517.4858 58.2019,-517.4858 58.2019,-511.4858 64.2019,-505.4858 70.2019,-505.4858 70.2019,-505.4858 324.7501,-505.4858 324.7501,-505.4858 330.7501,-505.4858 336.7501,-511.4858 336.7501,-517.4858 336.7501,-517.4858 336.7501,-529.4858 336.7501,-529.4858 336.7501,-535.4858 330.7501,-541.4858 324.7501,-541.4858"/>
<text text-anchor="middle" x="197.476" y="-517.4858" font-family="Arial" font-size="20.00" fill="#0074ff">Vehicle Manufacture Records</text>
<text text-anchor="middle" x="45.561" y="-511.4858" font-family="Arial" font-size="20.00" fill="#0074ff">lv0</text>
</g>
<!-- customer_profile -->
<g id="customer_profile" class="node">
<title>customer_profile</title>
<path fill="none" stroke="#17c3ff" d="M1431.523,-514.4858C1431.523,-514.4858 1290.743,-514.4858 1290.743,-514.4858 1284.743,-514.4858 1278.743,-508.4858 1278.743,-502.4858 1278.743,-502.4858 1278.743,-490.4858 1278.743,-490.4858 1278.743,-484.4858 1284.743,-478.4858 1290.743,-478.4858 1290.743,-478.4858 1431.523,-478.4858 1431.523,-478.4858 1437.523,-478.4858 1443.523,-484.4858 1443.523,-490.4858 1443.523,-490.4858 1443.523,-502.4858 1443.523,-502.4858 1443.523,-508.4858 1437.523,-514.4858 1431.523,-514.4858"/>
<text text-anchor="middle" x="1361.133" y="-490.4858" font-family="Arial" font-size="20.00" fill="#17c3ff">Customer Profile</text>
<text text-anchor="middle" x="1265.91" y="-460.4858" font-family="Arial" font-size="20.00" fill="#17c3ff">lv1</text>
</g>
<!-- sensor_accelerometer -->
<g id="sensor_accelerometer" class="node">
<title>sensor_accelerometer</title>
<path fill="none" stroke="#17c3ff" d="M872.9413,-838.4858C872.9413,-838.4858 704.5647,-838.4858 704.5647,-838.4858 698.5647,-838.4858 692.5647,-832.4858 692.5647,-826.4858 692.5647,-826.4858 692.5647,-814.4858 692.5647,-814.4858 692.5647,-808.4858 698.5647,-802.4858 704.5647,-802.4858 704.5647,-802.4858 872.9413,-802.4858 872.9413,-802.4858 878.9413,-802.4858 884.9413,-808.4858 884.9413,-814.4858 884.9413,-814.4858 884.9413,-826.4858 884.9413,-826.4858 884.9413,-832.4858 878.9413,-838.4858 872.9413,-838.4858"/>
<text text-anchor="middle" x="788.753" y="-814.4858" font-family="Arial" font-size="20.00" fill="#17c3ff">Accelerometer Data</text>
<text text-anchor="middle" x="679.631" y="-784.4858" font-family="Arial" font-size="20.00" fill="#17c3ff">lv1</text>
</g>
<!-- transaction_data_cleansing -->
<g id="transaction_data_cleansing" class="node">
<title>transaction_data_cleansing</title>
<path fill="none" stroke="#17c3ff" d="M907.9672,-568.4858C907.9672,-568.4858 669.5388,-568.4858 669.5388,-568.4858 663.5388,-568.4858 657.5388,-562.4858 657.5388,-556.4858 657.5388,-556.4858 657.5388,-544.4858 657.5388,-544.4858 657.5388,-538.4858 663.5388,-532.4858 669.5388,-532.4858 669.5388,-532.4858 907.9672,-532.4858 907.9672,-532.4858 913.9672,-532.4858 919.9672,-538.4858 919.9672,-544.4858 919.9672,-544.4858 919.9672,-556.4858 919.9672,-556.4858 919.9672,-562.4858 913.9672,-568.4858 907.9672,-568.4858"/>
<text text-anchor="middle" x="788.753" y="-544.4858" font-family="Arial" font-size="20.00" fill="#17c3ff">Transaction Data Cleansing</text>
<text text-anchor="middle" x="644.618" y="-514.4858" font-family="Arial" font-size="20.00" fill="#17c3ff">lv1</text>
</g>
<!-- sales_dashboard -->
<g id="sales_dashboard" class="node">
<title>sales_dashboard</title>
<path fill="none" stroke="#40fdcb" d="M2681.5171,-1000.4858C2681.5171,-1000.4858 2436.9689,-1000.4858 2436.9689,-1000.4858 2430.9689,-1000.4858 2424.9689,-994.4858 2424.9689,-988.4858 2424.9689,-988.4858 2424.9689,-976.4858 2424.9689,-976.4858 2424.9689,-970.4858 2430.9689,-964.4858 2436.9689,-964.4858 2436.9689,-964.4858 2681.5171,-964.4858 2681.5171,-964.4858 2687.5171,-964.4858 2693.5171,-970.4858 2693.5171,-976.4858 2693.5171,-976.4858 2693.5171,-988.4858 2693.5171,-988.4858 2693.5171,-994.4858 2687.5171,-1000.4858 2681.5171,-1000.4858"/>
<text text-anchor="middle" x="2559.243" y="-976.4858" font-family="Arial" font-size="20.00" fill="#40fdcb">API: Sales Forecast Queries</text>
<text text-anchor="middle" x="2412.328" y="-946.4858" font-family="Arial" font-size="20.00" fill="#40fdcb">lv3</text>
</g>
<!-- government_regulations_fetch -->
<g id="government_regulations_fetch" class="node">
<title>government_regulations_fetch</title>
<path fill="none" stroke="#0074ff" d="M331.7061,-217.4858C331.7061,-217.4858 63.2459,-217.4858 63.2459,-217.4858 57.2459,-217.4858 51.2459,-211.4858 51.2459,-205.4858 51.2459,-205.4858 51.2459,-193.4858 51.2459,-193.4858 51.2459,-187.4858 57.2459,-181.4858 63.2459,-181.4858 63.2459,-181.4858 331.7061,-181.4858 331.7061,-181.4858 337.7061,-181.4858 343.7061,-187.4858 343.7061,-193.4858 343.7061,-193.4858 343.7061,-205.4858 343.7061,-205.4858 343.7061,-211.4858 337.7061,-217.4858 331.7061,-217.4858"/>
<text text-anchor="middle" x="197.476" y="-193.4858" font-family="Arial" font-size="20.00" fill="#0074ff">Government Regulations Fetch</text>
<text text-anchor="middle" x="38.333" y="-163.4858" font-family="Arial" font-size="20.00" fill="#0074ff">lv0</text>
</g>
<!-- news_crawler -->
<g id="news_crawler" class="node">
<title>news_crawler</title>
<path fill="none" stroke="#0074ff" d="M255.8946,-1189.4858C255.8946,-1189.4858 139.0574,-1189.4858 139.0574,-1189.4858 133.0574,-1189.4858 127.0574,-1183.4858 127.0574,-1177.4858 127.0574,-1177.4858 127.0574,-1165.4858 127.0574,-1165.4858 127.0574,-1159.4858 133.0574,-1153.4858 139.0574,-1153.4858 139.0574,-1153.4858 255.8946,-1153.4858 255.8946,-1153.4858 261.8946,-1153.4858 267.8946,-1159.4858 267.8946,-1165.4858 267.8946,-1165.4858 267.8946,-1177.4858 267.8946,-1177.4858 267.8946,-1183.4858 261.8946,-1189.4858 255.8946,-1189.4858"/>
<text text-anchor="middle" x="197.476" y="-1165.4858" font-family="Arial" font-size="20.00" fill="#0074ff">News Crawler</text>
<text text-anchor="middle" x="114.489" y="-1135.4858" font-family="Arial" font-size="20.00" fill="#0074ff">lv0</text>
</g>
<!-- sensor_camera -->
<g id="sensor_camera" class="node">
<title>sensor_camera</title>
<path fill="none" stroke="#17c3ff" d="M844.151,-784.4858C844.151,-784.4858 733.355,-784.4858 733.355,-784.4858 727.355,-784.4858 721.355,-778.4858 721.355,-772.4858 721.355,-772.4858 721.355,-760.4858 721.355,-760.4858 721.355,-754.4858 727.355,-748.4858 733.355,-748.4858 733.355,-748.4858 844.151,-748.4858 844.151,-748.4858 850.151,-748.4858 856.151,-754.4858 856.151,-760.4858 856.151,-760.4858 856.151,-772.4858 856.151,-772.4858 856.151,-778.4858 850.151,-784.4858 844.151,-784.4858"/>
<text text-anchor="middle" x="788.753" y="-760.4858" font-family="Arial" font-size="20.00" fill="#17c3ff">Camera Data</text>
<text text-anchor="middle" x="708.526" y="-730.4858" font-family="Arial" font-size="20.00" fill="#17c3ff">lv1</text>
</g>
<!-- sensor_gear -->
<g id="sensor_gear" class="node">
<title>sensor_gear</title>
<path fill="none" stroke="#17c3ff" d="M830.9953,-946.4858C830.9953,-946.4858 746.5107,-946.4858 746.5107,-946.4858 740.5107,-946.4858 734.5107,-940.4858 734.5107,-934.4858 734.5107,-934.4858 734.5107,-922.4858 734.5107,-922.4858 734.5107,-916.4858 740.5107,-910.4858 746.5107,-910.4858 746.5107,-910.4858 830.9953,-910.4858 830.9953,-910.4858 836.9953,-910.4858 842.9953,-916.4858 842.9953,-922.4858 842.9953,-922.4858 842.9953,-934.4858 842.9953,-934.4858 842.9953,-940.4858 836.9953,-946.4858 830.9953,-946.4858"/>
<text text-anchor="middle" x="788.753" y="-922.4858" font-family="Arial" font-size="20.00" fill="#17c3ff">Gear Data</text>
<text text-anchor="middle" x="721.854" y="-892.4858" font-family="Arial" font-size="20.00" fill="#17c3ff">lv1</text>
</g>
<!-- kpi_benchmarking -->
<g id="kpi_benchmarking" class="node">
<title>kpi_benchmarking</title>
<path fill="none" stroke="#7adef4" d="M2637.8355,-1249.4858C2637.8355,-1249.4858 2480.6505,-1249.4858 2480.6505,-1249.4858 2474.6505,-1249.4858 2468.6505,-1243.4858 2468.6505,-1237.4858 2468.6505,-1237.4858 2468.6505,-1225.4858 2468.6505,-1225.4858 2468.6505,-1219.4858 2474.6505,-1213.4858 2480.6505,-1213.4858 2480.6505,-1213.4858 2637.8355,-1213.4858 2637.8355,-1213.4858 2643.8355,-1213.4858 2649.8355,-1219.4858 2649.8355,-1225.4858 2649.8355,-1225.4858 2649.8355,-1237.4858 2649.8355,-1237.4858 2649.8355,-1243.4858 2643.8355,-1249.4858 2637.8355,-1249.4858"/>
<text text-anchor="middle" x="2559.243" y="-1225.4858" font-family="Arial" font-size="20.00" fill="#7adef4">KPI Benchmarking</text>
<text text-anchor="middle" x="2455.669" y="-1195.4858" font-family="Arial" font-size="20.00" fill="#7adef4">lv2</text>
</g>
<!-- fleet_dashboard -->
<g id="fleet_dashboard" class="node">
<title>fleet_dashboard</title>
<path fill="none" stroke="#40fdcb" d="M2650.9051,-946.4858C2650.9051,-946.4858 2467.5809,-946.4858 2467.5809,-946.4858 2461.5809,-946.4858 2455.5809,-940.4858 2455.5809,-934.4858 2455.5809,-934.4858 2455.5809,-922.4858 2455.5809,-922.4858 2455.5809,-916.4858 2461.5809,-910.4858 2467.5809,-910.4858 2467.5809,-910.4858 2650.9051,-910.4858 2650.9051,-910.4858 2656.9051,-910.4858 2662.9051,-916.4858 2662.9051,-922.4858 2662.9051,-922.4858 2662.9051,-934.4858 2662.9051,-934.4858 2662.9051,-940.4858 2656.9051,-946.4858 2650.9051,-946.4858"/>
<text text-anchor="middle" x="2559.243" y="-922.4858" font-family="Arial" font-size="20.00" fill="#40fdcb">API: Fleet Dashboard</text>
<text text-anchor="middle" x="2442.884" y="-916.4858" font-family="Arial" font-size="20.00" fill="#40fdcb">lv3</text>
</g>
</g>
</svg>
